<?xml version="1.0" encoding="UTF-8"?>
<svg width="100px" height="100px" viewBox="0 0 100 100" version="1.1" xmlns="http://www.w3.org/2000/svg" xmlns:xlink="http://www.w3.org/1999/xlink">
    <!-- Generator: Sketch 51.1 (57501) - http://www.bohemiancoding.com/sketch -->
    <title>001-gloves</title>
    <desc>Created with Sketch.</desc>
    <defs></defs>
    <g id="001-gloves" stroke="none" stroke-width="1" fill="none" fill-rule="evenodd">
        <rect id="Rectangle" x="0" y="0" width="100" height="100"></rect>
        <g transform="translate(9.000000, 5.000000)" fill-rule="nonzero">
            <path d="M23.1327593,5.93998713 C25.3692381,5.10299614 27.8604762,6.23738224 28.6973616,8.47375547 L34.9443475,25.1652407 L26.8457658,28.1962857 L20.5987799,11.5048005 C19.762,9.26832175 20.8962806,6.77687259 23.1327593,5.93998713 Z" id="Shape" fill="#F09318"></path>
            <path d="M55.4977477,14.0539768 C57.256157,12.2955676 60.1069498,12.2955676 61.8653591,14.0539768 C63.6237683,15.8123861 63.6237683,18.6631789 61.8653591,20.4215882 C63.6237683,18.6631789 66.4745611,18.6631789 68.2329704,20.4215882 C69.9913797,22.1799974 69.9913797,25.0307902 68.2329704,26.7891995 L60.2779151,34.7442548 L39.4747156,55.5469266 L32.5085148,62.5131274 L7.0383861,37.0431042 L14.0045869,30.0769035 L34.8075753,9.27391506 L42.7626306,1.31885972 C44.5210399,-0.43954955 47.3718327,-0.43954955 49.130242,1.31885972 C50.8886512,3.07726898 50.8886512,5.92806178 49.130242,7.68647104 C50.8886512,5.92806178 53.739444,5.92806178 55.4978533,7.68647104 C57.256157,9.44477477 57.256157,12.2955676 55.4977477,14.0539768 Z" id="Shape" fill="#FAA330"></path>
            <g id="Group" transform="translate(0.000000, 24.906049)" fill="#F09318">
                <path d="M14.0045869,5.17074903 L39.4747156,30.6408777 C40.7414414,31.9076036 40.7414414,33.9614028 39.4747156,35.2280232 L31.6888314,43.0139073 C29.5609472,45.1417915 26.1108263,45.1417915 23.9829421,43.0139073 L1.63145174,20.662417 C-0.496432432,18.5345328 -0.496432432,15.0844118 1.63145174,12.9565277 L9.41733591,5.1706435 C10.6840618,3.90402317 12.737861,3.9041287 14.0045869,5.17074903 Z" id="Shape"></path>
                <path d="M35.4981905,0.365992278 C37.7346692,-0.470998713 40.2259073,0.663387387 41.0627928,2.89976062 L47.3097786,19.5912458 L39.2111969,22.6222909 L32.9642111,5.93080566 C32.1273256,3.69453797 33.2619228,1.20298327 35.4981905,0.365992278 Z" id="Shape"></path>
            </g>
            <path d="M67.8630734,33.3859254 C69.6214826,31.6275161 72.4722754,31.6275161 74.2306847,33.3859254 C75.989094,35.1443346 75.989094,37.9951274 74.2306847,39.7535367 C75.989094,37.9951274 78.8398867,37.9951274 80.598296,39.7535367 C82.3567053,41.5119459 82.3567053,44.3627387 80.598296,46.121148 L51.8401467,74.8791918 L44.8739459,81.8453925 L19.4038172,56.3751583 L26.370018,49.4089575 L55.1280618,20.6509138 C56.886471,18.8925045 59.7372638,18.8925045 61.4956731,20.6509138 C63.2540824,22.409323 63.2540824,25.2601158 61.4956731,27.0185251 C63.2540824,25.2601158 66.1048752,25.2601158 67.8632844,27.0185251 C69.6214826,28.7767233 69.6214826,31.6276216 67.8630734,33.3859254 Z" id="Shape" fill="#FFCE1C"></path>
            <g id="Group" transform="translate(12.347490, 38.414414)" fill="#FAA330">
                <path d="M68.2509112,1.33901673 C67.588157,0.676262548 66.7701622,0.263518662 65.913964,0.100574003 C66.1838147,1.51589189 65.7709653,3.03547748 64.6755212,4.1312381 L35.9174775,32.8892819 L28.9512767,39.8554826 L32.5267722,43.4309781 L39.492973,36.4647773 L68.2509112,7.70683912 C70.0091094,5.94842986 70.0091094,3.097426 68.2509112,1.33901673 Z" id="Shape"></path>
                <path d="M14.0226332,10.9946486 L39.4926564,36.4647773 C40.7593822,37.7315032 40.7593822,39.7853024 39.4926564,41.0519228 L31.7067722,48.8378069 C29.578888,50.9656911 26.1287671,50.9656911 24.0008829,48.8378069 L1.64949807,26.4863166 C-0.4783861,24.3584324 -0.4783861,20.9083115 1.64949807,18.7804273 L9.43538224,10.9945431 C10.7023192,9.72792278 12.7558018,9.72792278 14.0226332,10.9946486 Z" id="Shape"></path>
            </g>
            <path d="M36.3484788,87.2523269 C38.4763629,89.3802111 41.9264839,89.3802111 44.0543681,87.2523269 L51.8402523,79.4664427 C53.1069781,78.1997169 53.1069781,76.1459176 51.8402523,74.8792973 L46.4772201,69.5160541 C47.7439459,70.7827799 47.7439459,72.8365792 46.4772201,74.1031995 L38.6913359,81.8890837 C36.5634517,84.0169678 33.1133308,84.0169678 30.9854466,81.8890837 L36.3484788,87.2523269 Z" id="Shape" fill="#F09318"></path>
        </g>
    </g>
</svg>