<?xml version="1.0" encoding="UTF-8"?>
<svg width="100px" height="100px" viewBox="0 0 100 100" version="1.1" xmlns="http://www.w3.org/2000/svg" xmlns:xlink="http://www.w3.org/1999/xlink">
    <!-- Generator: Sketch 51.1 (57501) - http://www.bohemiancoding.com/sketch -->
    <title>002-bee</title>
    <desc>Created with Sketch.</desc>
    <defs></defs>
    <g id="002-bee" stroke="none" stroke-width="1" fill="none" fill-rule="evenodd">
        <rect id="Rectangle" x="0" y="0" width="100" height="100"></rect>
        <g transform="translate(8.000000, 13.000000)" fill-rule="nonzero">
            <g id="Group" transform="translate(0.000000, 7.000000)" fill="#333E40">
                <path d="M58.9263087,16.9879712 C58.9243319,16.9879712 58.9224538,16.9879712 58.9205758,16.9879712 C58.2273844,16.9846363 57.6679287,16.4089116 57.6703997,15.7002963 C57.6716847,15.3304258 57.7576788,6.57358956 62.6277115,0.519435653 C63.0681594,-0.0282961056 63.8597003,-0.107019914 64.3954336,0.34349451 C64.9311668,0.79380682 65.0081661,1.60287332 64.5677183,2.1508072 C60.2751309,7.48684637 60.1826131,15.6292529 60.18202,15.7110084 C60.1781651,16.4171984 59.6167325,16.9879712 58.9263087,16.9879712 Z" id="Shape"></path>
                <path d="M69.2166375,19.1427197 C69.2146606,19.1427197 69.2127826,19.1427197 69.2109045,19.1427197 C68.5177132,19.1393848 67.9582574,18.5636601 67.9607285,17.8550447 C67.9620135,17.4851742 68.0480075,8.728338 72.9180403,2.67418409 C73.3586858,2.12645234 74.1500291,2.04772853 74.6857623,2.49824295 C75.2214956,2.94855526 75.2984949,3.75762177 74.858047,4.30555564 C70.5654596,9.64159481 70.4729418,17.7840013 70.4723488,17.8657568 C70.468395,18.5719468 69.9070612,19.1427197 69.2166375,19.1427197 Z" id="Shape"></path>
                <path d="M0.557281196,38.6222641 C-0.14223619,38.7595002 -0.14223619,39.7833139 0.557281196,39.9203479 L10.8534417,43.2236151 L10.8534417,35.3170768 L0.557281196,38.6222641 Z" id="Shape"></path>
            </g>
            <ellipse id="Oval" fill="#D9D9D9" transform="translate(43.000000, 13.500000) rotate(16.887476) translate(-43.000000, -13.500000) " cx="43" cy="13.5" rx="10" ry="10.5"></ellipse>
            <g id="Group" transform="translate(9.000000, 1.000000)" fill="#F0F0F0">
                <path d="M29.1924413,19.2740807 C29.1146192,19.2740807 29.0358007,19.2671131 28.9567829,19.2522948 C28.2701352,19.1248183 27.8180498,18.4739912 27.9469893,17.7977472 C28.0036868,17.4999094 29.3876441,10.4518009 33.7899217,6.21161113 C34.2898363,5.73006578 35.0914733,5.73899601 35.5801281,6.23133614 C36.0688826,6.72348 36.0600142,7.51306913 35.5600996,7.9944182 C31.7362562,11.6775973 30.4475587,18.1932287 30.4351032,18.2585862 C30.3200142,18.8567152 29.7888114,19.2740807 29.1924413,19.2740807 Z" id="Shape"></path>
                <ellipse id="Oval" transform="translate(14.283739, 14.728817) rotate(163.112524) translate(-14.283739, -14.728817) " cx="14.2837394" cy="14.7288175" rx="11.2338489" ry="11.9523652"></ellipse>
            </g>
            <path d="M27.8473461,24 C27.3045553,24 26.8212994,23.5817451 26.7174533,22.9818369 C26.7033172,22.9010365 25.3557645,15.3954503 21.346272,11.1416359 C20.891832,10.6594878 20.883586,9.86858801 21.3280582,9.37562721 C21.7725303,8.8829613 22.5014466,8.87342646 22.9560678,9.35586946 C27.4933088,14.169585 28.9215098,22.1815005 28.9800479,22.5203312 C29.0973051,23.1981892 28.6857266,23.8506864 28.0608377,23.9778831 C27.9891603,23.9928243 27.9176642,24 27.8473461,24 Z" id="Shape" fill="#D9D9D9"></path>
            <path d="M32.4890821,51.8791325 L32.4890821,36.5112132 L39.0372722,23.3245276 L37.6178008,18 C32.8528162,18.9180012 28.4515656,20.5281749 24.6129647,22.6768167 L17.8501295,27.5529058 L14,39.9814307 L14,51.7800495 L18.7183821,62.983567 L24.6127693,68.3231833 C28.4512725,70.4719257 32.8526208,72.0822 37.6176054,73 L40,67.147667 L32.4890821,51.8791325 Z" id="Shape" fill="#FFCE1C"></path>
            <path d="M41,68.38693 C40.3067797,68.2919993 39.6189388,68.1869737 38.9391671,68.0671941 C33.8936904,67.1813681 29.233359,65.6276299 25.1687977,63.5542964 C21.6094876,61.7376059 18.5076346,59.5202262 16,57 L18.9275393,63.3346356 L25.1689012,68.4871023 C25.4230785,68.6166857 25.6792214,68.7442306 25.9377436,68.8696401 C26.7137241,69.2461598 27.5099809,69.6040428 28.3254794,69.9423184 C30.5212114,70.8531874 32.877188,71.624087 35.2303713,72.2126963 C36.4401188,72.5154457 37.6774876,72.778495 38.9389602,73 L41,68.38693 Z" id="Shape" fill="#FAA330"></path>
            <g id="Group" transform="translate(9.000000, 18.000000)" fill="#3B484A">
                <path d="M8.46844786,28.0050584 C8.46844786,36.3850218 11.0782893,44.1450179 15.5150198,50.4905651 C6.10874108,45.3963489 0.0111480643,37.2219181 0.0111480643,28.0050584 C0.0111480643,18.7898834 6.10884061,10.6139662 15.5150198,5.52143469 C11.0783889,11.8668828 8.46844786,19.6270771 8.46844786,28.0050584 Z" id="Shape"></path>
                <path d="M70.80912,40.9487577 C66.7293266,47.134259 59.7351108,51.9572395 50.9242581,54.3353332 C47.0202458,55.3896541 42.759595,55.9638373 38.2382586,55.9638373 C34.9685911,55.9638373 31.7937816,55.6639619 28.7642952,55.0982021 C22.0677923,48.0992911 17.9407192,38.5422224 17.9407192,28.0052566 C17.9407192,17.4697773 22.0679914,7.91290683 28.7642952,0.913995838 C31.7936821,0.348037882 34.9686906,0.0483606168 38.2382586,0.0483606168 C48.5425538,0.0483606168 57.4904679,3.02907913 63.9519656,7.87752827 C65.8565925,9.30723855 67.5463205,10.8969947 68.9891985,12.6215264 L70.80912,40.9487577 Z" id="Shape"></path>
            </g>
            <path d="M60.0607815,67.1951108 C56.1460777,68.2692935 51.8737588,68.8542934 47.3400403,68.8542934 C44.0614186,68.8542934 40.8779146,68.5487688 37.8401317,67.972351 C36.1806095,67.6582442 34.5652028,67.2614458 33,66.7919516 C34.4060076,69.0638999 36.0283011,71.1792492 37.8401317,73.1033679 C38.2199044,73.175458 38.6017732,73.2433075 38.9861372,73.3067144 C45.9638756,74.4603577 53.2262688,74.2012777 60.0607815,72.3260268 C67.2496156,70.353747 74.1539945,66.4413958 78.7732491,60.4221766 C79.2072181,59.8565622 79.6165343,59.2779232 80,58.6872691 L79.7035676,54 C75.5752729,60.0885832 68.6870631,64.8298694 60.0607815,67.1951108 Z" id="Shape" fill="#333E40"></path>
            <path d="M83.9993547,46.981733 C84.0354137,51.6841926 82.5583995,56.3332371 80.0103347,60.2452342 C70.0971316,75.4655971 46.66383,74.5303248 38.4102395,57.442667 C36.84428,54.2017099 36,50.6727581 36,46.981733 C36,41.8615997 37.6254568,37.0539347 40.5464311,32.893344 C46.2297204,24.794658 57.7464445,23.6005357 64.759307,30.5448053 C64.8699879,30.6551898 64.9804685,30.7656758 65.0895467,30.8796145 C65.2002276,30.7657774 65.3107082,30.6553929 65.4197865,30.5448053 C65.4418225,30.5224644 65.4640589,30.5015452 65.4861951,30.4793058 C69.1101183,26.9348169 74.9549717,27.297146 78.1790415,31.2179779 C81.817789,35.6430039 83.9547819,41.1737024 83.9993547,46.981733 Z" id="Shape" fill="#FFCE1C"></path>
            <path d="M83.9884609,45.8285317 C83.9689133,45.2176581 83.9250049,44.6073829 83.8584055,44 C83.4385743,47.6929677 82.1068824,51.2674509 80.0890602,54.3700904 C76.0628457,60.5951167 69.1604832,65.4491931 60.4654395,67.8424213 C58.4063611,68.409312 56.2459102,68.8370731 54,69.113537 C63.3826474,71.7441332 74.1827407,68.5202167 80.088962,59.4384961 C82.3602153,55.9458949 83.757426,51.8508975 83.9717619,47.6634463 C84.0029005,47.0627457 84.0080085,46.4454891 83.9884609,45.8285317 Z" id="Shape" fill="#FAA330"></path>
            <path d="M9.14632167,44 C9.11829386,44.2470076 9.09469657,44.4951488 9.07475926,44.7440113 C9.06782455,44.8304691 9.06243088,44.917133 9.056363,45.0037969 C8.87423041,47.6041267 9.13505276,50.2271272 9.81638852,52.730282 C11.1796379,57.7383436 14.1528008,62.0792682 17.8159677,65.4596763 C19.6491404,67.1511169 21.7244503,68.6757217 24,70 C22.3990439,67.5395073 21.0440777,64.8739477 19.9741089,62.0469109 C13.937632,57.3523234 9.94554759,51.0381201 9.14632167,44 Z" id="Shape" fill="#333E40"></path>
            <g id="Group" transform="translate(52.000000, 44.000000)" fill="#3B484A">
                <path d="M1.2379231,5.17426216 C0.558715507,5.17426216 0.00841992883,4.56025504 0.00841992883,3.80289324 L0.00841992883,1.46236892 C0.00841992883,0.705007117 0.558715507,0.091 1.2379231,0.091 C1.91713069,0.091 2.46742627,0.705007117 2.46742627,1.46236892 L2.46742627,3.80289324 C2.46752305,4.56014709 1.91713069,5.17426216 1.2379231,5.17426216 Z" id="Shape"></path>
                <path d="M24.4278588,5.17426216 C23.7486512,5.17426216 23.1983556,4.56025504 23.1983556,3.80289324 L23.1983556,1.46236892 C23.1983556,0.705007117 23.7486512,0.091 24.4278588,0.091 C25.1070664,0.091 25.657362,0.705007117 25.657362,1.46236892 L25.657362,3.80289324 C25.6574587,4.56014709 25.1070664,5.17426216 24.4278588,5.17426216 Z" id="Shape"></path>
                <path d="M12.8330361,6.42365006 C11.3627423,6.42365006 9.98226114,5.7379656 9.04551986,4.54265955 C8.59848939,3.97237129 8.65065423,3.10598221 9.16204393,2.60758719 C9.67324007,2.10919217 10.4500995,2.16737604 10.8968396,2.73755635 C11.3668071,3.33709846 12.0724359,3.68102017 12.8329393,3.68102017 C13.5936364,3.68102017 14.2990715,3.33720641 14.7688455,2.73755635 C15.215876,2.16726809 15.9927354,2.10886833 16.503738,2.60758719 C17.0150309,3.10598221 17.0673893,3.97237129 16.6203588,4.54265955 C15.6836175,5.7379656 14.3034267,6.42365006 12.8330361,6.42365006 Z" id="Shape"></path>
            </g>
            <circle id="Oval" fill="#FFCE1C" cx="64" cy="9" r="3"></circle>
            <path d="M66.8750531,8.00915828 C66.5452784,9.15945937 65.5880394,10.0571792 64.3672013,10.2133903 C62.887677,10.4028003 61.5302766,9.43816255 61.1247008,8 C61.0104979,8.39890564 60.9703915,8.82778384 61.0225298,9.26717326 C61.2254681,10.97384 62.7228397,12.1867921 64.367101,11.9762556 C66.0113623,11.7656151 67.1799619,10.211413 66.9771239,8.50464218 C66.9569704,8.33396509 66.9201728,8.1695323 66.8750531,8.00915828 Z" id="Shape" fill="#FAA330"></path>
            <circle id="Oval" fill="#FFCE1C" cx="75" cy="11" r="3"></circle>
            <path d="M77.8750535,9.00915828 C77.5452798,10.1594594 76.5880437,11.0571792 75.3672092,11.2133903 C73.8876893,11.4028003 72.530293,10.4381626 72.1247185,9 C72.0104157,9.39890564 71.9704097,9.82778384 72.0225478,10.2671733 C72.2254855,11.97384 73.7228526,13.1867921 75.3671089,12.9762556 C77.0113652,12.7656151 78.1799613,11.211413 77.9771239,9.50464218 C77.9570708,9.33375695 77.9202733,9.16932415 77.8750535,9.00915828 Z" id="Shape" fill="#FAA330"></path>
        </g>
    </g>
</svg>