<?xml version="1.0" encoding="UTF-8"?>
<svg width="100px" height="100px" viewBox="0 0 100 100" version="1.1" xmlns="http://www.w3.org/2000/svg" xmlns:xlink="http://www.w3.org/1999/xlink">
    <!-- Generator: Sketch 51.1 (57501) - http://www.bohemiancoding.com/sketch -->
    <title>003-mower</title>
    <desc>Created with Sketch.</desc>
    <defs></defs>
    <g id="003-mower" stroke="none" stroke-width="1" fill="none" fill-rule="evenodd">
        <rect id="Rectangle" x="0" y="0" width="100" height="100"></rect>
        <g transform="translate(3.000000, 12.000000)" fill-rule="nonzero">
            <path d="M71.4652005,41.8409276 C69.5986928,39.5188043 66.7795848,38.1680142 63.8003535,38.1680142 L61.1485053,38.1680142 C58.5888731,38.1680142 56.5139597,40.2430391 56.5139597,42.8025599 L64.1517106,45.1157628 L72.2377177,42.8025599 L71.4652005,41.8409276 Z" id="Shape" fill="#F0F0F0"></path>
            <path d="M62.1808327,42.8024484 C62.1808327,40.6687711 63.6230581,38.87307 65.5856845,38.334159 C65.0015018,38.2263321 64.4044958,38.1679027 63.8005765,38.1679027 L61.1487284,38.1679027 C58.5890961,38.1679027 56.5141827,40.2429276 56.5141827,42.8024484 L64.1519336,45.1155397 L67.0661566,44.2820285 L62.1808327,42.8024484 Z" id="Shape" fill="#D9D9D9"></path>
            <path d="M74.0302966,42.8024484 L56.5144057,42.8024484 C53.9547734,42.8024484 51.87986,44.8774733 51.87986,47.4369941 L64.1521566,51.049917 L74.1072361,47.4369941 C75.4014923,47.4369941 76.4478695,46.375898 76.4241186,45.0762894 C76.4007023,43.8005433 75.3061542,42.8024484 74.0302966,42.8024484 Z" id="Shape" fill="#FF5E6B"></path>
            <path d="M57.5463986,47.4367711 C57.5463986,44.8771388 59.6212005,42.8022254 62.1809442,42.8022254 L56.5144057,42.8022254 C53.9547734,42.8022254 51.87986,44.8772503 51.87986,47.4367711 L64.1521566,51.049694 L66.6901566,50.1287616 L57.5463986,47.4367711 Z" id="Shape" fill="#E63E4C"></path>
            <g id="Group" transform="translate(8.139976, 0.000000)" fill="#3B484A">
                <path d="M19.7941922,11.6661471 C17.4726263,4.72129775 10.9927592,0.0551957295 3.67023725,0.0551957295 L0.0303297746,3.31486595 L3.67023725,6.57453618 C8.1849134,6.57453618 12.1799692,9.45151601 13.6113784,13.7331435 L24.8783321,47.4368826 L31.0611459,45.3701091 L19.7941922,11.6661471 Z" id="Shape"></path>
                <rect id="Rectangle-path" x="43.7403298" y="47.4369941" width="22.2281566" height="10.6399526"></rect>
            </g>
            <rect id="Rectangle-path" fill="#333E40" x="51.880306" y="47.4369941" width="5.66653855" height="10.6399526"></rect>
            <path d="M85.6169395,61.9562586 L74.1072361,58.0758316 L32.2601756,58.0758316 L28.1345457,61.9562586 L29.9227758,67.8237319 L85.7177414,67.8237319 L85.7177414,63.2304437 C85.7174069,62.7870937 85.6839549,62.3623654 85.6169395,61.9562586 Z" id="Shape" fill="#F0F0F0"></path>
            <polygon id="Shape" fill="#333E40" points="36.5731364 37.5090107 29.6995397 37.5090107 33.0181969 47.4367711 39.2010107 45.3701091"></polygon>
            <path d="M85.6169395,61.9562586 L28.1345457,61.9562586 L23.4653215,46.1058292 C23.0779478,44.623573 24.1963582,43.1755492 25.7284579,43.1755492 L36.6879881,43.1755492 C39.0385457,43.1755492 41.2419146,44.2620688 42.7253974,46.0852005 C43.6963962,47.2786548 44.8066667,48.3446572 46.0272171,49.2606833 C48.171153,50.8699454 50.6577485,52.0210273 53.3398149,52.5929442 C56.040726,53.170325 59.1643582,53.6060925 62.4349561,53.6060925 C75.7282064,53.606204 84.5868422,55.6794448 85.6169395,61.9562586 Z" id="Shape" fill="#FF5E6B"></path>
            <circle id="Oval" fill="#3B484A" cx="29.3726026" cy="61.9567046" r="13.1313428"></circle>
            <circle id="Oval" fill="#B3B3B3" cx="29.3726026" cy="61.9567046" r="5.86669276"></circle>
            <circle id="Oval" fill="#3B484A" cx="85.7171839" cy="66.8923179" r="8.19584104"></circle>
            <circle id="Oval" fill="#B3B3B3" cx="85.7171839" cy="66.8923179" r="3.66187426"></circle>
            <path d="M3.29646738,0.0551957295 C1.49608304,0.0551957295 0.036797153,1.51470463 0.036797153,3.31486595 C0.036797153,5.1152503 1.49608304,6.57453618 3.29646738,6.57453618 L11.810102,6.57453618 L11.810102,0.0551957295 L3.29646738,0.0551957295 Z" id="Shape" fill="#FF5E6B"></path>
        </g>
    </g>
</svg>