<?xml version="1.0" encoding="UTF-8"?>
<svg width="100px" height="100px" viewBox="0 0 100 100" version="1.1" xmlns="http://www.w3.org/2000/svg" xmlns:xlink="http://www.w3.org/1999/xlink">
    <!-- Generator: Sketch 51.1 (57501) - http://www.bohemiancoding.com/sketch -->
    <title>005-apple-tree</title>
    <desc>Created with Sketch.</desc>
    <defs></defs>
    <g id="005-apple-tree" stroke="none" stroke-width="1" fill="none" fill-rule="evenodd">
        <rect id="Rectangle" x="0" y="0" width="100" height="100"></rect>
        <g transform="translate(15.000000, 3.000000)" fill-rule="nonzero">
            <path d="M52.9658427,94.4427885 C49.834382,91.7251282 48.0366292,87.7861699 48.0366292,83.6440545 L48.0366292,60.1029647 L21.9131461,60.1029647 L21.9131461,83.6438301 C21.9131461,87.7862821 20.1150562,91.7251282 16.9839326,94.4427885 L52.9658427,94.4427885 Z" id="Shape" fill="#C86D5C"></path>
            <path d="M25.7198876,83.6440545 L25.7198876,60.1029647 L21.9131461,60.1029647 L21.9131461,83.6438301 C21.9131461,87.7860577 20.1150562,91.7251282 16.9839326,94.4425641 L20.7906742,94.4425641 C23.9217978,91.7253526 25.7198876,87.7861699 25.7198876,83.6440545 Z" id="Shape" fill="#B24D40"></path>
            <path d="M5.58033708,38.6615385 C-2.09730337,42.4923558 2.31460674,54.1074199 10.6060674,51.8916506 C5.59089888,58.8461058 14.9040449,67.0835577 21.2141573,61.2745673 C20.0104494,69.7594872 32.091236,72.7322436 34.9747191,64.6608173 C37.8582022,72.7322436 49.9389888,69.7594872 48.7352809,61.2745673 C55.045618,67.0835577 64.3585393,58.8459936 59.3433708,51.8916506 C67.6348315,54.1074199 72.0467416,42.4923558 64.3691011,38.6615385 C72.7420225,36.7765865 71.2423596,24.4446955 62.6608989,24.614984 C69.197191,19.0609776 62.1293258,8.83761218 54.61,12.9698558 C57.8123596,5.01913462 46.7952809,-0.753733974 42.0607865,6.39423077 C41.1957303,-2.13141026 28.7534831,-2.13141026 27.888427,6.39423077 C23.1539326,-0.753509615 12.1367416,5.01947115 15.3393258,12.9698558 C7.82011236,8.83738782 0.752134831,19.060641 7.28842697,24.614984 C-1.29258427,24.4446955 -2.79247191,36.7764744 5.58033708,38.6615385 Z" id="Shape" fill="#00AE95"></path>
            <g id="Group" transform="translate(19.438202, 11.330128)" fill="#A66354">
                <path d="M3.28573034,8.72633013 C2.5947191,8.72633013 1.98741573,8.2244391 1.87730337,7.52163462 C1.84865169,7.33979167 1.2088764,3.03815705 3.88516854,0.481362179 C4.4547191,-0.0628205128 5.35853933,-0.0428525641 5.90348315,0.525785256 C6.44853933,1.09442308 6.42853933,1.99668269 5.85898876,2.54086538 C4.27382022,4.05528846 4.69303371,7.05048077 4.69775281,7.08043269 C4.81966292,7.8580609 4.28741573,8.58711538 3.50831461,8.70916667 C3.43348315,8.72060897 3.35921348,8.72633013 3.28573034,8.72633013 Z" id="Shape"></path>
                <path d="M1.57011236,36.3899038 C0.879101124,36.3899038 0.271797753,35.8880128 0.161685393,35.1852083 C0.133033708,35.0033654 -0.506741573,30.7017308 2.16955056,28.1449359 C2.73910112,27.6007532 3.64292135,27.6207212 4.18786517,28.189359 C4.73292135,28.7579968 4.71292135,29.6602564 4.14337079,30.2044391 C2.55820225,31.7188622 2.97741573,34.7140545 2.98213483,34.7440064 C3.10404494,35.5215224 2.57179775,36.2506891 1.79269663,36.3727404 C1.71786517,36.3841827 1.64359551,36.3899038 1.57011236,36.3899038 Z" id="Shape"></path>
                <path d="M27.7877528,8.72633013 C27.7142697,8.72633013 27.64,8.72060897 27.5651685,8.70894231 C26.7877528,8.58733974 26.2558427,7.86064103 26.3751685,7.08458333 C26.3837079,7.02591346 26.7986517,4.05405449 25.2144944,2.54064103 C24.6449438,1.99645833 24.6249438,1.0943109 25.17,0.525560897 C25.7148315,-0.0433012821 26.6186517,-0.0630448718 27.1883146,0.481137821 C29.8647191,3.03793269 29.2248315,7.33945513 29.1961798,7.52141026 C29.0859551,8.22432692 28.4786517,8.72633013 27.7877528,8.72633013 Z" id="Shape"></path>
                <path d="M29.5033708,36.3899038 C29.4298876,36.3899038 29.355618,36.3841827 29.2807865,36.372516 C28.5034831,36.2509135 27.9714607,35.5242147 28.0907865,34.7481571 C28.0988764,34.6920673 28.5148315,31.7181891 26.9301124,30.2042147 C26.3605618,29.6600321 26.3405618,28.7578846 26.885618,28.1891346 C27.4304494,27.6202724 28.3342697,27.6005288 28.9039326,28.1447115 C31.5803371,30.7015064 30.9404494,35.0030288 30.9117978,35.184984 C30.801573,35.8880128 30.1941573,36.3899038 29.5033708,36.3899038 Z" id="Shape"></path>
                <path d="M15.5338202,23.5687981 C14.8430337,23.5687981 14.2368539,23.0691506 14.1265169,22.3664583 C14.0978652,22.1846154 13.4580899,17.8828686 16.134382,15.3260737 C16.7039326,14.781891 17.6077528,14.801859 18.1526966,15.3704968 C18.6977528,15.9391346 18.6777528,16.8413942 18.1082022,17.3855769 C16.5165169,18.9062821 16.9431461,21.900016 16.9477528,21.9303045 C17.0638202,22.7066987 16.5296629,23.4335096 15.7522472,23.5521955 C15.6788764,23.5634135 15.6060674,23.5687981 15.5338202,23.5687981 Z" id="Shape"></path>
            </g>
            <g id="Group" transform="translate(25.955056, 75.608974)" fill="#3B484A">
                <path d="M1.50022472,4.24049679 C0.711910112,4.24049679 0.0728089888,3.60241987 0.0728089888,2.81536859 L0.0728089888,1.45665064 C0.0728089888,0.669599359 0.711910112,0.0315224359 1.50022472,0.0315224359 C2.28853933,0.0315224359 2.92764045,0.669599359 2.92764045,1.45665064 L2.92764045,2.81536859 C2.92786517,3.60230769 2.28853933,4.24049679 1.50022472,4.24049679 Z" id="Shape"></path>
                <path d="M16.5394382,4.24049679 C15.7511236,4.24049679 15.1120225,3.60241987 15.1120225,2.81536859 L15.1120225,1.45665064 C15.1120225,0.669599359 15.7511236,0.0315224359 16.5394382,0.0315224359 C17.3277528,0.0315224359 17.9668539,0.669599359 17.9668539,1.45665064 L17.9668539,2.81536859 C17.9668539,3.60230769 17.3278652,4.24049679 16.5394382,4.24049679 Z" id="Shape"></path>
                <path d="M9.02,4.96584936 C7.88483146,4.96584936 6.81662921,4.48942308 6.08921348,3.65873397 C5.57044944,3.06620192 5.63078652,2.16596154 6.22426966,1.64780449 C6.81775281,1.12987179 7.7194382,1.19011218 8.23842697,1.78264423 C8.42359551,1.99399038 8.70842697,2.11525641 9.01977528,2.11525641 C9.3311236,2.11525641 9.61595506,1.99410256 9.80089888,1.78264423 C10.3196629,1.19 11.2214607,1.12942308 11.8150562,1.64780449 C12.4086517,2.16573718 12.4693258,3.06608974 11.9501124,3.65873397 C11.2233708,4.48942308 10.1552809,4.96584936 9.02,4.96584936 Z" id="Shape"></path>
            </g>
            <ellipse id="Oval" fill="#FF5E6B" cx="22.7251685" cy="21.4367147" rx="5.96314607" ry="5.43341346"></ellipse>
            <path d="M24.6288764,24.9691346 C21.3359551,24.9691346 18.6666292,22.5365224 18.6666292,19.5357212 C18.6666292,18.5901603 18.9321348,17.70125 19.3983146,16.926875 C17.8088764,17.9028365 16.7633708,19.5580449 16.7633708,21.4359295 C16.7633708,24.4368429 19.4326966,26.8693429 22.725618,26.8693429 C24.9811236,26.8693429 26.9433708,25.7279167 27.9564045,24.0447756 C27.0059551,24.6284455 25.8610112,24.9691346 24.6288764,24.9691346 Z" id="Shape" fill="#E63E4C"></path>
            <ellipse id="Oval" fill="#FF5E6B" cx="21.0103371" cy="49.0989423" rx="5.96314607" ry="5.43341346"></ellipse>
            <path d="M22.9132584,52.6329327 C19.6203371,52.6329327 16.9510112,50.2003205 16.9510112,47.1995192 C16.9510112,46.2539583 17.2165169,45.3650481 17.6826966,44.5906731 C16.0932584,45.5666346 15.0477528,47.2219551 15.0477528,49.0997276 C15.0477528,52.100641 17.7170787,54.533141 21.01,54.533141 C23.2655056,54.533141 25.2277528,53.3919391 26.2407865,51.7083494 C25.2905618,52.2922436 24.145618,52.6329327 22.9132584,52.6329327 Z" id="Shape" fill="#E63E4C"></path>
            <ellipse id="Oval" fill="#FF5E6B" cx="47.2246067" cy="21.4367147" rx="5.96314607" ry="5.43341346"></ellipse>
            <path d="M49.1276404,24.9691346 C45.8347191,24.9691346 43.1653933,22.5365224 43.1653933,19.5357212 C43.1653933,18.5901603 43.4308989,17.70125 43.8970787,16.926875 C42.3076404,17.9028365 41.2621348,19.5580449 41.2621348,21.4359295 C41.2621348,24.4368429 43.9314607,26.8693429 47.224382,26.8693429 C49.4798876,26.8693429 51.4421348,25.7279167 52.4551685,24.0447756 C51.5048315,24.6284455 50.3598876,24.9691346 49.1276404,24.9691346 Z" id="Shape" fill="#E63E4C"></path>
            <ellipse id="Oval" fill="#FF5E6B" cx="48.9395506" cy="49.0989423" rx="5.96314607" ry="5.43341346"></ellipse>
            <path d="M50.8432584,52.6329327 C47.5503371,52.6329327 44.8810112,50.2003205 44.8810112,47.1995192 C44.8810112,46.2539583 45.1465169,45.3650481 45.6126966,44.5906731 C44.0232584,45.5666346 42.9777528,47.2219551 42.9777528,49.0997276 C42.9777528,52.100641 45.6470787,54.533141 48.94,54.533141 C51.1955056,54.533141 53.1577528,53.3919391 54.1707865,51.7083494 C53.2203371,52.2922436 52.0753933,52.6329327 50.8432584,52.6329327 Z" id="Shape" fill="#E63E4C"></path>
            <ellipse id="Oval" fill="#FF5E6B" cx="34.9750562" cy="36.2815385" rx="5.96314607" ry="5.43341346"></ellipse>
            <path d="M36.8782022,39.8144071 C33.5852809,39.8144071 30.9159551,37.3817949 30.9159551,34.3809936 C30.9159551,33.4354327 31.1814607,32.5465224 31.6476404,31.7721474 C30.0582022,32.748109 29.0126966,34.4034295 29.0126966,36.2812019 C29.0126966,39.2821154 31.6820225,41.7146154 34.9749438,41.7146154 C37.2304494,41.7146154 39.1926966,40.5731891 40.2057303,38.8898237 C39.2551685,39.4734936 38.1104494,39.8144071 36.8782022,39.8144071 Z" id="Shape" fill="#E63E4C"></path>
        </g>
    </g>
</svg>