<?xml version="1.0" encoding="UTF-8"?>
<svg width="100px" height="100px" viewBox="0 0 100 100" version="1.1" xmlns="http://www.w3.org/2000/svg" xmlns:xlink="http://www.w3.org/1999/xlink">
    <!-- Generator: Sketch 51.1 (57501) - http://www.bohemiancoding.com/sketch -->
    <title>006-palm-tree</title>
    <desc>Created with Sketch.</desc>
    <defs></defs>
    <g id="006-palm-tree" stroke="none" stroke-width="1" fill="none" fill-rule="evenodd">
        <rect id="Rectangle" x="0" y="0" width="100" height="100"></rect>
        <g transform="translate(24.000000, 4.000000)" fill-rule="nonzero">
            <path d="M45.6556067,60.7589142 L25.422288,57.2946609 L5.18907832,60.7586963 C2.25326858,64.844571 0.523539478,69.8554671 0.523539478,75.2707877 C0.523539478,78.1165801 1.00130739,80.850777 1.88077525,83.3979644 C3.60876067,88.4016679 8.33336662,91.7490947 13.6269567,91.7490947 L37.2177284,91.7490947 C42.5112094,91.7490947 47.2359244,88.4016679 48.9638008,83.3979644 C49.8432687,80.8509949 50.3210366,78.116798 50.3210366,75.2707877 C50.3212545,69.8556851 48.5914165,64.8447889 45.6556067,60.7589142 Z" id="Shape" fill="#FF5E6B"></path>
            <path d="M9.26514484,83.3979644 C8.38567698,80.8512129 7.90790906,78.116798 7.90790906,75.2707877 C7.90790906,69.8555761 9.63774714,64.844571 12.5734479,60.7586963 L29.1146363,57.9266354 L25.422397,57.2946609 L5.18907832,60.7589142 C2.25326858,64.8447889 0.523539478,69.8556851 0.523539478,75.2710057 C0.523539478,78.116798 1.00130739,80.8512129 1.88077525,83.3981823 C3.60865169,88.4017768 8.33336662,91.7490947 13.6269567,91.7490947 L21.0111083,91.7490947 C15.7176272,91.7490947 10.9928033,88.4016679 9.26514484,83.3979644 Z" id="Shape" fill="#E63E4C"></path>
            <path d="M32.2814834,39.1990921 L25.422288,35.6993113 L18.5633106,39.1990921 C18.1719637,41.8655035 17.6138776,44.6219323 16.825626,47.1928773 L25.2805052,50.4257663 L34.0192771,47.1928773 C33.2308074,44.6219323 32.6728303,41.8655035 32.2814834,39.1990921 Z" id="Shape" fill="#FAA330"></path>
            <path d="M22.3637669,47.1928773 C23.1520186,44.6219323 23.7101047,41.8655035 24.1014515,39.1990921 L28.1914675,37.1123448 L25.422288,35.6994203 L18.5633106,39.1992011 C18.1719637,41.8656125 17.6138776,44.6220413 16.825626,47.1929863 L25.2805052,50.4258753 L28.0953472,49.3845722 L22.3637669,47.1928773 Z" id="Shape" fill="#F09318"></path>
            <path d="M18.5633106,39.1990921 C19.6660783,31.7127173 19.4694785,24.9323144 19.4694785,24.9323144 L25.422288,20.7302671 L31.3750975,24.9323144 C31.3750975,24.9323144 31.1784978,31.7128263 32.2812655,39.1990921 L18.5633106,39.1990921 Z" id="Shape" fill="#FFCE1C"></path>
            <path d="M25.0076195,24.9324233 L28.1914675,22.6851487 L25.422288,20.730485 L19.4694785,24.9325323 C19.4694785,24.9325323 19.6660783,31.7130442 18.5633106,39.1992011 L24.1014515,39.1992011 C25.2044372,31.7127173 25.0076195,24.9324233 25.0076195,24.9324233 Z" id="Shape" fill="#FAA330"></path>
            <path d="M40.3051292,57.2952058 L10.5394469,57.2952058 C13.5072967,55.3290993 15.4960711,51.5239568 16.825517,47.1927683 L34.0191681,47.1927683 C35.348614,51.5240658 37.3371703,55.3289903 40.3051292,57.2952058 Z" id="Shape" fill="#FFCE1C"></path>
            <path d="M22.3637669,47.1928773 L16.825626,47.1928773 C15.4961801,51.5240658 13.5076237,55.3289903 10.5395559,57.2953148 L16.0776968,57.2953148 C19.0457646,55.3289903 21.034321,51.5240658 22.3637669,47.1928773 Z" id="Shape" fill="#FAA330"></path>
            <path d="M46.7944468,53.8304076 L4.0501293,53.8304076 C2.13687804,53.8304076 0.586093945,55.3815186 0.586093945,57.2944429 C0.586093945,59.2076942 2.137096,60.7584783 4.0501293,60.7584783 L46.7944468,60.7584783 C48.707698,60.7584783 50.2584821,59.2074762 50.2584821,57.2944429 C50.2587001,55.3815186 48.707698,53.8304076 46.7944468,53.8304076 Z" id="Shape" fill="#F0F0F0"></path>
            <path d="M7.97024557,57.2944429 C7.97024557,55.3811917 9.52124762,53.8304076 11.4342809,53.8304076 L4.0501293,53.8304076 C2.13687804,53.8304076 0.586093945,55.3814096 0.586093945,57.2944429 C0.586093945,59.2076942 2.137096,60.7584783 4.0501293,60.7584783 L11.4342809,60.7584784 C9.52102966,60.7589142 7.97024557,59.2076942 7.97024557,57.2944429 Z" id="Shape" fill="#D9D9D9"></path>
            <g id="Group" transform="translate(11.878810, 71.490820)" fill="#3B484A">
                <path d="M1.46142057,4.9960749 C0.696599572,4.9960749 0.076939815,4.37619718 0.076939815,3.61159415 L0.076939815,1.42480332 C0.076939815,0.660200282 0.696599572,0.0403225659 1.46142057,0.0403225659 C2.22624156,0.0403225659 2.84590132,0.660200282 2.84590132,1.42480332 L2.84590132,3.61159415 C2.84590132,4.37619718 2.22613258,4.9960749 1.46142057,4.9960749 Z" id="Shape"></path>
                <path d="M25.6255356,4.9960749 C24.8607146,4.9960749 24.2410548,4.37619718 24.2410548,3.61159415 L24.2410548,1.42480332 C24.2410548,0.660200282 24.8607146,0.0403225659 25.6255356,0.0403225659 C26.3903566,0.0403225659 27.0100163,0.660200282 27.0100163,1.42480332 L27.0100163,3.61159415 C27.0101253,4.37619718 26.3903566,4.9960749 25.6255356,4.9960749 Z" id="Shape"></path>
                <path d="M13.5434781,6.1633587 C11.981578,6.1633587 10.5147085,5.50980619 9.51885006,4.37053023 C9.01568983,3.79478938 9.07443,2.92011663 9.65017085,2.4169564 C10.2259117,1.91390514 11.1003665,1.97253633 11.6037447,2.54827719 C12.0735571,3.08587507 12.7804007,3.39407025 13.5431511,3.39407025 C14.3057925,3.39407025 15.0127452,3.08587507 15.4827755,2.54805923 C15.9858268,1.97231837 16.8608265,1.91346922 17.4362404,2.41684742 C18.0119812,2.92000765 18.0709394,3.7946804 17.5674522,4.37042125 C16.5719207,5.51002415 15.1051601,6.1633587 13.5434781,6.1633587 Z" id="Shape"></path>
            </g>
            <path d="M25.422288,20.730594 C26.2709146,15.7859576 23.2738581,9.42272978 17.4693703,4.86028594 C11.6649914,0.298169028 4.77375589,-1.1108322 0.169790697,0.881974395 C-0.678835847,5.82661078 2.3182206,12.1898386 8.12270846,16.7522825 C13.9269784,21.3145084 20.8179959,22.7232916 25.422288,20.730594 Z" id="Shape" fill="#2FC8B4"></path>
            <g id="Group" transform="translate(7.846553, 0.000000)" fill="#00AE95">
                <path d="M17.5757347,20.730594 C17.6677137,20.1952847 17.7115236,19.6430835 17.714793,19.0787855 L2.24738366,6.92131396 C1.64614151,6.44877707 0.775610005,6.55307085 0.303291084,7.154313 C-0.169027837,7.75555515 -0.0649520251,8.62608666 0.536290127,9.09840558 L16.0036995,21.2558772 C16.5512145,21.1195433 17.0775875,20.9461563 17.5757347,20.730594 Z" id="Shape"></path>
                <path d="M17.5757347,20.730594 C16.7271081,15.7859576 19.7241646,9.42272978 25.5286524,4.86028594 C31.3331403,0.297951068 38.2242668,-1.1108322 42.82845,0.881974395 C43.6770765,5.82661078 40.68002,12.1898386 34.8755322,16.7522825 C29.0712623,21.3145084 22.1800268,22.7232916 17.5757347,20.730594 Z" id="Shape"></path>
            </g>
            <g id="Group" transform="translate(25.174359, 6.538794)" fill="#2FC8B4">
                <path d="M17.5205908,0.6156275 C17.0482719,0.0142763679 16.1775224,-0.0896904643 15.5764982,0.382628457 L0.109088888,12.540209 C0.112358285,13.104289 0.156168208,13.6569261 0.24814725,14.1920175 C0.74629441,14.4075798 1.27266737,14.5810758 1.8202914,14.7171917 L17.2875918,2.55982906 C17.8888339,2.0871832 17.9929097,1.21665169 17.5205908,0.6156275 Z" id="Shape"></path>
                <path d="M0.247929291,14.1917995 C-0.600697253,19.1364359 2.3963592,25.4996638 8.20084705,30.0621076 C14.0052259,34.6244425 20.8964614,36.0333347 25.5005356,34.0404192 C26.3491621,29.0957828 23.3521057,22.7325549 17.5476178,18.1701111 C11.7434569,13.6079942 4.85222142,12.1989929 0.247929291,14.1917995 Z" id="Shape"></path>
            </g>
            <g id="Group" transform="translate(0.000000, 19.834343)" fill="#00AE95">
                <path d="M25.422288,0.896250763 C25.330309,1.43112415 25.2864991,1.98376126 25.2832297,2.54795025 L40.750639,14.7054218 C41.0042353,14.9048551 41.3060006,15.0014113 41.6053684,15.0014113 C42.0155688,15.0014113 42.421628,14.8198507 42.6947316,14.4724228 C43.1672685,13.8711806 43.0629747,13.0006491 42.4617326,12.5283302 L26.9944322,0.370858627 C26.4471351,0.507301472 25.9206532,0.680579525 25.422288,0.896250763 Z" id="Shape"></path>
                <path d="M25.422288,0.896250763 C26.2709146,5.84088715 23.2738581,12.204115 17.4693703,16.7665588 C11.6649914,21.3288937 4.77375589,22.737786 0.169681717,20.7448704 C-0.678944827,15.800234 2.31811162,9.43700615 8.12259948,4.8745623 C13.9269784,0.312445396 20.8179959,-1.09655583 25.422288,0.896250763 Z" id="Shape"></path>
            </g>
            <path d="M25.422288,20.730594 C24.9241409,20.5150318 24.397441,20.3415357 23.8500349,20.2052019 L8.38262554,32.3626735 C7.78138339,32.8352104 7.67730758,33.7056329 8.1496265,34.306766 C8.42273015,34.654412 8.82900724,34.8357545 9.23898966,34.8357545 C9.53846644,34.8357545 9.84001385,34.7389804 10.0937191,34.5397651 L25.5611284,22.3822935 C25.558077,21.8179955 25.5142671,21.2656854 25.422288,20.730594 Z" id="Shape" fill="#2FC8B4"></path>
        </g>
    </g>
</svg>