<?xml version="1.0" encoding="UTF-8"?>
<svg width="100px" height="100px" viewBox="0 0 100 100" version="1.1" xmlns="http://www.w3.org/2000/svg" xmlns:xlink="http://www.w3.org/1999/xlink">
    <!-- Generator: Sketch 51.1 (57501) - http://www.bohemiancoding.com/sketch -->
    <title>007-butterfly</title>
    <desc>Created with Sketch.</desc>
    <defs></defs>
    <g id="007-butterfly" stroke="none" stroke-width="1" fill="none" fill-rule="evenodd">
        <rect id="Rectangle" x="0" y="0" width="100" height="100"></rect>
        <g transform="translate(5.000000, 11.000000)" fill-rule="nonzero">
            <g id="Group" transform="translate(28.718861, 2.455516)" fill="#3B484A">
                <path d="M11.9496085,20.5485053 C11.8774377,20.5485053 11.8040925,20.5427402 11.7303203,20.5307829 C10.9921708,20.4106762 10.490605,19.7160854 10.6085765,18.9780427 C10.6129537,18.9497509 11.0393594,16.1181139 10.0308897,12.6973665 C8.70096085,8.18572954 5.60338078,4.79113879 0.824199288,2.60743772 C0.142740214,2.29622776 -0.157153025,1.49145907 0.154270463,0.810213523 C0.465480427,0.12886121 1.26950178,-0.17113879 1.95149466,0.140177936 C8.89153025,3.31099644 11.6102135,8.36935943 12.6691815,12.0545552 C13.814306,16.0400712 13.3091103,19.273879 13.2869039,19.409573 C13.1786477,20.0752313 12.6027758,20.5485053 11.9496085,20.5485053 Z" id="Shape"></path>
                <path d="M20.5645196,20.5485053 C19.9112456,20.5485053 19.3354804,20.0752313 19.227331,19.4096797 C19.2052313,19.2739858 18.6999288,16.0401779 19.8450534,12.0546619 C20.9038078,8.36957295 23.6224911,3.3111032 30.5627402,0.140284698 C31.2449466,-0.170925267 32.048968,0.129074733 32.3600712,0.810320285 C32.6714947,1.49177936 32.3714947,2.29633452 31.6901423,2.60754448 C26.8716726,4.80896797 23.7635231,8.23953737 22.4523843,12.8038078 C21.4733808,16.2114235 21.9003203,18.9471886 21.9048043,18.9745196 C22.0250178,19.7137367 21.5231317,20.4108897 20.7837011,20.5308897 C20.7100356,20.5427402 20.6367972,20.5485053 20.5645196,20.5485053 Z" id="Shape"></path>
            </g>
            <g id="Group" transform="translate(2.775801, 22.419929)" fill="#FFCE1C">
                <polygon id="Shape" points="57.8176868 7.56918149 64.204911 2.56622776 72.5931673 0.0383274021 81.0961922 4.74939502 84.3136655 12.6782562 80.8666548 21.4111388 76.3852313 26.2371886 72.3633096 29.1100356 75.351032 34.2808185 75.5807829 39.6001068 74.5466904 45.383274 70.1802491 48.7590747 62.7111032 49.6782918 55.8167616 47.6101068 48.232847 38.4175089 49.2668327 23.0197153"></polygon>
                <polygon id="Shape" points="26.582669 7.56918149 20.1953381 2.56622776 11.8070819 0.0383274021 3.30395018 4.74939502 0.0864768683 12.6782562 3.53359431 21.4111388 8.01501779 26.2371886 12.0368327 29.1100356 9.04932384 34.2808185 8.81935943 39.6001068 9.85355872 45.383274 14.2201068 48.7590747 21.6890391 49.6782918 28.5835943 47.6101068 36.1672954 38.4175089 35.1333096 23.0197153"></polygon>
            </g>
            <path d="M66.4919573,76.3793594 C66.7739146,76.3793594 67.0561922,76.3722064 67.33879,76.3577936 C70.3719929,76.2045907 73.2879715,75.2416014 75.7713523,73.573452 C78.332669,71.8530961 80.2519217,69.5056228 81.3213523,66.784911 C83.0691459,62.3389324 82.3624911,57.4419929 79.4192883,52.873879 C81.9706762,51.4842705 84.1187189,49.6902491 85.8351246,47.5104982 C88.2058719,44.4998221 89.6011388,40.8921352 89.8699644,37.0782918 C90.3664057,30.0376868 86.8816014,23.4670463 81.1988968,20.7285053 C77.9858007,19.1799288 74.249573,18.9057651 70.3947331,19.9351601 C66.3648043,21.0114235 62.2280071,23.4803915 58.0992171,27.2735231 L62.7634164,32.3507829 C68.5954804,26.9930605 74.2243772,25.0210676 78.2058363,26.9394662 C81.3687544,28.4635943 83.2923843,32.3434164 82.9927046,36.5934875 C82.4475801,44.3250534 75.7221352,47.2828826 72.8558007,48.195694 C71.7179359,48.5580427 70.8485765,49.4835587 70.5581851,50.6418149 C70.2677936,51.8002847 70.5976868,53.0264413 71.4297865,53.8827758 C74.8990036,57.4520285 76.1330605,61.1382918 74.9049822,64.2621352 C73.7511032,67.1971174 70.5708897,69.2909253 66.9906406,69.4717794 C62.5350534,69.6976868 58.4963701,66.9477224 55.9118861,61.9290747 L49.7825979,65.086121 C51.7884342,68.9806762 54.4446619,71.9453381 57.6777224,73.8974733 C60.3784698,75.5284698 63.4091103,76.3793594 66.4919573,76.3793594 Z" id="Shape" fill="#FF5E6B"></path>
            <g id="Group" transform="translate(63.096085, 31.814947)" fill="#FAA330">
                <circle id="Oval" cx="10.2041637" cy="4.37402135" r="4.30900356"></circle>
                <circle id="Oval" cx="3.42234875" cy="29.2080427" r="3.39106762"></circle>
            </g>
            <path d="M23.4598932,76.3793594 C23.1779359,76.3793594 22.8956584,76.3722064 22.6130605,76.3577936 C19.5799644,76.2045907 16.663879,75.2416014 14.1804982,73.573452 C11.6191815,71.8530961 9.69992883,69.5056228 8.63049822,66.784911 C6.88270463,62.3389324 7.58935943,57.4419929 10.5325623,52.873879 C7.98117438,51.4842705 5.83313167,49.6902491 4.11672598,47.5104982 C1.74608541,44.4998221 0.351032028,40.8921352 0.0820996441,37.0782918 C-0.414341637,30.0376868 3.07046263,23.4670463 8.75316726,20.7285053 C11.9662633,19.1799288 15.7024911,18.9057651 19.557331,19.9351601 C23.5872598,21.0114235 27.7240569,23.4803915 31.852847,27.2735231 L27.1886477,32.3507829 C21.3565836,26.9930605 15.7276868,25.0210676 11.7462278,26.9394662 C8.58330961,28.4635943 6.65967972,32.3434164 6.95935943,36.5934875 C7.50448399,44.3250534 14.2299288,47.2828826 17.0962633,48.195694 C18.2341281,48.5580427 19.1034875,49.4835587 19.393879,50.6418149 C19.6842705,51.8002847 19.3543772,53.0264413 18.5222776,53.8827758 C15.0530605,57.4520285 13.8190036,61.1382918 15.0470819,64.2621352 C16.2009609,67.1971174 19.3813879,69.2909253 22.9614235,69.4717794 C27.4170107,69.6976868 31.455694,66.9477224 34.0401779,61.9290747 L40.1696797,65.0858007 C38.1638434,68.9803559 35.5076157,71.9450178 32.2745552,73.897153 C29.5734875,75.5284698 26.5426335,76.3793594 23.4598932,76.3793594 Z" id="Shape" fill="#FF5E6B"></path>
            <g id="Group" transform="translate(12.277580, 31.814947)" fill="#FAA330">
                <circle id="Oval" cx="4.37391459" cy="4.37402135" r="4.30900356"></circle>
                <circle id="Oval" cx="11.1557295" cy="29.2080427" r="3.39106762"></circle>
            </g>
            <g id="Group" transform="translate(28.932384, 61.921708)" fill="#E63E4C">
                <path d="M26.979395,0.00779359431 L20.8498932,3.16451957 C22.6145552,6.59145907 24.8836655,9.29711744 27.6053381,11.2279004 C29.3128826,9.75982206 30.8047687,7.95565836 32.0056228,5.8694306 C30.0381139,4.58508897 28.3144484,2.59996441 26.979395,0.00779359431 Z" id="Shape"></path>
                <path d="M0.08113879,5.8694306 C1.28209964,7.95565836 2.773879,9.75960854 4.48142349,11.2279004 C7.20330961,9.29733096 9.47231317,6.59145907 11.2368683,3.16451957 L5.10736655,0.00779359431 C3.77263345,2.59996441 2.04907473,4.58508897 0.08113879,5.8694306 Z" id="Shape"></path>
            </g>
            <path d="M57.0395018,63.5078648 C58.0323843,61.2843416 58.5924555,58.7541993 58.5924555,56.0688256 C58.5924555,55.515694 58.5684342,54.968968 58.5216726,54.4295018 L31.4301779,54.4295018 C31.3836299,54.968968 31.359395,55.5152669 31.359395,56.0688256 C31.359395,58.7541993 31.9193594,61.2844484 32.9123488,63.5078648 L44.9759786,69.6108897 L57.0395018,63.5078648 Z" id="Shape" fill="#FAA330"></path>
            <g id="Group" transform="translate(31.387900, 40.035587)" fill="#FF5E6B">
                <path d="M27.133879,14.3941281 C23.5660142,16.1608185 18.8105338,17.2397509 13.5879715,17.2397509 C8.36540925,17.2397509 3.60992883,16.1608185 0.0420640569,14.3941281 C0.738256228,6.3119573 6.53829181,0.00362989324 13.5879715,0.00362989324 C20.6376512,0.00362989324 26.4376868,6.3119573 27.133879,14.3941281 Z" id="Shape"></path>
                <path d="M25.6516014,23.4722776 C23.3746975,28.5793238 18.8278292,32.0627402 13.5879715,32.0627402 C8.34811388,32.0627402 3.80124555,28.5793238 1.52434164,23.4722776 C4.88188612,24.8406406 9.06,25.6510676 13.5879715,25.6510676 C18.1159431,25.6510676 22.2940569,24.8408541 25.6516014,23.4722776 Z" id="Shape"></path>
            </g>
            <path d="M32.9123488,63.5078648 L39.3623488,66.7711388 C38.6109609,65.7857295 37.9607829,64.6908897 37.4333808,63.5078648 C36.4404982,61.2843416 35.880427,58.7541993 35.880427,56.0688256 C35.880427,55.515694 35.9044484,54.968968 35.95121,54.4295018 L31.4299644,54.4295018 C31.3834164,54.968968 31.3591815,55.5152669 31.3591815,56.0688256 C31.359395,58.7539858 31.919573,61.2843416 32.9123488,63.5078648 Z" id="Shape" fill="#F09318"></path>
            <g id="Group" transform="translate(20.391459, 21.138790)" fill="#E63E4C">
                <path d="M15.489395,34.9600356 C15.489395,34.9498932 15.4890747,34.9400712 15.4890747,34.9298221 C15.4890747,34.3766904 15.5130961,33.8299644 15.5598577,33.2904982 C16.1802491,26.0918861 20.850427,20.3045552 26.8445552,19.124306 C26.6660498,19.0891815 26.4864769,19.0583274 26.3058363,19.0308897 C25.7364769,18.9450534 25.160605,18.8998932 24.5847331,18.8998932 C18.0460142,18.8998932 13.0490391,24.3460142 11.5317438,30.3514591 C11.2925979,31.2974733 11.1258363,32.28 11.0389324,33.2901779 C12.369395,33.9497509 13.8655516,34.5127046 15.489395,34.9600356 Z" id="Shape"></path>
                <path d="M0.0689679715,6.48042705 C2.22085409,7.50918149 4.49284698,9.09501779 6.79740214,11.2122064 L11.4616014,6.13494662 C8.49213523,3.40708185 5.51893238,1.36793594 2.58405694,0.0353380783 C1.4247331,2.02740214 0.567330961,4.19391459 0.0689679715,6.48042705 Z" id="Shape"></path>
                <path d="M46.5849822,0.0353380783 C43.6501068,1.36793594 40.6769039,3.40708185 37.7074377,6.13494662 L42.371637,11.2122064 C44.6760854,9.09523132 46.9481851,7.50918149 49.1000712,6.48042705 C48.6014947,4.19391459 47.7441993,2.02740214 46.5849822,0.0353380783 Z" id="Shape"></path>
            </g>
            <ellipse id="Oval" fill="#FAA330" cx="44.9758719" cy="32.282669" rx="19.5912811" ry="17.925694"></ellipse>
            <path d="M29.9053025,32.2828826 C29.9053025,23.0824911 37.4811032,15.5024199 47.2364413,14.4767616 C46.4945552,14.3988256 45.7403915,14.3571886 44.9758719,14.3571886 C34.1554804,14.3571886 25.3840569,22.3825623 25.3840569,32.2828826 C25.3840569,42.1832028 34.1555872,50.208363 44.9758719,50.208363 C45.740605,50.208363 46.4945552,50.1669395 47.2364413,50.08879 C37.48121,49.0633452 29.9053025,41.4830605 29.9053025,32.2828826 Z" id="Shape" fill="#F09318"></path>
            <g id="Group" transform="translate(33.843416, 29.572954)" fill="#3B484A">
                <path d="M1.40914591,4.47651246 C0.659893238,4.47651246 0.0528469751,3.86925267 0.0528469751,3.12021352 L0.0528469751,1.36046263 C0.0528469751,0.611423488 0.659893238,0.00416370107 1.40914591,0.00416370107 C2.15839858,0.00416370107 2.76544484,0.611423488 2.76544484,1.36046263 L2.76544484,3.12021352 C2.76565836,3.86903915 2.1586121,4.47651246 1.40914591,4.47651246 Z" id="Shape"></path>
                <path d="M20.8557651,4.47651246 C20.1065125,4.47651246 19.4994662,3.86925267 19.4994662,3.12021352 L19.4994662,1.36046263 C19.4994662,0.611423488 20.1065125,0.00416370107 20.8557651,0.00416370107 C21.6050178,0.00416370107 22.2120641,0.611423488 22.2120641,1.36046263 L22.2120641,3.12021352 C22.2120641,3.86903915 21.604911,4.47651246 20.8557651,4.47651246 Z" id="Shape"></path>
                <path d="M11.1324555,5.41569395 C9.8058363,5.41569395 8.55907473,4.85957295 7.7113879,3.88996441 C7.21846975,3.32594306 7.27601423,2.46928826 7.84003559,1.97615658 C8.40405694,1.48302491 9.26071174,1.54078292 9.75384342,2.10469751 C10.0857651,2.48476868 10.5881851,2.7027758 11.132242,2.7027758 C11.6762989,2.7027758 12.1787189,2.48487544 12.5106406,2.10469751 C13.0037722,1.54046263 13.8606406,1.48302491 14.4244484,1.97615658 C14.9884698,2.46907473 15.0462278,3.32594306 14.5530961,3.88996441 C13.7060498,4.85946619 12.4592883,5.41569395 11.1324555,5.41569395 Z" id="Shape"></path>
            </g>
            <g id="Group" transform="translate(26.263345, 0.000000)" fill="#FF5E6B">
                <circle id="Oval" cx="3.84330961" cy="3.82985765" r="3.77957295"></circle>
                <circle id="Oval" cx="33.5819573" cy="3.82985765" r="3.77957295"></circle>
            </g>
            <path d="M45.5206762,72.0848754 C46.0964413,72.0567972 46.6709253,71.9878292 47.2364413,71.8763701 C43.4930605,71.1399288 40.2674733,68.6067972 38.2209609,65.0547331 C36.299573,64.6834164 34.5119573,64.1601779 32.9123488,63.5079715 C33.1970819,64.1464057 33.517153,64.7594306 33.869573,65.3433096 C33.9576512,65.4891459 34.0479715,65.6334875 34.1398932,65.7759075 C36.6271174,69.6184698 40.5549822,72.0985409 44.9758719,72.0985409 C45.1573665,72.0982206 45.3392883,72.0938434 45.5206762,72.0848754 Z" id="Shape" fill="#E63E4C"></path>
        </g>
    </g>
</svg>