<?xml version="1.0" encoding="UTF-8"?>
<svg width="100px" height="100px" viewBox="0 0 100 100" version="1.1" xmlns="http://www.w3.org/2000/svg" xmlns:xlink="http://www.w3.org/1999/xlink">
    <!-- Generator: Sketch 51.1 (57501) - http://www.bohemiancoding.com/sketch -->
    <title>008-shed</title>
    <desc>Created with Sketch.</desc>
    <defs></defs>
    <g id="008-shed" stroke="none" stroke-width="1" fill="none" fill-rule="evenodd">
        <rect id="Rectangle" x="0" y="0" width="100" height="100"></rect>
        <g transform="translate(11.000000, 6.000000)" fill-rule="nonzero">
            <g id="Group" transform="translate(8.462389, 6.295192)" fill="#FAA330">
                <polygon id="Shape" points="56.4574475 42.4829472 50.6717534 46.0699682 50.6718566 46.0700714 50.6717534 46.0700714 50.6717534 46.0699682 46.7265257 54.6993346 50.6717534 63.3288042 50.6717534 63.3285978 50.8702067 63.3285978 56.1936686 67.0545257 61.5174401 63.3285978 61.7158934 63.3285978 61.7158934 46.0700714"></polygon>
                <polygon id="Shape" points="11.0985264 46.0699682 11.0985264 46.0700714 11.0984232 46.0700714 11.0985264 46.0699682 5.3128323 42.4829472 0.0543863294 46.0700714 0.0543863294 63.3285978 0.252839672 63.3285978 5.57661116 67.0545257 10.900073 63.3285978 11.0985264 63.3285978 11.0985264 63.3288042 15.0437541 54.6993346"></polygon>
                <polygon id="Shape" points="30.8851399 0.0518063327 0.0543863294 24.0202848 0.0543863294 28.8112354 30.8851399 36.7177899 61.7158934 28.8112354 61.7158934 24.0202848"></polygon>
            </g>
            <path d="M72.4141076,36.8196482 L39.3475289,11.4810883 L6.28095024,36.8196482 L0.100516669,28.7542691 L36.2572089,1.04789144 C38.0805441,-0.349228346 40.6144105,-0.349228346 42.4376425,1.04789144 L78.5943347,28.7541659 L72.4141076,36.8196482 Z" id="Shape" fill="#FF5E6B"></path>
            <g id="Group" transform="translate(8.462389, 35.087954)" fill="#F09318">
                <polygon id="Shape" points="11.0985264 0.0181631764 11.0984232 0.018472776 0.0543863294 0.018472776 0.0543863294 17.2773088 11.0985264 17.2773088 15.0437541 8.64794237"></polygon>
                <polygon id="Shape" points="15.0437541 43.1656143 11.0985264 34.5358351 0.0543863294 34.5358351 0.0543863294 51.7946711 11.0984232 51.7946711 11.0985264 51.7949807"></polygon>
                <polygon id="Shape" points="50.6718566 0.018472776 50.6717534 0.0181631764 46.7265257 8.64794237 50.6717534 17.2773088 61.7158934 17.2773088 61.7158934 0.018472776"></polygon>
                <polygon id="Shape" points="61.7158934 34.5358351 50.6717534 34.5358351 46.7265257 43.1656143 50.6717534 51.7949807 50.6718566 51.7946711 61.7158934 51.7946711"></polygon>
            </g>
            <polygon id="Shape" fill="#D9D9D9" points="39.3475289 35.1064272 34.2668963 58.7700533 39.3475289 86.8826256 59.1346584 86.8826256 59.1346584 35.1064272"></polygon>
            <rect id="Rectangle-path" fill="#F0F0F0" x="19.5602962" y="35.106324" width="19.7872327" height="51.7766112"></rect>
            <g id="Group" transform="translate(26.935165, 24.561568)" fill="#3B484A">
                <circle id="Oval" cx="6.75195443" cy="39.8891218" r="2.18855956"></circle>
                <circle id="Oval" cx="18.0727733" cy="39.8891218" r="2.18855956"></circle>
                <path d="M1.31363109,4.65008276 C0.589580834,4.65008276 0.00257999665,4.06308192 0.00257999665,3.33903166 L0.00257999665,1.33034947 C0.00257999665,0.606299213 0.589580834,0.0192983749 1.31363109,0.0192983749 C2.03768135,0.0192983749 2.62468219,0.606299213 2.62468219,1.33034947 L2.62468219,3.33903166 C2.62457899,4.06318512 2.03778455,4.65008276 1.31363109,4.65008276 Z" id="Shape"></path>
                <path d="M23.5111999,4.65008276 C22.7871496,4.65008276 22.2001488,4.06308192 22.2001488,3.33903166 L22.2001488,1.33034947 C22.2001488,0.606299213 22.7871496,0.0192983749 23.5111999,0.0192983749 C24.2352501,0.0192983749 24.822251,0.606299213 24.822251,1.33034947 L24.822251,3.33903166 C24.8223542,4.06318512 24.2352501,4.65008276 23.5111999,4.65008276 Z" id="Shape"></path>
                <path d="M12.4123639,5.72222617 C10.9664306,5.72222617 9.60801072,5.11726855 8.68591992,4.06174033 C8.20944614,3.51653543 8.26486447,2.68845971 8.81017256,2.21177953 C9.35527425,1.73530575 10.1834532,1.79072407 10.6601334,2.33603217 C11.084388,2.82138114 11.723092,3.09981437 12.4123639,3.09981437 C13.1016358,3.09981437 13.7403398,2.82148434 14.1644912,2.33623857 C14.6411714,1.79082727 15.4690407,1.73530575 16.014452,2.21198593 C16.5596569,2.68845971 16.615488,3.51674183 16.1387046,4.06194672 C15.2165106,5.11726855 13.8585036,5.72222617 12.4123639,5.72222617 Z" id="Shape"></path>
            </g>
        </g>
    </g>
</svg>