<?xml version="1.0" encoding="UTF-8"?>
<svg width="100px" height="100px" viewBox="0 0 100 100" version="1.1" xmlns="http://www.w3.org/2000/svg" xmlns:xlink="http://www.w3.org/1999/xlink">
    <!-- Generator: Sketch 51.1 (57501) - http://www.bohemiancoding.com/sketch -->
    <title>009-shears-1</title>
    <desc>Created with Sketch.</desc>
    <defs></defs>
    <g id="009-shears-1" stroke="none" stroke-width="1" fill="none" fill-rule="evenodd">
        <rect id="Rectangle" x="0" y="0" width="100" height="100"></rect>
        <g transform="translate(18.000000, 4.000000)" fill-rule="nonzero">
            <path d="M18.2176176,42.3935725 C18.9345333,40.6861528 19.910479,39.3487297 21.2574998,39.0184179 C22.7381335,38.6554308 23.9939222,37.6822889 24.5840189,36.2768192 L44.2898189,0 C44.2898189,0 54.9752923,9.99950755 34.126827,41.6391288 C33.7090575,42.6342699 32.5617551,43.1313012 31.5682316,42.7094339 C29.0713203,41.6493735 28.0216125,43.5815304 26.9761104,46.0711086 L24.6431148,51.6278524 L18.498539,52.9183654 L15.8844064,47.950532 L18.2176176,42.3935725 Z" id="Shape" fill="#999999"></path>
            <path d="M46.3295994,42.3935725 C45.6126837,40.6861528 44.636738,39.3487297 43.2897172,39.0184179 C41.8090835,38.6554308 40.5532948,37.6822889 39.9631981,36.2768192 L20.2573981,0 C20.2573981,0 9.5719247,9.99950755 30.42039,41.6391288 C30.8381595,42.6342699 31.9854619,43.1313012 32.9789854,42.7094339 C35.4758967,41.6493735 36.5256045,43.5815304 37.5711066,46.0711086 L39.9041022,51.6278524 L46.048678,52.9183654 L48.6628106,47.950532 L46.3295994,42.3935725 Z" id="Shape" fill="#B3B3B3"></path>
            <g id="Group" transform="translate(0.000000, 52.409903)" fill="#FF5E6B">
                <path d="M41.805417,3.74666103 L55.5426349,36.4656459 C56.2097288,38.0547659 58.0387913,38.8020923 59.6279113,38.1349983 L62.6318831,36.8739255 C64.2210031,36.2068315 64.9683295,34.377769 64.3012355,32.788649 L50.5640176,0.0695563528 L41.805417,3.74666103 Z" id="Shape"></path>
                <path d="M22.7418,3.74666103 L9.00468994,36.4656459 C8.33759599,38.0547659 6.50853351,38.8020923 4.91941349,38.1349983 L1.91544176,36.8739255 C0.326321742,36.2068315 -0.421004653,34.377769 0.246089298,32.788649 L13.9834151,0.0697720314 L22.7418,3.74666103 Z" id="Shape"></path>
            </g>
            <rect id="Rectangle-path" fill="#E63E4C" transform="translate(48.200927, 59.108994) rotate(157.224990) translate(-48.200927, -59.108994) " x="43.4518493" y="53.9135312" width="9.49815562" height="10.3909262"></rect>
            <path d="M48.662595,47.9503163 L39.9039943,51.6278524 C38.8708938,52.0615821 38.3851855,53.2505104 38.8189152,54.283611 L41.0511889,59.6003045 C41.4849186,60.633405 42.6738469,61.1191133 43.7069475,60.6853836 L52.4655481,57.0078475 C53.4986487,56.5741179 53.9843569,55.3851895 53.5506272,54.3520889 L51.3183536,49.0353954 C50.8846239,48.0026184 49.6956955,47.5168023 48.662595,47.9503163 Z" id="Shape" fill="#D9D9D9"></path>
            <polygon id="Shape" fill="#E63E4C" points="13.9831994 52.4793515 9.96025404 62.0610896 9.96046972 62.0610896 18.718639 65.7379786 18.7189625 65.7381943 22.7418 56.1565641"></polygon>
            <path d="M15.884622,47.9503163 L24.6432227,51.6278524 C25.6763232,52.0615821 26.1620315,53.2505104 25.7283018,54.283611 L23.496136,59.6003045 C23.0624063,60.633405 21.8734779,61.1191133 20.8403774,60.6853836 L12.0817767,57.0078475 C11.0486762,56.5741179 10.5629679,55.3851895 10.9966976,54.3520889 L13.2289713,49.0353954 C13.6625931,48.0026184 14.8517372,47.5168023 15.884622,47.9503163 Z" id="Shape" fill="#D9D9D9"></path>
            <circle id="Oval" fill="#3B484A" cx="32.2736085" cy="34.070427" r="2.03848641"></circle>
        </g>
    </g>
</svg>