<?xml version="1.0" encoding="UTF-8"?>
<svg width="100px" height="100px" viewBox="0 0 100 100" version="1.1" xmlns="http://www.w3.org/2000/svg" xmlns:xlink="http://www.w3.org/1999/xlink">
    <!-- Generator: Sketch 51.1 (57501) - http://www.bohemiancoding.com/sketch -->
    <title>010-harvest</title>
    <desc>Created with Sketch.</desc>
    <defs></defs>
    <g id="010-harvest" stroke="none" stroke-width="1" fill="none" fill-rule="evenodd">
        <rect id="Rectangle" x="0" y="0" width="100" height="100"></rect>
        <g transform="translate(10.000000, 10.000000)" fill-rule="nonzero">
            <path d="M59.9071473,16.2147134 C64.2604736,12.6480139 65.5057169,4.22759956 58.0904639,3.04063494 C50.6752109,1.85367031 49.1853296,10.23509 52.1856821,14.9787878 L55.5679703,18.5365854 L59.9071473,16.2147134 Z" id="Shape" fill="#00AE95"></path>
            <path d="M55.8010521,19.5121951 C55.7393232,19.5121951 55.6767689,19.5070854 55.6138477,19.4963838 C54.978582,19.3885972 54.5466636,18.7599063 54.6492087,18.0917835 L56.2205879,7.8590932 C56.323133,7.1913561 56.92171,6.7371676 57.556884,6.84514704 C58.1921498,6.95293365 58.6240681,7.58162462 58.521523,8.24974737 L56.9499603,18.4824377 C56.8577798,19.083941 56.3628486,19.5121951 55.8010521,19.5121951 Z" id="Shape" fill="#2FC8B4"></path>
            <path d="M66.4450645,21.0123178 C68.6926334,16.0194716 76.3027319,12.6833038 79.3112635,19.3156966 C82.319795,25.9480893 74.8093262,29.5029012 69.5780623,27.9183469 L65.3658537,25.6709509 L66.4450645,21.0123178 Z" id="Shape" fill="#00AE95"></path>
            <g id="Group" transform="translate(60.487805, 5.853659)" fill="#2FC8B4">
                <path d="M4.79473756,20.2211819 C4.32175761,20.2211819 3.86983599,19.962485 3.66121157,19.5247477 C3.37658127,18.9275102 3.65327797,18.2234095 4.27885737,17.9517169 L13.8648064,13.7912492 C14.4904838,13.5194631 15.228309,13.7836762 15.5127434,14.3808202 C15.7973737,14.9780577 15.520677,15.6821584 14.8950976,15.953851 L5.30914856,20.1143187 C5.14195519,20.1867762 4.96692616,20.2211819 4.79473756,20.2211819 Z" id="Shape"></path>
                <path d="M6.3474713,13.4863664 C11.9043246,12.4193233 17.0325674,5.81165915 11.0399535,1.44457048 C5.04733961,-2.92251819 -0.27855767,3.54116572 0.107446471,8.93902195 L1.39827331,13.4996425 L6.3474713,13.4863664 Z" id="Shape"></path>
            </g>
            <path d="M61.7174992,21.4634146 C61.4571269,21.4634146 61.1946236,21.381328 60.9716411,21.211153 C60.4315235,20.7988805 60.3279752,20.0272853 60.7402313,19.4873332 L67.0594901,11.2152632 C67.4720368,10.6755047 68.2441452,10.5719284 68.7844565,10.9840073 C69.324574,11.3962798 69.4281224,12.167875 69.0158662,12.7078271 L62.6966075,20.9798971 C62.454252,21.2967245 62.0879098,21.4634146 61.7174992,21.4634146 Z" id="Shape" fill="#00AE95"></path>
            <path d="M15.5492928,47.804878 L35.4074027,47.804878 C38.6407016,42.4547414 39.0340426,33.8013676 35.8724146,25.1790902 C31.4107148,13.0117139 21.5613465,5.51543768 13.8730433,8.43572701 C6.18474014,11.3560163 3.56894226,23.5867374 8.03045345,35.7539217 C9.82722312,40.6537347 12.4980944,44.7953302 15.5492928,47.804878 Z" id="Shape" fill="#FF5E6B"></path>
            <path d="M12.0966589,35.753786 C7.69642494,23.5861758 10.2763727,11.3552196 17.8585732,8.43497006 C18.3263864,8.25491392 18.802477,8.11478494 19.2846129,8.0124716 C17.3910391,7.64189764 15.5195074,7.75841584 13.7623714,8.43497006 C6.17998483,11.3554115 3.60040908,23.5862717 8.000643,35.753786 C9.77265976,40.6537892 12.4066432,44.7952723 15.4159933,47.804878 L19.5121951,47.804878 C16.5026591,44.7952723 13.8687686,40.6535973 12.0966589,35.753786 Z" id="Shape" fill="#E63E4C"></path>
            <path d="M59.8383456,47.804878 C70.2282315,38.6072266 73.1039596,25.0088896 62.9963027,17.1154029 C48.4806148,5.779521 29.9248151,23.9659447 31.2907504,47.804878 L59.8383456,47.804878 Z" id="Shape" fill="#FF8C4F"></path>
            <path d="M64.9703325,18.5365854 C68.0337361,25.9838074 64.4735746,35.2258888 56.6351659,42.0172841 L31.288689,42.0172841 C31.1972258,43.5889578 31.1950503,45.1954776 31.2905807,46.8292683 L59.8394058,46.8292683 C69.4851356,38.4722595 72.6526767,26.4043281 64.9703325,18.5365854 Z" id="Shape" fill="#EE6B28"></path>
            <g id="Group" transform="translate(11.707317, 23.414634)" fill="#3B484A">
                <path d="M33.8663579,7.01712629 C33.6083453,7.01712629 33.348221,6.93387241 33.1272593,6.7618797 C32.5920368,6.34472882 32.4894269,5.56400336 32.8979468,5.01766205 L33.6812953,3.97062215 C34.0901031,3.42447673 34.8554061,3.31996863 35.3906286,3.73662979 C35.9258511,4.15378067 36.028461,4.93450612 35.6199411,5.48084743 L34.8365926,6.52788734 C34.5967216,6.84875757 34.2335075,7.01712629 33.8663579,7.01712629 Z" id="Shape"></path>
                <path d="M45.2063368,15.8513418 C44.9483242,15.8513418 44.6881999,15.768088 44.4672383,15.5960953 C43.9320158,15.1789444 43.8294059,14.3982189 44.2379258,13.8518776 L45.0212742,12.8048377 C45.4300821,12.2586923 46.195385,12.1541842 46.7306075,12.5708453 C47.26583,12.9879962 47.3684399,13.7687217 46.95992,14.315063 L46.1765716,15.3621029 C45.9367005,15.6828752 45.5734864,15.8513418 45.2063368,15.8513418 Z" id="Shape"></path>
                <path d="M40.551264,12.4965045 C39.7805858,12.4965045 39.0156668,12.2336182 38.3791782,11.7378169 C37.5540755,11.095097 37.0424658,10.1370897 36.9755629,9.10924718 C36.9310251,8.42352909 37.4395632,7.83066356 38.1116629,7.78541263 C38.7841466,7.73996581 39.3646749,8.25888231 39.4090208,8.94469835 C39.42937,9.25587195 39.5932195,9.55303931 39.859007,9.75980275 C40.1247945,9.96695798 40.448846,10.0503098 40.7484209,9.98801632 C41.4090982,9.85157791 42.0523059,10.2862611 42.1863035,10.9598339 C42.3203011,11.6335047 41.8940236,12.2903288 41.2339222,12.427061 C41.0079693,12.4734873 40.7793287,12.4965045 40.551264,12.4965045 Z" id="Shape"></path>
                <path d="M1.77662006,9.51337129 C1.28209596,9.51337129 0.817039814,9.20435249 0.634088934,8.70394773 L0.136301285,7.34269791 C-0.0993463589,6.69880265 0.221345607,5.98193781 0.852362963,5.74187282 C1.48338032,5.50141604 2.18590786,5.82865274 2.42126754,6.472548 L2.91905519,7.83379782 C3.15470283,8.47769308 2.83401087,9.19455792 2.20299351,9.43472086 C2.06227683,9.48810129 1.91820061,9.51337129 1.77662006,9.51337129 Z" id="Shape"></path>
                <path d="M16.517892,3.89961149 C16.0233679,3.89961149 15.5583117,3.5905927 15.3753608,3.09018794 L14.8775732,1.72893811 C14.6419255,1.08504285 14.9626175,0.368178018 15.5936349,0.128113021 C16.2248442,-0.112539649 16.9271798,0.214892942 17.1625394,0.858788204 L17.6603271,2.22003803 C17.8959747,2.86393329 17.5752828,3.58079812 16.9442654,3.82096106 C16.8035487,3.87434149 16.6594725,3.89961149 16.517892,3.89961149 Z" id="Shape"></path>
                <path d="M8.47966767,7.60626988 C7.86458413,7.60626988 7.25756348,7.45455194 6.71351018,7.1546421 C6.12098354,6.82799307 5.90021385,6.07302735 6.22013792,5.46821243 C6.54025397,4.86359341 7.28002439,4.63831822 7.87283899,4.96477136 C8.20130589,5.14577507 8.60694619,5.16693135 8.98647808,5.0222655 C9.36572201,4.87779554 9.65896174,4.5905207 9.79075165,4.23439001 C10.028607,3.59147421 10.7321904,3.26727382 11.3624398,3.50998336 C11.9924973,3.75269289 12.3104057,4.47102691 12.0723584,5.11374682 C11.6918666,6.14178525 10.8778984,6.95845679 9.83932098,7.35396167 C9.39682174,7.52272217 8.93589303,7.60626988 8.47966767,7.60626988 Z" id="Shape"></path>
            </g>
            <path d="M15.0553481,5.85491327 L13.7720914,1.82314064 C13.7460871,1.74224503 13.7149392,1.65831109 13.6806479,1.5786498 C13.1074116,0.253746816 11.565065,-0.357147965 10.2359912,0.21424849 C8.90672694,0.785549998 8.2939604,2.32304133 8.86710143,3.64784936 L10.5473753,7.53207296 C0.269795429,12.4861695 3.36382352,20.4593243 3.36382352,20.4593243 C4.24377647,22.8096646 6.86848997,24.0038244 9.22639809,23.1266957 C11.5843062,22.249472 12.782311,19.6332776 11.902358,17.2829373 C12.782311,19.6332776 15.4070245,20.8274373 17.7649326,19.9503087 C20.1228407,19.07318 21.3208455,16.4568906 20.4408926,14.1065503 C21.3208455,16.4568906 23.945559,17.6510503 26.3034671,16.7739216 C28.6613752,15.896793 29.85938,13.2805036 28.9794271,10.9301633 C28.9792366,10.9301633 26.0763825,2.88598742 15.0553481,5.85491327 Z" id="Shape" fill="#2FC8B4"></path>
            <path d="M6.48125929,19.014534 C6.48125929,19.014534 4.15271352,13.0078864 9.69144526,7.80487805 C0.431809565,12.8451179 3.36954824,20.4186167 3.36954824,20.4186167 C4.26151866,22.8013315 6.92169321,24.0119401 9.31154445,23.1227295 C9.84784661,22.9231913 10.324388,22.6343278 10.7317073,22.2802029 C8.86840729,22.0936593 7.18043125,20.8821844 6.48125929,19.014534 Z" id="Shape" fill="#00AE95"></path>
            <polygon id="Shape" fill="#DF8B78" points="39.9999519 49.7560976 2.92682927 53.6069629 2.92682927 66.750407 39.9999519 72.195122 77.0731707 66.750407 77.0731707 53.6069629"></polygon>
            <g id="Group" transform="translate(0.000000, 40.975610)" fill="#C86D5C">
                <polygon id="Shape" points="14.0690769 26.1191027 14.0690769 12.7985029 45.2653392 9.49585052 39.5965945 8.89561025 2.73158761 12.7985029 2.73158761 26.1191027 39.5965945 31.6372444 45.2653392 30.7887895"></polygon>
                <path d="M76.462462,0.090596924 L2.7308227,0.090596924 C1.25645955,0.090596924 0.0612883776,1.27890915 0.0612883776,2.74471604 L0.0612883776,10.1440986 C0.0612883776,11.6100006 1.25645955,12.7984079 2.7308227,12.7984079 L76.4623664,12.7984079 C77.9367295,12.7984079 79.1318051,11.6099055 79.1318051,10.1440986 L79.1318051,2.74481111 C79.1320919,1.27909928 77.9367295,0.090596924 76.462462,0.090596924 Z" id="Shape"></path>
            </g>
            <path d="M11.0552501,51.0094249 L11.0552501,43.6245316 C11.0552501,42.1615002 12.2206781,40.9756098 13.6585366,40.9756098 L2.60310001,40.9756098 C1.16542801,40.9756098 0,42.1615951 0,43.6245316 L0,51.0094249 C0,52.4724564 1.16542801,53.6585366 2.60310001,53.6585366 L13.6585366,53.6585366 C12.2206781,53.6584417 11.0552501,52.4724564 11.0552501,51.0094249 Z" id="Shape" fill="#B24D40"></path>
            <path d="M2.92682927,67.3170732 L2.92682927,76.8559246 C2.92682927,79.1311128 4.7464351,80.9756098 6.99113485,80.9756098 L73.0088651,80.9756098 C75.2534687,80.9756098 77.0731707,79.1312103 77.0731707,76.8559246 L77.0731707,67.3170732 L2.92682927,67.3170732 Z" id="Shape" fill="#C86D5C"></path>
            <path d="M14.4343734,76.8559246 L14.4343734,67.3170732 L2.92682927,67.3170732 L2.92682927,76.8559246 C2.92682927,79.1311128 4.7633625,80.9756098 7.02894421,80.9756098 L18.5365854,80.9756098 C16.2710037,80.9756098 14.4343734,79.1312103 14.4343734,76.8559246 Z" id="Shape" fill="#B24D40"></path>
        </g>
    </g>
</svg>