<?xml version="1.0" encoding="UTF-8"?>
<svg width="100px" height="100px" viewBox="0 0 100 100" version="1.1" xmlns="http://www.w3.org/2000/svg" xmlns:xlink="http://www.w3.org/1999/xlink">
    <!-- Generator: Sketch 51.1 (57501) - http://www.bohemiancoding.com/sketch -->
    <title>011-fertilizer</title>
    <desc>Created with Sketch.</desc>
    <defs></defs>
    <g id="011-fertilizer" stroke="none" stroke-width="1" fill="none" fill-rule="evenodd">
        <rect id="Rectangle" x="0" y="0" width="100" height="100"></rect>
        <g transform="translate(15.000000, 9.000000)" fill-rule="nonzero">
            <path d="M64.6808973,39.430857 C64.6808973,39.430857 71.0827794,56.1156439 67.286785,73.6409115 C67.286785,73.6409115 71.6697277,77.8230279 68.9732789,80.6691501 C66.27683,83.5152723 61.9329072,79.4707931 61.9329072,79.4707931 C61.9329072,79.4707931 52.6456889,81.7175426 34.9698745,81.7175426 C17.2940601,81.7175426 8.00674479,79.470599 8.00674479,79.470599 C8.00674479,79.470599 3.66282197,83.5149811 0.966373106,80.668956 C-1.72997869,77.8229309 2.65296402,73.6407173 2.65296402,73.6407173 C-1.14312737,56.1154498 5.2588518,39.430857 5.2588518,39.430857 L64.6808973,39.430857 Z" id="Shape" fill="#2FC8B4"></path>
            <path d="M8.56272964,27.7072254 C3.22127604,24.6849313 5.8768608,16.5117211 11.9746402,17.2063139 C8.32414536,12.2727249 14.0745313,5.88637311 19.3625994,9.00116951 C18.0345644,3.00948153 25.8853267,-0.485904356 29.4493371,4.51038826 C30.6730279,-1.50352746 39.2669152,-1.50352746 40.4906061,4.51038826 C44.0546165,-0.485904356 51.9053788,3.0095786 50.5773438,9.00116951 C55.8654119,5.88627604 61.6157978,12.2731132 57.965303,17.2063139 C64.0629853,16.511527 66.7186671,24.6849313 61.3772135,27.7072254 L8.56272964,27.7072254 Z" id="Shape" fill="#B24D40"></path>
            <path d="M2.65286695,73.6407173 C2.65286695,73.6407173 -1.73007576,77.8228338 0.966276042,80.668956 C3.66262784,83.5150781 8.00664773,79.470599 8.00664773,79.470599 C8.00664773,79.470599 9.11434659,79.7383996 11.291598,80.0891903 C2.88436553,61.7377107 11.3206203,41.8943513 11.3206203,41.8943513 L10.272616,39.4310511 L5.25875473,39.4310511 C5.2588518,39.430857 -1.1430303,56.1158381 2.65286695,73.6407173 Z" id="Shape" fill="#00AE95"></path>
            <path d="M34.9697775,21.1468371 C56.5456392,21.1468371 67.286688,22.1614512 67.286688,30.5041359 L67.286688,33.9493395 C67.286688,42.2919271 56.5456392,43.3066383 34.9697775,43.3066383 C13.3939157,43.3066383 2.65286695,42.2920241 2.65286695,33.9493395 L2.65286695,30.5041359 C2.65286695,22.1614512 13.3939157,21.1468371 34.9697775,21.1468371 Z" id="Shape" fill="#DF8B78"></path>
            <path d="M9.72303741,34.9360961 L9.72303741,29.5171851 C9.72303741,26.7119271 10.2155421,24.4350876 11.1984162,22.5863021 C5.49753314,23.8588163 2.65267282,26.2108807 2.65267282,30.5039418 L2.65267282,33.9491454 C2.65267282,38.2420123 5.49733902,40.594465 11.1984162,41.866785 C10.2158333,40.0183878 9.72303741,37.7414512 9.72303741,34.9360961 Z" id="Shape" fill="#C86D5C"></path>
            <g id="Group" transform="translate(20.577652, 29.701705)" fill="#3B484A">
                <path d="M1.29318892,4.92533854 C0.611991004,4.92533854 0.0600828598,4.37323627 0.0600828598,3.69223248 L0.0600828598,1.32162879 C0.0600828598,0.640625 0.611991004,0.0885227273 1.29318892,0.0885227273 C1.97438684,0.0885227273 2.52629498,0.640625 2.52629498,1.32162879 L2.52629498,3.69223248 C2.52629498,4.37333333 1.97438684,4.92533854 1.29318892,4.92533854 Z" id="Shape"></path>
                <path d="M27.4912571,4.92533854 C26.8100592,4.92533854 26.258151,4.37323627 26.258151,3.69223248 L26.258151,1.32162879 C26.258151,0.640625 26.8100592,0.0885227273 27.4912571,0.0885227273 C28.172455,0.0885227273 28.7243632,0.640625 28.7243632,1.32162879 L28.7243632,3.69223248 C28.7243632,4.37333333 28.172455,4.92533854 27.4912571,4.92533854 Z" id="Shape"></path>
                <path d="M14.3921259,6.19076705 C12.7760038,6.19076705 11.2592756,5.51578125 10.230393,4.33868134 C9.78224669,3.82589015 9.83456439,3.04685133 10.3473556,2.59870502 C10.8601468,2.15055871 11.6391856,2.20287642 12.0873319,2.71557055 C12.6475876,3.35668087 13.4875829,3.72426373 14.3918348,3.72426373 C15.2959896,3.72426373 16.1357907,3.35668087 16.6965317,2.71537642 C17.144581,2.20258523 17.9235227,2.15017045 18.436508,2.59870502 C18.9492022,3.04685133 19.001714,3.82589015 18.5531795,4.33868134 C17.5250734,5.51578125 16.0079569,6.19076705 14.3921259,6.19076705 Z" id="Shape"></path>
            </g>
            <path d="M52.9730871,50.2640199 L16.9666619,50.2640199 C14.3346638,50.2640199 12.2009943,52.3977865 12.2009943,55.0296875 L12.2009943,68.8506866 C12.2009943,71.4826847 14.3347609,73.6163542 16.9666619,73.6163542 L52.9730871,73.6163542 C55.6050852,73.6163542 57.7387547,71.4825876 57.7387547,68.8506866 L57.7387547,55.0296875 C57.7387547,52.3977865 55.6049882,50.2640199 52.9730871,50.2640199 Z" id="Shape" fill="#F0F0F0"></path>
            <path d="M26.4403409,69.4541359 C43.1908404,69.6344815 40.9346757,60.3267827 44.2175876,55.1548035 C44.2175876,55.1548035 37.1076207,52.1719176 30.9809162,56.409652 C24.8542116,60.6474834 26.4403409,69.4541359 26.4403409,69.4541359 Z" id="Shape" fill="#2FC8B4"></path>
            <path d="M26.4408262,70.6875331 C26.3219223,70.6875331 26.2012713,70.6702557 26.081688,70.6339536 C25.4299976,70.4360393 25.0624148,69.7470762 25.2603291,69.0956771 C25.3640909,68.7543016 27.8813589,60.7032955 34.9542472,57.6855634 C35.580992,57.4182481 36.3052865,57.7095384 36.5725047,58.3357978 C36.839723,58.9622514 36.5485298,59.686643 35.9222704,59.9540554 C29.8954451,62.5255824 27.6422893,69.7401847 27.6200616,69.8128859 C27.4586435,70.3447017 26.969633,70.6875331 26.4408262,70.6875331 Z" id="Shape" fill="#00AE95"></path>
        </g>
    </g>
</svg>