<?xml version="1.0" encoding="UTF-8"?>
<svg width="100px" height="100px" viewBox="0 0 100 100" version="1.1" xmlns="http://www.w3.org/2000/svg" xmlns:xlink="http://www.w3.org/1999/xlink">
    <!-- Generator: Sketch 51.1 (57501) - http://www.bohemiancoding.com/sketch -->
    <title>012-dwarf</title>
    <desc>Created with Sketch.</desc>
    <defs></defs>
    <g id="012-dwarf" stroke="none" stroke-width="1" fill="none" fill-rule="evenodd">
        <rect id="Rectangle" x="0" y="0" width="100" height="100"></rect>
        <g transform="translate(21.000000, 6.000000)" fill-rule="nonzero">
            <g id="Group" transform="translate(11.078385, 78.593824)" fill="#BC705F">
                <path d="M8.16842755,0.0487030879 L3.66934917,2.9512399 C1.69269359,2.9512399 0.0907173397,4.55342518 0.0907173397,6.52987173 L0.0907173397,9.39467933 L10.0799715,9.39467933 C11.5098147,9.39467933 12.667715,8.23489786 12.667715,6.80515914 L12.667715,2.9512399 L8.16842755,0.0487030879 Z" id="Shape"></path>
                <path d="M28.4690451,0.0487030879 L32.9681235,2.9512399 C34.9447791,2.9512399 36.5469644,4.55342518 36.5469644,6.52987173 L36.5469644,9.39467933 L26.5577102,9.39467933 C25.127867,9.39467933 23.9699667,8.23489786 23.9699667,6.80515914 L23.9699667,2.9512399 L28.4690451,0.0487030879 Z" id="Shape"></path>
            </g>
            <g id="Group" transform="translate(14.736342, 69.814727)" fill="#00A6C8">
                <rect id="Rectangle-path" x="0.0106603325" y="0.0627078385" width="8.99815677" height="11.667943"></rect>
                <rect id="Rectangle-path" x="20.3118005" y="0.0627078385" width="8.99815677" height="11.667943"></rect>
            </g>
            <path d="M1.09780523,61.8435154 C-2.38509264,68.5708124 4.05113539,70.7482375 7.79886936,68.9193634 L11.1113064,62.9110119 L8.9344038,57.6865083 L1.09780523,61.8435154 Z" id="Shape" fill="#FBC4AC"></path>
            <path d="M4.63849881,61.8435154 L9.57548694,59.2248361 L8.93461283,57.6867173 L1.09801425,61.8435154 C-2.08827553,67.9980808 3.02701188,70.3436675 6.79084086,69.2983278 C4.22274584,68.5622423 2.42229929,66.1243705 4.63849881,61.8435154 Z" id="Shape" fill="#E3B098"></path>
            <path d="M57.696019,61.8435154 C61.1789169,68.5708124 54.7426888,70.7482375 50.9949549,68.9193634 L47.6825178,62.9110119 L49.8593159,57.6865083 L57.696019,61.8435154 Z" id="Shape" fill="#FBC4AC"></path>
            <path d="M12.7412922,45.9576342 C12.7412922,45.9576342 -0.46968171,48.9339572 1.09780523,61.8435154 L7.6671829,61.8435154 L13.5494917,56.9900333 L12.7412922,45.9576342 Z" id="Shape" fill="#F0F0F0"></path>
            <path d="M12.8358765,47.2465938 L12.7415012,45.9575297 C12.7415012,45.9575297 -0.469472684,48.9338527 1.09801425,61.8434109 L4.63881235,61.8434109 C3.60099762,53.2964371 9.04048456,49.1043135 12.8358765,47.2465938 Z" id="Shape" fill="#D9D9D9"></path>
            <path d="M46.0527411,45.9576342 C46.0527411,45.9576342 59.263715,48.9339572 57.696228,61.8435154 L51.1268504,61.8435154 L45.2445416,56.9900333 L46.0527411,45.9576342 Z" id="Shape" fill="#F0F0F0"></path>
            <path d="M29.3969121,61.8435154 L7.63175297,65.5005321 C7.66666033,67.1200665 7.7711734,68.8580143 7.95396675,70.7250356 L29.3969121,72.9132257 L50.839962,70.7250356 C51.0228599,68.8582233 51.1272684,67.1200665 51.1621758,65.5005321 L29.3969121,61.8435154 Z" id="Shape" fill="#E67176"></path>
            <g id="Group" transform="translate(4.076010, 24.038005)" fill="#E3B098">
                <path d="M7.55775772,5.26233729 L3.42781948,0.561130641 C2.61063183,-0.369140143 1.08630879,0.00773396675 0.795030879,1.21109739 C-0.354194774,5.9583943 -1.32857007,15.2053967 8.66538717,14.81619 L11.944171,10.9388599 L7.55775772,5.26233729 Z" id="Shape"></path>
                <path d="M43.084152,5.26233729 L47.2140903,0.561130641 C48.0312779,-0.369140143 49.555601,0.00773396675 49.8468789,1.21109739 C50.9961045,5.9583943 51.9704798,15.2053967 41.9765226,14.81619 L38.6977387,10.9388599 L43.084152,5.26233729 Z" id="Shape"></path>
            </g>
            <path d="M46.0527411,38.8540903 C46.7494252,35.9700523 47.1603705,32.7885701 47.1603705,29.300342 L11.6337672,29.300342 C11.6337672,32.7885701 12.0447126,35.9702613 12.7413967,38.8540903 L29.3970166,54.4132637 L46.0527411,38.8540903 Z" id="Shape" fill="#FBC4AC"></path>
            <path d="M31.3655202,0.971866983 C30.372228,-0.323885986 28.4220143,-0.323885986 27.4287221,0.971866983 C23.3932637,6.23566746 14.3353254,18.8503943 11.6339762,29.300342 C11.6339762,29.300342 19.6894252,30.86762 29.3971211,30.86762 C39.1048171,30.86762 47.160266,29.300342 47.160266,29.300342 C44.4589169,18.8502898 35.4007696,6.23566746 31.3655202,0.971866983 Z" id="Shape" fill="#FF5E6B"></path>
            <path d="M29.3525986,0.0026128266 C28.6316675,0.0153634204 27.9152304,0.337159145 27.4285131,0.971866983 C23.3930546,6.23556295 14.3351164,18.8503943 11.6337672,29.300342 C11.6337672,29.300342 13.9214537,29.7454632 17.5272589,30.1611116 C19.7520285,19.9627268 24.9413112,8.53296912 29.3525986,0.0026128266 Z" id="Shape" fill="#E63E4C"></path>
            <g id="Group" transform="translate(19.543943, 32.817102)" fill="#3B484A">
                <path d="M1.37654157,4.25462233 C0.643068884,4.25462233 0.048807601,3.66015202 0.048807601,2.92688836 L0.048807601,1.39263658 C0.048807601,0.659372922 0.643068884,0.0649026128 1.37654157,0.0649026128 C2.11001425,0.0649026128 2.70427553,0.659372922 2.70427553,1.39263658 L2.70427553,2.92688836 C2.70427553,3.66015202 2.10980523,4.25462233 1.37654157,4.25462233 Z" id="Shape"></path>
                <path d="M18.3293967,4.25462233 C17.595924,4.25462233 17.0016627,3.66015202 17.0016627,2.92688836 L17.0016627,1.39263658 C17.0016627,0.659372922 17.595924,0.0649026128 18.3293967,0.0649026128 C19.0628694,0.0649026128 19.6571306,0.659372922 19.6571306,1.39263658 L19.6571306,2.92688836 C19.6573397,3.66015202 19.0628694,4.25462233 18.3293967,4.25462233 Z" id="Shape"></path>
            </g>
            <g id="Group" transform="translate(7.524941, 44.418052)" fill="#42C3E2">
                <path d="M43.3150214,26.3069834 C43.3045701,26.4080475 43.2940143,26.5089026 43.283772,26.611639 C43.0469454,28.9209596 41.1086461,30.6831544 38.7855297,30.6831544 L4.95872684,30.6831544 C2.63561045,30.6831544 0.697311164,28.9208551 0.460484561,26.611639 C0.450033254,26.5090071 0.439477435,26.4078385 0.429235154,26.3069834 L43.3150214,26.3069834 Z" id="Shape"></path>
                <path d="M43.6372352,21.0826888 L0.107021378,21.0826888 C-0.282916865,3.75484086 7.02944418,0.000209026128 7.02944418,0.000209026128 L36.7149169,0.000209026128 C36.7147078,0.000313539192 44.0271734,3.75494537 43.6372352,21.0826888 Z" id="Shape"></path>
            </g>
            <path d="M14.1815867,71.0299002 C14.1711354,70.9272684 14.1605796,70.8260998 14.1503373,70.7252447 C13.9674394,68.8584323 13.8630309,67.1202755 13.8281235,65.5007411 C13.8201805,65.148323 13.8166271,64.8032209 13.8148504,64.4618812 L7.63175297,65.5007411 C7.64032304,65.9056247 7.6535962,66.3179287 7.67115439,66.7378622 C7.68871259,67.1579002 7.71086936,67.5850451 7.73731116,68.0204466 C7.77733967,68.6731306 7.82771496,69.3433729 7.88906413,70.0314869 C7.90933967,70.2608931 7.9311829,70.4921805 7.95407126,70.7254537 L14.2299762,71.3658052 C14.2103278,71.2550214 14.1932922,71.1432969 14.1815867,71.0299002 Z" id="Shape" fill="#CC6469"></path>
            <g id="Group" transform="translate(7.524941, 44.418052)" fill="#00A6C8">
                <path d="M0.107021378,21.0826888 L6.30328741,21.0826888 C5.91314014,3.75494537 13.2257102,0.000313539192 13.2257102,0.000313539192 L7.02944418,0.000313539192 C7.02944418,0.000313539192 4.02835154,1.54135867 1.97383373,7.20439905 C1.92366746,7.34256532 1.87412827,7.48313539 1.82532067,7.62610926 C1.62977672,8.19852732 1.44384798,8.81055582 1.27181948,9.4648076 C1.09979097,10.1192684 0.941140143,10.8157435 0.799524941,11.5569501 C0.728874109,11.927658 0.662508314,12.3093397 0.600845606,12.7025178 C0.446897862,13.6856722 0.322736342,14.740209 0.23567696,15.8711449 C0.148513064,17.0020808 0.0985558195,18.2094157 0.0924940618,19.4975392 C0.0899857482,20.0128931 0.0947933492,20.5409976 0.107021378,21.0826888 Z" id="Shape"></path>
                <path d="M11.1550974,30.6833634 C8.831981,30.6833634 6.89368171,28.9210641 6.65685511,26.611848 C6.6464038,26.5092162 6.63584798,26.4080475 6.6256057,26.3071924 L0.429339667,26.3071924 C0.439790974,26.4082565 0.450346793,26.5091116 0.460589074,26.611848 C0.475534442,26.7561805 0.496855107,26.8983183 0.524655582,27.0382613 C0.941244656,29.1344798 2.78109264,30.6835724 4.95893587,30.6835724 L11.1550974,30.6835724 L11.1550974,30.6833634 Z" id="Shape"></path>
            </g>
            <path d="M46.0527411,38.8540903 C42.1690356,54.9438765 29.3969121,61.8435154 29.3969121,61.8435154 C29.3969121,61.8435154 16.6247886,54.943772 12.7412922,38.8540903 C18.3592874,42.7463658 23.8728741,38.8540903 23.8728741,38.8540903 L34.9207411,38.8540903 C34.9209501,38.8540903 40.4345368,42.7464703 46.0527411,38.8540903 Z" id="Shape" fill="#999999"></path>
            <path d="M29.3969121,42.7812732 C35.3368076,46.1731401 37.3112684,43.2419667 37.3112684,43.2419667 C34.0450261,42.7394679 37.3112684,35.2019857 29.3969121,37.3634204 C21.4825558,35.2021948 24.7487981,42.739677 21.4825558,43.2419667 C21.4825558,43.2420713 23.4572257,46.1733492 29.3969121,42.7812732 Z" id="Shape" fill="#B3B3B3"></path>
        </g>
    </g>
</svg>