<?xml version="1.0" encoding="UTF-8"?>
<svg width="100px" height="100px" viewBox="0 0 100 100" version="1.1" xmlns="http://www.w3.org/2000/svg" xmlns:xlink="http://www.w3.org/1999/xlink">
    <!-- Generator: Sketch 51.1 (57501) - http://www.bohemiancoding.com/sketch -->
    <title>013-fork</title>
    <desc>Created with Sketch.</desc>
    <defs></defs>
    <g id="013-fork" stroke="none" stroke-width="1" fill="none" fill-rule="evenodd">
        <rect id="Rectangle" x="0" y="0" width="100" height="100"></rect>
        <g transform="translate(7.000000, 7.000000)" fill-rule="nonzero" id="Shape">
            <path d="M84.9976868,29.2476512 L85.8521779,26.0000546 C86.2437177,24.5119383 84.8857746,23.1540973 83.3976584,23.545535 L80.1500617,24.4000261 C79.8060617,24.4906168 79.4921566,24.6707782 79.2406856,24.9223511 L59.1142372,45.0494116 C57.9014638,46.2621851 55.9352977,46.2621851 54.7224223,45.0494116 L52.6099644,42.9370558 C51.397191,41.7242823 51.397191,39.7581163 52.6099644,38.5452408 L72.7366168,18.4185884 C72.9881898,18.1670154 73.1683511,17.8531103 73.2589419,17.5091103 L74.113433,14.2617177 C74.5049727,12.7736014 73.1470297,11.4157604 71.6589134,11.8071981 L68.4115208,12.6616892 C68.0675208,12.75228 67.7536157,12.9324413 67.5021447,13.1840142 L47.3752883,33.3108707 C46.1625148,34.5236441 44.1963488,34.5236441 42.9834733,33.3108707 L40.8710154,31.1984128 C39.658242,29.9856394 39.658242,28.0194733 40.8710154,26.8065979 L60.9976679,6.6797414 C61.2492408,6.42816845 61.4294021,6.11426335 61.5199929,5.77036536 L62.374484,2.52276868 C62.7660237,1.03465243 61.4080807,-0.323188612 59.9199644,0.0682491103 L56.6725718,0.922740214 C56.3285718,1.01333096 56.0146667,1.19349229 55.7631957,1.44506524 L31.8921257,25.3164413 C29.098911,28.109656 29.098911,32.6379692 31.8921257,35.4309798 C34.1887236,37.7275777 34.6495326,41.2836726 33.0139004,44.0897414 L29.7887473,49.6230202 L30.7838173,55.1367117 L36.2975089,56.1317817 L41.8304816,52.9068327 C44.6365504,51.2710985 48.1926453,51.7319075 50.4892432,54.0286074 C53.2824579,56.8218221 57.8107711,56.8218221 60.6038837,54.0286074 L84.4751578,30.1573333 C84.7269348,29.9055563 84.9071981,29.5916512 84.9976868,29.2476512 Z" fill="#999999"></path>
            <path d="M37.8017438,57.6357106 L28.2849205,48.1188873 C27.0370534,46.8710202 25.013962,46.8710202 23.7660949,48.1188873 C22.5182278,49.3667544 22.5182278,51.3898458 23.7660949,52.6377129 L25.8098956,59.9150676 L33.2829181,62.1545362 C34.5307853,63.4024033 36.5538766,63.4024033 37.8017438,62.1545362 C39.0496109,60.906669 39.0496109,58.8835777 37.8017438,57.6357106 Z" fill="#B3B3B3"></path>
            <path d="M35.3578339,55.1918007 C36.6057011,56.4396679 36.6057011,58.4626572 35.3578339,59.7106263 C34.1099668,60.9585955 32.0868754,60.9584935 30.8390083,59.7106263 L25.2850202,58.0462254 L25.8098956,59.9149656 L33.2829181,62.1544342 C34.5307853,63.4023013 36.5538766,63.4023013 37.8017438,62.1544342 C39.0496109,60.906567 39.0496109,58.8835777 37.8017438,57.6356085 L35.3578339,55.1918007 Z" fill="#999999"></path>
            <path d="M16.9245552,82.7299597 C28.2489087,70.3948256 33.2828161,62.1545362 33.2828161,62.1545362 L23.7659929,52.6377129 C23.7659929,52.6377129 15.5257034,57.6716204 3.1905694,68.9959739 C-0.8888707,72.7411056 -1.03730486,79.126121 2.87839858,83.0421305 C6.79440807,86.958038 13.1794235,86.8093998 16.9245552,82.7299597 Z M9.22760617,76.6928209 C7.76621827,75.231433 7.76621827,72.8617912 9.22760617,71.4004033 C10.6889941,69.9390154 13.0586358,69.9390154 14.5200237,71.4004033 C15.9814116,72.8617912 15.9814116,75.231433 14.5200237,76.6928209 C13.0586358,78.1544128 10.6889941,78.1544128 9.22760617,76.6928209 Z" fill="#C86D5C"></path>
            <path d="M16.9245552,82.7299597 C28.2489087,70.3948256 33.2828161,62.1545362 33.2828161,62.1545362 L30.8389063,59.7106263 C30.8389063,59.7106263 25.8049988,67.9509158 14.4806453,80.2860498 C11.1349087,83.9303891 5.68375326,84.4349632 1.76692764,81.7096916 C2.09236062,82.1773357 2.46074259,82.6243725 2.87839858,83.0421305 C6.79440807,86.958038 13.1794235,86.8093998 16.9245552,82.7299597 Z" fill="#B24D40"></path>
        </g>
    </g>
</svg>