<?xml version="1.0" encoding="UTF-8"?>
<svg width="100px" height="100px" viewBox="0 0 100 100" version="1.1" xmlns="http://www.w3.org/2000/svg" xmlns:xlink="http://www.w3.org/1999/xlink">
    <!-- Generator: Sketch 51.1 (57501) - http://www.bohemiancoding.com/sketch -->
    <title>014-hose</title>
    <desc>Created with Sketch.</desc>
    <defs></defs>
    <g id="014-hose" stroke="none" stroke-width="1" fill="none" fill-rule="evenodd">
        <rect id="Rectangle" x="0" y="0" width="100" height="100"></rect>
        <g transform="translate(11.000000, 3.000000)" fill-rule="nonzero">
            <rect id="Rectangle-path" fill="#00A6C8" x="65.6363373" y="48.5993397" width="9.22327553" height="30.0664917"></rect>
            <polygon id="Shape" fill="#D9D9D9" points="65.6362257 78.6657197 67.7055653 89.2218527 70.2478076 91.6050095 72.7902732 89.2218527 74.8595012 78.6657197"></polygon>
            <path d="M74.8595012,64.3202257 L74.8595012,48.5998979 L65.6362257,48.5998979 L65.6362257,74.8260095 C66.7100808,73.940601 67.7478765,72.9992613 68.7445891,72.0023254 C71.0964869,69.6504276 73.1399264,67.0731306 74.8595012,64.3202257 Z" id="Shape" fill="#0095B3"></path>
            <path d="M38.3487625,3.34414489 C17.2176295,3.34414489 0.0880831354,20.4738029 0.0880831354,41.6048242 C0.0880831354,62.7358456 17.2177411,79.8655036 38.3487625,79.8655036 C59.4779976,79.8655036 76.6076556,62.7358456 76.6076556,41.6048242 C76.6076556,20.4738029 59.4779976,3.34414489 38.3487625,3.34414489 Z M38.3487625,61.2349715 C27.5248076,61.2349715 18.7185036,52.4288907 18.7185036,41.6047126 C18.7185036,30.7805344 27.5245843,21.9744537 38.3487625,21.9744537 C49.1729406,21.9744537 57.9790214,30.7805344 57.9790214,41.6047126 C57.9790214,52.4288907 49.1729406,61.2349715 38.3487625,61.2349715 Z" id="Shape" fill="#42C3E2"></path>
            <path d="M38.3487625,11.2148029 C21.5917553,11.2148029 7.95874109,24.8478171 7.95874109,41.6048242 C7.95874109,58.3618314 21.5917553,71.9948456 38.3487625,71.9948456 C55.1057696,71.9948456 68.7387838,58.3618314 68.7387838,41.6048242 C68.7387838,24.8478171 55.1058812,11.2148029 38.3487625,11.2148029 Z M38.3487625,64.1258622 C25.9299335,64.1258622 15.8277245,54.0216437 15.8277245,41.6048242 C15.8277245,29.1859952 25.9299335,19.0837862 38.3487625,19.0837862 C50.7658052,19.0837862 60.8698005,29.1859952 60.8698005,41.6048242 C60.8698005,54.021867 50.7658052,64.1258622 38.3487625,64.1258622 Z" id="Shape" fill="#00A6C8"></path>
            <path d="M38.3487625,19.0836746 C25.9299335,19.0836746 15.8277245,29.1858836 15.8277245,41.6047126 C15.8277245,54.0217553 25.9299335,64.1257506 38.3487625,64.1257506 C50.7658052,64.1257506 60.8698005,54.0215321 60.8698005,41.6047126 C60.8698005,29.1859952 50.7658052,19.0836746 38.3487625,19.0836746 Z M38.3487625,56.2550926 C30.2700095,56.2550926 23.6983824,49.6834656 23.6983824,41.6047126 C23.6983824,33.5259596 30.2700095,26.9543325 38.3487625,26.9543325 C46.4275154,26.9543325 52.9991425,33.5259596 52.9991425,41.6047126 C52.9991425,49.6834656 46.4276271,56.2550926 38.3487625,56.2550926 Z" id="Shape" fill="#0095B3"></path>
            <path d="M38.3483159,0 C35.346791,0 32.9133967,2.43317102 32.9133967,5.4348076 L32.9133967,24.8633349 C32.9133967,27.8648599 35.3465677,30.2981425 38.3482043,30.2981425 C41.3497292,30.2981425 43.7830119,27.8649715 43.7830119,24.8633349 L43.7830119,5.4348076 C43.7833468,2.43317102 41.3499525,0 38.3483159,0 Z" id="Shape" fill="#3B484A"></path>
            <path d="M76.2732969,75.6019002 L64.2225416,75.6019002 C63.3256342,75.6019002 62.5985297,76.3290048 62.5985297,77.2259121 L62.5985297,80.1054157 C62.5985297,81.002323 63.3256342,81.7294276 64.2225416,81.7294276 L76.2732969,81.7294276 C77.1702043,81.7294276 77.8973088,81.002323 77.8973088,80.1054157 L77.8973088,77.2259121 C77.8974204,76.3290048 77.1702043,75.6019002 76.2732969,75.6019002 Z" id="Shape" fill="#B3B3B3"></path>
            <path d="M66.3805226,80.105304 L66.3805226,77.2260238 C66.3805226,76.3291164 67.1076271,75.6020119 68.0045344,75.6020119 L64.2225416,75.6020119 C63.3256342,75.6020119 62.5985297,76.3291164 62.5985297,77.2260238 L62.5985297,80.1055273 C62.5985297,81.0024347 63.3256342,81.7295392 64.2225416,81.7295392 L68.0047577,81.7295392 C67.1077387,81.7296508 66.3805226,81.0025463 66.3805226,80.105304 Z" id="Shape" fill="#999999"></path>
            <path d="M72.7902732,89.2218527 L67.7059002,89.2218527 C66.3899002,89.2218527 65.32319,90.2885629 65.32319,91.6045629 C65.32319,92.9205629 66.3899002,93.9872732 67.7059002,93.9872732 L72.7902732,93.9872732 C74.1062732,93.9872732 75.1729834,92.9205629 75.1729834,91.6045629 C75.1729834,90.2890095 74.1061615,89.2218527 72.7902732,89.2218527 Z" id="Shape" fill="#B3B3B3"></path>
            <path d="M69.1050713,91.6050095 C69.1050713,90.2890095 70.1717815,89.222076 71.4877815,89.222076 L67.7054537,89.222076 C66.3894537,89.222076 65.3227435,90.2890095 65.3227435,91.6050095 C65.3227435,92.9210095 66.3894537,93.9877197 67.7054537,93.9877197 L71.4877815,93.9877197 C70.1718931,93.9877197 69.1050713,92.9210095 69.1050713,91.6050095 Z" id="Shape" fill="#999999"></path>
        </g>
    </g>
</svg>