<?xml version="1.0" encoding="UTF-8"?>
<svg width="100px" height="100px" viewBox="0 0 100 100" version="1.1" xmlns="http://www.w3.org/2000/svg" xmlns:xlink="http://www.w3.org/1999/xlink">
    <!-- Generator: Sketch 51.1 (57501) - http://www.bohemiancoding.com/sketch -->
    <title>015-sunflower</title>
    <desc>Created with Sketch.</desc>
    <defs></defs>
    <g id="015-sunflower" stroke="none" stroke-width="1" fill="none" fill-rule="evenodd">
        <rect id="Rectangle" x="0" y="0" width="100" height="100"></rect>
        <g transform="translate(24.000000, 3.000000)" fill-rule="nonzero">
            <path d="M30.9331057,37.2018646 C31.5380819,37.9559976 32.1985689,38.6965914 32.9150178,39.4131532 C36.1027078,42.6008432 39.7543409,44.7061876 43.0540677,45.5187648 C44.5968587,45.8987648 45.9947803,44.5006176 45.6148931,42.9579394 C44.8020903,39.6582126 42.6967458,36.0065796 39.5092815,32.8188895 C38.7926069,32.102215 38.0521259,31.441728 37.2979929,30.8369774 C38.2590499,30.942696 39.2496675,30.9993349 40.263076,30.9993349 C44.7698219,30.9993349 48.8392518,29.9063836 51.7473575,28.1489964 C53.1095131,27.3255879 53.1095131,25.3476247 51.7473575,24.5242162 C48.8394774,22.7663777 44.7698219,21.6738777 40.263076,21.6738777 C39.2495546,21.6738777 38.2590499,21.7305166 37.2979929,21.8362352 C38.0523515,21.2312589 38.7927197,20.570772 39.5092815,19.854323 C42.6969715,16.666633 44.8023159,13.015 45.6148931,9.71527316 C45.9948931,8.17248219 44.5967458,6.77456057 43.0540677,7.15444774 C39.7543409,7.96725059 36.1027078,10.072595 32.9150178,13.2600594 C32.1983432,13.976734 31.5378563,14.717215 30.9331057,15.471348 C31.0388242,14.510291 31.0954632,13.5196734 31.0954632,12.5062648 C31.0954632,7.999519 30.0025119,3.93008907 28.2451247,1.02198337 C27.421829,-0.340172209 25.443753,-0.340172209 24.6203444,1.02198337 C22.8623931,3.92975059 21.7698931,7.99940618 21.7698931,12.506152 C21.7698931,13.5196734 21.8265321,14.5101781 21.9322506,15.4712352 C21.3272743,14.7171021 20.6667874,13.9765083 19.9503385,13.2599466 C16.7626485,10.0722565 13.1110154,7.96691211 9.8112886,7.15433492 C8.26849762,6.77433492 6.87057601,8.17248219 7.25046318,9.71516033 C8.06326603,13.0148872 10.1686105,16.6665202 13.3560748,19.8542102 C14.0727494,20.5708848 14.8132304,21.2313717 15.5673634,21.8361223 C14.6063064,21.7304038 13.6156888,21.6737648 12.6022803,21.6737648 C8.09553444,21.6737648 4.02610451,22.7667162 1.11799881,24.5241033 C-0.24415677,25.3475119 -0.24415677,27.3254751 1.11799881,28.1488836 C4.02587886,29.9067221 8.09553444,30.9992221 12.6022803,30.9992221 C13.6158017,30.9992221 14.6063064,30.942696 15.5673634,30.8368646 C14.8130048,31.4418409 14.0726366,32.1023278 13.3560748,32.8187767 C10.1683848,36.0064667 8.06304038,39.6580998 7.25046318,42.9578266 C6.87046318,44.5006176 8.26861045,45.8985392 9.8112886,45.518652 C13.1110154,44.7058492 16.7626485,42.6005048 19.9503385,39.4130404 C20.6670131,38.6963658 21.3275,37.9558848 21.9322506,37.2017518 L30.9331057,37.2017518 L30.9331057,37.2018646 Z" id="Shape" fill="#FFCE1C"></path>
            <path d="M26.1695665,73.3342458 L8.48715558,78.3838005 L10.8904751,91.1112055 C11.3149287,93.3595012 13.2791271,94.9875891 15.5669121,94.9875891 L36.1649881,94.9875891 C38.452886,94.9875891 40.4169715,93.359614 40.8414252,91.1112055 L43.244519,78.3838005 L26.1695665,73.3342458 Z" id="Shape" fill="#FF5E6B"></path>
            <path d="M18.5350416,91.1114311 L16.1321734,78.3838005 L29.9252257,74.4449109 L26.1696793,73.3343587 L8.48738124,78.3840261 L10.8902494,91.1116568 C11.3147031,93.359614 13.2789014,94.9875891 15.5666865,94.9875891 L23.2115914,94.9875891 C20.9236936,94.9875891 18.9596081,93.359614 18.5350416,91.1114311 Z" id="Shape" fill="#E63E4C"></path>
            <path d="M11.8787233,56.506158 C11.9311876,59.6921556 13.6946675,62.7456948 16.7292518,64.2981888 C19.7640618,65.8507957 23.2719537,65.494038 25.8864846,63.6725653 C25.8340202,60.4865677 24.0705404,57.4330285 21.0359561,55.8805344 C18.0009204,54.3279276 14.4931413,54.6849109 11.8787233,56.506158 Z" id="Shape" fill="#00AE95"></path>
            <path d="M25.8853563,65.1065914 C25.6655701,65.1065914 25.4427375,65.0559323 25.2336698,64.9488599 L17.3430285,60.9120368 C16.6382007,60.5515558 16.3594062,59.687981 16.7198872,58.9829276 C17.0803682,58.2780998 17.9443943,57.9994181 18.6489964,58.3597862 L26.5396378,62.3966093 C27.2444656,62.7570903 27.5232601,63.6206651 27.1627791,64.3257185 C26.9089192,64.821253 26.4062767,65.1065914 25.8853563,65.1065914 Z" id="Shape" fill="#2FC8B4"></path>
            <path d="M43.7172625,56.506158 C43.6647981,59.6921556 41.9013183,62.7456948 38.866734,64.2981888 C35.831924,65.8507957 32.3240321,65.494038 29.7095012,63.6725653 C29.7619656,60.4865677 31.5254454,57.4330285 34.5600297,55.8805344 C37.5948397,54.3279276 41.1027316,54.6849109 43.7172625,56.506158 Z" id="Shape" fill="#00AE95"></path>
            <path d="M29.7106295,65.1065914 C29.189709,65.1065914 28.6870665,64.8214786 28.4333195,64.3259442 C28.0726128,63.6211164 28.351633,62.7573159 29.0564608,62.3968349 L36.9471021,58.3600119 C37.6517043,57.9993052 38.5152791,58.2784382 38.8762114,58.9831532 C39.2369181,59.687981 38.9578979,60.5517815 38.2530701,60.9122625 L30.3624287,64.9490855 C30.1534739,65.0555938 29.9303029,65.1065914 29.7106295,65.1065914 Z" id="Shape" fill="#2FC8B4"></path>
            <path d="M49.0266568,14.7767874 C45.6630701,14.2950178 41.4901781,14.879234 37.3416568,16.6400059 C36.4088064,17.0361401 35.518943,17.4750356 34.675677,17.9478919 C35.1335273,17.0965024 35.5570784,16.1991924 35.9368527,15.259234 C37.6256413,11.0793468 38.136633,6.89551069 37.5954038,3.54049881 C37.3423337,1.97187055 35.5092399,1.23105107 34.2374584,2.18375891 C31.5176603,4.22140736 28.9789489,7.58578385 27.2901603,11.765671 C26.9106116,12.705291 26.5918765,13.6450238 26.3296675,14.5758432 C26.0514371,13.6498753 25.716342,12.7160095 25.3204335,11.7829335 C23.5594359,7.63441211 20.9634086,4.31539192 18.2093112,2.32546912 C16.9190261,1.39340855 15.0984561,2.16615796 14.87269,3.7418943 C14.3909204,7.105481 14.9751366,11.2783729 16.7359086,15.4268943 C17.1320428,16.3597447 17.5709382,17.2496081 18.0437945,18.0928741 C17.192405,17.6350238 16.295095,17.2114727 15.3551366,16.8316983 C11.1752494,15.1429097 6.9914133,14.6319181 3.63640143,15.1731473 C2.06777316,15.4262173 1.32695368,17.2593112 2.27966152,18.5310926 C4.31730998,21.2510036 7.68168646,23.7896021 11.8615736,25.4783907 C12.8013064,25.8579394 13.7409264,26.1766746 14.6717458,26.4388836 C13.7457779,26.717114 12.8119121,27.052209 11.8788361,27.4481176 C7.73031473,29.2091152 4.41129454,31.8051425 2.42137173,34.5592399 C1.48931116,35.8495249 2.26206057,37.670095 3.83768409,37.895861 C7.20127078,38.3776306 11.3741627,37.7934145 15.5226841,36.0326425 C16.4555344,35.6365083 17.3453979,35.1976128 18.1886639,34.7247565 C17.7308135,35.5761461 17.3072625,36.4734561 16.9274881,37.4134145 C15.2386995,41.5933017 14.7277078,45.7771378 15.2689371,49.1321496 C15.5220071,50.7007779 17.355101,51.4415974 18.6268824,50.4888895 C21.3467933,48.4512411 23.8853919,45.0868646 25.5741805,40.9069774 C25.9537292,39.9672447 26.2724644,39.0276247 26.5346734,38.0968052 C26.8129038,39.0227732 27.1479988,39.956639 27.5439074,40.889715 C29.304905,45.0382363 31.9009323,48.3572565 34.6550297,50.3471793 C35.9453147,51.2792399 37.7658848,50.5066033 37.9916508,48.9307542 C38.4734204,45.5671675 37.8892043,41.3942755 36.1284323,37.2457542 C35.7322981,36.3129038 35.2934026,35.4230404 34.8205463,34.5797743 C35.6719359,35.0376247 36.5692458,35.4611758 37.5092043,35.8409501 C41.6890914,37.5297387 45.8729276,38.0407304 49.2279394,37.4995012 C50.7965677,37.2464311 51.5373872,35.4133373 50.5846793,34.1415558 C48.5470309,31.4216449 45.1826544,28.8829335 41.0027672,27.1942577 C40.0631473,26.814709 39.1234145,26.4959739 38.192595,26.2337648 C39.1185629,25.9555344 40.0524287,25.6204394 40.9855048,25.2245309 C45.1340261,23.4635333 48.4530463,20.8675059 50.4429691,18.1134086 C51.3751425,16.8231235 50.6023931,15.0023278 49.0266568,14.7767874 Z" id="Shape" fill="#FAA330"></path>
            <path d="M21.9973515,76.5150534 C21.2484086,76.5150534 20.5009323,76.2196734 19.9440202,75.6342162 C18.8661876,74.5005344 18.9114311,72.7076069 20.0451128,71.6296615 C25.0549525,66.8666865 27.1868112,60.0554572 26.3816805,51.3854097 C25.7525594,44.6110748 23.4828266,39.2271021 23.4600356,39.1735095 C22.8470487,37.7358729 23.5135154,36.071342 24.9505879,35.4565499 C26.3873219,34.8415321 28.0501603,35.5051781 28.6669834,36.941348 C28.7731532,37.1880998 31.2707957,43.0723456 32.0069893,50.6958135 C33.0125,61.1090321 30.2259086,69.7675713 23.9485748,75.7355344 C23.4004632,76.2562292 22.6980048,76.5150534 21.9973515,76.5150534 Z" id="Shape" fill="#2FC8B4"></path>
            <path d="M43.2444062,69.5047981 L8.48692993,69.5047981 C7.16076603,69.5047981 6.0855285,70.5800356 6.0855285,71.9061995 L6.0855285,75.9822862 C6.0855285,77.3084501 7.16076603,78.3836876 8.48692993,78.3836876 L43.2444062,78.3836876 C44.5705701,78.3836876 45.6458076,77.3083373 45.6458076,75.9822862 L45.6458076,71.9061995 C45.6458076,70.5801485 44.5706829,69.5047981 43.2444062,69.5047981 Z" id="Shape" fill="#F0F0F0"></path>
            <path d="M13.7304335,75.982399 L13.7304335,71.9064252 C13.7304335,70.5802613 14.8057838,69.5050238 16.1318349,69.5050238 L8.48692993,69.5050238 C7.16076603,69.5050238 6.0855285,70.5802613 6.0855285,71.9064252 L6.0855285,75.982399 C6.0855285,77.3085629 7.16076603,78.3838005 8.48692993,78.3838005 L16.1318349,78.3838005 C14.805671,78.3838005 13.7304335,77.3085629 13.7304335,75.982399 Z" id="Shape" fill="#D9D9D9"></path>
            <path d="M24.9504751,35.4560986 C23.5134026,36.0708907 22.8470487,37.7353088 23.4599228,39.1730582 C23.4795546,39.2188658 25.1480344,43.1802078 26.0210867,48.5746734 C26.1580582,48.5770428 26.2945784,48.5798634 26.4320012,48.5798634 C28.2324881,48.5798634 29.9833314,48.3633492 31.6609501,47.9576247 C30.6899644,41.7045487 28.7597268,37.1571853 28.6667577,36.9410095 C28.0502732,35.5047268 26.3873219,34.8410808 24.9504751,35.4560986 Z" id="Shape" fill="#00AE95"></path>
            <circle id="Oval" fill="#C86D5C" cx="26.4322268" cy="26.3363242" r="16.5091271"></circle>
            <path d="M30.2547922,40.9348456 C21.1367102,40.9348456 13.7448753,33.5432363 13.7448753,24.4249287 C13.7448753,18.729329 16.6291746,13.7074169 21.0168884,10.7398515 C14.5595962,12.9817162 9.9224228,19.1156473 9.9224228,26.3362114 C9.9224228,35.4542933 17.3140321,42.8461283 26.4323397,42.8461283 C29.854709,42.8461283 33.0338242,41.8046259 35.6702435,40.0215143 C33.9732185,40.6106948 32.15231,40.9348456 30.2547922,40.9348456 Z" id="Shape" fill="#B24D40"></path>
            <g id="Group" transform="translate(15.457245, 23.580760)" fill="#3B484A">
                <path d="M1.48637767,4.58933492 C0.694786223,4.58933492 0.0530285036,3.9475772 0.0530285036,3.15598575 L0.0530285036,1.43876485 C0.0530285036,0.647173397 0.694786223,0.00541567696 1.48637767,0.00541567696 C2.27796912,0.00541567696 2.91972684,0.647173397 2.91972684,1.43876485 L2.91972684,3.15598575 C2.91983967,3.94735154 2.27808195,4.58933492 1.48637767,4.58933492 Z" id="Shape"></path>
                <path d="M20.4635867,4.58933492 C19.6719952,4.58933492 19.0302375,3.9475772 19.0302375,3.15598575 L19.0302375,1.43876485 C19.0302375,0.647173397 19.6719952,0.00541567696 20.4635867,0.00541567696 C21.2551781,0.00541567696 21.8969359,0.647173397 21.8969359,1.43876485 L21.8969359,3.15598575 C21.8971615,3.94735154 21.255291,4.58933492 20.4635867,4.58933492 Z" id="Shape"></path>
                <path d="M10.9749822,5.50582542 C9.64870546,5.50582542 8.40174584,4.94947743 7.55396675,3.97973278 C7.03304632,3.38366983 7.0936342,2.47812352 7.68980998,1.95720309 C8.28587292,1.43628266 9.19119359,1.49687055 9.71233967,2.09304632 C10.0156176,2.44021378 10.4759501,2.63901425 10.9748694,2.63901425 C11.4737886,2.63901425 11.9343468,2.43998812 12.2375119,2.09304632 C12.758658,1.49675772 13.6639786,1.43605701 14.2600416,1.95742874 C14.8561045,2.47834917 14.9170309,3.38389549 14.3956591,3.97995843 C13.5482185,4.94981591 12.3011461,5.50582542 10.9749822,5.50582542 Z" id="Shape"></path>
            </g>
        </g>
    </g>
</svg>