<?xml version="1.0" encoding="UTF-8"?>
<svg width="100px" height="100px" viewBox="0 0 100 100" version="1.1" xmlns="http://www.w3.org/2000/svg" xmlns:xlink="http://www.w3.org/1999/xlink">
    <!-- Generator: Sketch 51.1 (57501) - http://www.bohemiancoding.com/sketch -->
    <title>016-ant</title>
    <desc>Created with Sketch.</desc>
    <defs></defs>
    <g id="016-ant" stroke="none" stroke-width="1" fill="none" fill-rule="evenodd">
        <rect id="Rectangle" x="0" y="0" width="100" height="100"></rect>
        <g transform="translate(5.000000, 18.000000)" fill-rule="nonzero">
            <g id="Group" fill="#FF5E6B">
                <path d="M14.5212811,21.6076868 C13.7780071,21.6076868 13.1734164,21.0082206 13.1674377,20.2645196 C13.1666904,20.217331 13.1118149,17.7151601 11.5907829,14.7319217 C9.55217082,10.7339146 5.96508897,7.78483986 0.929679715,5.96562278 C0.226227758,5.71163701 -0.137829181,4.93548043 0.116156584,4.23202847 C0.370355872,3.52846975 1.14747331,3.16451957 1.84975089,3.41850534 C9.02925267,6.01185053 12.4596085,10.4083986 14.0733096,13.6400712 C15.8418149,17.1817794 15.8750178,20.1238078 15.8755516,20.2474377 C15.8790747,20.9953025 15.2755516,21.6040569 14.5274733,21.6075801 C14.5254448,21.6076868 14.5233096,21.6076868 14.5212811,21.6076868 Z" id="Shape"></path>
                <path d="M32.212847,21.4725267 C32.0818505,21.4725267 31.9493594,21.4535231 31.8178292,21.4133808 C31.1040214,21.1959075 30.7006762,20.4418505 30.9158007,19.7279359 C30.9319217,19.672847 31.6151957,17.2695374 31.0454093,13.9769039 C30.2801423,9.55494662 27.7254448,5.6769395 23.452847,2.4502847 C22.8559431,1.99964413 22.7376512,1.15067616 23.1880783,0.553772242 C23.6389324,-0.0429181495 24.4880071,-0.161209964 25.0845907,0.289217082 C31.1761922,4.88935943 33.1534164,10.1037011 33.7392171,13.6680427 C34.3813879,17.5742349 33.5433096,20.3945552 33.5074377,20.5127402 C33.3297865,21.0966192 32.7932028,21.4725267 32.212847,21.4725267 Z" id="Shape"></path>
            </g>
            <path d="M72.6133452,63.3890391 C71.9620996,63.3890391 71.3875089,62.9176868 71.2786121,62.2539502 C69.9665125,54.2490747 73.9511744,48.7966548 74.1214591,48.5683986 C74.5685765,47.9692527 75.4170107,47.8458363 76.0163701,48.2929537 C76.6144484,48.7393238 76.7386121,49.585516 76.2942705,50.1846619 C76.2422776,50.2557651 72.8346619,55.0049466 73.9511744,61.815694 C74.0721352,62.5537367 73.5718505,63.2501423 72.8340214,63.3711032 C72.7600356,63.383274 72.6861566,63.3890391 72.6133452,63.3890391 Z" id="Shape" fill="#E63E4C"></path>
            <g id="Group" transform="translate(42.384342, 25.729537)" fill="#FF5E6B">
                <path d="M1.60313167,37.6595018 C0.951886121,37.6595018 0.377295374,37.1881495 0.268398577,36.5244128 C-1.04370107,28.5195374 2.94096085,23.0671174 3.11124555,22.8388612 C3.55814947,22.2397153 4.40701068,22.1162989 5.00615658,22.5634164 C5.60423488,23.0097865 5.72839858,23.8559786 5.28405694,24.4551246 C5.23206406,24.5262278 1.8244484,29.2754093 2.94085409,36.0861566 C3.06181495,36.8241993 2.56153025,37.520605 1.82370107,37.6415658 C1.74950178,37.6537367 1.67562278,37.6595018 1.60313167,37.6595018 Z" id="Shape"></path>
                <ellipse id="Oval" cx="32.5648399" cy="14.0870819" rx="14.9675445" ry="14.0364769"></ellipse>
            </g>
            <g id="Group" transform="translate(10.889680, 12.064057)" fill="#E63E4C">
                <ellipse id="Oval" cx="43.3126335" cy="27.7525623" rx="14.9675445" ry="14.0364769"></ellipse>
                <path d="M20.1557295,1.91263345 C20.725516,5.20537367 20.0421352,7.60868327 20.026121,7.66366548 C19.8111032,8.37779359 20.2143416,9.13174377 20.9280427,9.34911032 C21.0596797,9.38914591 21.1923843,9.40825623 21.3230605,9.40825623 C21.9032028,9.40825623 22.4401068,9.03224199 22.6178648,8.44857651 C22.6538434,8.3302847 23.4917082,5.51007117 22.8496441,1.603879 C22.8280783,1.47202847 22.8038434,1.33708185 22.7782206,1.20096085 C21.7928114,0.779466192 20.7762278,0.411992883 19.7326335,0.103985765 C19.9077224,0.696298932 20.0495018,1.29907473 20.1557295,1.91263345 Z" id="Shape"></path>
                <path d="M0.701103203,2.66786477 C2.22224199,5.65120996 2.27701068,8.1530605 2.27775801,8.20046263 C2.28373665,8.94405694 2.8883274,9.54362989 3.63160142,9.54362989 C3.63373665,9.54362989 3.63576512,9.54362989 3.63779359,9.54362989 C4.38576512,9.54010676 4.98896797,8.93135231 4.98587189,8.18348754 C4.98533808,8.06007117 4.95202847,5.11782918 3.18362989,1.576121 C3.00629893,1.22113879 2.80580071,0.851637011 2.58224199,0.472740214 C1.71064057,0.772099644 0.859537367,1.11224199 0.0323487544,1.49199288 C0.269466192,1.87441281 0.495373665,2.26430605 0.701103203,2.66786477 Z" id="Shape"></path>
            </g>
            <ellipse id="Oval" fill="#FF5E6B" cx="22.6236299" cy="36.5687189" rx="22.4312456" ry="21.0375801"></ellipse>
            <path d="M24.4287544,53.9948754 C12.0402491,53.9948754 1.99718861,44.5764769 1.99718861,32.9580427 C1.99718861,30.4757295 2.45690391,28.094306 3.29893238,25.8831673 C1.32576512,29.0150178 0.191850534,32.6674377 0.191850534,36.5687189 C0.191850534,48.187153 10.2346975,57.6055516 22.6234164,57.6055516 C32.3649822,57.6055516 40.6548043,51.7811744 43.7531317,43.6437011 C39.8499288,49.8387544 32.6575089,53.9948754 24.4287544,53.9948754 Z" id="Shape" fill="#E63E4C"></path>
            <g id="Group" transform="translate(5.444840, 33.416370)" fill="#3B484A">
                <path d="M1.44491103,4.56074733 C0.696939502,4.56074733 0.0908540925,3.95455516 0.0908540925,3.20669039 L0.0908540925,1.37295374 C0.0908540925,0.625088968 0.69683274,0.0188967972 1.44491103,0.0188967972 C2.19298932,0.0188967972 2.79896797,0.625088968 2.79896797,1.37295374 L2.79896797,3.20679715 C2.79896797,3.9544484 2.19256228,4.56074733 1.44491103,4.56074733 Z" id="Shape"></path>
                <path d="M21.7100712,4.56074733 C20.9620996,4.56074733 20.3560142,3.95455516 20.3560142,3.20669039 L20.3560142,1.37295374 C20.3560142,0.625088968 20.9619929,0.0188967972 21.7100712,0.0188967972 C22.4581495,0.0188967972 23.0641281,0.625088968 23.0641281,1.37295374 L23.0641281,3.20679715 C23.0640214,3.9544484 22.4578292,4.56074733 21.7100712,4.56074733 Z" id="Shape"></path>
                <path d="M11.5774377,5.53964413 C10.2120641,5.53964413 8.92911032,4.96772242 8.05729537,3.97035587 C7.56501779,3.40718861 7.62266904,2.55192171 8.18540925,2.05985765 C8.74857651,1.56800712 9.60352313,1.62501779 10.0959075,2.18797153 C10.4533452,2.59697509 10.993452,2.83153025 11.577331,2.83153025 C12.1614235,2.83153025 12.7014235,2.59697509 13.0586477,2.18818505 C13.5509253,1.62501779 14.4059786,1.56758007 14.9691459,2.05985765 C15.5323132,2.55192171 15.5898577,3.40718861 15.0976868,3.97035587 C14.2259786,4.96772242 12.9429181,5.53964413 11.5774377,5.53964413 Z" id="Shape"></path>
            </g>
            <path d="M56.538363,63.3890391 C56.4656584,63.3890391 56.3917794,63.383274 56.3176868,63.3709964 C55.5796441,63.2500356 55.079573,62.5536299 55.2005338,61.8155872 C56.3198221,54.9872242 52.8919217,50.2314235 52.8571174,50.1842349 C52.4152313,49.583274 52.5409964,48.736121 53.1404626,48.2919929 C53.7396085,47.8478648 54.5839858,47.9702135 55.0302491,48.5681851 C55.2005338,48.7964413 59.1851957,54.2487544 57.8730961,62.2537367 C57.764306,62.9176868 57.1898221,63.3890391 56.538363,63.3890391 Z" id="Shape" fill="#FF5E6B"></path>
            <path d="M85.1645552,63.3890391 C85.0918505,63.3890391 85.0179715,63.383274 84.943879,63.3709964 C84.2058363,63.2500356 83.7057651,62.5536299 83.826726,61.8155872 C84.9546619,54.9336299 81.5208897,50.2344128 81.4860854,50.1876512 C81.0387544,49.5882918 81.1621708,48.7398577 81.7613167,48.2927402 C82.3606762,47.8456228 83.2092171,47.9690391 83.6562278,48.5681851 C83.8265125,48.7964413 87.8109609,54.2486477 86.4988612,62.2535231 C86.3904982,62.9176868 85.8159075,63.3890391 85.1645552,63.3890391 Z" id="Shape" fill="#E63E4C"></path>
        </g>
    </g>
</svg>