<?xml version="1.0" encoding="UTF-8"?>
<svg width="100px" height="100px" viewBox="0 0 100 100" version="1.1" xmlns="http://www.w3.org/2000/svg" xmlns:xlink="http://www.w3.org/1999/xlink">
    <!-- Generator: Sketch 51.1 (57501) - http://www.bohemiancoding.com/sketch -->
    <title>017-axe</title>
    <desc>Created with Sketch.</desc>
    <defs></defs>
    <g id="017-axe" stroke="none" stroke-width="1" fill="none" fill-rule="evenodd">
        <rect id="Rectangle" x="0" y="0" width="100" height="100"></rect>
        <g transform="translate(3.000000, 14.000000)" fill-rule="nonzero" id="Shape">
            <path d="M71.3040735,6.4621376 L65.5105291,0.66859312 C64.7351127,-0.10682325 63.4780996,-0.10682325 62.7026833,0.66859312 L58.254242,5.1170344 L66.8555208,13.7183132 L71.303962,9.26987189 C72.0793784,8.49456702 72.0793784,7.23755397 71.3040735,6.4621376 Z" fill="#C86D5C"></path>
            <path d="M71.3040735,6.4621376 L68.2319573,3.39002135 C69.0073737,4.16543772 69.0073737,5.42245077 68.2319573,6.19786714 L63.783293,10.6465314 L66.8551862,13.7184247 L71.3038505,9.26976038 C72.0793784,8.49456702 72.0793784,7.23755397 71.3040735,6.4621376 Z" fill="#B24D40"></path>
            <path d="M81.5908849,17.16721 C88.8272123,19.8619881 93.2003867,19.4367023 93.2003867,19.4367023 C95.8951649,22.1314804 90.7149063,31.6804531 81.6298007,40.7655587 C72.5446951,49.8506643 62.9956109,55.0306999 60.3008327,52.3361447 C60.3008327,52.3361447 60.7260071,47.9629703 58.0313405,40.7266429 L81.5908849,17.16721 Z" fill="#999999"></path>
            <path d="M37.1597722,43.4140617 C48.3398624,27.9746453 60.8585884,21.1094116 60.8585884,21.1094116 L44.2221495,19.1493499 C24.3278244,44.7224792 9.91415658,54.8648897 3.24472835,58.5915492 C0.307200474,60.2329253 -0.819795967,63.9098529 0.737169632,66.8928754 C1.95760854,69.2306097 4.08905575,71.5298743 7.81125504,72.4305125 C9.83331435,72.9196916 11.9667687,72.3520119 13.4909514,70.9362135 C17.3956868,67.3085718 26.3225647,58.3797983 37.1597722,43.4140617 Z" fill="#C86D5C"></path>
            <path d="M37.1597722,43.4140617 C48.3398624,27.9746453 60.8585884,21.1094116 60.8585884,21.1094116 L54.4950225,20.3596418 C50.0048778,23.4753571 41.8058031,30.0021684 34.2215753,40.4756418 C23.3841447,55.4412669 14.4574899,64.3701518 10.5526429,67.9977936 C9.02846026,69.4135919 6.89511744,69.9812716 4.87294662,69.4920925 C3.5139051,69.1631483 2.36784104,68.6474306 1.39985291,68.0118434 C2.68463108,69.9337699 4.68751127,71.6744982 7.81114353,72.4302894 C9.83320285,72.9194686 11.9666572,72.3517888 13.4908399,70.9359905 C17.3956868,67.3085718 26.3225647,58.3797983 37.1597722,43.4140617 Z" fill="#B24D40"></path>
            <path d="M73.2653618,32.4012313 C68.6468731,37.01972 63.150159,39.8704958 58.0313405,40.7263084 C55.9178458,35.0525219 51.8837628,27.6165979 44.2219265,19.1492384 C42.2715658,16.9953784 42.3442681,13.6943393 44.3988873,11.639497 L52.503739,3.53453381 C54.5585813,1.47969158 57.8596204,1.40732384 60.0134804,3.35757295 C68.4808399,11.0191862 75.9167639,15.0536038 81.5905504,17.1670985 C80.7347378,22.2858055 77.8838505,27.7827426 73.2653618,32.4012313 Z" fill="#B3B3B3"></path>
        </g>
    </g>
</svg>