<?xml version="1.0" encoding="UTF-8"?>
<svg width="100px" height="100px" viewBox="0 0 100 100" version="1.1" xmlns="http://www.w3.org/2000/svg" xmlns:xlink="http://www.w3.org/1999/xlink">
    <!-- Generator: Sketch 51.1 (57501) - http://www.bohemiancoding.com/sketch -->
    <title>018-boots</title>
    <desc>Created with Sketch.</desc>
    <defs></defs>
    <g id="018-boots" stroke="none" stroke-width="1" fill="none" fill-rule="evenodd">
        <rect id="Rectangle" x="0" y="0" width="100" height="100"></rect>
        <g transform="translate(9.000000, 10.000000)" fill-rule="nonzero" id="Shape">
            <path d="M51.0026631,65.3711151 C51.7748683,72.6111174 49.2651767,76.0259324 49.2651767,76.0259324 L37.294962,76.0259324 L37.294962,71.1630973 C28.8964057,76.762102 22.2038292,75.9896999 17.5331839,75.9896999 L0.0324911032,75.9896999 L0.0324911032,69.8115658 L6.5001898,64.5022242 L37.8736975,58.6135563 L51.0026631,65.3711151 Z" fill="#333E40"></path>
            <path d="M56.9878197,16.91093 L40.6413488,11.853739 L23.9732159,16.91093 C23.9732159,16.91093 26.0969526,36.2178327 22.4286085,46.8364176 C18.7602645,57.4550024 0.0324911032,47.0295919 0.0324911032,69.8117628 L17.53279,69.8117628 C22.2036323,69.8117628 26.8442479,69.0620059 31.2774128,67.5913405 C35.7105777,66.120675 40.3511934,65.3709181 45.0220356,65.3709181 L51.0024662,65.3709181 C51.8069656,61.4491435 51.5114935,57.7893654 51.04372,55.1824958 C50.5623594,52.4999122 50.805255,49.7402361 51.7683701,47.1904721 C57.1481091,32.9482432 56.9878197,16.91093 56.9878197,16.91093 Z" fill="#FAA330"></path>
            <path d="M56.9878197,16.9111269 L40.6413488,11.8539359 L23.9732159,16.9111269 C23.9732159,16.9111269 24.1900202,18.8846168 24.3654721,21.9145599 L56.8102017,21.9145599 C57.0067236,18.8240652 56.9878197,16.9111269 56.9878197,16.9111269 Z" fill="#F09318"></path>
            <path d="M58.0682966,3.59745433 C57.572758,1.51772835 55.7172206,0.0496227758 53.5792076,0.0496227758 L27.7028992,0.0496227758 C25.5648861,0.0496227758 23.7094472,1.51772835 23.2138102,3.59745433 C22.4472171,6.81436892 21.5272266,10.1524852 21.5272266,16.91093 L59.7548802,16.91093 C59.7549786,10.1525836 58.8348897,6.81446738 58.0682966,3.59745433 Z" fill="#FAA330"></path>
            <path d="M74.1707888,69.2324365 C74.9429941,76.4724389 72.4333025,79.8872539 72.4333025,79.8872539 L60.4630878,79.8872539 L60.4630878,75.0244187 C52.0645314,80.6234235 45.3719549,79.8510214 40.7013096,79.8510214 L23.2008138,79.8510214 L23.2008138,73.6728873 L29.6685125,68.3635457 L61.0420202,62.4748778 L74.1707888,69.2324365 Z" fill="#3B484A"></path>
            <path d="M80.1559454,20.7724484 L63.8094745,15.7152574 L47.1413416,20.7724484 C47.1413416,20.7724484 49.2650783,40.0793511 45.5968327,50.6979359 C41.9283903,61.3167177 23.2008138,50.8911103 23.2008138,73.6730842 L40.7011127,73.6730842 C45.3719549,73.6730842 50.0125706,72.9233274 54.4457355,71.4526619 C58.8789004,69.9819964 63.519516,69.2322396 68.1903582,69.2322396 L74.1707888,69.2322396 C74.9752883,65.310465 74.6798161,61.6506868 74.2120427,59.0438173 C73.7306821,56.3612337 73.9735777,53.6015575 74.9366928,51.0517936 C80.3162349,36.8095647 80.1559454,20.7724484 80.1559454,20.7724484 Z" fill="#FFCE1C"></path>
            <path d="M80.1559454,20.7724484 L63.8094745,15.7152574 L47.1413416,20.7724484 C47.1413416,20.7724484 47.3581459,22.7459383 47.5335979,25.7758814 L79.9785243,25.7758814 C80.1750463,22.6854852 80.1559454,20.7724484 80.1559454,20.7724484 Z" fill="#FAA330"></path>
            <path d="M81.2367177,7.45897272 C80.7411791,5.37924674 78.8856418,3.91114116 76.7476287,3.91114116 L50.8714187,3.91114116 C48.7334057,3.91114116 46.8779668,5.37924674 46.3823298,7.45897272 C45.6157367,10.6758873 44.6957461,14.0140036 44.6957461,20.7724484 L82.9233013,20.7724484 C82.9232028,14.0140036 82.0033108,10.6758873 81.2367177,7.45897272 Z" fill="#FFCE1C"></path>
        </g>
    </g>
</svg>