<?xml version="1.0" encoding="UTF-8"?>
<svg width="100px" height="100px" viewBox="0 0 100 100" version="1.1" xmlns="http://www.w3.org/2000/svg" xmlns:xlink="http://www.w3.org/1999/xlink">
    <!-- Generator: Sketch 51.1 (57501) - http://www.bohemiancoding.com/sketch -->
    <title>019-cactus</title>
    <desc>Created with Sketch.</desc>
    <defs></defs>
    <g id="019-cactus" stroke="none" stroke-width="1" fill="none" fill-rule="evenodd">
        <rect id="Rectangle" x="0" y="0" width="100" height="100"></rect>
        <g transform="translate(20.000000, 5.000000)" fill-rule="nonzero">
            <path d="M31.1166192,65.2031317 L8.47035587,70.1866548 L12.3642705,85.2244484 C13.0905694,88.0291815 15.6214591,89.988363 18.5190747,89.988363 L43.714484,89.988363 C46.6120996,89.988363 49.1429893,88.0291815 49.8692883,85.2243416 L53.7632028,70.186548 L31.1166192,65.2031317 Z" id="Shape" fill="#FAA330"></path>
            <path d="M21.4067616,85.2242349 L17.512847,70.1864413 L35.6379715,66.1978292 L31.116726,65.2030249 L8.47046263,70.186548 L12.3643772,85.2243416 C13.0906762,88.0292883 15.6215658,89.988363 18.5191815,89.988363 L27.5615658,89.988363 C24.6639502,89.9882562 22.1329537,88.0290747 21.4067616,85.2242349 Z" id="Shape" fill="#F09318"></path>
            <g id="Group" transform="translate(1.708185, 0.000000)" fill="#D9D9D9">
                <path d="M51.3343772,9.16281139 L46.0590747,11.1466548 L50.9072242,16.3297153 L53.238363,11.1984342 C53.7945907,9.97462633 52.5925623,8.68953737 51.3343772,9.16281139 Z" id="Shape"></path>
                <path d="M57.8964769,31.6027046 L52.776726,29.2462633 L52.4998932,36.3381139 L57.7877936,34.3881139 C59.0490747,33.9225267 59.1176157,32.1645907 57.8964769,31.6027046 Z" id="Shape"></path>
                <path d="M54.1139146,51.5809964 L49.9618505,47.7696085 L47.5262989,54.4355872 L53.1574377,54.1985765 C54.5002847,54.1425267 55.1040214,52.4900712 54.1139146,51.5809964 Z" id="Shape"></path>
                <path d="M0.920391459,31.6027046 L6.04014235,29.2462633 L6.31697509,36.3381139 L1.02907473,34.3881139 C-0.232099644,33.9225267 -0.300747331,32.1645907 0.920391459,31.6027046 Z" id="Shape"></path>
                <path d="M4.7030605,51.5809964 L8.85512456,47.7696085 L11.2906762,54.4355872 L5.65953737,54.1985765 C4.31669039,54.1425267 3.71284698,52.4900712 4.7030605,51.5809964 Z" id="Shape"></path>
                <path d="M30.8698932,1.00782918 C30.2660498,-0.193772242 28.5509253,-0.193772242 27.9471886,1.00782918 L25.8602135,5.16096085 L32.9567616,5.16096085 L30.8698932,1.00782918 Z" id="Shape"></path>
            </g>
            <path d="M13.6362278,60.2196085 C13.6362278,60.2196085 -11.3441637,4.35074733 31.1166192,4.35074733 C73.5774021,4.35074733 48.5970107,60.2196085 48.5970107,60.2196085 L31.1166192,65.2031317 L13.6362278,60.2196085 Z" id="Shape" fill="#00AE95"></path>
            <path d="M39.985516,60.2196085 C39.985516,60.2196085 60.4174377,4.35074733 31.116726,4.35074733 C1.81601423,4.35074733 22.2480427,60.2196085 22.2480427,60.2196085 L31.1168327,65.2031317 L39.985516,60.2196085 Z" id="Shape" fill="#2FC8B4"></path>
            <g id="Group" transform="translate(19.323843, 24.768683)" fill="#3B484A">
                <path d="M1.45633452,4.61455516 C0.707295374,4.61455516 0.100035587,4.00729537 0.100035587,3.25825623 L0.100035587,1.38758007 C0.100035587,0.638540925 0.707295374,0.0312811388 1.45633452,0.0312811388 C2.20537367,0.0312811388 2.81263345,0.638540925 2.81263345,1.38758007 L2.81263345,3.25825623 C2.81263345,4.00708185 2.20548043,4.61455516 1.45633452,4.61455516 Z" id="Shape"></path>
                <path d="M22.1293238,4.61455516 C21.3802847,4.61455516 20.7730249,4.00729537 20.7730249,3.25825623 L20.7730249,1.38758007 C20.7730249,0.638540925 21.3802847,0.0312811388 22.1293238,0.0312811388 C22.878363,0.0312811388 23.4856228,0.638540925 23.4856228,1.38758007 L23.4856228,3.25825623 C23.4856228,4.00708185 22.878363,4.61455516 22.1293238,4.61455516 Z" id="Shape"></path>
                <path d="M11.7928826,5.61288256 C10.4071174,5.61288256 9.10483986,5.03231317 8.22042705,4.02032028 C7.7275089,3.45629893 7.78505338,2.5994306 8.34928826,2.10651246 C8.91330961,1.61370107 9.77017794,1.67113879 10.2630961,2.23516014 C10.6324911,2.65793594 11.19,2.90017794 11.7928826,2.90017794 C12.3957651,2.90017794 12.9534875,2.65793594 13.322669,2.23516014 C13.8155872,1.67124555 14.6724555,1.61348754 15.2364769,2.10661922 C15.8004982,2.59953737 15.8581495,3.45640569 15.3650178,4.02042705 C14.4808185,5.03263345 13.1785409,5.61288256 11.7928826,5.61288256 Z" id="Shape"></path>
            </g>
            <path d="M10.7353025,13.4681851 C11.5205338,10.2934164 7.48003559,8.2347331 5.37309609,10.7359431 C2.59644128,9.00822064 -0.610355872,12.2148043 1.11758007,14.9914591 C-1.38362989,17.0983986 0.675053381,21.1388968 3.84982206,20.3536655 C5.0805694,23.3836655 9.55953737,22.6741281 9.79398577,19.412242 C13.0558719,19.1780071 13.7653025,14.6990391 10.7353025,13.4681851 Z" id="Shape" fill="#FF5E6B"></path>
            <g id="Group" transform="translate(4.056940, 13.665480)" fill="#FFCE1C">
                <circle id="Oval" cx="2.086121" cy="2.09733096" r="2.00017794"></circle>
                <path d="M49.7059431,46.5541281 L4.41341637,46.5541281 C3.18352313,46.5541281 2.18637011,47.5510676 2.18637011,48.7811744 L2.18637011,54.2941281 C2.18637011,55.5240214 3.18330961,56.5211744 4.41341637,56.5211744 L49.7061566,56.5211744 C50.9360498,56.5211744 51.9332028,55.5242349 51.9332028,54.2941281 L51.9332028,48.7811744 C51.9329893,47.5511744 50.9360498,46.5541281 49.7059431,46.5541281 Z" id="Shape"></path>
            </g>
            <path d="M15.285694,67.9596085 L15.285694,62.4467616 C15.285694,61.2168683 16.2826335,60.2197153 17.5127402,60.2197153 L8.47035587,60.2197153 C7.24046263,60.2197153 6.24330961,61.2166548 6.24330961,62.4467616 L6.24330961,67.9596085 C6.24330961,69.1895018 7.24024911,70.1866548 8.47035587,70.1866548 L17.5127402,70.1866548 C16.282847,70.186548 15.285694,69.1895018 15.285694,67.9596085 Z" id="Shape" fill="#FAA330"></path>
        </g>
    </g>
</svg>