<?xml version="1.0" encoding="UTF-8"?>
<svg width="100px" height="100px" viewBox="0 0 100 100" version="1.1" xmlns="http://www.w3.org/2000/svg" xmlns:xlink="http://www.w3.org/1999/xlink">
    <!-- Generator: Sketch 51.1 (57501) - http://www.bohemiancoding.com/sketch -->
    <title>020-spray</title>
    <desc>Created with Sketch.</desc>
    <defs></defs>
    <g id="020-spray" stroke="none" stroke-width="1" fill="none" fill-rule="evenodd">
        <rect id="Rectangle" x="0" y="0" width="100" height="100"></rect>
        <g transform="translate(26.000000, 6.000000)" fill-rule="nonzero">
            <g id="Group" transform="translate(0.522565, 1.881235)" fill="#42C3E2">
                <path d="M6.79251306,0.0337577197 L2.03790024,0.0337577197 C0.922954869,0.0337577197 0.0190213777,0.937691211 0.0190213777,2.05263658 L0.0190213777,4.6856342 C0.0190213777,5.80057957 0.922954869,6.70451306 2.03790024,6.70451306 L6.79251306,6.70451306 L9.8743943,3.36897862 L6.79251306,0.0337577197 Z" id="Shape"></path>
                <path d="M13.835753,7.58900713 L9.39405226,8.85507838 C9.39405226,8.85507838 8.07938242,15.6988029 3.10267933,18.7677245 C2.27023278,19.2808836 2.03946793,20.3898717 2.57238005,21.2097767 L3.10665083,22.031772 C3.56650831,22.7393254 4.46500713,23.0221378 5.24603325,22.7030594 C11.1818527,20.2778337 14.327905,12.8352494 14.327905,12.8352494 L13.835753,7.58900713 Z" id="Shape"></path>
            </g>
            <g id="Group" transform="translate(3.762470, 1.881235)" fill="#00A6C8">
                <path d="M10.595848,7.58900713 L6.15414727,8.85507838 C6.15414727,8.85507838 5.78532067,10.7729976 4.70026603,13.0333017 C5.24070309,13.2039715 6.12195724,13.6635154 6.96579572,15.0766366 C7.66467458,16.2470784 7.94895012,17.4189834 7.98552969,17.5792019 L8.03329216,17.8504133 C10.0468409,15.2971591 11.088,12.8350404 11.088,12.8350404 L10.595848,7.58900713 Z" id="Shape"></path>
                <polygon id="Shape" points="3.55260808 6.70472209 6.63459382 3.36918765 3.55260808 0.0337577197 0.0119144893 0.0337577197 0.0119144893 6.70472209"></polygon>
            </g>
            <path d="M47.3727411,16.728152 L39.4410356,5.71341568 C36.8577862,2.12600475 34.5072874,0 30.0865938,0 L9.23028029,0 C8.17271259,0 7.31528741,0.857320665 7.31528741,1.91499287 L7.31528741,8.58574822 C7.31528741,9.50974822 7.97622803,10.2982993 8.88465558,10.4682375 C14.7209786,11.559981 16.0897862,18.5970546 16.0897862,18.5970546 L24.171677,24.1307078 L32.2535677,18.5970546 L35.4766461,18.5970546 L43.7295202,21.3634109 C44.9988314,21.8787648 46.4561615,21.4902898 47.3003135,20.4111924 C48.1403895,19.33638 48.1701758,17.8355724 47.3727411,16.728152 Z" id="Shape" fill="#D9D9D9"></path>
            <polygon id="Shape" fill="#00A6C8" points="16.0893682 18.5970546 16.0893682 29.6646746 24.1712589 33.4533777 32.2531496 29.6646746 32.2531496 18.5970546"></polygon>
            <polygon id="Shape" fill="#0095B3" points="23.1708599 29.6646746 23.1708599 18.5970546 16.0893682 18.5970546 16.0893682 29.6646746 24.1712589 33.4533777 27.7121615 31.7933967"></polygon>
            <path d="M40.2969976,87.9885036 C44.7395344,87.9885036 48.3409501,84.3871924 48.3409501,79.9445511 L48.3409501,50.4486651 C48.3409501,38.8355914 32.2529406,29.6644656 32.2529406,29.6644656 L16.0891591,29.6644656 C16.0891591,29.6644656 0.00114964371,38.8355914 0.00114964371,50.4486651 L0.00114964371,79.9442375 C0.00114964371,84.3867743 3.60246081,87.98819 8.04510214,87.98819 L40.2966841,87.98819 L40.2966841,87.9885036 L40.2969976,87.9885036 Z" id="Shape" fill="#42C3E2"></path>
            <path d="M7.08305938,79.9445511 L7.08305938,50.4486651 C7.08305938,38.835696 23.1710689,29.6644656 23.1710689,29.6644656 L16.0895772,29.6644656 C16.0895772,29.6644656 0.00156769596,38.8355914 0.00156769596,50.4486651 L0.00156769596,79.9442375 C0.00156769596,84.3867743 3.60287886,87.98819 8.04552019,87.98819 L15.1270119,87.98819 C10.6844751,87.9885036 7.08305938,84.3871924 7.08305938,79.9445511 Z" id="Shape" fill="#00A6C8"></path>
            <path d="M38.9344608,50.9365321 L9.40805701,50.9365321 C7.51083135,50.9365321 5.97250356,52.4746508 5.97250356,54.3720855 L5.97250356,79.5369501 C5.97250356,80.9519525 7.11963895,82.0990879 8.53464133,82.0990879 L39.8073539,82.0990879 C41.2223563,82.0990879 42.3694917,80.9519525 42.3694917,79.5369501 L42.3694917,54.3720855 C42.3695962,52.4748599 40.8316865,50.9365321 38.9344608,50.9365321 Z" id="Shape" fill="#F0F0F0"></path>
            <path d="M7.08305938,79.9445511 L7.08305938,51.848304 C6.40205226,52.476114 5.97292162,53.3728361 5.97292162,54.371981 L5.97292162,79.5368456 C5.97292162,80.5023373 6.5071924,81.3422043 7.29605701,81.7788599 C7.15820428,81.1895107 7.08305938,80.57581 7.08305938,79.9445511 Z" id="Shape" fill="#D9D9D9"></path>
            <g id="Group" transform="translate(11.391924, 63.543943)" fill="#3B484A">
                <path d="M1.35626603,4.78356295 C0.623002375,4.78356295 0.0285320665,4.18909264 0.0285320665,3.45582898 L0.0285320665,1.38845606 C0.0285320665,0.655192399 0.623002375,0.0607220903 1.35626603,0.0607220903 C2.08952969,0.0607220903 2.684,0.655192399 2.684,1.38845606 L2.684,3.45582898 C2.684,4.18919715 2.0896342,4.78356295 1.35626603,4.78356295 Z" id="Shape"></path>
                <path d="M24.2024038,4.78356295 C23.4691401,4.78356295 22.8746698,4.18909264 22.8746698,3.45582898 L22.8746698,1.38845606 C22.8746698,0.655192399 23.4691401,0.0607220903 24.2024038,0.0607220903 C24.9356675,0.0607220903 25.5301378,0.655192399 25.5301378,1.38845606 L25.5301378,3.45582898 C25.5302423,4.18919715 24.9356675,4.78356295 24.2024038,4.78356295 Z" id="Shape"></path>
                <path d="M12.7793349,5.88711639 C11.2971306,5.88711639 9.90522565,5.26693587 8.96021853,4.18574822 C8.47768171,3.6336057 8.53380523,2.79499287 9.08605226,2.31224703 C9.63788124,1.82971021 10.4768076,1.88583373 10.9595534,2.43808076 C11.4001805,2.94225178 12.0635249,3.23133492 12.7791259,3.23133492 C13.4947268,3.23133492 14.1580713,2.94225178 14.5989074,2.43787173 C15.0816532,1.88572922 15.920266,1.82929216 16.4724086,2.31224703 C17.0244466,2.79499287 17.0807791,3.6336057 16.5980333,4.18574822 C15.6532352,5.26714489 14.2614347,5.88711639 12.7793349,5.88711639 Z" id="Shape"></path>
            </g>
        </g>
    </g>
</svg>