<?xml version="1.0" encoding="UTF-8"?>
<svg width="100px" height="100px" viewBox="0 0 100 100" version="1.1" xmlns="http://www.w3.org/2000/svg" xmlns:xlink="http://www.w3.org/1999/xlink">
    <!-- Generator: Sketch 51.1 (57501) - http://www.bohemiancoding.com/sketch -->
    <title>021-basket</title>
    <desc>Created with Sketch.</desc>
    <defs></defs>
    <g id="021-basket" stroke="none" stroke-width="1" fill="none" fill-rule="evenodd">
        <rect id="Rectangle" x="0" y="0" width="100" height="100"></rect>
        <g transform="translate(13.000000, 7.000000)" fill-rule="nonzero">
            <polygon id="Shape" fill="#FFCE1C" points="20.880943 53.0683325 52.1299929 53.0683325 52.1299929 48.0204798 21.4838622 48.0204798"></polygon>
            <path d="M31.8090713,34.4517838 C36.6916651,34.5142922 39.5261924,28.9506437 36.6059715,25.0375416 C38.1742969,20.413152 33.7589834,15.9981449 29.1349002,17.5664703 C25.2213895,14.6462494 19.6581496,17.4807767 19.720658,22.3633705 C15.7339145,25.1828836 16.7107601,31.3498599 21.3734513,32.7990926 C22.8225819,37.4616817 28.9897625,38.438323 31.8090713,34.4517838 Z" id="Shape" fill="#E63E4C"></path>
            <g id="Group" transform="translate(24.410926, 16.342043)" fill="#FAA330">
                <circle id="Oval" cx="3.62864846" cy="9.79031354" r="3.55194299"></circle>
                <path d="M16.9669216,18.1097411 C12.0843278,18.1722494 9.24980048,12.608601 12.1700214,8.69549881 C10.601696,4.07110926 15.0170095,-0.343897862 19.6410926,1.22442755 C23.5546033,-1.69579335 29.1178432,1.13873397 29.0553349,6.02132779 C33.0420784,8.84084086 32.0652328,15.0078171 27.4025416,16.4570499 C25.9534109,21.119639 19.7862304,22.0962803 16.9669216,18.1097411 Z" id="Shape"></path>
            </g>
            <circle id="Oval" fill="#FF78A2" cx="45.1474466" cy="26.1323563" r="3.55194299"></circle>
            <g id="Group" transform="translate(2.859857, 0.000000)" fill="#C86D5C">
                <path d="M61.722772,56.8214869 C59.8327126,56.8214869 58.3006461,55.2895226 58.3006461,53.399361 L58.3006461,31.4109382 C58.3006461,17.8647126 47.279981,6.84384323 33.7335511,6.84384323 C20.1871211,6.84384323 9.16645606,17.8645083 9.16645606,31.4109382 L9.16645606,53.399361 C9.16645606,55.2894204 7.63449169,56.8214869 5.74433017,56.8214869 C3.85427078,56.8214869 2.32220428,55.2895226 2.32220428,53.399361 L2.32220428,31.4109382 C2.32261283,14.0909264 16.4135392,0 33.7335511,0 C51.0535629,0 65.1445914,14.0909264 65.1445914,31.4109382 L65.1445914,53.399361 C65.1446936,55.2894204 63.6126271,56.8214869 61.722772,56.8214869 Z" id="Shape"></path>
                <path d="M67.4070451,59.2730998 L33.7335511,55.1103729 L0.0602612827,59.2730998 C0.0602612827,59.2730998 -0.530707838,74.6640356 9.63424703,83.8289596 C11.1739739,85.2172162 13.172095,85.9889691 15.2453895,85.9889691 L52.222019,85.9889691 C54.2951093,85.9889691 56.2932304,85.2172162 57.8331615,83.8289596 C67.9980143,74.6641378 67.4070451,59.2730998 67.4070451,59.2730998 Z" id="Shape"></path>
            </g>
            <path d="M9.84087173,59.2730998 L40.0538361,55.5381259 L36.5934086,55.1105772 L2.92011876,59.273304 C2.92011876,59.273304 2.32914964,74.6642399 12.4941045,83.8291639 C14.0338314,85.2172162 16.0319525,85.9889691 18.105247,85.9889691 L25.0257957,85.9889691 C22.9527055,85.9889691 20.9545843,85.2172162 19.4146532,83.8289596 C9.24980048,74.6639335 9.84087173,59.2730998 9.84087173,59.2730998 Z" id="Shape" fill="#B24D40"></path>
            <g id="Group" transform="translate(20.938242, 67.717340)" fill="#3B484A">
                <path d="M1.36823753,5.28021615 C0.651434679,5.28021615 0.0706793349,4.69925653 0.0706793349,3.98265796 L0.0706793349,1.39693824 C0.0706793349,0.680339667 0.651434679,0.0993800475 1.36823753,0.0993800475 C2.08504038,0.0993800475 2.66579572,0.680339667 2.66579572,1.39693824 L2.66579572,3.98265796 C2.666,4.69915439 2.08504038,5.28021615 1.36823753,5.28021615 Z" id="Shape"></path>
                <path d="M29.9421971,5.28021615 C29.2253943,5.28021615 28.644639,4.69925653 28.644639,3.98265796 L28.644639,1.39693824 C28.644639,0.680339667 29.2253943,0.0993800475 29.9421971,0.0993800475 C30.659,0.0993800475 31.2397553,0.680339667 31.2397553,1.39693824 L31.2397553,3.98265796 C31.2397553,4.69915439 30.6588979,5.28021615 29.9421971,5.28021615 Z" id="Shape"></path>
                <path d="M15.6551663,6.6604038 C13.9064656,6.6604038 12.2651116,5.9302209 11.1520143,4.65646081 C10.6802399,4.11686698 10.7352922,3.29710926 11.2749881,2.82553919 C11.8142755,2.35407126 12.6341354,2.4088171 13.1058076,2.94851306 C13.7259881,3.65806413 14.6551354,4.064981 15.6550641,4.064981 C16.6548907,4.064981 17.5839359,3.65806413 18.2043207,2.94851306 C18.6758907,2.40891924 19.4958527,2.35376485 20.0351401,2.82553919 C20.574734,3.29710926 20.6299905,4.11686698 20.158114,4.65646081 C19.0452209,5.93001663 17.4039691,6.6604038 15.6551663,6.6604038 Z" id="Shape"></path>
            </g>
            <g id="Group" transform="translate(5.106888, 26.045131)" fill="#B24D40">
                <path d="M6.91962945,27.3542304 L6.91962945,5.3658076 C6.91962945,3.55133017 7.11910451,1.78281473 7.49415439,0.0793610451 C7.12513064,0.0462684086 6.75498337,0.0291092637 6.38473397,0.0291092637 C4.23422328,0.0291092637 2.14203325,0.596586698 0.298548694,1.63185511 C0.152900238,2.85689549 0.0756840855,4.10236342 0.0756840855,5.3658076 L0.0756840855,27.3540261 C0.0756840855,29.2440855 1.60764846,30.776152 3.49780998,30.776152 C5.3879715,30.776152 6.91962945,29.2442898 6.91962945,27.3542304 Z" id="Shape"></path>
                <path d="M62.8976627,27.3542304 L62.8976627,5.3658076 C62.8976627,4.10236342 62.8205487,2.85669121 62.6747981,1.63185511 C60.8311093,0.596586698 58.7389192,0.0291092637 56.5886128,0.0291092637 C56.2182613,0.0291092637 55.8483183,0.0462684086 55.4791924,0.0793610451 C55.8542423,1.78281473 56.0537173,3.55133017 56.0537173,5.3658076 L56.0537173,27.3540261 C56.0537173,29.2440855 57.5857838,30.776152 59.4758432,30.776152 C61.3659026,30.776152 62.8976627,29.2442898 62.8976627,27.3542304 Z" id="Shape"></path>
            </g>
            <path d="M70.2669026,50.9475439 L2.9202209,50.9475439 C1.33728979,50.9475439 0.0540308789,52.2308029 0.0540308789,53.813734 L0.0540308789,56.4070119 C0.0540308789,57.989943 1.33728979,59.2732019 2.9202209,59.2732019 L70.2666983,59.2732019 C71.8496295,59.2732019 73.1328884,57.989943 73.1328884,56.4070119 L73.1328884,53.813734 C73.1327862,52.2308029 71.8498337,50.9475439 70.2669026,50.9475439 Z" id="Shape" fill="#DF8B78"></path>
            <path d="M6.97478385,56.407114 L6.97478385,53.8140404 C6.97478385,52.2311093 8.25804276,50.9478504 9.84097387,50.9478504 L2.92042518,50.9478504 C1.33749406,50.9478504 0.0542351544,52.2311093 0.0542351544,53.8140404 L0.0542351544,56.407114 C0.0542351544,57.9900451 1.33749406,59.273304 2.92042518,59.273304 L9.84097387,59.273304 C8.25794062,59.2730998 6.97478385,57.9898409 6.97478385,56.407114 Z" id="Shape" fill="#C86D5C"></path>
            <g id="Group" transform="translate(3.064133, 30.130641)" fill="#FF78A2">
                <path d="M22.6107482,7.53929929 C22.6888836,1.43043943 15.7282969,-2.11598812 10.8320166,1.53768409 C5.0464228,-0.424280285 -0.477494062,5.09953444 1.48447031,10.8852304 C-2.1692019,15.7814086 1.37712352,22.7418931 7.48608551,22.6640641 C11.0135154,27.6520641 18.7293088,26.4298836 20.5429691,20.5959786 C26.3765677,18.7827268 27.5985439,11.0670356 22.6107482,7.53929929 Z" id="Shape"></path>
                <path d="M44.4480071,7.53929929 C44.3698717,1.43043943 51.3304584,-2.11598812 56.2268409,1.53768409 C62.0124347,-0.424280285 67.5363515,5.09953444 65.5743872,10.8852304 C69.2280594,15.7814086 65.681734,22.7418931 59.572772,22.6640641 C56.045342,27.6520641 48.3295487,26.4298836 46.5158884,20.5959786 C40.6820855,18.7827268 39.4601093,11.0670356 44.4480071,7.53929929 Z" id="Shape"></path>
            </g>
            <path d="M47.2882542,46.411095 C51.6629169,42.1467411 49.2489929,34.7171378 43.203152,33.8385487 C40.499361,28.3600831 32.6874561,28.3600831 29.9837672,33.8385487 C23.9380285,34.7169335 21.5239002,42.1467411 25.8986651,46.411095 C24.8659501,52.4323207 31.1859287,57.0241283 36.5935107,54.1811235 C42.0010926,57.0241283 48.3209691,52.4323207 47.2882542,46.411095 Z" id="Shape" fill="#FF5E6B"></path>
            <circle id="Oval" fill="#FFCE1C" cx="36.5934086" cy="42.3870713" r="4.44370784"></circle>
            <g id="Group" transform="translate(10.724466, 37.893112)" fill="#FAA330">
                <circle id="Oval" cx="4.54308789" cy="4.49395962" r="4.44370784"></circle>
                <circle id="Oval" cx="47.1950024" cy="4.49395962" r="4.44370784"></circle>
            </g>
        </g>
    </g>
</svg>