<?xml version="1.0" encoding="UTF-8"?>
<svg width="100px" height="100px" viewBox="0 0 100 100" version="1.1" xmlns="http://www.w3.org/2000/svg" xmlns:xlink="http://www.w3.org/1999/xlink">
    <!-- Generator: Sketch 51.1 (57501) - http://www.bohemiancoding.com/sketch -->
    <title>022-grass</title>
    <desc>Created with Sketch.</desc>
    <defs></defs>
    <g id="022-grass" stroke="none" stroke-width="1" fill="none" fill-rule="evenodd">
        <rect id="Rectangle" x="0" y="0" width="100" height="100"></rect>
        <g transform="translate(3.000000, 23.000000)" fill-rule="nonzero">
            <path d="M40.607331,23.7231246 C40.607331,33.7738766 43.1612764,42.5658316 46.9747995,47.3741044 C50.7883227,42.56572 53.3422681,33.7739881 53.3422681,23.7231246 C53.3422681,13.672261 50.7885457,4.88064057 46.9750225,0.0721447212 C43.1613879,4.88064057 40.607331,13.6723725 40.607331,23.7231246 Z" id="Shape" fill="#00AE95"></path>
            <g id="Group" transform="translate(22.858837, 6.690391)" fill="#2FC8B4">
                <path d="M24.1160735,33.1640474 C24.1160735,33.1640474 21.9818387,8.70654093 0.948586002,0.0715871886 C0.372989324,-0.164806643 -0.189895611,0.438332147 0.0815112693,0.997871886 C2.70972005,6.41664294 11.1438505,24.7968209 10.5581068,36.378 L24.1160735,33.1640474 Z" id="Shape"></path>
                <path d="M24.1160735,33.1640474 C24.1160735,33.1640474 26.2503084,8.70654093 47.2835611,0.0715871886 C47.8590463,-0.164806643 48.4220427,0.438332147 48.1506358,0.997871886 C45.522427,6.41664294 37.0882966,24.7968209 37.6740403,36.378 L24.1160735,33.1640474 Z" id="Shape"></path>
            </g>
            <path d="M39.7747117,41.4002539 C39.7747117,41.4002539 30.1483535,18.8157224 7.47339027,17.1420095 C6.85296797,17.0964033 6.50506762,17.8440546 6.93704389,18.2917533 C11.1185386,22.6260119 24.8449917,37.4765623 27.8858861,48.667134 L39.7747117,41.4002539 Z" id="Shape" fill="#00AE95"></path>
            <path d="M30.0271459,42.4129561 C24.7532218,36.0070178 15.0027568,27.3861139 0.715202847,27.3757438 C0.0931079478,27.3754093 -0.199373665,28.1465884 0.264158956,28.5615042 C3.76568683,31.6974021 13.5332123,40.7985647 19.4825314,49.8440854 C21.1556868,52.3882183 33.1457604,46.2011673 30.0271459,42.4129561 Z" id="Shape" fill="#2FC8B4"></path>
            <path d="M54.1749988,41.4002539 C54.1749988,41.4002539 63.8013571,18.8157224 86.4763203,17.1420095 C87.0967426,17.0964033 87.4446429,17.8440546 87.0126667,18.2917533 C82.831172,22.6260119 69.1047189,37.4765623 66.0636014,48.667134 L54.1749988,41.4002539 Z" id="Shape" fill="#00AE95"></path>
            <path d="M63.9226762,42.4129561 C69.1966002,36.0070178 78.9470652,27.3861139 93.2346192,27.3757438 C93.8567141,27.3754093 94.1491957,28.1465884 93.6856631,28.5615042 C90.1842467,31.6974021 80.4166097,40.7985647 74.4672906,49.8440854 C72.7940237,52.3882183 60.8040617,46.2011673 63.9226762,42.4129561 Z" id="Shape" fill="#2FC8B4"></path>
            <path d="M81.481051,46.0400403 C76.0232527,39.7331198 70.2013855,44.5845457 64.5008375,39.7331198 C61.0906335,36.830828 55.4888802,36.5328826 51.5378695,36.761917 C48.4977556,36.9380973 45.4522894,36.9380973 42.4120641,36.761917 C38.4610534,36.5327711 32.8590771,36.830828 29.4490961,39.7331198 C23.748548,44.5846572 17.9269039,39.7331198 12.4688826,46.0400403 C7.01108422,52.3469609 5.07042467,47.8594923 0.400865955,53.4384982 L93.5494021,53.4384982 C88.8796204,47.8594923 86.9390724,52.3469609 81.481051,46.0400403 Z" id="Shape" fill="#C86D5C"></path>
            <path d="M32.0697224,40.9712883 C33.7097604,39.0760119 35.369535,37.7809751 37.0440285,36.882344 C34.2759905,37.2035943 31.4752811,38.0084484 29.4488731,39.7331198 C23.748325,44.5846572 17.9266809,39.7331198 12.4686595,46.0400403 C7.01086121,52.3469609 5.07020166,47.8594923 0.400642942,53.4384982 L11.7338316,53.4384982 C19.6025125,44.0369371 22.8725528,51.5993096 32.0697224,40.9712883 Z" id="Shape" fill="#B24D40"></path>
            <g id="Group" transform="translate(33.786477, 42.595492)" fill="#3B484A">
                <path d="M1.44991934,5.06150415 C0.667366548,5.06150415 0.0333404508,4.42725504 0.0333404508,3.64492527 L0.0333404508,1.52039146 C0.0333404508,0.738061684 0.667366548,0.103812574 1.44991934,0.103812574 C2.23247212,0.103812574 2.86649822,0.738061684 2.86649822,1.52039146 L2.86649822,3.64492527 C2.86660973,4.42714353 2.23224911,5.06150415 1.44991934,5.06150415 Z" id="Shape"></path>
                <path d="M24.927172,5.06150415 C24.1446192,5.06150415 23.5105931,4.42725504 23.5105931,3.64492527 L23.5105931,1.52039146 C23.5105931,0.738061684 24.1446192,0.103812574 24.927172,0.103812574 C25.7097248,0.103812574 26.3437509,0.738061684 26.3437509,1.52039146 L26.3437509,3.64492527 C26.3437509,4.42714353 25.7097248,5.06150415 24.927172,5.06150415 Z" id="Shape"></path>
                <path d="M13.1884342,6.195414 C11.6503132,6.195414 10.2056346,5.55168683 9.22471174,4.42937367 C8.70966311,3.84050771 8.76976512,2.94533333 9.35874259,2.43050771 C9.94805457,1.91568209 10.8427829,1.97556109 11.3576085,2.56476157 C11.8007355,3.07155872 12.4679905,3.36214472 13.1883227,3.36214472 C13.9085433,3.36214472 14.5761329,3.07155872 15.0189253,2.56476157 C15.5337509,1.9756726 16.4284792,1.91557058 17.0177912,2.43050771 C17.6067687,2.94533333 17.6670937,3.8402847 17.1518221,4.42937367 C16.1710107,5.55157533 14.7265552,6.195414 13.1884342,6.195414 Z" id="Shape"></path>
            </g>
        </g>
    </g>
</svg>