<?xml version="1.0" encoding="UTF-8"?>
<svg width="100px" height="100px" viewBox="0 0 100 100" version="1.1" xmlns="http://www.w3.org/2000/svg" xmlns:xlink="http://www.w3.org/1999/xlink">
    <!-- Generator: Sketch 51.1 (57501) - http://www.bohemiancoding.com/sketch -->
    <title>023-ladybug</title>
    <desc>Created with Sketch.</desc>
    <defs></defs>
    <g id="023-ladybug" stroke="none" stroke-width="1" fill="none" fill-rule="evenodd">
        <rect id="Rectangle" x="0" y="0" width="100" height="100"></rect>
        <g transform="translate(10.000000, 8.000000)" fill-rule="nonzero">
            <g id="Group" transform="translate(20.650831, 1.695962)" fill="#3B484A">
                <path d="M43.3489881,57.0186413 L53.7358575,57.0186413 C56.349734,57.0186413 58.4684893,54.899886 58.4684893,52.2860095 C58.4684893,49.672133 56.349734,47.5533777 53.7358575,47.5533777 L43.3489881,47.5533777 C40.7351116,47.5533777 38.6163563,49.672133 38.6163563,52.2860095 C38.6163563,54.899886 40.7351116,57.0186413 43.3489881,57.0186413 Z" id="Shape"></path>
                <path d="M42.4472352,42.6141378 L50.2728029,35.7840998 C52.242114,34.0653919 52.4450309,31.07581 50.7264228,29.1065986 C49.0078147,27.1373872 46.018133,26.9343705 44.0489216,28.6529786 L36.2233539,35.4830166 C34.2540428,37.2017245 34.0511259,40.1913064 35.769734,42.1605178 C37.4882423,44.1295297 40.477924,44.3326461 42.4472352,42.6141378 Z" id="Shape"></path>
                <path d="M42.4472352,61.9580808 L50.2728029,68.7881188 C52.242114,70.5067268 52.4450309,73.4964086 50.7264228,75.46562 C49.0078147,77.4347316 46.018133,77.637848 44.0489216,75.9192399 L36.2233539,69.0892019 C34.2540428,67.3705938 34.0511259,64.3809121 35.769734,62.4117007 C37.4882423,60.4425891 40.477924,60.2393729 42.4472352,61.9580808 Z" id="Shape"></path>
                <path d="M11.5832209,11.1020665 C11.1071544,11.1020665 10.6508409,10.8327078 10.4352542,10.3732019 L6.42400475,1.83303563 C6.1264133,1.19954394 6.39876485,0.44464133 7.03245606,0.147049881 C7.66564846,-0.150541568 8.42075059,0.121610451 8.71844181,0.755501188 L12.7296912,9.29566746 C13.0272827,9.92915914 12.7549311,10.6840618 12.1212399,10.9816532 C11.9470546,11.0633587 11.7636912,11.1020665 11.5832209,11.1020665 Z" id="Shape"></path>
                <path d="M26.3815867,11.1020665 C26.2011164,11.1020665 26.017753,11.0633587 25.8435677,10.9814537 C25.2098765,10.6838622 24.9375249,9.92895962 25.2351164,9.29546793 L29.2463658,0.755301663 C29.5439572,0.121809976 30.2990594,-0.150741093 30.9323515,0.146850356 C31.5660428,0.444441805 31.8383943,1.19934442 31.5408029,1.8328361 L27.5295534,10.3730024 C27.3137672,10.8325083 26.8575534,11.1020665 26.3815867,11.1020665 Z" id="Shape"></path>
                <ellipse id="Oval" cx="18.9198527" cy="23.1424988" rx="18.8205891" ry="16.6355914"></ellipse>
            </g>
            <path d="M25.1450309,24.5001663 C25.1450309,16.4734774 31.57562,9.77522565 40.1310499,8.20995249 C39.9449929,8.2051639 39.7585368,8.20207126 39.5713824,8.20207126 C29.1774299,8.20207126 20.7512922,15.6503373 20.7512922,24.8382613 C20.7512922,34.0261853 29.1774299,41.4744513 39.5713824,41.4744513 C40.8853539,41.4744513 42.1675012,41.3550356 43.4055534,41.1284751 C33.270285,40.8666983 25.1450309,33.5225843 25.1450309,24.5001663 Z" id="Shape" fill="#333E40"></path>
            <path d="M15.1426461,58.7146033 L4.75567696,58.7146033 C2.14180048,58.7146033 0.0230451306,56.595848 0.0230451306,53.9819715 C0.0230451306,51.368095 2.14180048,49.2493397 4.75567696,49.2493397 L15.1425463,49.2493397 C17.7564228,49.2493397 19.8751781,51.368095 19.8751781,53.9819715 C19.8751781,56.595848 17.756323,58.7146033 15.1426461,58.7146033 Z" id="Shape" fill="#3B484A"></path>
            <path d="M15.1426461,55.3346508 L4.75567696,55.3346508 C2.73768171,55.3346508 1.01558195,54.0707601 0.334902613,52.2921948 C0.13408076,52.8171449 0.0229453682,53.3864893 0.0229453682,53.982171 C0.0229453682,56.595848 2.14170071,58.7146033 4.7555772,58.7146033 L15.1424466,58.7146033 C17.756323,58.7146033 19.8750784,56.5956485 19.8750784,53.982171 C19.8750784,53.3866888 19.7640428,52.8171449 19.5631211,52.2921948 C18.8827411,54.0708599 17.1608409,55.3346508 15.1426461,55.3346508 Z" id="Shape" fill="#333E40"></path>
            <path d="M16.044399,44.3100998 L8.21903088,37.4800618 C6.24971971,35.7613539 6.04680285,32.771772 7.76541093,30.8025606 C9.48411876,28.8334489 12.4737007,28.6303325 14.4429121,30.3489406 L22.2684798,37.1789786 C24.237791,38.8976865 24.4407078,41.8872684 22.7220998,43.8564798 C21.0031924,45.8254917 18.0137102,46.0286081 16.044399,44.3100998 Z" id="Shape" fill="#3B484A"></path>
            <path d="M17.7342755,40.930247 L9.90870784,34.100209 C8.76882185,33.1054774 8.22222328,31.6850594 8.29604751,30.2827981 C8.10889311,30.4396247 7.93101663,30.6127126 7.7652114,30.8026603 C6.04650356,32.771772 6.24961995,35.7614537 8.21883135,37.4801615 L16.044399,44.3101995 C18.0137102,46.0288076 21.0031924,45.825791 22.7219002,43.8565796 C23.445677,43.0271544 23.8273682,42.0166603 23.8810404,40.9964893 C22.1258195,42.4664893 19.513639,42.4830499 17.7342755,40.930247 Z" id="Shape" fill="#333E40"></path>
            <path d="M16.044399,63.6540428 L8.21883135,70.4840808 C6.24952019,72.2026888 6.04660333,75.1923705 7.7652114,77.1615819 C9.48381948,79.1306936 12.4735012,79.33381 14.4427126,77.6152019 L22.2682803,70.7851639 C24.2375914,69.0665558 24.4405083,66.0768741 22.7219002,64.1076627 C21.0031924,62.1385511 18.0137102,61.9353349 16.044399,63.6540428 Z" id="Shape" fill="#3B484A"></path>
            <g id="Group" transform="translate(7.681710, 30.228029)" fill="#333E40">
                <path d="M15.0400903,33.8795344 C14.1639762,32.8757245 12.9574489,32.3319192 11.7241853,32.2666746 C13.371962,34.2359857 13.1506888,37.1704988 11.2068171,38.8671591 L3.38124941,45.6971971 C2.41604751,46.5395914 1.20542993,46.9191876 0.0198527316,46.8564371 C0.0413016627,46.8821758 0.0615534442,46.908114 0.0837007126,46.9335534 C1.80240855,48.9026651 4.7919905,49.1057815 6.7612019,47.3871734 L14.5867696,40.5571354 C16.5556817,38.8383278 16.7587981,35.8487458 15.0400903,33.8795344 Z" id="Shape"></path>
                <path d="M56.4419145,25.1066223 L66.8288836,25.1066223 C68.8468789,25.1066223 70.5689786,23.8427316 71.2494584,22.0641663 C71.4502803,22.5891164 71.5615154,23.1584608 71.5615154,23.7541425 C71.5615154,26.3678195 69.4427601,28.4865748 66.8288836,28.4865748 L56.4419145,28.4865748 C53.828038,28.4865748 51.7092827,26.36762 51.7092827,23.7541425 C51.7092827,23.1586603 51.8203183,22.5891164 52.0213397,22.0641663 C52.7018195,23.8428314 54.4239192,25.1066223 56.4419145,25.1066223 Z" id="Shape"></path>
                <path d="M53.850285,10.7022185 L61.6758527,3.87218052 C62.8157387,2.87744893 63.3623373,1.45703088 63.2885131,0.0547695962 C63.4756675,0.2115962 63.6535439,0.384684086 63.8193492,0.574631829 C65.5379572,2.54374347 65.3349406,5.53342518 63.3657292,7.25213302 L55.5401615,14.082171 C53.5708504,15.8007791 50.5811686,15.5977625 48.8626603,13.6285511 C48.1388836,12.7991259 47.7571924,11.7886318 47.7035202,10.7684608 C49.4587411,12.2384608 52.0709216,12.2550214 53.850285,10.7022185 Z" id="Shape"></path>
                <path d="M48.8627601,33.8795344 C49.7388741,32.8757245 50.9454014,32.3319192 52.1786651,32.2666746 C50.5308884,34.2359857 50.7521615,37.1704988 52.6960333,38.8671591 L60.521601,45.6971971 C61.4868029,46.5395914 62.6974204,46.9191876 63.8829976,46.8564371 C63.8615487,46.8821758 63.8412969,46.908114 63.8191496,46.9335534 C62.1005416,48.9026651 59.1108599,49.1057815 57.1416485,47.3871734 L49.3160808,40.5571354 C47.3471686,38.8383278 47.1440523,35.8487458 48.8627601,33.8795344 Z" id="Shape"></path>
            </g>
            <circle id="Oval" fill="#3B484A" cx="39.6331354" cy="53.803696" r="27.6708171"></circle>
            <path d="M39.6331354,22.4287981 L39.5710831,22.4287981 C22.262095,22.46162 8.16266508,36.6729834 8.25893587,53.9819715 C8.33635154,68.1503373 17.8066033,80.0935012 30.7601615,83.9055249 C31.9166081,84.2462138 33.0798385,83.4271639 33.155658,82.225924 C33.8628741,70.8507078 39.6331354,62.4801378 39.6331354,62.4801378 C39.6331354,62.4801378 45.4033967,70.8508076 46.1108124,82.225924 C46.1848361,83.4168884 47.3341995,84.2497055 48.4787743,83.9142043 C61.4991734,80.0954964 71.0091306,68.0609501 71.0091306,53.8049929 C71.0091306,36.4768504 56.9629739,22.4304941 39.6331354,22.4287981 Z" id="Shape" fill="#FF5E6B"></path>
            <path d="M13.8357577,53.8208551 C13.7665226,41.3822708 20.1904276,30.3617102 29.9074917,23.9808029 C17.3105843,28.1152589 8.18142043,40.0432589 8.25903563,53.9819715 C8.33645131,68.1503373 17.8067031,80.0935012 30.7602613,83.9055249 C30.8201188,83.9230831 30.879677,83.935753 30.9395344,83.9472257 C20.7399192,77.7717292 13.9055914,66.5979335 13.8357577,53.8208551 Z" id="Shape" fill="#E63E4C"></path>
            <g id="Group" transform="translate(17.159145, 34.916865)" fill="#3B484A">
                <circle id="Oval" cx="31.7618765" cy="3.55583373" r="3.50405701"></circle>
                <circle id="Oval" cx="35.2042803" cy="34.2194252" r="3.50405701"></circle>
                <circle id="Oval" cx="40.3431449" cy="18.8868314" r="4.47484561"></circle>
                <circle id="Oval" cx="13.0627981" cy="3.55583373" r="3.50405701"></circle>
                <circle id="Oval" cx="9.62059382" cy="34.2194252" r="3.50405701"></circle>
                <circle id="Oval" cx="4.48142993" cy="18.8868314" r="4.47484561"></circle>
            </g>
            <g id="Group" transform="translate(25.140143, 0.000000)" fill="#333E40">
                <circle id="Oval" cx="3.08096437" cy="2.99018052" r="2.99018052"></circle>
                <circle id="Oval" cx="25.9050214" cy="2.99018052" r="2.99018052"></circle>
            </g>
            <g id="Group" transform="translate(30.327791, 14.565321)" fill="#F0F0F0">
                <path d="M1.30259857,4.0692114 C0.602665083,4.0692114 0.035216152,3.50176247 0.035216152,2.80182898 L0.035216152,1.35337767 C0.035216152,0.653444181 0.602665083,0.0859952494 1.30259857,0.0859952494 C2.00253207,0.0859952494 2.569981,0.653444181 2.569981,1.35337767 L2.569981,2.80182898 C2.569981,3.50186223 2.00253207,4.0692114 1.30259857,4.0692114 Z" id="Shape"></path>
                <path d="M17.3080903,4.0692114 C16.6081568,4.0692114 16.0407078,3.50176247 16.0407078,2.80182898 L16.0407078,1.35337767 C16.0407078,0.653444181 16.6081568,0.0859952494 17.3080903,0.0859952494 C18.0080238,0.0859952494 18.5754727,0.653444181 18.5754727,1.35337767 L18.5754727,2.80182898 C18.5756722,3.50186223 18.0080238,4.0692114 17.3080903,4.0692114 Z" id="Shape"></path>
                <path d="M9.30534442,4.84237055 C8.16964846,4.84237055 7.1019905,4.36580523 6.37591924,3.53508314 C5.91531591,3.008038 5.96888836,2.20734442 6.49603325,1.74674109 C7.02307838,1.28593824 7.82377197,1.33971021 8.2843753,1.86685511 C8.52909264,2.14688836 8.90120665,2.30750594 9.30534442,2.30750594 C9.70948219,2.30750594 10.0815962,2.14688836 10.3263135,1.86685511 C10.7869169,1.33980998 11.5876105,1.28593824 12.1146556,1.74674109 C12.6417007,2.20734442 12.6955724,3.008038 12.2345701,3.53508314 C11.5087981,4.36600475 10.4408409,4.84237055 9.30534442,4.84237055 Z" id="Shape"></path>
            </g>
        </g>
    </g>
</svg>