<?xml version="1.0" encoding="UTF-8"?>
<svg width="100px" height="100px" viewBox="0 0 100 100" version="1.1" xmlns="http://www.w3.org/2000/svg" xmlns:xlink="http://www.w3.org/1999/xlink">
    <!-- Generator: Sketch 51.1 (57501) - http://www.bohemiancoding.com/sketch -->
    <title>024-shovel</title>
    <desc>Created with Sketch.</desc>
    <defs></defs>
    <g id="024-shovel" stroke="none" stroke-width="1" fill="none" fill-rule="evenodd">
        <rect id="Rectangle" x="0" y="0" width="100" height="100"></rect>
        <g transform="translate(7.000000, 7.000000)" fill-rule="nonzero">
            <path d="M82.5929514,3.32727165 C71.5684247,-7.69725504 44.2415421,10.7893784 27.1685528,27.8920546 C23.7629324,31.3034899 23.7084555,36.7799454 26.7689537,40.5041637 C30.2584318,44.7501969 30.4701163,48.9608304 30.4701163,48.9608304 L36.9592906,55.4500047 C36.9592906,55.4500047 41.1699241,55.6616892 45.4159573,59.1511673 C49.1399715,62.2118695 54.6165291,62.1571886 58.0280664,58.7515682 C75.1309466,41.6786809 93.6176821,14.3517983 82.5929514,3.32727165 Z" id="Shape" fill="#B3B3B3"></path>
            <path d="M82.5929514,3.32727165 C82.1886595,2.92297983 81.7621281,2.5596987 81.3151934,2.23324555 C86.2899312,16.1750391 68.2935896,41.9169917 51.5093072,58.6720973 C50.5665718,59.6132005 49.4804009,60.3208897 48.3174116,60.8002657 C51.6270344,61.9946762 55.4273571,61.3480949 58.0281684,58.7517722 C75.1309466,41.6786809 93.6176821,14.3520024 82.5929514,3.32727165 Z" id="Shape" fill="#999999"></path>
            <path d="M40.6396418,50.9895326 C41.1148351,50.4337461 41.4305765,49.7598244 41.5537106,49.0389751 C42.023191,46.2872811 39.6330439,43.897134 36.8812479,44.3665125 C36.1603986,44.4894425 35.4864769,44.8053879 34.9306904,45.2805813 L23.1163511,55.02786 L25.1583155,60.7618055 L30.892261,62.8036679 L40.6396418,50.9895326 Z" id="Shape" fill="#D9D9D9"></path>
            <path d="M26.9225907,62.0100807 L19.4244721,58.7200451 C19.4244721,58.7200451 12.6917841,62.8330486 2.6131554,72.0856489 C-0.720033215,75.145739 -0.841432977,80.3626643 2.35801186,83.5621091 C5.55766074,86.761758 10.774586,86.6404603 13.8344721,83.3069656 C23.0870724,73.2283369 27.2000759,66.4954448 27.2000759,66.4954448 L26.9225907,62.0100807 Z M11.8697343,78.3746667 C10.6755279,79.5688731 8.73955872,79.5688731 7.54555635,78.3746667 C6.35155397,77.1804603 6.35134994,75.2444911 7.54555635,74.0504887 C8.73976275,72.8564864 10.6757319,72.8562823 11.8697343,74.0504887 C13.0637367,75.2446951 13.0638387,77.1806643 11.8697343,78.3746667 Z" id="Shape" fill="#C86D5C"></path>
            <path d="M13.8344721,83.3072716 C23.0870724,73.2286429 27.2000759,66.4957509 27.2000759,66.4957509 L26.9222847,62.0098766 L24.5655991,60.9759383 L24.755962,64.0519431 C24.755962,64.0519431 20.6429585,70.7848351 11.3903582,80.8634638 C8.73221352,83.7590012 4.44731198,84.2291957 1.27031079,82.2061044 C1.57615658,82.6865006 1.93780546,83.1421068 2.35780783,83.5625172 C5.5574567,86.7620641 10.774382,86.6407663 13.8344721,83.3072716 Z" id="Shape" fill="#B24D40"></path>
            <g id="Group" transform="translate(46.825623, 17.444840)" fill="#3B484A">
                <path d="M1.31938078,4.18013049 C0.987724792,4.18013049 0.655966785,4.05362989 0.402965599,3.80052669 C-0.10313879,3.2944223 -0.10313879,2.47380071 0.402965599,1.96769632 L1.98177461,0.388887307 C2.487879,-0.117217082 3.30870463,-0.117217082 3.81460498,0.388887307 C4.32070937,0.894991696 4.32070937,1.71561329 3.81460498,2.22171767 L2.23579597,3.80052669 C1.98279478,4.05373191 1.65124081,4.18013049 1.31938078,4.18013049 Z" id="Shape"></path>
                <path d="M18.7658529,21.6266026 C18.4341969,21.6266026 18.1024389,21.500102 17.8494377,21.2469988 C17.3433333,20.7408944 17.3433333,19.9202728 17.8494377,19.4141684 L19.4282467,17.8353594 C19.9343511,17.329255 20.7551767,17.329255 21.2610771,17.8353594 C21.7671815,18.3414638 21.7671815,19.1620854 21.2610771,19.6681898 L19.6822681,21.2469988 C19.4292669,21.500102 19.0976109,21.6266026 18.7658529,21.6266026 Z" id="Shape"></path>
                <path d="M12.0510178,14.9551246 C10.6605314,14.9551246 9.30360854,14.38679 8.28344247,13.3665219 C7.17982681,12.2629063 6.60496323,10.7654045 6.70646975,9.25749703 C6.75431554,8.54327877 7.37192408,8.00371293 8.08634638,8.05125267 C8.80056465,8.09920047 9.34053855,8.71701305 9.29259075,9.43133333 C9.24137841,10.1927853 9.54181732,10.959032 10.1163749,11.5335896 C10.6910344,12.1082491 11.4579953,12.408688 12.2186311,12.3573737 C12.9317272,12.3099359 13.5507639,12.8495018 13.5985077,13.563618 C13.6464555,14.2778363 13.1063796,14.8956489 12.3922633,14.9436987 C12.2785148,14.9512479 12.1647663,14.9551246 12.0510178,14.9551246 Z" id="Shape"></path>
            </g>
            <path d="M30.892363,62.8038719 L23.1165552,55.0280641 C22.0970012,54.0085101 20.4440261,54.0085101 19.4244721,55.0280641 C18.4049181,56.047618 18.4049181,57.7005931 19.4244721,58.7201471 L27.20028,66.4959549 C28.2198339,67.5155089 29.872809,67.5155089 30.892363,66.4959549 C31.9117129,65.4764009 31.9117129,63.8234259 30.892363,62.8038719 Z" id="Shape" fill="#B3B3B3"></path>
            <path d="M30.892363,62.8038719 L28.4484531,60.359962 C29.4680071,61.379516 29.4680071,63.0324911 28.4484531,64.0520451 C27.4288992,65.0715991 25.7759241,65.0715991 24.7563701,64.0520451 L27.20028,66.4959549 C28.2198339,67.5155089 29.872809,67.5155089 30.892363,66.4959549 C31.911917,65.4764009 31.911917,63.8234259 30.892363,62.8038719 Z" id="Shape" fill="#999999"></path>
        </g>
    </g>
</svg>