<?xml version="1.0" encoding="UTF-8"?>
<svg width="100px" height="100px" viewBox="0 0 100 100" version="1.1" xmlns="http://www.w3.org/2000/svg" xmlns:xlink="http://www.w3.org/1999/xlink">
    <!-- Generator: Sketch 51.1 (57501) - http://www.bohemiancoding.com/sketch -->
    <title>025-seed-bag</title>
    <desc>Created with Sketch.</desc>
    <defs></defs>
    <g id="025-seed-bag" stroke="none" stroke-width="1" fill="none" fill-rule="evenodd">
        <rect id="Rectangle" x="0" y="0" width="100" height="100"></rect>
        <g transform="translate(14.000000, 10.000000)" fill-rule="nonzero">
            <path d="M64.1336817,11.0975772 L35.9406176,5.5487886 L7.74774347,11.0975772 C7.74774347,11.0975772 -6.31572447,43.1576247 3.47638955,70.8497862 C5.42033254,76.3471734 10.6616627,79.9895487 16.4925416,79.9895487 L55.3885986,79.9895487 C61.2195724,79.9895487 66.4609026,76.3471734 68.4048456,70.8497862 C78.1971496,43.1576247 64.1336817,11.0975772 64.1336817,11.0975772 Z" id="Shape" fill="#2FC8B4"></path>
            <path d="M9.91420428,70.8497862 C0.122185273,43.1574347 14.1855582,11.0975772 14.1855582,11.0975772 L39.15962,6.18232779 L35.9406176,5.54897862 L7.74774347,11.0976722 C7.74774347,11.0976722 -6.31572447,43.1575297 3.47638955,70.8498812 C5.42033254,76.3474584 10.6616627,79.9896437 16.4926366,79.9896437 L22.9303563,79.9896437 C17.0994774,79.9895487 11.8581473,76.3473634 9.91420428,70.8497862 Z" id="Shape" fill="#00AE95"></path>
            <path d="M51.4742043,22.4137767 L20.4070309,22.4137767 C17.648361,22.4137767 15.4118765,24.6500713 15.4118765,27.4089311 L15.4118765,63.5015677 C15.4118765,66.2602375 17.648171,68.4967221 20.4070309,68.4967221 L51.4741093,68.4967221 C54.2327791,68.4967221 56.4692637,66.2604276 56.4692637,63.5015677 L56.4692637,27.4090261 C56.4693587,24.6503563 54.2328741,22.4137767 51.4742043,22.4137767 Z" id="Shape" fill="#F0F0F0"></path>
            <path d="M36.8457957,50.7936342 C18.4672684,48.175867 22.5028029,38.3593349 19.775962,32.1423278 C19.775962,32.1423278 28.0653682,30.0699287 34.064228,35.7416627 C40.0630879,41.4133967 36.8457957,50.7936342 36.8457957,50.7936342 Z" id="Shape" fill="#00AE95"></path>
            <g id="Group" transform="translate(27.553444, 36.389549)" fill="#2FC8B4">
                <path d="M9.29092637,15.6113064 C8.70071259,15.6113064 8.18498812,15.1782423 8.09776722,14.5771971 C8.08484561,14.4889311 6.79296912,6.1207601 0.586698337,2.26831354 C0.0203325416,1.91667458 -0.153824228,1.17263658 0.197719715,0.605985748 C0.54935867,0.0396199525 1.29320665,-0.134536817 1.86004751,0.217007126 C9.03781473,4.67268409 10.4314489,13.8437055 10.4873159,14.232019 C10.5821378,14.8919715 10.1242755,15.503753 9.46432304,15.5985748 C9.40598575,15.6074109 9.34812352,15.6113064 9.29092637,15.6113064 Z" id="Shape"></path>
                <path d="M7.48218527,22.7482185 C25.8607126,20.1304513 21.8251781,10.3139192 24.552019,4.09691211 C24.552019,4.09691211 16.2626128,2.02451306 10.263753,7.69624703 C4.26489311,13.367981 7.48218527,22.7482185 7.48218527,22.7482185 Z" id="Shape"></path>
            </g>
            <path d="M35.0369596,60.3448931 C34.9797625,60.3448931 34.9219952,60.3408076 34.863753,60.3325416 C34.2038005,60.2377197 33.7457482,59.6259382 33.8407601,58.9659857 C33.8965321,58.5777672 35.2902613,49.4064608 42.4680285,44.9510689 C43.0343943,44.5994299 43.7786223,44.7735867 44.1303563,45.3400475 C44.4819952,45.9064133 44.3078385,46.6506413 43.7413777,47.0023753 C37.5093587,50.8707838 36.2424703,59.2257482 36.2305938,59.3098337 C36.143848,59.9110689 35.6275534,60.3448931 35.0369596,60.3448931 Z" id="Shape" fill="#00AE95"></path>
            <path d="M57.9268409,0.800855107 C57.9072684,0.811781473 57.887981,0.822707838 57.8685986,0.833824228 C55.928266,1.94555819 53.543848,1.94555819 51.6035154,0.833824228 C49.6631829,-0.277909739 47.2787648,-0.277909739 45.3384323,0.833824228 C43.3980998,1.94555819 41.0136817,1.94555819 39.0733492,0.833824228 C37.1330166,-0.277909739 34.7485986,-0.277909739 32.808266,0.833824228 C30.8679335,1.94555819 28.4835154,1.94555819 26.5431829,0.833824228 C24.6028504,-0.277909739 22.2184323,-0.277909739 20.2780998,0.833824228 C18.3377672,1.94555819 15.9533492,1.94555819 14.0130166,0.833824228 C13.9934442,0.822707838 13.9742518,0.811781473 13.9547743,0.800855107 C11.1738717,-0.753444181 7.74774347,1.30517815 7.74774347,4.49064133 L7.74774347,11.0975772 L64.1336817,11.0975772 L64.1336817,4.49064133 C64.1336817,1.30517815 60.7076485,-0.753539192 57.9268409,0.800855107 Z" id="Shape" fill="#F0F0F0"></path>
            <path d="M15.4894062,1.44484561 C14.9796675,1.30593824 14.4829454,1.10337292 14.0127316,0.833824228 C13.9931591,0.822707838 13.9739667,0.811781473 13.9542993,0.800855107 C11.1736817,-0.753444181 7.74774347,1.30517815 7.74774347,4.49064133 L7.74774347,11.0975772 L14.1854632,11.0975772 L14.1854632,4.49064133 C14.1854632,3.25833729 14.6994774,2.1960095 15.4894062,1.44484561 Z" id="Shape" fill="#D9D9D9"></path>
        </g>
    </g>
</svg>