<?xml version="1.0" encoding="UTF-8"?>
<svg width="100px" height="100px" viewBox="0 0 100 100" version="1.1" xmlns="http://www.w3.org/2000/svg" xmlns:xlink="http://www.w3.org/1999/xlink">
    <!-- Generator: Sketch 51.1 (57501) - http://www.bohemiancoding.com/sketch -->
    <title>026-tulip</title>
    <desc>Created with Sketch.</desc>
    <defs></defs>
    <g id="026-tulip" stroke="none" stroke-width="1" fill="none" fill-rule="evenodd">
        <rect id="Rectangle" x="0" y="0" width="100" height="100"></rect>
        <g transform="translate(14.000000, 4.000000)" fill-rule="nonzero">
            <rect id="Rectangle-path" fill="#00AE95" x="33.195829" y="24.9391021" width="6.21775772" height="56.2622613"></rect>
            <g id="Group" transform="translate(9.505938, 4.698337)" fill="#FF5E6B">
                <path d="M51.6487126,0.0375866983 C46.9533254,0.653505938 37.2606556,2.85363895 33.3670451,10.6407506 L26.7996437,40.7360048 C33.2722043,40.7360048 40.7299952,40.1779952 45.6210736,35.3966176 C49.8470641,31.2654679 50.2061045,25.1915012 50.484399,19.6390499 C50.7815962,13.7072352 51.6594204,7.86152019 53.4544038,2.21095012 C53.8263373,1.03953444 52.8675487,-0.12215677 51.6487126,0.0375866983 Z" id="Shape"></path>
                <path d="M20.232133,10.6408599 C16.3384133,2.85374822 6.645962,0.653396675 1.95046556,0.037695962 C0.731847981,-0.122047506 -0.227377672,1.03964371 0.14488361,2.21105938 C1.93975772,7.86184798 2.81758195,13.7073444 3.11488836,19.6391591 C3.39296437,25.191829 3.75211401,31.2655772 7.97821378,35.3967268 C12.8691829,40.177886 20.3270831,40.736114 26.7996437,40.736114 L20.232133,10.6408599 Z" id="Shape"></path>
            </g>
            <g id="Group" transform="translate(12.783848, 7.211401)" fill="#E63E4C">
                <path d="M42.3432732,32.883772 C45.7279335,29.5750499 46.6314347,25.0200665 47.0001995,20.4848599 C46.3594774,13.6428789 43.5605796,6.38580523 39.1593302,0.0354014252 C35.5822565,1.63097862 32.0786081,4.14885036 30.0890261,8.12779572 L23.5216247,38.2230499 C29.9944038,38.2230499 37.4520855,37.6650404 42.3432732,32.883772 Z" id="Shape"></path>
                <path d="M0.0430498812,20.4848599 C0.411705463,25.0199572 1.31542518,29.5747221 4.69997625,32.8836627 C9.59094537,37.6648219 17.0488456,38.2230499 23.5214062,38.2230499 L16.9543325,8.12779572 C14.9648599,4.14895962 11.4614299,1.6307601 7.88413777,0.0354014252 C3.48266983,6.38569596 0.683662708,13.6430974 0.0430498812,20.4848599 Z" id="Shape"></path>
            </g>
            <path d="M37.8117815,0.48239905 C36.9130879,-0.160836105 35.698076,-0.160836105 34.7993824,0.48239905 C15.7670736,14.1025511 9.09882185,47.3318147 36.3054727,47.3318147 C63.5121235,47.3318147 56.8440903,14.1026603 37.8117815,0.48239905 Z" id="Shape" fill="#FF5E6B"></path>
            <g id="Group" transform="translate(24.038005, 23.819477)" fill="#3B484A">
                <path d="M1.46631829,4.76695487 C0.709776722,4.76695487 0.0966983373,4.15376722 0.0966983373,3.39733492 L0.0966983373,1.44238955 C0.0966983373,0.685957245 0.709667458,0.0727695962 1.46631829,0.0727695962 C2.22285986,0.0727695962 2.83593824,0.685957245 2.83593824,1.44238955 L2.83593824,3.39733492 C2.83582898,4.15376722 2.22285986,4.76695487 1.46631829,4.76695487 Z" id="Shape"></path>
                <path d="M23.0687268,4.76695487 C22.3121853,4.76695487 21.6991069,4.15376722 21.6991069,3.39733492 L21.6991069,1.44238955 C21.6991069,0.685957245 22.312076,0.0727695962 23.0687268,0.0727695962 C23.8253777,0.0727695962 24.4383468,0.685957245 24.4383468,1.44238955 L24.4383468,3.39733492 C24.4382375,4.15376722 23.8252684,4.76695487 23.0687268,4.76695487 Z" id="Shape"></path>
                <path d="M12.2674679,5.81053207 C10.8331639,5.81053207 9.48572447,5.20990974 8.57053207,4.1628361 C8.07250831,3.59335392 8.13074584,2.72798575 8.70044656,2.23018052 C9.26960095,1.7323753 10.1348599,1.79050356 10.6328836,2.36009501 C11.027981,2.81211876 11.623905,3.07140143 12.2676865,3.07140143 C12.9114679,3.07140143 13.5073919,2.81211876 13.9025986,2.35998575 C14.4006223,1.79061283 15.2658812,1.73259382 15.8352542,2.23039905 C16.4046271,2.7284228 16.4628646,3.59346318 15.9649501,4.16305463 C15.0491021,5.20990974 13.7015534,5.81053207 12.2674679,5.81053207 Z" id="Shape"></path>
            </g>
            <path d="M39.4148979,64.8508219 C38.2629311,66.0150261 37.2237245,67.298 36.3058005,68.6955914 C35.3877672,67.2977815 34.3485606,66.0148076 33.1965938,64.8508219 L33.1965938,81.2018005 L39.4151164,81.2018005 L39.4151164,64.8508219 L39.4148979,64.8508219 Z" id="Shape" fill="#009983"></path>
            <path d="M36.0053254,90.617924 C69.1586508,92.5516722 65.5670451,73.9073587 72.5548931,63.9745273 C72.5548931,63.9745273 58.7562043,57.3984941 46.2246461,65.2137957 C33.6930879,73.0290974 36.0053254,90.617924 36.0053254,90.617924 Z" id="Shape" fill="#00AE95"></path>
            <path d="M56.1085273,69.9287411 C55.8449834,69.2198385 55.0560998,68.8585036 54.3476342,69.122266 C48.6075772,71.2554204 43.3923135,75.5713349 39.2648789,81.6042185 C37.4272827,84.2901378 36.1886698,86.743981 35.4731021,88.3288504 L37.7886176,89.8730736 C39.3663848,86.2693397 44.8100095,75.5887078 55.3015059,71.6900713 C56.0108456,71.4261995 56.3721805,70.6378622 56.1085273,69.9287411 Z" id="Shape" fill="#009983"></path>
            <path d="M36.6057292,90.617924 C3.4524038,92.5516722 7.0440095,73.9073587 0.0561615202,63.9745273 C0.0561615202,63.9745273 13.8548504,57.3984941 26.3864086,65.2137957 C38.9179667,73.0290974 36.6057292,90.617924 36.6057292,90.617924 Z" id="Shape" fill="#2FC8B4"></path>
            <path d="M36.6057292,91.987981 C36.0428029,91.987981 35.5154964,91.6385558 35.3157625,91.0780333 C35.2421188,90.8741473 29.894209,76.3664466 17.3095487,71.6898527 C16.6004276,71.4263088 16.2394204,70.6380808 16.5028551,69.9289596 C16.766399,69.2198385 17.5544086,68.8587221 18.2637482,69.122266 C24.0038052,71.2554204 29.2190689,75.5714442 33.3465036,81.6042185 C36.4425986,86.1295914 37.8382233,89.9959952 37.8963515,90.1581425 C38.1503895,90.8705416 37.7786746,91.6540713 37.0662755,91.9081093 C36.9138527,91.9620855 36.7584798,91.987981 36.6057292,91.987981 Z" id="Shape" fill="#00AE95"></path>
        </g>
    </g>
</svg>