<?xml version="1.0" encoding="UTF-8"?>
<svg width="100px" height="100px" viewBox="0 0 100 100" version="1.1" xmlns="http://www.w3.org/2000/svg" xmlns:xlink="http://www.w3.org/1999/xlink">
    <!-- Generator: Sketch 51.1 (57501) - http://www.bohemiancoding.com/sketch -->
    <title>027-shears</title>
    <desc>Created with Sketch.</desc>
    <defs></defs>
    <g id="027-shears" stroke="none" stroke-width="1" fill="none" fill-rule="evenodd">
        <rect id="Rectangle" x="0" y="0" width="100" height="100"></rect>
        <g transform="translate(21.000000, 4.000000)" fill-rule="nonzero">
            <g id="Group" transform="translate(0.000000, 42.612827)" fill="#FF5E6B">
                <path d="M57.415867,44.5419857 C53.7144513,40.3110784 43.9434394,26.78238 50.8493397,8.18931116 L46.7990451,2.53437055 L35.4651259,7.28449881 C35.4651259,7.28449881 34.0262328,43.1379477 54.3605273,49.2500475 C55.7245748,49.6600048 57.1871781,49.0367648 57.8242945,47.7626413 C58.3528029,46.7054062 58.194152,45.4317197 57.415867,44.5419857 Z" id="Shape"></path>
                <path d="M17.9562803,10.0199145 L9.37842755,0.0573634204 L7.45691686,1.78230879 C5.24990024,3.76347743 4.18971496,6.72342993 4.63693112,9.65541093 C4.91161995,11.4565131 4.62294537,13.3006651 3.80226603,14.9272732 C-4.03860333,30.466095 2.4331924,43.4410451 5.17057482,47.8041615 C5.78430879,48.782399 6.85727791,49.3749359 8.01197625,49.3749359 C10.2201948,49.3749359 11.8238575,47.278057 11.2498955,45.1457767 C5.28169596,22.9719192 17.9562803,10.0199145 17.9562803,10.0199145 Z" id="Shape"></path>
            </g>
            <path d="M50.3669406,50.3984086 C50.4014679,50.3557957 50.43381,50.3117625 50.4673539,50.2687126 L46.7989359,45.1474157 L35.4650166,49.8975439 C35.4650166,49.8975439 35.325924,53.3646983 35.7456057,58.325924 C36.0019382,58.347886 36.2606746,58.3615439 36.5226888,58.3615439 C36.5230166,58.3615439 36.5232352,58.3615439 36.5235629,58.3615439 C37.4780903,58.3615439 38.426171,58.2104323 39.3409264,57.9125796 C43.7398812,56.479696 47.5526366,53.8814062 50.3669406,50.3984086 Z" id="Shape" fill="#E63E4C"></path>
            <path d="M46.1992969,42.6704086 C44.7127648,40.5263278 41.9529834,37.1478955 37.8242375,34.4159762 L32.976209,43.2394537 L32.976209,49.2434917 C32.976209,51.6554869 35.3277815,53.3801045 37.6212257,52.6330689 C40.2150356,51.788133 43.4398432,50.1368314 46.047639,46.9091829 C47.0330879,45.6892542 47.0925273,43.9586271 46.1992969,42.6704086 Z" id="Shape" fill="#B3B3B3"></path>
            <path d="M9.37842755,42.6704086 L7.45691686,44.3953539 C5.92361995,45.7717482 4.94571021,47.6208171 4.64031829,49.6043895 C4.81535867,49.8768931 5.00427553,50.1428409 5.21089311,50.3985178 C7.66888836,53.4406366 10.8887791,55.8075059 14.5954394,57.3125036 C16.3766556,54.2486413 17.9562803,52.6327411 17.9562803,52.6327411 L9.37842755,42.6704086 Z" id="Shape" fill="#E63E4C"></path>
            <path d="M9.37842755,42.6704086 C10.8649596,40.5263278 13.6748931,37.1478955 17.8034204,34.4159762 L22.6015154,42.1028931 L22.6015154,49.2432732 C22.6015154,51.6552684 20.249943,53.379886 17.9564988,52.6328504 C15.3626888,51.7879145 12.1378812,50.1366128 9.53008551,46.9089644 C8.54452732,45.6892542 8.48508789,43.9586271 9.37842755,42.6704086 Z" id="Shape" fill="#B3B3B3"></path>
            <path d="M33.9996817,16.246304 C38.4533777,10.2390974 38.4673634,4.42911164 38.1324703,1.66911164 C38.0494299,0.984574822 38.7949359,0.499662708 39.3814632,0.862199525 C54.7390166,10.3568836 37.8243468,32.6106128 37.8243468,32.6106128 L27.7890261,32.6106128 L33.9996817,16.246304 Z" id="Shape" fill="#999999"></path>
            <path d="M17.7533777,0 L17.7533777,23.3701853 L33.9996817,38.8839857 L33.9996817,16.246304 C33.9996817,7.27368171 26.726,0 17.7533777,0 Z" id="Shape" fill="#B3B3B3"></path>
            <circle id="Oval" fill="#000000" cx="22.4071354" cy="24.4296057" r="1.41660333"></circle>
            <g id="Group" transform="translate(13.548694, 34.308789)" fill="#999999">
                <path d="M24.2757625,0.106969121 L19.427734,8.93044656 L19.427734,13.5576532 L22.8765321,13.5576532 C26.2048124,13.5576532 28.9029691,10.8594964 28.9029691,7.53121615 L28.9029691,3.8931734 C27.6151876,2.6123848 26.0755534,1.29805226 24.2757625,0.106969121 Z" id="Shape"></path>
                <path d="M0.105657957,3.41274109 C1.355962,7.82797625 4.7307886,11.3567553 9.05271259,12.8212162 L9.05271259,7.79388599 L4.25461758,0.106969121 C2.67903563,1.14967221 1.29706888,2.28623278 0.105657957,3.41274109 Z" id="Shape"></path>
            </g>
            <path d="M32.8421425,27.6285178 L27.0614394,27.6285178 L27.0614394,23.2654014 C27.0614394,20.7251306 25.0261853,18.6600475 22.4972779,18.6120808 C19.8886081,18.5626936 17.7530499,20.7608599 17.7530499,23.370076 L17.7530499,33.9309549 C17.7530499,39.0717007 21.9205843,43.2391259 27.0612209,43.2391259 L37.824019,43.2391259 L37.824019,32.6106128 C37.8244561,29.8591354 35.5937292,27.6285178 32.8421425,27.6285178 Z" id="Shape" fill="#D9D9D9"></path>
            <circle id="Oval" fill="#B3B3B3" cx="27.7892447" cy="34.9980238" r="3.05424703"></circle>
        </g>
    </g>
</svg>