<?xml version="1.0" encoding="UTF-8"?>
<svg width="100px" height="100px" viewBox="0 0 100 100" version="1.1" xmlns="http://www.w3.org/2000/svg" xmlns:xlink="http://www.w3.org/1999/xlink">
    <!-- Generator: Sketch 51.1 (57501) - http://www.bohemiancoding.com/sketch -->
    <title>028-gardener-1</title>
    <desc>Created with Sketch.</desc>
    <defs></defs>
    <g id="028-gardener-1" stroke="none" stroke-width="1" fill="none" fill-rule="evenodd">
        <rect id="Rectangle" x="0" y="0" width="100" height="100"></rect>
        <g transform="translate(7.000000, 8.000000)" fill-rule="nonzero">
            <path d="M10.6650202,29.9919644 L10.6626738,29.9924745 C10.6626738,29.9926785 10.6626738,29.9927805 10.6626738,29.9929846 L7.61523369,31.5649585 L8.37566548,37.1812788 L11.1299098,37.2718695 L11.1304199,37.2720735 L11.4172906,37.0672242 C11.4172906,37.0672242 17.058605,35.6430724 19.8114211,29.9916584 L10.6651222,29.9916584 L10.6651222,29.9919644 L10.6650202,29.9919644 Z" id="Shape" fill="#C86D5C"></path>
            <polygon id="Shape" fill="#00A6C8" points="62.6186097 59.2420641 23.3354828 59.2420641 17.6092906 72.9608493 23.3354828 83.4044935 62.6186097 83.4044935 68.3448019 72.9608493"></polygon>
            <g id="Group" transform="translate(14.384342, 56.721234)" fill="#F0F0F0">
                <path d="M7.42833926,1.30734282 C4.71581969,4.54004508 1.37732622,9.76064294 0.0773285884,16.2392076 L4.51423488,18.4168541 L8.95114116,16.2392076 L8.95114116,2.52083037 L9.50641756,0.0257081851 L7.42833926,1.30734282 Z" id="Shape"></path>
                <path d="M49.75707,1.30734282 C52.4695896,4.54004508 55.808083,9.76064294 57.1080807,16.2392076 L52.6711744,18.4169561 L48.2342681,16.2393096 L48.2342681,2.52083037 L47.6789917,0.0257081851 L49.75707,1.30734282 Z" id="Shape"></path>
            </g>
            <path d="M75.2892764,29.9919644 L66.1431815,29.9919644 C68.8958956,35.6433784 74.537312,37.0675302 74.537312,37.0675302 L74.8341803,37.1513879 L78.0579051,36.1482586 L75.2892764,29.9919644 Z" id="Shape" fill="#C86D5C"></path>
            <path d="M74.2804342,17.1242017 L11.6736584,17.1242017 C18.0581637,6.89305813 29.7015231,0.0338695136 42.9770463,0.0338695136 C56.2525694,0.0338695136 67.8959288,6.89305813 74.2804342,17.1242017 Z" id="Shape" fill="#FFCE1C"></path>
            <path d="M49.0253049,0.516714116 C47.0576085,0.199544484 45.0369656,0.0340735469 42.9770463,0.0340735469 C29.7015231,0.0340735469 18.0581637,6.89326216 11.6736584,17.1244057 L23.7704816,17.1244057 C29.1642017,8.48064057 38.3115208,2.24416133 49.0253049,0.516714116 Z" id="Shape" fill="#FAA330"></path>
            <g id="Group" transform="translate(7.549229, 29.890866)" fill="#B24D40">
                <path d="M67.7400474,0.101098458 L58.5939526,0.101098458 C59.5046548,1.97096085 60.7316085,3.3755255 61.9658055,4.42139976 L69.6830558,4.42139976 L67.7400474,0.101098458 Z" id="Shape"></path>
                <path d="M3.11324081,0.101710558 C3.11324081,0.101914591 3.11324081,0.102016607 3.11324081,0.102220641 L0.0658007117,1.67419454 L0.437651246,4.42139976 L8.88982918,4.42139976 C10.1241281,3.3755255 11.3509798,1.97096085 12.2616821,0.101098458 L3.11579122,0.101098458 L3.11324081,0.101710558 Z" id="Shape"></path>
            </g>
            <g id="Group" transform="translate(4.284698, 29.890866)" fill="#E3B098">
                <path d="M71.0069253,0.101608541 C70.9658126,3.67045552 70.5491767,7.26041993 70.5491767,7.26041993 L67.8157438,10.356726 L69.2218387,14.2153001 C69.5586975,14.2642681 69.9025955,14.2909964 70.2528185,14.2909964 C74.1822942,14.2909964 77.3676607,11.1056299 77.3676607,7.17615421 C77.3675587,3.50182206 74.5817912,0.478559905 71.0069253,0.101608541 Z" id="Shape"></path>
                <path d="M6.84511032,7.38120759 L6.83552076,7.26041993 C6.83552076,7.26041993 6.41878292,3.67045552 6.37777224,0.101608541 C2.80311032,0.478559905 0.01713879,3.50172005 0.01713879,7.17635824 C0.01713879,11.1056299 3.20250534,14.2912005 7.13198102,14.2912005 C7.48271412,14.2912005 7.82712218,14.2643701 8.16428707,14.2154021 L10.1767687,9.89622301 L6.84511032,7.38120759 Z" id="Shape"></path>
            </g>
            <path d="M74.5371079,37.0675302 C74.5371079,37.0675302 68.8957936,35.6433784 66.1429775,29.9919644 L42.9820451,26.5777746 L19.8111151,29.9919644 C17.0584009,35.6433784 11.4169846,37.0675302 11.4169846,37.0675302 L11.1201163,37.1513879 L11.1297058,37.2721756 L11.1302159,37.2723796 C12.2677011,53.1596299 26.0901352,65.7087948 42.9770463,65.7087948 C59.9060902,65.7087948 73.757089,53.0958695 74.8339763,37.1512859 L74.5371079,37.0675302 Z" id="Shape" fill="#FBC4AC"></path>
            <path d="M60.3212977,42.2229395 C59.6055492,42.2229395 59.0252788,41.642669 59.0252788,40.9269205 L59.0252788,37.5545575 C59.0252788,36.838809 59.6055492,36.2585386 60.3212977,36.2585386 C61.0370463,36.2585386 61.6173167,36.838809 61.6173167,37.5545575 L61.6173167,40.9269205 C61.6173167,41.642669 61.0370463,42.2229395 60.3212977,42.2229395 Z" id="Shape" fill="#3B484A"></path>
            <path d="M62.6178956,47.1798244 L58.0245979,47.1798244 C57.3088493,47.1798244 56.7285789,46.599554 56.7285789,45.8838055 C56.7285789,45.1680569 57.3088493,44.5877865 58.0245979,44.5877865 L62.6178956,44.5877865 C63.3336441,44.5877865 63.9139146,45.1680569 63.9139146,45.8838055 C63.9139146,46.599554 63.3337461,47.1798244 62.6178956,47.1798244 Z" id="Shape" fill="#F98084"></path>
            <path d="M25.6327948,42.2229395 C24.9170463,42.2229395 24.3367758,41.642669 24.3367758,40.9269205 L24.3367758,37.5545575 C24.3367758,36.838809 24.9170463,36.2585386 25.6327948,36.2585386 C26.3485433,36.2585386 26.9288138,36.838809 26.9288138,37.5545575 L26.9288138,40.9269205 C26.9288138,41.642669 26.3485433,42.2229395 25.6327948,42.2229395 Z" id="Shape" fill="#3B484A"></path>
            <path d="M27.9293926,47.1798244 L23.3360949,47.1798244 C22.6203464,47.1798244 22.0400759,46.599554 22.0400759,45.8838055 C22.0400759,45.1680569 22.6203464,44.5877865 23.3360949,44.5877865 L27.9293926,44.5877865 C28.6451412,44.5877865 29.2254116,45.1680569 29.2254116,45.8838055 C29.2254116,46.599554 28.6452432,47.1798244 27.9293926,47.1798244 Z" id="Shape" fill="#F98084"></path>
            <path d="M42.9770463,46.9892574 C41.3940546,46.9892574 39.9075706,46.3274757 38.8989324,45.1737699 C38.4279217,44.6348161 38.4827046,43.8160308 39.0217604,43.3450202 C39.5607141,42.8740095 40.3792954,42.9287924 40.8505101,43.4678482 C41.3667141,44.0585243 42.1418363,44.3972195 42.9768422,44.3972195 C43.8118482,44.3972195 44.5868683,44.0585243 45.1030724,43.4678482 C45.5742871,42.9288944 46.3928683,42.8738055 46.9318221,43.3450202 C47.4707758,43.8162349 47.5258648,44.6348161 47.0546501,45.1737699 C46.0465219,46.3275777 44.560242,46.9892574 42.9770463,46.9892574 Z" id="Shape" fill="#3B484A"></path>
            <path d="M77.2495255,23.0992123 L8.70456702,23.0992123 C9.49968446,21.0073618 10.4978149,19.0078363 11.6736584,17.1239976 L74.2804342,17.1239976 C75.4563796,19.0076323 76.4544081,21.0073618 77.2495255,23.0992123 Z" id="Shape" fill="#FF5E6B"></path>
            <path d="M11.6736584,17.1242017 C10.4977129,19.0080403 9.49968446,21.0075658 8.70456702,23.0994164 L20.8013903,23.0994164 C21.5965077,21.0077699 22.5946382,19.0080403 23.7704816,17.1242017 C23.7704816,17.1242017 11.6736584,17.1242017 11.6736584,17.1242017 Z" id="Shape" fill="#E63E4C"></path>
            <g id="Group" transform="translate(23.259786, 59.169632)" fill="#42C3E2">
                <path d="M0.0764104389,0.0724317912 L0.0764104389,15.6892361 C0.0764104389,17.6510154 1.66684935,19.2412503 3.62842467,19.2412503 C5.59020403,19.2412503 7.18043891,17.6508114 7.18043891,15.6892361 L7.18043891,4.09198814 C4.6236987,3.04580783 2.23834638,1.68970107 0.0764104389,0.0724317912 Z" id="Shape"></path>
                <path d="M32.2540807,4.09158007 L32.2540807,15.6894401 C32.2540807,17.6512195 33.8445196,19.2414543 35.8060949,19.2414543 C37.7678743,19.2414543 39.3581091,17.6510154 39.3581091,15.6894401 L39.3581091,0.0733499407 C37.1963772,1.69021115 34.8107189,3.04550178 32.2540807,4.09158007 Z" id="Shape"></path>
            </g>
            <g id="Group" transform="translate(25.708185, 72.941874)" fill="#00A6C8">
                <circle id="Oval" cx="33.3574923" cy="1.10851246" r="1.08872123"></circle>
                <circle id="Oval" cx="1.18023013" cy="1.10851246" r="1.08872123"></circle>
            </g>
            <path d="M42.9770463,65.7087948 C38.5271839,65.7087948 34.2907402,64.8366548 30.4425718,63.2625386 C31.5730178,69.15614 36.7535231,73.6103891 42.9770463,73.6103891 C49.2006714,73.6103891 54.3811767,69.156038 55.5116228,63.2620285 C51.6631483,64.8361447 47.4267046,65.7087948 42.9770463,65.7087948 Z" id="Shape" fill="#F0F0F0"></path>
            <path d="M19.8111151,29.9919644 C18.9004128,31.8617248 17.6734591,33.2663915 16.4392622,34.3122657 L69.5149324,34.3122657 C68.2806335,33.2663915 67.0537817,31.8616228 66.1430795,29.9919644 L42.9821471,26.5777746 L19.8111151,29.9919644 Z" id="Shape" fill="#E3B098"></path>
            <path d="M85.920427,26.5464555 C85.920427,28.4487592 84.3773238,29.9919644 82.4731839,29.9919644 L3.48090866,29.9919644 C1.57697272,29.9919644 0.0336654804,28.4486572 0.0336654804,26.5464555 C0.0336654804,24.6427236 1.57697272,23.0992123 3.48090866,23.0992123 L82.4732859,23.0992123 C84.3771198,23.0992123 85.920427,24.6425196 85.920427,26.5464555 Z" id="Shape" fill="#FFCE1C"></path>
            <path d="M12.1304887,26.5464555 C12.1304887,24.6423155 13.673796,23.0992123 15.5777319,23.0992123 L3.48090866,23.0992123 C1.57717675,23.0992123 0.0336654804,24.6425196 0.0336654804,26.5464555 C0.0336654804,28.4487592 1.57697272,29.9919644 3.48090866,29.9919644 L15.5777319,29.9919644 C13.673694,29.9919644 12.1304887,28.4486572 12.1304887,26.5464555 Z" id="Shape" fill="#FAA330"></path>
            <g id="Group" transform="translate(13.772242, 72.941874)" fill="#FBC4AC">
                <path d="M0.254939502,10.4626192 L9.56324081,10.4626192 L9.56324081,0.0185670225 L0.689428233,0.0185670225 C0.634033215,0.281973903 0.583739027,0.548645314 0.536811388,0.818683274 C0.0301969158,3.72248399 -0.122521945,6.9365172 0.254939502,10.4626192 Z" id="Shape"></path>
                <path d="M58.154669,10.4626192 L48.8463677,10.4626192 L48.8463677,0.0185670225 L57.7201803,0.0185670225 C57.7755753,0.281973903 57.8258695,0.548645314 57.8727972,0.818683274 C58.3795136,3.72248399 58.5321305,6.9365172 58.154669,10.4626192 Z" id="Shape"></path>
            </g>
        </g>
    </g>
</svg>