<?xml version="1.0" encoding="UTF-8"?>
<svg width="100px" height="100px" viewBox="0 0 100 100" version="1.1" xmlns="http://www.w3.org/2000/svg" xmlns:xlink="http://www.w3.org/1999/xlink">
    <!-- Generator: Sketch 51.1 (57501) - http://www.bohemiancoding.com/sketch -->
    <title>029-fence</title>
    <desc>Created with Sketch.</desc>
    <defs></defs>
    <g id="029-fence" stroke="none" stroke-width="1" fill="none" fill-rule="evenodd">
        <rect id="Rectangle" x="0" y="0" width="100" height="100"></rect>
        <g transform="translate(4.000000, 17.000000)" fill-rule="nonzero">
            <g id="Group" transform="translate(0.000000, 9.712930)" fill="#B24D40">
                <path d="M89.2306145,0.0488920522 L2.72027521,0.0488920522 C1.23779834,0.0488920522 0.0360142349,1.25067616 0.0360142349,2.73315302 L0.0360142349,11.2405884 C0.0360142349,12.7230652 1.23779834,13.9248493 2.72027521,13.9248493 L89.2307236,13.9248493 C90.7132005,13.9248493 91.9149846,12.7230652 91.9149846,11.2405884 L91.9149846,2.73315302 C91.9148754,1.25067616 90.7130913,0.0488920522 89.2306145,0.0488920522 Z" id="Shape"></path>
                <path d="M89.2306145,36.1604745 L2.72027521,36.1604745 C1.23779834,36.1604745 0.0360142349,37.3624769 0.0360142349,38.8448446 L0.0360142349,47.35228 C0.0360142349,48.8347568 1.23779834,50.0365409 2.72027521,50.0365409 L89.2307236,50.0365409 C90.7132005,50.0365409 91.9149846,48.8347568 91.9149846,47.35228 L91.9149846,38.8448446 C91.9148754,37.3621495 90.7130913,36.1604745 89.2306145,36.1604745 Z" id="Shape"></path>
            </g>
            <path d="M54.8569917,5.44284223 L49.2828612,1.17439146 C47.3311079,-0.320090154 44.6197817,-0.320090154 42.6679193,1.17439146 L37.0937888,5.44284223 C35.7494757,6.47219454 34.9612005,8.06893476 34.9612005,9.76182206 L34.9612005,62.5740783 C34.9612005,64.2635824 36.3309419,65.6332147 38.0203369,65.6332147 L53.9301163,65.6332147 C55.6196204,65.6332147 56.9892527,64.2634733 56.9892527,62.5740783 L56.9892527,9.76182206 C56.9895801,8.06871649 56.2010866,6.47208541 54.8569917,5.44284223 Z" id="Shape" fill="#C86D5C"></path>
            <g id="Group" transform="translate(42.889680, 12.768683)" fill="#B3B3B3">
                <circle id="Oval" cx="3.08576512" cy="3.09089442" r="3.04920522"></circle>
                <circle id="Oval" cx="3.08576512" cy="40.0421542" r="3.04920522"></circle>
            </g>
            <path d="M24.8629181,5.44284223 L19.2887877,1.17439146 C17.3370344,-0.320090154 14.6257082,-0.320090154 12.6738458,1.17439146 L7.0997153,5.44284223 C5.75540214,6.47219454 4.96712693,8.06893476 4.96712693,9.76182206 L4.96712693,62.5740783 C4.96712693,64.2635824 6.33686833,65.6332147 8.02626335,65.6332147 L23.9360427,65.6332147 C25.6255469,65.6332147 26.9951791,64.2634733 26.9951791,62.5740783 L26.9951791,9.76182206 C26.9955065,8.06871649 26.2071222,6.47208541 24.8629181,5.44284223 Z" id="Shape" fill="#C86D5C"></path>
            <g id="Group" transform="translate(12.877817, 12.768683)" fill="#B3B3B3">
                <circle id="Oval" cx="3.10289917" cy="3.09089442" r="3.04920522"></circle>
                <circle id="Oval" cx="3.10289917" cy="40.0421542" r="3.04920522"></circle>
            </g>
            <path d="M67.0879715,5.44284223 L72.662102,1.17439146 C74.6138553,-0.320090154 77.3251815,-0.320090154 79.2770439,1.17439146 L84.8511744,5.44284223 C86.1954875,6.47219454 86.9837628,8.06893476 86.9837628,9.76182206 L86.9837628,62.5740783 C86.9837628,64.2635824 85.6140214,65.6332147 83.9246263,65.6332147 L68.014847,65.6332147 C66.3253428,65.6332147 64.9557106,64.2634733 64.9557106,62.5740783 L64.9557106,9.76182206 C64.9553832,8.06871649 65.7437675,6.47208541 67.0879715,5.44284223 Z" id="Shape" fill="#C86D5C"></path>
            <g id="Group" transform="translate(72.901542, 12.768683)" fill="#B3B3B3">
                <circle id="Oval" cx="3.06863108" cy="3.09089442" r="3.04920522"></circle>
                <circle id="Oval" cx="3.06863108" cy="40.0421542" r="3.04920522"></circle>
            </g>
        </g>
    </g>
</svg>