<?xml version="1.0" encoding="UTF-8"?>
<svg width="100px" height="100px" viewBox="0 0 100 100" version="1.1" xmlns="http://www.w3.org/2000/svg" xmlns:xlink="http://www.w3.org/1999/xlink">
    <!-- Generator: Sketch 51.1 (57501) - http://www.bohemiancoding.com/sketch -->
    <title>030-lamp</title>
    <desc>Created with Sketch.</desc>
    <defs></defs>
    <g id="030-lamp" stroke="none" stroke-width="1" fill="none" fill-rule="evenodd">
        <rect id="Rectangle" x="0" y="0" width="100" height="100"></rect>
        <g transform="translate(22.000000, 5.000000)" fill-rule="nonzero">
            <path d="M36.5592399,6.28001188 C36.5592399,2.81159145 33.7476485,0 30.2794418,0 L25.3615083,0 C21.8933017,0 19.0814964,2.81159145 19.0814964,6.28001188 L27.8203682,9.12431116 L36.5592399,6.28001188 Z" id="Shape" fill="#42C3E2"></path>
            <g id="Group" transform="translate(15.391924, 6.199525)" fill="#B3B3B3">
                <path d="M6.62900238,0.0804869359 L2.72907363,0.0804869359 C1.23648456,0.0804869359 0.026935867,1.29035629 0.026935867,2.7826247 L0.026935867,5.76908551 L1.87418052,8.10138955 L6.62932304,5.76908551 L12.4288717,2.92478622 L6.62900238,0.0804869359 Z" id="Shape"></path>
                <path d="M18.2279929,0.0804869359 L22.1279216,0.0804869359 C23.6205107,0.0804869359 24.8300594,1.29035629 24.8300594,2.7826247 L24.8300594,5.76908551 L22.9828147,8.10138955 L18.227886,5.76908551 L12.4285511,2.92478622 L18.2279929,0.0804869359 Z" id="Shape"></path>
            </g>
            <polygon id="Shape" fill="#D9D9D9" points="22.0209264 6.28001188 22.0209264 11.9686105 28.0082779 15.0069121 33.6199169 11.9686105 33.6199169 6.28001188"></polygon>
            <polygon id="Shape" fill="#42C3E2" points="47.9072565 35.2787173 47.9072565 21.4003325 42.0214489 14.5947506 39.186342 13.5595368 38.9956532 12.5150238 36.27962 12.0473872 34.828076 11.9686105 20.8128741 11.9686105 18.7164727 12.1227435 15.7893349 13.0280879 15.4188599 14.3603444 15.4188599 14.3603444 11.5791093 16.0625416 8.10940618 24.102791 8.10940618 35.412114 14.7128622 63.5315558 14.7128622 67.880095 8.95232779 83.5428741 8.95232779 86.7655582 46.6884086 86.7655582 46.6884086 83.5428741 41.6624109 67.5183848 41.7546556 63.5315558"></polygon>
            <g id="Group" transform="translate(1.817102, 11.864608)" fill="#00A6C8">
                <path d="M9.60872922,12.2381829 C9.60872922,12.2381829 14.9959026,0.103788599 18.9956651,0.103788599 L13.6015439,0.103788599 C5.43548694,0.103788599 0.105285036,12.2381829 0.105285036,12.2381829 L5.9161639,15.460867 L9.60872922,12.2381829 Z" id="Shape"></path>
                <polygon id="Shape" points="9.60872922 18.6835511 17.5936105 51.6669477 10.6095249 54.8896318 8.51023753 51.6669477 0.105498812 18.6835511 5.91637767 15.460867"></polygon>
                <path d="M10.6095249,54.8896318 L8.51045131,58.1123159 C8.51045131,58.1123159 8.32467933,65.7240499 2.37046318,71.678266 L4.62249406,74.9009501 L11.0137767,71.678266 C16.9680998,65.723943 17.1537648,58.1123159 17.1537648,58.1123159 L10.6095249,54.8896318 Z" id="Shape"></path>
                <path d="M42.3978029,12.2381829 C42.3978029,12.2381829 37.0106295,0.103788599 33.010867,0.103788599 L38.4049881,0.103788599 C46.5710451,0.103788599 51.901247,12.2381829 51.901247,12.2381829 L46.0903682,15.460867 L42.3978029,12.2381829 Z" id="Shape"></path>
                <polygon id="Shape" points="42.3978029 18.6835511 34.4129216 51.6669477 41.3970071 54.8896318 43.4962945 51.6669477 51.9010333 18.6835511 46.0901544 15.460867"></polygon>
                <path d="M41.3970071,54.8896318 L43.4960808,58.1123159 C43.4960808,58.1123159 43.6818527,65.7240499 49.6360689,71.678266 L47.384038,74.9009501 L40.9927553,71.678266 C35.0384323,65.723943 34.8527672,58.1123159 34.8527672,58.1123159 L41.3970071,54.8896318 Z" id="Shape"></path>
            </g>
            <path d="M11.4258314,24.102791 L1.92260095,24.102791 C0.887387173,24.102791 0.0483135392,24.9420784 0.0483135392,25.9770784 L0.0483135392,28.6735511 C0.0483135392,29.7087648 0.88760095,30.5478385 1.92260095,30.5478385 L11.4258314,30.5478385 L15.418753,27.3251544 L11.4258314,24.102791 Z" id="Shape" fill="#B3B3B3"></path>
            <polygon id="Shape" fill="#D9D9D9" points="39.7399169 63.5315558 15.9008195 63.5315558 13.6466508 66.7542399 15.9008195 69.976924 39.7399169 69.976924 41.9940855 66.7542399"></polygon>
            <g id="Group" transform="translate(0.000000, 24.049881)" fill="#B3B3B3">
                <path d="M10.3273397,39.4816746 C9.56789786,39.4816746 8.95243468,40.0973515 8.95243468,40.8565796 L8.95243468,44.5517102 C8.95243468,45.311152 9.56811164,45.9267221 10.3273397,45.9267221 L15.9006057,45.9267221 L15.9006057,39.4814608 L10.3273397,39.4814608 L10.3273397,39.4816746 Z" id="Shape"></path>
                <path d="M12.8306651,59.4930998 L1.51460808,59.4930998 C0.704714964,59.4930998 0.0482066508,60.1495012 0.0482066508,60.9595012 L0.0482066508,64.4718527 C0.0482066508,65.2817458 0.704714964,65.9382542 1.51460808,65.9382542 L12.8306651,65.9382542 L16.1708195,62.7155701 L12.8306651,59.4930998 Z" id="Shape"></path>
                <path d="M44.214905,0.0529097387 L53.7181354,0.0529097387 C54.7533492,0.0529097387 55.5924228,0.89219715 55.5924228,1.92719715 L55.5924228,4.62366983 C55.5924228,5.65888361 54.7531354,6.49795724 53.7181354,6.49795724 L44.214905,6.49795724 L40.2219834,3.27527316 L44.214905,0.0529097387 Z" id="Shape"></path>
                <path d="M45.3133967,39.4816746 C46.0728385,39.4816746 46.6885154,40.0973515 46.6885154,40.8565796 L46.6885154,44.5517102 C46.6885154,45.311152 46.0728385,45.9267221 45.3133967,45.9267221 L39.7401306,45.9267221 L39.7401306,39.4814608 L45.3133967,39.4814608 L45.3133967,39.4816746 Z" id="Shape"></path>
                <path d="M42.8100713,59.4930998 L54.1261283,59.4930998 C54.9360214,59.4930998 55.5925297,60.1495012 55.5925297,60.9595012 L55.5925297,64.4718527 C55.5925297,65.2817458 54.9361283,65.9382542 54.1261283,65.9382542 L42.8100713,65.9382542 L39.4699169,62.7155701 L42.8100713,59.4930998 Z" id="Shape"></path>
            </g>
            <g id="Group" transform="translate(11.330166, 24.049881)" fill="#D9D9D9">
                <rect id="Rectangle-path" x="0.0949168646" y="0.0532304038" width="32.7885392" height="6.44526128"></rect>
                <rect id="Rectangle-path" x="1.49996437" y="59.4925653" width="29.9785511" height="6.44526128"></rect>
            </g>
            <g id="Group" transform="translate(17.315914, 35.914489)" fill="#3B484A">
                <path d="M1.43625891,4.44644893 C0.686330166,4.44644893 0.0783491686,3.83846793 0.0783491686,3.08853919 L0.0783491686,1.44726841 C0.0783491686,0.697339667 0.686330166,0.0893586698 1.43625891,0.0893586698 C2.18618765,0.0893586698 2.79416865,0.697339667 2.79416865,1.44726841 L2.79416865,3.08853919 C2.79427553,3.83846793 2.18629454,4.44644893 1.43625891,4.44644893 Z" id="Shape"></path>
                <path d="M19.5727553,4.44644893 C18.8228266,4.44644893 18.2148456,3.83846793 18.2148456,3.08853919 L18.2148456,1.44726841 C18.2148456,0.697339667 18.8228266,0.0893586698 19.5727553,0.0893586698 C20.3226841,0.0893586698 20.9306651,0.697339667 20.9306651,1.44726841 L20.9306651,3.08853919 C20.9306651,3.83846793 20.3226841,4.44644893 19.5727553,4.44644893 Z" id="Shape"></path>
                <path d="M10.5044537,5.32261283 C9.24017815,5.32261283 8.05179335,4.79255344 7.24393112,3.8681829 C6.75042755,3.30349169 6.8078266,2.4456057 7.3726247,1.95210214 C7.93731591,1.45870546 8.7952019,1.51599762 9.28870546,2.08079572 C9.58093824,2.41514252 10.0240974,2.60679335 10.5044537,2.60679335 C10.98481,2.60679335 11.428076,2.41503563 11.7202019,2.08079572 C12.2139192,1.51610451 13.0715914,1.4583848 13.6362827,1.95210214 C14.2009739,2.4456057 14.2586936,3.30349169 13.7647625,3.8681829 C12.9570071,4.79233967 11.7685154,5.32261283 10.5044537,5.32261283 Z" id="Shape"></path>
            </g>
        </g>
    </g>
</svg>