<?xml version="1.0" encoding="UTF-8"?>
<svg width="100px" height="100px" viewBox="0 0 100 100" version="1.1" xmlns="http://www.w3.org/2000/svg" xmlns:xlink="http://www.w3.org/1999/xlink">
    <!-- Generator: Sketch 51.1 (57501) - http://www.bohemiancoding.com/sketch -->
    <title>031-bonsai</title>
    <desc>Created with Sketch.</desc>
    <defs></defs>
    <g id="031-bonsai" stroke="none" stroke-width="1" fill="none" fill-rule="evenodd">
        <rect id="Rectangle" x="0" y="0" width="100" height="100"></rect>
        <g transform="translate(9.000000, 9.000000)" fill-rule="nonzero">
            <path d="M46.8264745,24.3941732 C52.4652147,24.3941732 57.0363013,19.8230866 57.0363013,14.1843464 C57.0363013,8.54560617 52.4652147,3.97461684 46.8264745,3.97461684 C45.9799193,3.97461684 45.1578766,4.07957295 44.3713381,4.27392171 C42.5185077,1.69320759 39.4939431,0.0104080664 36.0743582,0.0104080664 C33.0467782,0.0104080664 30.3281329,1.3295089 28.4585718,3.42269751 C27.0739098,2.72088256 25.5092954,2.32304152 23.850911,2.32304152 C18.2121708,2.32304152 13.6410842,6.89412811 13.6410842,12.5328683 C13.6410842,13.6795065 13.8329039,14.7807189 14.1815255,15.8094638 C13.2479122,15.1818671 12.1243274,14.8154448 10.9147544,14.8154448 C7.67667853,14.8154448 5.05160854,17.4405148 5.05160854,20.6785907 C5.05160854,23.9166667 7.67667853,26.5417367 10.9147544,26.5417367 L42.9941661,26.5417367 L46.8264745,24.3941732 Z" id="Shape" fill="#00AE95"></path>
            <path d="M21.4624057,55.4411435 C21.4624057,55.4411435 10.3127402,46.6388375 10.6428802,37.1036868 L16.0488493,33.2673903 L20.1405813,37.1036868 C20.8838339,43.0046714 32.2224009,47.7474425 32.2224009,47.7474425 L32.4773499,55.4413381 L21.4622112,55.4413381 L21.4622112,55.4411435 L21.4624057,55.4411435 Z" id="Shape" fill="#C86D5C"></path>
            <path d="M19.1133926,51.091739 L17.6818458,51.8650486 C19.7469229,54.0865386 21.4626002,55.4412408 21.4626002,55.4412408 L32.4778363,55.4412408 L32.2228873,47.7473452 C32.2228873,47.7473452 30.0180308,46.8248209 27.4892598,45.2877343 C23.0869395,48.9037106 19.1863464,51.0521495 19.1133926,51.091739 Z" id="Shape" fill="#B24D40"></path>
            <path d="M54.8291103,55.4411435 C54.8291103,55.4411435 61.6842325,44.3345694 61.1059526,33.267293 L53.7555231,28.9756679 L43.1839431,33.267293 C37.8982017,46.5645219 21.4626002,55.4411435 21.4626002,55.4411435 L41.2017414,58.7613167 L54.8291103,55.4411435 Z" id="Shape" fill="#C86D5C"></path>
            <path d="M18.9021186,73.579777 L18.9021186,79.175134 C18.9021186,80.4550344 19.9397153,81.4927284 21.2195184,81.4927284 L30.1598529,81.4927284 C31.4397533,81.4927284 32.4774472,80.4551317 32.4774472,79.175134 L32.4774472,73.579777 L18.9021186,73.579777 Z" id="Shape" fill="#FAA330"></path>
            <path d="M25.4931483,79.175134 L25.4931483,73.579777 L18.9023132,73.579777 L18.9023132,79.175134 C18.9023132,80.4550344 19.9399098,81.4927284 21.2197129,81.4927284 L27.810548,81.4927284 C26.530745,81.4926311 25.4931483,80.4550344 25.4931483,79.175134 Z" id="Shape" fill="#F09318"></path>
            <path d="M63.5011696,73.579777 L63.5011696,79.175134 C63.5011696,80.4550344 62.463573,81.4927284 61.1835753,81.4927284 L52.2432408,81.4927284 C50.9633405,81.4927284 49.9256465,80.4551317 49.9256465,79.175134 L49.9256465,73.579777 L63.5011696,73.579777 Z" id="Shape" fill="#FAA330"></path>
            <path d="M2.49832503,62.0814899 C2.49832503,62.0814899 5.90808541,76.4347972 18.9023132,76.4347972 L63.5013642,76.4347972 C76.4956892,76.4347972 79.9053523,62.0814899 79.9053523,62.0814899 L41.2017414,58.7613167 L2.49832503,62.0814899 Z" id="Shape" fill="#FFCE1C"></path>
            <path d="M10.7369419,62.0814899 L45.3210985,59.1148019 L41.2017414,58.7613167 L2.49832503,62.0814899 C2.49832503,62.0814899 5.90808541,76.4347972 18.9023132,76.4347972 L27.14093,76.4347972 C14.1465077,76.4347972 10.7369419,62.0814899 10.7369419,62.0814899 Z" id="Shape" fill="#FAA330"></path>
            <g id="Group" transform="translate(28.986951, 66.339265)" fill="#3B484A">
                <path d="M1.25548517,4.47790036 C0.57283274,4.47790036 0.0197461447,3.92461922 0.0197461447,3.24216133 L0.0197461447,1.25888968 C0.0197461447,0.576431791 0.57283274,0.0231506524 1.25548517,0.0231506524 C1.9381376,0.0231506524 2.4912242,0.576431791 2.4912242,1.25888968 L2.4912242,3.24216133 C2.4912242,3.92481376 1.93794306,4.47790036 1.25548517,4.47790036 Z" id="Shape"></path>
                <path d="M23.1739004,4.47790036 C22.4912479,4.47790036 21.9381613,3.92461922 21.9381613,3.24216133 L21.9381613,1.25888968 C21.9381613,0.576431791 22.4912479,0.0231506524 23.1739004,0.0231506524 C23.8565528,0.0231506524 24.4096394,0.576431791 24.4096394,1.25888968 L24.4096394,3.24216133 C24.4098339,3.92481376 23.8565528,4.47790036 23.1739004,4.47790036 Z" id="Shape"></path>
                <path d="M12.2145955,5.53679953 C10.8036702,5.53679953 9.4787331,4.94655516 8.57916489,3.91751839 C8.12986714,3.40363227 8.18229656,2.62293001 8.69627995,2.17382681 C9.20987426,1.72472361 9.99057651,1.77695848 10.4398743,2.29094187 C10.8700095,2.78294187 11.5167687,3.0652242 12.2144982,3.0652242 C12.9121305,3.0652242 13.5587924,2.78294187 13.9891222,2.29113642 C14.4382254,1.77705575 15.2189276,1.72472361 15.7327165,2.17402135 C16.2466026,2.62312456 16.2992266,3.40382681 15.8498316,3.91771293 C14.9506524,4.94655516 13.6255208,5.53679953 12.2145955,5.53679953 Z" id="Shape"></path>
            </g>
            <g id="Group" transform="translate(0.000000, 20.816133)" fill="#2FC8B4">
                <path d="M26.2125694,16.2876512 C28.9734306,16.2876512 31.2114567,14.0495279 31.2114567,11.2887639 C31.2114567,9.20452432 29.9354472,7.41890866 28.1224009,6.66855516 C27.6176584,2.92155397 24.409153,0.0316132859 20.5235397,0.0316132859 C17.1928612,0.0316132859 14.3590463,2.15524792 13.2994662,5.12183867 C12.4269395,4.51165362 11.3660949,4.15252669 10.2205267,4.15252669 C7.49750415,4.15252669 5.24829181,6.17587426 4.89101305,8.80084698 C4.55931673,8.70678529 4.20981969,8.65532859 3.84796916,8.65532859 C1.74048161,8.6556204 0.0320023725,10.3641969 0.0320023725,12.4715872 C0.0320023725,14.5789775 1.74057888,16.287554 3.84796916,16.287554 L26.2125694,16.287554 L26.2125694,16.2876512 Z" id="Shape"></path>
                <path d="M56.6700735,28.8412384 C54.582624,28.8412384 52.8903891,27.1490036 52.8903891,25.061554 C52.8903891,23.4854614 53.8552266,22.135331 55.2260759,21.5680427 C55.6078671,18.7348114 58.0337248,16.5497983 60.9716204,16.5497983 C63.4900807,16.5497983 65.6328778,18.1554614 66.4341044,20.3987402 C67.093898,19.9372835 67.8961945,19.6659929 68.7621068,19.6659929 C70.8210558,19.6659929 72.5217533,21.1958814 72.7919739,23.1808066 C73.0427402,23.1096038 73.3070273,23.0707924 73.5804579,23.0707924 C75.173962,23.0707924 76.4657295,24.3626572 76.4657295,25.9560641 C76.4657295,27.5495682 75.1738648,28.8413357 73.5804579,28.8413357 L56.6700735,28.8413357 L56.6700735,28.8412384 Z" id="Shape"></path>
            </g>
            <path d="M79.9049632,55.4411435 L2.49832503,55.4411435 C1.38330012,55.4411435 0.479160142,56.3451862 0.479160142,57.4603084 L0.479160142,60.0626168 C0.479160142,61.1776418 1.38320285,62.0817817 2.49832503,62.0817817 L79.9050605,62.0817817 C81.0200854,62.0817817 81.9242254,61.177739 81.9242254,60.0626168 L81.9242254,57.4603084 C81.9241281,56.3449917 81.0200854,55.4411435 79.9049632,55.4411435 Z" id="Shape" fill="#FAA330"></path>
            <path d="M8.71777699,60.062325 L8.71777699,57.4600166 C8.71777699,56.3449917 9.62181969,55.4410463 10.7369419,55.4410463 L2.49832503,55.4410463 C1.38330012,55.4410463 0.479160142,56.345089 0.479160142,57.4600166 L0.479160142,60.062325 C0.479160142,61.1773499 1.38320285,62.0812954 2.49832503,62.0812954 L10.7369419,62.0812954 C9.62191696,62.0814899 8.71777699,61.1774472 8.71777699,60.062325 Z" id="Shape" fill="#F09318"></path>
            <path d="M72.6920759,33.267293 C76.6756418,33.267293 79.9049632,30.0378743 79.9049632,26.0544057 C79.9049632,23.0469609 78.064,20.4704294 75.4477817,19.3878932 C74.7194116,13.9812432 70.0897675,9.81159668 64.483516,9.81159668 C59.6775184,9.81159668 55.5886074,12.8758482 54.0598861,17.1564816 C52.8009964,16.2761732 51.2699407,15.7581044 49.6171981,15.7581044 C45.6880071,15.7581044 42.4428304,18.6776157 41.9269988,22.4652764 C41.4484223,22.3294852 40.9439715,22.2554614 40.4219146,22.2554614 C37.3810083,22.2554614 34.9157556,24.7207141 34.9157556,27.7616204 C34.9157556,30.8025267 37.3810083,33.2677794 40.4219146,33.2677794 L72.6920759,33.2677794 L72.6920759,33.267293 Z" id="Shape" fill="#2FC8B4"></path>
        </g>
    </g>
</svg>