<?xml version="1.0" encoding="UTF-8"?>
<svg width="100px" height="100px" viewBox="0 0 100 100" version="1.1" xmlns="http://www.w3.org/2000/svg" xmlns:xlink="http://www.w3.org/1999/xlink">
    <!-- Generator: Sketch 51.1 (57501) - http://www.bohemiancoding.com/sketch -->
    <title>032-sprinkler</title>
    <desc>Created with Sketch.</desc>
    <defs></defs>
    <g id="032-sprinkler" stroke="none" stroke-width="1" fill="none" fill-rule="evenodd">
        <rect id="Rectangle" x="0" y="0" width="100" height="100"></rect>
        <g transform="translate(6.000000, 21.000000)" fill-rule="nonzero">
            <g id="Group" transform="translate(12.735469, 4.697509)" fill="#FF5E6B">
                <path d="M39.8695326,2.57037248 L31.2409395,0.0200427046 L22.6123464,2.57037248 C22.4831127,3.28387189 22.4441756,4.02576512 22.5007544,4.78373428 L22.6689253,6.99709609 L31.2408351,10.2899454 L39.812745,6.99709609 L39.9809158,4.78373428 C40.0379122,4.0259739 39.9987663,3.28408066 39.8695326,2.57037248 Z" id="Shape"></path>
                <path d="M5.8013191,13.6674543 L3.43753262,13.0088636 C1.71834875,12.5288826 0.0182680902,13.821637 0.0182680902,15.604707 L0.0182680902,25.3098648 C0.0182680902,27.0929348 1.71813998,28.3855848 3.43753262,27.9057082 L5.8013191,27.2471174 L9.17058126,20.9095516 L5.8013191,13.6674543 Z" id="Shape"></path>
                <path d="M56.6806643,13.6674543 L59.0444508,13.0088636 C60.7636346,12.5288826 62.4637153,13.821637 62.4637153,15.604707 L62.4637153,25.3098648 C62.4637153,27.0929348 60.7638434,28.3855848 59.0444508,27.9057082 L56.6806643,27.2471174 L53.3114021,20.9095516 L56.6806643,13.6674543 Z" id="Shape"></path>
            </g>
            <rect id="Rectangle-path" fill="#B3B3B3" x="37.2392408" y="25.8474686" width="13.4761091" height="27.268726"></rect>
            <path d="M50.7145148,38.8395255 C47.9892289,39.6859122 45.7386002,40.753917 43.9764081,42.0416607 C42.2142159,40.753917 39.9635872,39.686121 37.2383013,38.8395255 L37.2383013,53.1165077 L50.7145148,53.1165077 L50.7145148,38.8395255 Z" id="Shape" fill="#999999"></path>
            <path d="M84.8283464,45.2763654 C81.3715018,45.469694 76.2148897,46.5612906 71.4749988,50.708669 C71.4749988,50.708669 71.9004887,47.7310747 73.9851388,44.7065053 C74.8892527,43.3949609 73.7954638,41.6365267 72.2258695,41.9087734 C67.6956963,42.6947189 61.0365077,44.7138126 56.7149039,49.8998624 C56.7149039,49.8998624 56.9863155,47.0957628 58.1945148,44.5733049 C58.8317058,43.2430747 57.7099407,41.7523986 56.2606026,42.0256892 C51.7865907,42.8694662 45.3904626,44.7763416 43.9767212,48.8888541 C42.5631886,44.7763416 36.1668517,42.8694662 31.6928399,42.0256892 C30.2433974,41.7522942 29.1217367,43.2429703 29.7589276,44.5733049 C30.9670225,47.0959715 31.2385386,49.8998624 31.2385386,49.8998624 C26.916726,44.7138126 20.2575374,42.6947189 15.727573,41.9087734 C14.1579786,41.6365267 13.0640854,43.3947521 13.9683037,44.7065053 C16.0528493,47.7310747 16.4783393,50.708669 16.4783393,50.708669 C11.7384484,46.5612906 6.58194069,45.4694852 3.1249917,45.2763654 C1.6136465,45.1919146 0.683644128,46.8929348 1.57502254,48.1165836 C2.83813049,49.850382 3.91083274,51.9074733 4.73456702,53.7238434 C6.02377224,56.5666714 8.85553499,58.3923321 11.9770819,58.3923321 L75.9763606,58.3923321 C79.0979075,58.3923321 81.9296702,56.5666714 83.2188754,53.7238434 C84.0428185,51.9074733 85.1154164,49.850382 86.3784199,48.1165836 C87.2697983,46.8929348 86.339796,45.1919146 84.8283464,45.2763654 Z" id="Shape" fill="#2FC8B4"></path>
            <path d="M10.0390985,53.7238434 C9.2151554,51.9074733 8.14255753,49.850382 6.87955397,48.1165836 C6.32942349,47.3615374 6.47358482,46.4251673 7.01922657,45.838083 C5.58732147,45.5023677 4.26345907,45.3399383 3.12457414,45.276261 C1.61322894,45.1918102 0.683226572,46.8928304 1.57460498,48.1164792 C2.83771293,49.8502776 3.91041518,51.9073689 4.73414947,53.723739 C6.02335469,56.566567 8.85511744,58.392019 11.9766643,58.392019 L17.2815089,58.392019 C14.1600664,58.3922278 11.3286168,56.566567 10.0390985,53.7238434 Z" id="Shape" fill="#00AE95"></path>
            <g id="Group" transform="translate(18.476868, 11.691578)" fill="#B3B3B3">
                <polygon id="Shape" points="34.071554 0.0031316726 32.9862206 14.3333523 18.0129632 14.3333523 16.9276299 0.0031316726"></polygon>
                <polygon id="Shape" points="13.3224484 10.3723084 13.3224484 16.5538126 0.0599193357 20.2528399 0.0599193357 6.67338553"></polygon>
            </g>
            <path d="M0.652223013,15.3953025 C-1.3687497,17.4162752 1.65717675,21.7909087 8.44236299,23.1854425 C7.04782918,16.4002562 2.67319573,13.374121 0.652223013,15.3953025 Z" id="Shape" fill="#42C3E2"></path>
            <path d="M0.652223013,34.9137651 C-1.3687497,32.8927924 1.65717675,28.518159 8.44236299,27.1236251 C7.04782918,33.9088114 2.67319573,36.9346335 0.652223013,34.9137651 Z" id="Shape" fill="#00A6C8"></path>
            <polygon id="Shape" fill="#B3B3B3" points="56.1537082 22.0638861 56.1537082 28.2453903 69.4161329 31.9444176 69.4161329 18.3649632"></polygon>
            <path d="M87.3008019,15.3953025 C89.3217746,17.4162752 86.2957438,21.7909087 79.5106619,23.1854425 C80.904987,16.4002562 85.2798292,13.374121 87.3008019,15.3953025 Z" id="Shape" fill="#42C3E2"></path>
            <path d="M87.3008019,34.9137651 C89.3217746,32.8927924 86.2957438,28.518159 79.5106619,27.1236251 C80.904987,33.9088114 85.2798292,36.9346335 87.3008019,34.9137651 Z" id="Shape" fill="#00A6C8"></path>
            <path d="M53.5621447,17.5642989 L34.3907758,17.5642989 C30.1989276,17.5642989 26.8006453,20.9625813 26.8006453,25.1544294 C26.8006453,29.3462776 30.1989276,32.7447687 34.3907758,32.7447687 L53.5620403,32.7447687 C57.7538885,32.7447687 61.1523796,29.3464864 61.1523796,25.1546382 C61.1522752,20.9625813 57.7540973,17.5642989 53.5621447,17.5642989 Z" id="Shape" fill="#D9D9D9"></path>
            <g id="Group" transform="translate(32.778173, 22.548043)" fill="#3B484A">
                <path d="M1.39286358,4.50866904 C0.660260973,4.50866904 0.0667046263,3.91490391 0.0667046263,3.18251008 L0.0667046263,1.40779122 C0.0667046263,0.67539739 0.660260973,0.0816322657 1.39286358,0.0816322657 C2.12546619,0.0816322657 2.71902254,0.67539739 2.71902254,1.40779122 L2.71902254,3.18251008 C2.71902254,3.91479953 2.12525741,4.50866904 1.39286358,4.50866904 Z" id="Shape"></path>
                <path d="M21.0040237,4.50866904 C20.2714211,4.50866904 19.6778648,3.91490391 19.6778648,3.18251008 L19.6778648,1.40779122 C19.6778648,0.67539739 20.2714211,0.0816322657 21.0040237,0.0816322657 C21.7366263,0.0816322657 22.3301827,0.67539739 22.3301827,1.40779122 L22.3301827,3.18251008 C22.3301827,3.91479953 21.7364176,4.50866904 21.0040237,4.50866904 Z" id="Shape"></path>
                <path d="M11.1982349,5.45589561 C9.87238909,5.45589561 8.62629656,4.90044128 7.77949229,3.93181495 C7.2973191,3.38043179 7.35358482,2.54270937 7.90496797,2.06053618 C8.45645552,1.57857177 9.29396916,1.63452432 9.77624674,2.18601186 C10.1191649,2.57841044 10.6374567,2.80326453 11.1980261,2.80326453 C11.7585955,2.80326453 12.2768873,2.57820166 12.6198055,2.18601186 C13.1017699,1.63452432 13.9393879,1.57815421 14.4910842,2.06053618 C15.0424674,2.54250059 15.0988375,3.3803274 14.6165599,3.93181495 C13.7702776,4.9002325 12.5242894,5.45589561 11.1982349,5.45589561 Z" id="Shape"></path>
            </g>
            <path d="M52.6050012,7.26788138 L35.3478149,7.26788138 C36.073841,3.19702017 39.6347616,0.0539691578 43.9764081,0.0539691578 C48.3180546,0.0539691578 51.8790795,3.19712456 52.6050012,7.26788138 Z" id="Shape" fill="#D9D9D9"></path>
        </g>
    </g>
</svg>