<?xml version="1.0" encoding="UTF-8"?>
<svg width="100px" height="100px" viewBox="0 0 100 100" version="1.1" xmlns="http://www.w3.org/2000/svg" xmlns:xlink="http://www.w3.org/1999/xlink">
    <!-- Generator: Sketch 51.1 (57501) - http://www.bohemiancoding.com/sketch -->
    <title>033-wheelbarrow</title>
    <desc>Created with Sketch.</desc>
    <defs></defs>
    <g id="033-wheelbarrow" stroke="none" stroke-width="1" fill="none" fill-rule="evenodd">
        <rect id="Rectangle" x="0" y="0" width="100" height="100"></rect>
        <g transform="translate(4.000000, 18.000000)" fill-rule="nonzero">
            <path d="M76.0251767,31.5056892 L71.0188707,54.945172 C70.3924413,57.8776038 68.0771625,60.0929158 65.1201756,60.5894757 L59.6519051,61.5079478 C59.2450534,61.5761566 58.8386382,61.6095516 58.4375706,61.6095516 C55.5758577,61.6095516 52.9433262,59.9205931 51.7799573,57.2184342 L45.1973191,41.9296275 L50.6670083,39.5748422 L57.2494282,54.8636489 C57.4883227,55.4178316 58.0709893,55.7361756 58.6656607,55.6353357 L64.1339312,54.7170819 C64.6659597,54.6275919 65.0825243,54.2288161 65.1951507,53.7013713 L70.2012384,30.2618885 L76.0251767,31.5056892 Z" id="Shape" fill="#B3B3B3"></path>
            <path d="M63.131535,19.8526833 C68.0177936,19.8526833 71.9788138,17.0089775 71.9788138,13.5006453 C71.9788138,9.99231317 68.0175753,7.14860735 63.131535,7.14860735 C62.6287544,7.14860735 62.1364508,7.18036536 61.656261,7.23831554 C60.4851435,4.71502728 57.1712883,2.89521708 53.2631981,2.89521708 C52.5334187,2.89521708 51.8249205,2.9600427 51.1464342,3.07954448 C49.5979312,1.23583393 46.782382,0.00283748517 43.5650012,0.00283748517 C40.3476204,0.00283748517 37.5320712,1.23583393 35.9835682,3.07954448 C35.3050819,2.95982444 34.5968019,2.89521708 33.8668043,2.89521708 C29.9587141,2.89521708 26.6447497,4.71524555 25.4737414,7.23831554 C24.993879,7.18058363 24.5014662,7.14860735 23.9984674,7.14860735 C19.1122088,7.14860735 15.1511886,9.99231317 15.1511886,13.5006453 C15.1511886,17.0089775 19.112427,19.8526833 23.9984674,19.8526833 L63.131535,19.8526833 Z" id="Shape" fill="#B24D40"></path>
            <circle id="Oval" fill="#3B484A" cx="20.3805647" cy="49.9251151" r="14.4492384"></circle>
            <circle id="Oval" fill="#D9D9D9" cx="20.3805647" cy="49.9251151" r="6.62301779"></circle>
            <polygon id="Shape" fill="#FF5E6B" points="43.5651103 15.1455136 12.3721993 18.1515018 40.9928209 42.4375374 71.2889775 31.5789181 74.7579122 18.1515018"></polygon>
            <polygon id="Shape" fill="#E63E4C" points="74.7579122 18.1515018 43.5651103 15.1455136 12.3721993 18.1515018 18.908019 23.6974757 73.3252005 23.6974757"></polygon>
            <path d="M74.7579122,12.1397438 L12.3721993,12.1397438 C10.7120522,12.1397438 9.36621115,13.4855848 9.36621115,15.1457319 C9.36621115,16.805879 10.7120522,18.15172 12.3721993,18.15172 L74.7579122,18.15172 C76.4180593,18.15172 77.7639004,16.805879 77.7639004,15.1457319 C77.7637912,13.4854757 76.4180593,12.1397438 74.7579122,12.1397438 Z" id="Shape" fill="#FF5E6B"></path>
            <g id="Group" transform="translate(45.181495, 30.230130)" fill="#999999">
                <polygon id="Shape" points="5.48529537 9.34460261 0.0158244365 11.6991696 3.05771767 18.7648351 8.67441044 16.7518577"></polygon>
                <polygon id="Shape" points="30.8436821 1.27555872 25.0198529 0.0318671412 22.5076963 11.7937888 29.1017936 9.43038197"></polygon>
            </g>
            <path d="M3.01439146,59.12828 C1.79285409,59.12828 0.647274021,58.3706714 0.211392645,57.1544816 C-0.34344484,55.6065243 0.461746145,53.9017414 2.00981257,53.3469039 L87.9321376,22.5510225 C89.4803132,21.9958577 91.1848778,22.801376 91.7397153,24.3494425 C92.2945528,25.897618 91.4893618,27.6021827 89.9412954,28.1570202 L4.01897034,58.9529015 C3.68698458,59.0718577 3.34779597,59.12828 3.01439146,59.12828 Z" id="Shape" fill="#B3B3B3"></path>
        </g>
    </g>
</svg>