<?xml version="1.0" encoding="UTF-8"?>
<svg width="100px" height="100px" viewBox="0 0 100 100" version="1.1" xmlns="http://www.w3.org/2000/svg" xmlns:xlink="http://www.w3.org/1999/xlink">
    <!-- Generator: Sketch 51.1 (57501) - http://www.bohemiancoding.com/sketch -->
    <title>034-watering-can</title>
    <desc>Created with Sketch.</desc>
    <defs></defs>
    <g id="034-watering-can" stroke="none" stroke-width="1" fill="none" fill-rule="evenodd">
        <rect id="Rectangle" x="0" y="0" width="100" height="100"></rect>
        <g transform="translate(4.000000, 15.000000)" fill-rule="nonzero">
            <g id="Group" transform="translate(10.258600, 0.000000)" fill="#00A6C8">
                <path d="M65.4949419,43.9375848 C64.8582539,43.9378031 64.2185101,43.7202989 63.6954306,43.2753594 C62.5261684,42.2810391 62.3847307,40.5269276 63.379051,39.3575563 L74.8990225,25.8138031 C76.1677058,24.3220498 76.4595302,22.2082325 75.6421163,20.4288019 L70.1929442,8.56331198 C69.3710558,6.77405931 67.5677248,5.6177841 65.5990558,5.6177841 C63.5494093,5.6177841 61.7168304,6.84074021 60.9306287,8.73356109 L58.8712693,13.690866 C58.2824911,15.1082989 56.6561756,15.7802372 55.238306,15.1910225 C53.8208731,14.6022444 53.149153,12.9754923 53.7379312,11.5581684 L55.7975089,6.60097272 C57.4482705,2.62685647 61.2959004,0.0590415184 65.599274,0.0590415184 C69.7330534,0.0590415184 73.5191317,2.48651008 75.2444318,6.24312218 L80.6936038,18.1086121 C82.4097367,21.8449253 81.7972764,26.2829703 79.1333144,29.4148992 L67.6131246,42.9591981 C67.0635255,43.6052716 66.2816892,43.9375848 65.4949419,43.9375848 Z" id="Shape"></path>
                <polygon id="Shape" points="33.585675 57.0941305 6.42897746 21.8634781 1.11851483 20.9003701 0.0642799526 26.1935896 22.862382 64.3896323"></polygon>
            </g>
            <g id="Group" transform="translate(22.699881, 27.720047)" fill="#0095B3">
                <path d="M2.74581257,5.50515777 C1.73752313,9.70201661 0.781508897,14.3820119 0.0617698695,19.3132337 L10.4211008,36.6695848 L21.144503,29.3739739 L2.74581257,5.50515777 Z" id="Shape"></path>
                <path d="M60.781879,0.0642799526 L50.937879,11.637618 C49.9435587,12.8068802 50.0849964,14.5608826 51.2542586,15.5554211 C51.7772289,16.0002515 52.4170819,16.2177556 53.0537699,16.2177556 C53.8405172,16.2177556 54.6223535,15.8854425 55.1719526,15.2392598 L62.4586145,6.67245552 C61.9102159,4.31723369 61.3414093,2.10083037 60.781879,0.0642799526 Z" id="Shape"></path>
            </g>
            <path d="M83.2954686,63.50772 C83.2954686,40.2690439 74.0312977,16.4659265 74.0312977,16.4659265 L54.237656,13.2236631 L36.2966738,16.4659265 C36.2966738,16.4659265 27.032503,40.269153 27.032503,63.50772 L54.2374377,66.7500925 L83.2954686,63.50772 Z" id="Shape" fill="#42C3E2"></path>
            <path d="M66.3723796,5.91102728 C66.2596441,6.13627995 66.153675,6.36589798 66.056,6.60119098 L63.9966406,11.5583867 C63.4078624,12.9757106 64.0795824,14.6024626 65.4970154,15.1912408 C66.9149941,15.7802372 68.5412005,15.1082989 69.1299786,13.690866 L71.1893381,8.73367023 C71.5119383,7.95685409 72.0128636,7.29539265 72.6305623,6.78246263 L66.3723796,5.91102728 Z" id="Shape" fill="#0095B3"></path>
            <g id="Group" transform="translate(23.682088, 9.931198)" fill="#00A6C8">
                <path d="M50.3494282,0.0499833926 L12.6146951,0.0499833926 C10.8239146,0.0499833926 9.37232266,1.50179359 9.37232266,3.29235587 C9.37232266,5.08313642 10.8240237,6.53472835 12.6146951,6.53472835 L50.3493191,6.53472835 C52.1400996,6.53472835 53.5915824,5.08291815 53.5915824,3.29235587 C53.5918007,1.50168446 52.1399905,0.0499833926 50.3494282,0.0499833926 Z" id="Shape"></path>
                <path d="M59.6133808,53.5765219 L3.35052432,53.5765219 C1.55974377,53.5765219 0.108151839,55.0283321 0.108151839,56.8188944 C0.108151839,58.609675 1.55996204,60.0611578 3.35052432,60.0611578 L59.6133808,60.0611578 C61.4041613,60.0611578 62.8557533,58.6094567 62.8557533,56.8188944 C62.8560807,55.0283321 61.4043796,53.5765219 59.6133808,53.5765219 Z" id="Shape"></path>
            </g>
            <g id="Group" transform="translate(41.798339, 36.450771)" fill="#3B484A">
                <path d="M1.41066667,4.93907948 C0.644982206,4.93907948 0.024227758,4.31832503 0.024227758,3.55264057 L0.024227758,1.38894899 C0.024227758,0.623264531 0.644982206,0.00251008304 1.41066667,0.00251008304 C2.17635113,0.00251008304 2.79710558,0.623264531 2.79710558,1.38894899 L2.79710558,3.55264057 C2.79710558,4.31843416 2.17646026,4.93907948 1.41066667,4.93907948 Z" id="Shape"></path>
                <path d="M25.3207355,4.93907948 C24.555051,4.93907948 23.9342966,4.31832503 23.9342966,3.55264057 L23.9342966,1.38894899 C23.9342966,0.623264531 24.555051,0.00251008304 25.3207355,0.00251008304 C26.0864199,0.00251008304 26.7071744,0.623264531 26.7071744,1.38894899 L26.7071744,3.55264057 C26.7073926,4.31843416 26.0864199,4.93907948 25.3207355,4.93907948 Z" id="Shape"></path>
                <path d="M13.3657556,6.09404508 C11.8156157,6.09404508 10.3595492,5.44535231 9.37112218,4.3143962 C8.8672503,3.73784104 8.92585528,2.8619312 9.50251957,2.35805931 C10.0789656,1.85418743 10.9547663,1.91279241 11.4588565,2.4894567 C11.9206026,3.01777461 12.6155682,3.32105813 13.3655374,3.32105813 C14.1155065,3.32105813 14.8104721,3.01810202 15.2722183,2.48967497 C15.7760902,1.91311981 16.652,1.85418743 17.2285552,2.35827758 C17.8051103,2.86214947 17.8640427,3.73805931 17.3599526,4.31461447 C16.3717438,5.44557058 14.9160047,6.09404508 13.3657556,6.09404508 Z" id="Shape"></path>
            </g>
            <polygon id="Shape" fill="#0095B3" points="15.3918292 15.2729822 16.6875777 21.8634781 10.3228802 26.1935896 4.66853618 22.5685931 8.36272361 16.4695279"></polygon>
            <path d="M4.66853618,22.5685931 L15.3919383,15.2729822 C16.7457461,14.352 17.0963938,12.5081803 16.1754116,11.1543725 C15.2544294,9.80078292 13.4106097,9.44991696 12.0568019,10.3708992 L1.33318149,17.6662918 C-0.0206263345,18.587274 -0.371274021,20.4310937 0.549708185,21.7849015 C1.47090866,23.1387094 3.31472835,23.4894662 4.66853618,22.5685931 Z" id="Shape" fill="#42C3E2"></path>
        </g>
    </g>
</svg>