<?xml version="1.0" encoding="UTF-8"?>
<svg width="100px" height="100px" viewBox="0 0 100 100" version="1.1" xmlns="http://www.w3.org/2000/svg" xmlns:xlink="http://www.w3.org/1999/xlink">
    <!-- Generator: Sketch 51.1 (57501) - http://www.bohemiancoding.com/sketch -->
    <title>035-sun</title>
    <desc>Created with Sketch.</desc>
    <defs></defs>
    <g id="035-sun" stroke="none" stroke-width="1" fill="none" fill-rule="evenodd">
        <rect id="Rectangle" x="0" y="0" width="100" height="100"></rect>
        <g transform="translate(7.000000, 7.000000)" fill-rule="nonzero">
            <polygon id="Shape" fill="#FF5E6B" points="81.1503345 48.989497 85.920427 42.9433808 81.1503345 36.8972645 83.8186809 29.6730605 77.4135682 25.3971364 77.7191079 17.7019217 70.3059692 15.6144579 68.2185053 8.2013191 60.5232906 8.50685884 56.2473665 2.10174614 49.0231625 4.77019454 42.9770463 0 36.93093 4.77019454 29.706726 2.10174614 25.4308019 8.50685884 17.7355872 8.2013191 15.6481234 15.6144579 8.23498458 17.7019217 8.54052432 25.3971364 2.13541163 29.6730605 4.80375801 36.8972645 0.0336654804 42.9433808 4.80375801 48.989497 2.13541163 56.2137011 8.54052432 60.4896251 8.23498458 68.1848399 15.6481234 70.2723037 17.7355872 77.6854425 25.4308019 77.3799027 29.706726 83.7849134 36.93093 81.116669 42.9770463 85.8867616 49.0231625 81.116669 56.2473665 83.7849134 60.5232906 77.3799027 68.2185053 77.6854425 70.3059692 70.2723037 77.7191079 68.1848399 77.4135682 60.4896251 83.8186809 56.2137011"></polygon>
            <circle id="Oval" fill="#FFCE1C" cx="42.9770463" cy="42.9433808" r="34.4273405"></circle>
            <g id="Group" transform="translate(25.504152, 39.378410)" fill="#3B484A">
                <path d="M1.35120996,5.54123606 C0.635461447,5.54123606 0.0551909846,4.9609656 0.0551909846,4.24521708 L0.0551909846,1.32744009 C0.0551909846,0.611691578 0.635461447,0.0314211151 1.35120996,0.0314211151 C2.06695848,0.0314211151 2.64722894,0.611691578 2.64722894,1.32744009 L2.64722894,4.24521708 C2.64733096,4.9609656 2.06695848,5.54123606 1.35120996,5.54123606 Z" id="Shape"></path>
                <path d="M33.5945789,5.54123606 C32.8788304,5.54123606 32.2985599,4.9609656 32.2985599,4.24521708 L32.2985599,1.32744009 C32.2985599,0.611691578 32.8788304,0.0314211151 33.5945789,0.0314211151 C34.3103274,0.0314211151 34.8905979,0.611691578 34.8905979,1.32744009 L34.8905979,4.24521708 C34.8905979,4.9609656 34.3104294,5.54123606 33.5945789,5.54123606 Z" id="Shape"></path>
                <path d="M17.4728944,7.09862159 C15.5481471,7.09862159 13.7420451,6.29544484 12.5181518,4.89506287 C12.0471412,4.35610913 12.1019241,3.53732384 12.6409798,3.06631317 C13.1799336,2.59530249 13.9987189,2.65008541 14.4697295,3.18914116 C15.2014947,4.02639146 16.2961329,4.50648161 17.4727924,4.50648161 C18.649656,4.50648161 19.7443962,4.02618743 20.4761613,3.18914116 C20.947172,2.65018743 21.7659573,2.59509846 22.304911,3.06631317 C22.8438648,3.53732384 22.8989537,4.35610913 22.427739,4.89506287 C21.2037438,6.29554686 19.3976418,7.09862159 17.4728944,7.09862159 Z" id="Shape"></path>
            </g>
        </g>
    </g>
</svg>