<?xml version="1.0" encoding="UTF-8"?>
<svg width="100px" height="100px" viewBox="0 0 100 100" version="1.1" xmlns="http://www.w3.org/2000/svg" xmlns:xlink="http://www.w3.org/1999/xlink">
    <!-- Generator: Sketch 51.1 (57501) - http://www.bohemiancoding.com/sketch -->
    <title>036-drop</title>
    <desc>Created with Sketch.</desc>
    <defs></defs>
    <g id="036-drop" stroke="none" stroke-width="1" fill="none" fill-rule="evenodd">
        <rect id="Rectangle" x="0" y="0" width="100" height="100"></rect>
        <g transform="translate(18.000000, 7.000000)" fill-rule="nonzero">
            <path d="M31.7929335,85.9887648 C67.9343824,85.9887648 79.9936865,45.144076 31.7929335,0 C-16.4078195,45.144076 -4.34851544,85.9887648 31.7929335,85.9887648 Z" id="Shape" fill="#42C3E2"></path>
            <path d="M36.9833705,80.7983278 C2.54874584,80.7983278 -10.0243112,43.7200713 30.5548195,1.17223515 C-16.1959857,45.8488266 -4.03536105,85.9887648 31.7929335,85.9887648 C43.4303064,85.9887648 52.5695938,81.7531116 58.0055701,74.5033729 C52.6414988,78.541696 45.4777601,80.7983278 36.9833705,80.7983278 Z" id="Shape" fill="#00A6C8"></path>
            <g id="Group" transform="translate(13.482185, 46.166271)" fill="#3B484A">
                <path d="M1.3551639,5.76169359 C0.638361045,5.76169359 0.0576057007,5.18073397 0.0576057007,4.46413539 L0.0576057007,1.39561045 C0.0576057007,0.679011876 0.638361045,0.0980522565 1.3551639,0.0980522565 C2.07196675,0.0980522565 2.65272209,0.679011876 2.65272209,1.39561045 L2.65272209,4.46413539 C2.65292637,5.18073397 2.07196675,5.76169359 1.3551639,5.76169359 Z" id="Shape"></path>
                <path d="M35.2663325,5.76169359 C34.5495297,5.76169359 33.9687743,5.18073397 33.9687743,4.46413539 L33.9687743,1.39561045 C33.9687743,0.679011876 34.5495297,0.0980522565 35.2663325,0.0980522565 C35.9831354,0.0980522565 36.5638907,0.679011876 36.5638907,1.39561045 L36.5638907,4.46413539 C36.5638907,5.18073397 35.9831354,5.76169359 35.2663325,5.76169359 Z" id="Shape"></path>
                <path d="M18.3107482,7.39967696 C16.305171,7.39967696 14.4237933,6.56316865 13.1489097,5.10453919 C12.6771354,4.56494537 12.7321876,3.74518765 13.2718836,3.27361758 C13.811171,2.80204751 14.6310309,2.85689549 15.1027031,3.39659145 C15.8848741,4.29142043 17.0540451,4.80466271 18.3108504,4.80466271 C19.5676556,4.80466271 20.7365202,4.29142043 21.5187933,3.39679572 C21.9903634,2.8572019 22.810019,2.80214964 23.349715,3.27402613 C23.8892067,3.7455962 23.9444632,4.56535392 23.4724846,5.10494774 C22.1974988,6.56316865 20.3162233,7.39967696 18.3107482,7.39967696 Z" id="Shape"></path>
            </g>
        </g>
    </g>
</svg>