<?xml version="1.0" encoding="UTF-8"?>
<svg width="100px" height="100px" viewBox="0 0 100 100" version="1.1" xmlns="http://www.w3.org/2000/svg" xmlns:xlink="http://www.w3.org/1999/xlink">
    <!-- Generator: Sketch 51.1 (57501) - http://www.bohemiancoding.com/sketch -->
    <title>037-gardener</title>
    <desc>Created with Sketch.</desc>
    <defs></defs>
    <g id="037-gardener" stroke="none" stroke-width="1" fill="none" fill-rule="evenodd">
        <rect id="Rectangle" x="0" y="0" width="100" height="100"></rect>
        <g transform="translate(7.000000, 8.000000)" fill-rule="nonzero">
            <path d="M9.59527402,26.5455374 L9.59527402,52.0455065 C9.59527402,60.0114733 16.0530273,66.4691246 24.0188921,66.4691246 L61.9350985,66.4691246 C69.9010652,66.4691246 76.3587165,60.0113713 76.3587165,52.0455065 L76.3587165,26.5455374 L9.59527402,26.5455374 Z" id="Shape" fill="#C86D5C"></path>
            <polygon id="Shape" fill="#FAA330" points="62.6186097 59.2420641 62.6186097 59.2420641 23.3354828 59.2420641 23.3354828 59.2420641 18.8985765 65.7087948 18.8985765 77.6039312 23.3354828 83.4044935 62.6186097 83.4044935 67.055516 71.3232788"></polygon>
            <path d="M74.2804342,17.1242017 L65.6076963,11.4060688 L25.6327948,11.4060688 L11.6736584,17.1242017 C10.4977129,19.0080403 9.49968446,21.0075658 8.70456702,23.0994164 L12.002866,25.1689253 L73.4798078,25.1689253 L77.2496275,23.0992123 C76.4544081,21.0073618 75.4563796,19.0076323 74.2804342,17.1242017 Z" id="Shape" fill="#E63E4C"></path>
            <path d="M74.2804342,17.1238956 L11.6736584,17.1238956 C18.0581637,6.89305813 29.7015231,0.0338695136 42.9770463,0.0338695136 C56.2525694,0.0338695136 67.8959288,6.89305813 74.2804342,17.1238956 Z" id="Shape" fill="#FFCE1C"></path>
            <path d="M47.2973476,0.279015421 C45.8802349,0.117319098 44.4386382,0.0340735469 42.9770463,0.0340735469 C29.7015231,0.0340735469 18.0581637,6.89326216 11.6736584,17.1242017 L20.314159,17.1242017 C25.9957699,8.01932147 35.8422088,1.58523606 47.2973476,0.279015421 Z" id="Shape" fill="#FAA330"></path>
            <rect id="Rectangle-path" fill="#B24D40" x="9.59527402" y="26.5447212" width="66.7635445" height="7.76652432"></rect>
            <g id="Group" transform="translate(4.284698, 29.890866)" fill="#E3B098">
                <path d="M6.83541874,7.26052195 C6.83541874,7.26031791 6.4186809,3.6703535 6.37767023,0.101710558 C2.8030083,0.478661922 0.0170367734,3.50182206 0.0170367734,7.17646026 C0.0170367734,11.1057319 3.20240332,14.2913025 7.131879,14.2913025 C7.4826121,14.2913025 7.82702017,14.2644721 8.16418505,14.2155042 L9.39154686,9.35012811 L6.83541874,7.26052195 Z" id="Shape"></path>
                <path d="M71.0070273,0.101608541 C70.9659146,3.67045552 70.5492788,7.26041993 70.5492788,7.26041993 L68.1800451,10.5942206 L69.2217367,14.2150961 C69.5585955,14.2640641 69.9024935,14.2907924 70.2527165,14.2907924 C74.1821922,14.2907924 77.3675587,11.1054259 77.3675587,7.17595018 C77.3675587,3.50182206 74.5817912,0.478559905 71.0070273,0.101608541 Z" id="Shape"></path>
            </g>
            <g id="Group" transform="translate(23.259786, 58.557533)" fill="#FFCE1C">
                <path d="M7.18278529,4.7048019 L3.91386714,0.0903867141 L0.075594306,0.684531435 L0.0763084223,0.685347568 L0.0763084223,16.3012337 C0.0763084223,18.263013 1.66674733,19.8532479 3.62832266,19.8532479 C5.59010202,19.8532479 7.18033689,18.262809 7.18033689,16.3012337 L7.18033689,4.7060261 L7.18278529,4.7048019 Z" id="Shape"></path>
                <path d="M39.3588233,0.684531435 L35.8060949,0.0903867141 L32.2518363,4.70449585 L32.2539786,4.70469988 L32.2539786,16.3012337 C32.2539786,18.263013 33.8444176,19.8532479 35.8059929,19.8532479 C37.7677722,19.8532479 39.3580071,18.262809 39.3580071,16.3012337 L39.3580071,0.685551601 L39.3588233,0.684531435 Z" id="Shape"></path>
            </g>
            <g id="Group" transform="translate(14.384342, 56.721234)" fill="#FF5E6B">
                <path d="M16.0582301,6.54110083 C17.1886762,12.4347023 22.3691815,16.8889514 28.5927046,16.8889514 C34.8163298,16.8889514 39.9968351,12.4346002 41.1272811,6.54059075 L16.0582301,6.54110083 Z" id="Shape"></path>
                <path d="M7.42833926,1.30734282 C4.71581969,4.54004508 1.37732622,9.76064294 0.0773285884,16.2392076 L4.51423488,18.4168541 L8.95114116,16.2392076 L8.95114116,2.52083037 L9.50641756,0.0257081851 L7.42833926,1.30734282 Z" id="Shape"></path>
                <path d="M57.1080807,16.2392076 C55.808083,9.76084698 52.4694875,4.53994306 49.75707,1.30734282 L47.6788897,0.0257081851 L48.2341661,2.52083037 L48.2341661,16.2392076 L52.6710724,18.4168541 L57.1080807,16.2392076 Z" id="Shape"></path>
            </g>
            <path d="M74.5371079,37.0675302 C74.5371079,37.0675302 68.8957936,35.6433784 66.1429775,29.9919644 L42.9770463,26.911981 L19.8111151,29.9919644 C17.0584009,35.6433784 11.4169846,37.0675302 11.4169846,37.0675302 L11.1201163,37.1513879 L11.1297058,37.2721756 L11.1302159,37.2723796 C12.2677011,53.1596299 26.0901352,65.7087948 42.9770463,65.7087948 C59.9060902,65.7087948 73.757089,53.0958695 74.8339763,37.1515919 L74.5371079,37.0675302 Z" id="Shape" fill="#FBC4AC"></path>
            <path d="M60.3212977,42.2229395 C59.6053452,42.2229395 59.0252788,41.642669 59.0252788,40.9269205 L59.0252788,37.5545575 C59.0252788,36.838809 59.6053452,36.2585386 60.3212977,36.2585386 C61.0372503,36.2585386 61.6173167,36.838809 61.6173167,37.5545575 L61.6173167,40.9269205 C61.6173167,41.6428731 61.0372503,42.2229395 60.3212977,42.2229395 Z" id="Shape" fill="#3B484A"></path>
            <path d="M62.6178956,47.1798244 L58.0245979,47.1798244 C57.3086453,47.1798244 56.7285789,46.599554 56.7285789,45.8838055 C56.7285789,45.1680569 57.3086453,44.5877865 58.0245979,44.5877865 L62.6178956,44.5877865 C63.3338482,44.5877865 63.9139146,45.1680569 63.9139146,45.8838055 C63.9139146,46.599554 63.3338482,47.1798244 62.6178956,47.1798244 Z" id="Shape" fill="#F98084"></path>
            <path d="M25.6327948,42.2229395 C24.9168422,42.2229395 24.3367758,41.642669 24.3367758,40.9269205 L24.3367758,37.5545575 C24.3367758,36.838809 24.9168422,36.2585386 25.6327948,36.2585386 C26.3487473,36.2585386 26.9288138,36.838809 26.9288138,37.5545575 L26.9288138,40.9269205 C26.9288138,41.6428731 26.3485433,42.2229395 25.6327948,42.2229395 Z" id="Shape" fill="#3B484A"></path>
            <path d="M27.9293926,47.1798244 L23.3360949,47.1798244 C22.6201423,47.1798244 22.0400759,46.599554 22.0400759,45.8838055 C22.0400759,45.1680569 22.6201423,44.5877865 23.3360949,44.5877865 L27.9293926,44.5877865 C28.6453452,44.5877865 29.2254116,45.1680569 29.2254116,45.8838055 C29.2254116,46.599554 28.6452432,47.1798244 27.9293926,47.1798244 Z" id="Shape" fill="#F98084"></path>
            <path d="M42.9770463,46.9892574 C41.3941566,46.9892574 39.9075706,46.3274757 38.8991364,45.1737699 C38.4279217,44.6348161 38.4829087,43.8160308 39.0219644,43.3450202 C39.5606121,42.8741115 40.3794994,42.9287924 40.8506121,43.4678482 C41.3669181,44.0585243 42.1421423,44.3972195 42.9769442,44.3972195 C43.8119502,44.3972195 44.5868683,44.0585243 45.1032764,43.4678482 C45.5741851,42.9288944 46.3932764,42.8738055 46.9319241,43.3450202 C47.4708778,43.8160308 47.5260688,44.6348161 47.0547521,45.1737699 C46.0465219,46.3275777 44.5599359,46.9892574 42.9770463,46.9892574 Z" id="Shape" fill="#3B484A"></path>
            <g id="Group" transform="translate(25.708185, 72.941874)" fill="#FAA330">
                <circle id="Oval" cx="33.3574923" cy="1.10851246" r="1.08872123"></circle>
                <circle id="Oval" cx="1.18023013" cy="1.10851246" r="1.08872123"></circle>
            </g>
            <g id="Group" transform="translate(13.772242, 72.941874)" fill="#FBC4AC">
                <path d="M58.154669,10.4626192 L48.8463677,10.4626192 L48.8463677,0.0185670225 L57.7201803,0.0185670225 C57.7755753,0.281973903 57.8258695,0.548645314 57.8727972,0.818683274 C58.3795136,3.72248399 58.5321305,6.93631317 58.154669,10.4626192 Z" id="Shape"></path>
                <path d="M0.254939502,10.4626192 L9.56324081,10.4626192 L9.56324081,0.0185670225 L0.689428233,0.0185670225 C0.634033215,0.281973903 0.583739027,0.548645314 0.536811388,0.818683274 C0.0301969158,3.72248399 -0.122521945,6.93631317 0.254939502,10.4626192 Z" id="Shape"></path>
            </g>
            <path d="M19.8111151,29.9919644 C18.9004128,31.8618268 17.6734591,33.2663915 16.4392622,34.3122657 L69.5149324,34.3122657 C68.2806335,33.2663915 67.0537817,31.8618268 66.1430795,29.9919644 L42.9770463,26.911981 L19.8111151,29.9919644 Z" id="Shape" fill="#E3B098"></path>
            <path d="M85.920427,26.5464555 C85.920427,28.4487592 84.3773238,29.9919644 82.4731839,29.9919644 L3.48090866,29.9919644 C1.57697272,29.9919644 0.0336654804,28.4486572 0.0336654804,26.5464555 C0.0336654804,24.6427236 1.57697272,23.0992123 3.48090866,23.0992123 L82.4732859,23.0992123 C84.3771198,23.0992123 85.920427,24.6425196 85.920427,26.5464555 Z" id="Shape" fill="#FFCE1C"></path>
            <path d="M10.4023274,26.5464555 C10.4023274,24.6423155 11.9456346,23.0992123 13.8495706,23.0992123 L3.48090866,23.0992123 C1.57697272,23.0992123 0.0336654804,24.6425196 0.0336654804,26.5464555 C0.0336654804,28.4487592 1.57697272,29.9919644 3.48090866,29.9919644 L13.8495706,29.9919644 C11.9454306,29.9919644 10.4023274,28.4486572 10.4023274,26.5464555 Z" id="Shape" fill="#FAA330"></path>
            <g id="Group" transform="translate(17.444840, 14.894425)" fill="#FF5E6B">
                <path d="M1.81140688,0.964465006 C-1.35988138,3.52079715 0.838678529,8.20478766 0.838678529,8.20478766 L8.95879241,8.20478766 L8.95879241,2.22957295 C8.95879241,2.22947094 4.98259312,-1.59196916 1.81140688,0.964465006 Z" id="Shape"></path>
                <path d="M16.8763013,0.964465006 C20.0475896,3.52079715 17.8490297,8.2049917 17.8490297,8.2049917 L9.72891578,8.2049917 L9.72891578,2.22977699 C9.72891578,2.22947094 13.705013,-1.59196916 16.8763013,0.964465006 Z" id="Shape"></path>
            </g>
            <path d="M27.1737556,17.1238956 L26.4034282,17.1238956 C24.7535136,17.1238956 23.4158719,18.4615374 23.4158719,20.111452 C23.4158719,21.7613665 24.7535136,23.0990083 26.4034282,23.0990083 L27.1737556,23.0990083 C28.8236702,23.0990083 30.161312,21.7613665 30.161312,20.111452 C30.161516,18.4616394 28.8236702,17.1238956 27.1737556,17.1238956 Z" id="Shape" fill="#E63E4C"></path>
        </g>
    </g>
</svg>