<?xml version="1.0" encoding="UTF-8"?>
<svg width="100px" height="100px" viewBox="0 0 100 100" version="1.1" xmlns="http://www.w3.org/2000/svg" xmlns:xlink="http://www.w3.org/1999/xlink">
    <!-- Generator: Sketch 51.1 (57501) - http://www.bohemiancoding.com/sketch -->
    <title>038-rake</title>
    <desc>Created with Sketch.</desc>
    <defs></defs>
    <g id="038-rake" stroke="none" stroke-width="1" fill="none" fill-rule="evenodd">
        <rect id="Rectangle" x="0" y="0" width="100" height="100"></rect>
        <g transform="translate(5.000000, 5.000000)" fill-rule="nonzero">
            <polygon id="Shape" fill="#B3B3B3" points="50.8346263 32.9501423 40.1389324 43.6459431 40.310605 49.6063345 46.2708897 49.7780071 56.9665836 39.0823132"></polygon>
            <polygon id="Shape" fill="#999999" points="54.4090036 36.5247331 43.7134164 47.220427 40.238968 47.1203915 40.310605 49.6063345 46.2708897 49.7780071 56.9665836 39.0825267"></polygon>
            <path d="M80.3994662,46.0381495 C79.8607473,46.0751957 67.0742349,46.8784698 55.4185409,41.0653025 C54.0057651,40.3606762 52.7162989,39.4253381 51.6038434,38.3129893 C50.4913879,37.2006406 49.5560498,35.9112811 48.8515302,34.4985053 C43.0382562,22.8427046 43.8417438,10.0561922 43.87879,9.51758007 L49.7775801,9.92327402 C49.7702135,10.0360142 49.0659075,21.6803915 54.1426335,31.8594662 C54.9826335,33.5437367 56.3727758,34.933879 58.0570463,35.773879 C68.2359075,40.850605 79.8807117,40.1465125 79.9968683,40.1387189 L80.3994662,46.0381495 Z" id="Shape" fill="#D9D9D9"></path>
            <g id="Group" transform="translate(44.733096, 0.000000)" fill="#999999">
                <path d="M10.4759786,0.742206406 C9.48640569,-0.247366548 7.88188612,-0.247366548 6.89231317,0.742206406 L0.00480427046,7.6297153 L3.58846975,11.2133808 L10.4759786,4.32587189 C11.4656584,3.33629893 11.4656584,1.73199288 10.4759786,0.742206406 Z" id="Shape"></path>
                <path d="M44.4414235,34.707758 C45.4309964,35.697331 45.4309964,37.3018505 44.4414235,38.2914235 L37.5539146,45.1789324 L33.9702491,41.5952669 L40.857758,34.707758 C41.847331,33.7181851 43.4518505,33.7181851 44.4414235,34.707758 Z" id="Shape"></path>
                <path d="M17.2693238,7.53533808 C16.2797509,6.54576512 14.6752313,6.54576512 13.6856584,7.53533808 L6.79793594,14.422847 L10.3816014,18.0065125 L17.2691103,11.1190036 C18.2588968,10.1294306 18.2588968,8.52491103 17.2693238,7.53533808 Z" id="Shape"></path>
                <path d="M24.0621352,14.3285765 C23.0725623,13.3390036 21.4680427,13.3390036 20.4784698,14.3285765 L13.5909609,21.2160854 L17.1746263,24.7997509 L24.0621352,17.912242 C25.0519217,16.922669 25.0519217,15.3181495 24.0621352,14.3285765 Z" id="Shape"></path>
                <path d="M30.8552669,21.1214947 C29.865694,20.1319217 28.2611744,20.1319217 27.2716014,21.1214947 L20.3840925,28.0090036 L23.967758,31.592669 L30.8552669,24.7051601 C31.8448399,23.7155872 31.8448399,22.1111744 30.8552669,21.1214947 Z" id="Shape"></path>
                <path d="M37.6485053,27.9145196 C36.6589324,26.9249466 35.0544128,26.9249466 34.0648399,27.9145196 L27.177331,34.8020285 L30.7609964,38.385694 L37.6485053,31.4981851 C38.6380783,30.5086121 38.6380783,28.9040925 37.6485053,27.9145196 Z" id="Shape"></path>
            </g>
            <path d="M78.106121,45.1789324 L44.7377936,11.811032 C43.5831673,10.6564057 43.5831673,8.78455516 44.7377936,7.62992883 C45.8924199,6.47530249 47.7642705,6.47530249 48.9188968,7.62992883 L82.2870107,40.9979359 C83.441637,42.1525623 83.441637,44.0244128 82.2870107,45.1790391 C81.1323843,46.3335587 79.2606406,46.3335587 78.106121,45.1789324 Z" id="Shape" fill="#B3B3B3"></path>
            <path d="M40.1389324,43.6459431 L1.30516014,82.479395 C-0.388185053,84.1727402 -0.388185053,86.9182206 1.30516014,88.6113523 C2.99850534,90.304484 5.74398577,90.3046975 7.43711744,88.6113523 L46.2706762,49.7777936 L40.1389324,43.6459431 Z" id="Shape" fill="#C86D5C"></path>
            <path d="M43.7134164,47.220427 L4.87985765,86.0539858 C3.64313167,87.2907117 1.84569395,87.6230605 0.306085409,87.0531673 C0.516405694,87.6215658 0.84886121,88.1549466 1.3052669,88.6115658 C2.9986121,90.304911 5.74409253,90.304911 7.4372242,88.6115658 L46.2707829,49.7780071 L43.7134164,47.220427 Z" id="Shape" fill="#B24D40"></path>
        </g>
    </g>
</svg>