<?xml version="1.0" encoding="UTF-8"?>
<svg width="100px" height="100px" viewBox="0 0 100 100" version="1.1" xmlns="http://www.w3.org/2000/svg" xmlns:xlink="http://www.w3.org/1999/xlink">
    <!-- Generator: Sketch 51.1 (57501) - http://www.bohemiancoding.com/sketch -->
    <title>039-flower</title>
    <desc>Created with Sketch.</desc>
    <defs></defs>
    <g id="039-flower" stroke="none" stroke-width="1" fill="none" fill-rule="evenodd">
        <rect id="Rectangle" x="0" y="0" width="100" height="100"></rect>
        <g transform="translate(14.000000, 4.000000)" fill-rule="nonzero">
            <path d="M16.4286651,76.4273064 C16.711658,80.0200048 19.3431639,83.728304 23.5037055,85.8148029 C27.6640285,87.9011924 32.2100523,87.7923658 35.258399,85.8703088 C34.9754062,82.2776105 32.3439002,78.5693112 28.1833587,76.4828124 C24.0228171,74.3963135 19.4772304,74.5053587 16.4286651,76.4273064 Z" id="Shape" fill="#2FC8B4"></path>
            <path d="M35.2573064,87.2587221 C35.0481758,87.2587221 34.8357672,87.2113017 34.6362518,87.1112162 L23.2727221,81.4126793 C22.5873112,81.0689359 22.3104371,80.2348171 22.6541805,79.5495154 C22.9977055,78.8641045 23.8322613,78.5872304 24.5173444,78.9309739 L35.8808741,84.6295107 C36.566285,84.9732542 36.8431591,85.8073729 36.4994157,86.4926746 C36.2557577,86.9780238 35.7657102,87.2587221 35.2573064,87.2587221 Z" id="Shape" fill="#00AE95"></path>
            <path d="M55.3083895,76.4273064 C55.0253967,80.0200048 52.3938907,83.728304 48.2333492,85.8148029 C44.0730261,87.9011924 39.5270024,87.7923658 36.4786556,85.8703088 C36.7616485,82.2776105 39.3931544,78.5693112 43.553696,76.4828124 C47.7139097,74.3963135 52.2596057,74.5053587 55.3083895,76.4273064 Z" id="Shape" fill="#2FC8B4"></path>
            <g id="Group" transform="translate(33.106888, 61.296912)" fill="#00AE95">
                <path d="M3.37264133,25.96181 C2.864019,25.96181 2.37419002,25.6812209 2.13064133,25.1955439 C1.78689786,24.510133 2.06377197,23.6761235 2.7491829,23.33238 L14.1127126,17.6338432 C14.7984513,17.2900998 15.6323515,17.5671924 15.9758765,18.2523848 C16.31962,18.9377957 16.0427458,19.7718052 15.3573349,20.1155487 L3.99380523,25.8140855 C3.79439905,25.9143895 3.58177197,25.96181 3.37264133,25.96181 Z" id="Shape"></path>
                <rect id="Rectangle-path" x="0.029719715" y="0.0443610451" width="5.46471259" height="30.6465986"></rect>
            </g>
            <path d="M65.8440285,41.4682898 C75.2318527,36.5023658 72.7485083,22.4195914 62.2284941,20.9637625 C66.2277625,11.1255534 55.2733159,1.93352969 46.2788409,7.58060333 C43.0185226,-2.52672209 28.7185321,-2.52672209 25.4581045,7.58060333 C16.4636295,1.93352969 5.50907363,11.1255534 9.50845131,20.9637625 C-1.01145368,22.4193729 -3.49457957,36.5023658 5.89291686,41.4682898 C-1.23019952,49.3453254 5.91990499,61.7297055 16.3033397,59.4995249 C15.9100998,70.1124133 29.3478907,75.0032732 35.8684181,66.6206746 C42.3889454,75.0034917 55.8266271,70.1124133 55.4334964,59.4995249 C65.8169311,61.7298147 72.9670356,49.3454347 65.8440285,41.4682898 Z" id="Shape" fill="#FF5E6B"></path>
            <g id="Group" transform="translate(6.883610, 7.757720)" fill="#E63E4C">
                <path d="M28.9849169,7.27444656 C28.218323,7.27444656 27.5968314,6.65295487 27.5968314,5.88636105 L27.5968314,1.46708314 C27.5968314,0.700489311 28.218323,0.0789976247 28.9849169,0.0789976247 C29.7515107,0.0789976247 30.3730024,0.700489311 30.3730024,1.46708314 L30.3730024,5.88625178 C30.3730024,6.65295487 29.7515107,7.27444656 28.9849169,7.27444656 Z" id="Shape"></path>
                <path d="M43.656076,12.570019 C43.3792019,12.570019 43.0994869,12.4875249 42.856266,12.3154347 C42.2301853,11.8731354 42.0811496,11.0068931 42.5236675,10.3808124 L45.073772,6.77150594 C45.5160713,6.14542518 46.3823135,5.99660808 47.0083943,6.43890736 C47.6344751,6.88120665 47.7835107,7.74744893 47.3409929,8.37352969 L44.7908884,11.9828361 C44.5206793,12.3655867 44.091601,12.570019 43.656076,12.570019 Z" id="Shape"></path>
                <path d="M52.2215819,25.9570024 C51.5769264,25.9570024 50.9993587,25.5055249 50.8636532,24.8493967 C50.7086081,24.0987553 51.1913349,23.364285 51.9421948,23.2090214 L56.2699097,22.3146983 C57.0202233,22.1596532 57.7550214,22.64238 57.9100665,23.3932399 C58.0651116,24.1438812 57.5823848,24.8783515 56.8315249,25.0336152 L52.50381,25.9279382 C52.4091876,25.9476057 52.3146746,25.9570024 52.2215819,25.9570024 Z" id="Shape"></path>
                <path d="M52.6604941,43.3438005 C52.4213159,43.3438005 52.1789691,43.2819572 51.958038,43.152152 L48.1489976,40.9117007 C47.488171,40.5230499 47.2675677,39.6722138 47.6562185,39.0113872 C48.0449786,38.3504513 48.8960333,38.1299572 49.5565321,38.5187173 L53.3655724,40.7591686 C54.026399,41.1478195 54.2470024,41.9986556 53.8583515,42.6594822 C53.5996152,43.0988314 53.136228,43.3438005 52.6604941,43.3438005 Z" id="Shape"></path>
                <path d="M38.0816627,53.4683895 C37.4860665,53.4683895 36.9353777,53.081924 36.7535629,52.4823943 L35.472228,48.2531259 C35.2499857,47.5194204 35.6644228,46.7445226 36.3982375,46.5222803 C37.1318337,46.3002565 37.9068409,46.7144751 38.1293017,47.4482898 L39.4106366,51.6775582 C39.6328789,52.4112637 39.2184418,53.1861615 38.4846271,53.4084038 C38.3506698,53.4489406 38.2149644,53.4683895 38.0816627,53.4683895 Z" id="Shape"></path>
                <path d="M14.3135392,12.570019 C13.877905,12.570019 13.4491544,12.365696 13.1788361,11.9827268 L10.6287316,8.37363895 C10.1862138,7.74755819 10.3351401,6.88131591 10.9613302,6.43901663 C11.5876295,5.99671734 12.4536532,6.14542518 12.8959525,6.7716152 L15.4459477,10.3809216 C15.8884656,11.0070024 15.7395392,11.8732447 15.1133492,12.3155439 C14.8701283,12.4873064 14.5904133,12.570019 14.3135392,12.570019 Z" id="Shape"></path>
                <path d="M5.74825178,25.9570024 C5.65515914,25.9570024 5.56053682,25.9474964 5.46602375,25.9279382 L1.13830879,25.0336152 C0.387448931,24.8785701 -0.0954964371,24.1440998 0.0597672209,23.3932399 C0.214812352,22.6425986 0.949828979,22.1594347 1.69992399,22.3146983 L6.02763895,23.2090214 C6.77849881,23.3640665 7.26144418,24.0985368 7.10618052,24.8493967 C6.97047506,25.5056342 6.39268884,25.9570024 5.74825178,25.9570024 Z" id="Shape"></path>
                <path d="M5.30912114,43.3438005 C4.83338717,43.3438005 4.37,43.0989406 4.11126366,42.6591544 C3.72261283,41.9983278 3.94332542,41.147601 4.60404276,40.7588409 L8.41308314,38.5183895 C9.07347268,38.1297387 9.92441805,38.3504513 10.3133967,39.0110594 C10.7020475,39.671886 10.4813349,40.5226128 9.82061758,40.9113729 L6.0115772,43.1518242 C5.79064608,43.2817387 5.54829929,43.3438005 5.30912114,43.3438005 Z" id="Shape"></path>
                <path d="M19.8879525,53.4683895 C19.7546508,53.4683895 19.6189454,53.4491591 19.4847696,53.4084038 C18.7510641,53.1861615 18.3365178,52.4110451 18.5587601,51.6775582 L19.840095,47.4482898 C20.0623373,46.7145843 20.8370166,46.300038 21.5711591,46.5222803 C22.3048646,46.7445226 22.7194109,47.519639 22.4971686,48.2531259 L21.2158337,52.4823943 C21.0342375,53.081924 20.4835487,53.4683895 19.8879525,53.4683895 Z" id="Shape"></path>
            </g>
            <ellipse id="Oval" fill="#FFCE1C" cx="35.8685273" cy="35.4347506" rx="24.3444893" ry="21.7902328"></ellipse>
            <path d="M17.0769264,35.4342043 C17.0769264,24.2404703 26.5074727,15.0197102 38.6446983,13.7861235 C37.7332209,13.6935772 36.8073207,13.64419 35.8683088,13.64419 C22.4235249,13.64419 11.5241473,23.399905 11.5241473,35.4342043 C11.5241473,47.4685036 22.4234157,57.2242185 35.8684181,57.2242185 C36.8073207,57.2242185 37.7333302,57.1749406 38.6448076,57.082285 C26.5074727,55.8486983 17.0769264,46.6280475 17.0769264,35.4342043 Z" id="Shape" fill="#FAA330"></path>
            <g id="Group" transform="translate(22.726841, 32.342043)" fill="#3B484A">
                <path d="M1.3884133,4.97597625 C0.621819477,4.97597625 0.000327790974,4.35448456 0.000327790974,3.58789074 L0.000327790974,1.46063658 C0.000327790974,0.694042755 0.621819477,0.0725510689 1.3884133,0.0725510689 C2.15500713,0.0725510689 2.77649881,0.694042755 2.77649881,1.46063658 L2.77649881,3.58789074 C2.77649881,4.35470309 2.15500713,4.97597625 1.3884133,4.97597625 Z" id="Shape"></path>
                <path d="M24.8947411,4.97597625 C24.1281473,4.97597625 23.5066556,4.35448456 23.5066556,3.58789074 L23.5066556,1.46063658 C23.5066556,0.694042755 24.1281473,0.0725510689 24.8947411,0.0725510689 C25.6613349,0.0725510689 26.2828266,0.694042755 26.2828266,1.46063658 L26.2828266,3.58789074 C26.2830451,4.35470309 25.6614442,4.97597625 24.8947411,4.97597625 Z" id="Shape"></path>
                <path d="M13.1416865,6.11144418 C11.6105748,6.11144418 10.1725558,5.47072209 9.19595724,4.35339192 C8.69148694,3.77615202 8.75016152,2.8992019 9.32729216,2.39473159 C9.90453207,1.89026128 10.7812637,1.94893587 11.2859525,2.52606651 C11.7352447,3.04004276 12.4119145,3.33494537 13.1416865,3.33494537 C13.871677,3.33494537 14.5481283,3.04015202 14.9974204,2.52606651 C15.5021093,1.9488266 16.3788409,1.88982423 16.9560808,2.39451306 C17.5333207,2.89898337 17.592323,3.77593349 17.0876342,4.3531734 C16.1110356,5.47072209 14.6725796,6.11144418 13.1416865,6.11144418 Z" id="Shape"></path>
            </g>
        </g>
    </g>
</svg>