<?xml version="1.0" encoding="UTF-8"?>
<svg width="100px" height="100px" viewBox="0 0 100 100" version="1.1" xmlns="http://www.w3.org/2000/svg" xmlns:xlink="http://www.w3.org/1999/xlink">
    <!-- Generator: Sketch 51.1 (57501) - http://www.bohemiancoding.com/sketch -->
    <title>040-fountain</title>
    <desc>Created with Sketch.</desc>
    <defs></defs>
    <g id="040-fountain" stroke="none" stroke-width="1" fill="none" fill-rule="evenodd">
        <rect id="Rectangle" x="0" y="0" width="100" height="100"></rect>
        <g transform="translate(15.000000, 5.000000)" fill-rule="nonzero">
            <path d="M43.1156651,53.7254038 C44.4410808,48.7920784 41.3081829,44.4330641 41.3081829,44.4330641 L34.9821021,41.3036936 L28.6560214,44.4330641 C28.6560214,44.4330641 25.5231235,48.7920784 26.8485392,53.7254038 L34.9821021,56.8547743 L43.1156651,53.7254038 Z" id="Shape" fill="#FF5E6B"></path>
            <path d="M32.1995843,53.7254038 C30.8741686,48.7920784 34.0070665,44.4330641 34.0070665,44.4330641 L37.6575178,42.6269715 L34.9819952,41.3034798 L28.6559145,44.4330641 C28.6559145,44.4330641 25.5230166,48.7920784 26.8484323,53.7254038 L34.9819952,56.8547743 L37.6575178,55.8253325 L32.1995843,53.7254038 Z" id="Shape" fill="#E63E4C"></path>
            <path d="M34.9821021,74.319905 L3.2271734,77.4492755 L3.2271734,84.1987411 C3.2271734,87.3960926 5.81921615,89.9882423 9.01667458,89.9882423 L60.9474228,89.9882423 C64.1447743,89.9882423 66.736924,87.3961995 66.736924,84.1987411 L66.736924,77.4492755 L34.9821021,74.319905 Z" id="Shape" fill="#FF5E6B"></path>
            <path d="M10.3619715,84.1987411 L10.3619715,77.4494893 L38.5493943,74.6714608 L34.9819952,74.319905 L3.22706651,77.4492755 L3.22706651,84.1987411 C3.22706651,87.3960926 5.81900238,89.9883492 9.0165677,89.9883492 L16.1514727,89.9883492 C12.9541211,89.9882423 10.3619715,87.3961995 10.3619715,84.1987411 Z" id="Shape" fill="#E63E4C"></path>
            <path d="M43.1156651,59.9841449 L34.9821021,56.8547743 L26.8485392,59.9841449 C26.8485392,59.9841449 17.0883492,62.8761164 17.0883492,71.1905344 L34.9823159,74.319905 L52.8762827,71.1905344 C52.8760689,62.8761164 43.1156651,59.9841449 43.1156651,59.9841449 Z" id="Shape" fill="#FF5E6B"></path>
            <path d="M22.4390736,71.1903207 C22.4390736,62.8759026 32.1992637,59.9839311 32.1992637,59.9839311 L37.657304,57.8840024 L34.9817815,56.8545606 L26.8482185,59.9839311 C26.8482185,59.9839311 17.0880285,62.8759026 17.0880285,71.1903207 L34.9819952,74.319905 L37.6575178,73.8518409 L22.4390736,71.1903207 Z" id="Shape" fill="#E63E4C"></path>
            <path d="M34.9821021,22.6262352 L15.8794418,25.7556057 C15.8794418,25.7556057 18.0519477,35.5230641 28.6558076,38.1740024 L34.9821021,41.3031591 L41.3081829,38.1737886 C51.9120428,35.5228504 54.0845487,25.7553919 54.0845487,25.7553919 L34.9821021,22.6262352 Z" id="Shape" fill="#FF5E6B"></path>
            <path d="M34.0069596,38.1740024 C23.4030998,35.5230641 21.2305938,25.7556057 21.2305938,25.7556057 L37.6575178,23.0645843 L34.9819952,22.6260214 L15.8795487,25.7556057 C15.8795487,25.7556057 18.0520546,35.5230641 28.6559145,38.1740024 L34.982209,41.3031591 L37.6577316,39.9796675 L34.0069596,38.1740024 Z" id="Shape" fill="#E63E4C"></path>
            <path d="M66.7368171,71.1905344 L3.22706651,71.1905344 C1.49868171,71.1905344 0.097695962,72.591734 0.097695962,74.319905 C0.097695962,76.0482898 1.4987886,77.4492755 3.22706651,77.4492755 L66.7366033,77.4492755 C68.4649881,77.4492755 69.8659739,76.048076 69.8659739,74.319905 C69.8661876,72.591734 68.465095,71.1905344 66.7368171,71.1905344 Z" id="Shape" fill="#D9D9D9"></path>
            <path d="M7.23260095,74.319905 C7.23260095,72.5915202 8.63369359,71.1903207 10.3619715,71.1903207 L3.22706651,71.1903207 C1.49868171,71.1903207 0.097695962,72.5914133 0.097695962,74.3196912 C0.097695962,76.0479691 1.4987886,77.4490618 3.22706651,77.4490618 L10.3619715,77.4490619 C8.63380048,77.4494893 7.23260095,76.0482898 7.23260095,74.319905 Z" id="Shape" fill="#B3B3B3"></path>
            <path d="M41.3081829,38.1740024 L28.6555938,38.1740024 C26.927209,38.1740024 25.5262233,39.575095 25.5262233,41.3033729 C25.5262233,43.0317577 26.9273159,44.4327435 28.6555938,44.4327435 L41.308076,44.4327435 C43.0364608,44.4327435 44.4374466,43.0316508 44.4374466,41.3033729 C44.4376603,39.5749881 43.0365677,38.1740024 41.3081829,38.1740024 Z" id="Shape" fill="#D9D9D9"></path>
            <path d="M30.8773753,41.3033729 C30.8773753,39.575095 32.2785748,38.1740024 34.0067458,38.1740024 L28.6555938,38.1740024 C26.9273159,38.1740024 25.5262233,39.575095 25.5262233,41.3033729 C25.5262233,43.0317577 26.9273159,44.4329572 28.6555938,44.4329572 L34.0067458,44.4329572 C32.2785748,44.4329572 30.8773753,43.0317577 30.8773753,41.3033729 Z" id="Shape" fill="#B3B3B3"></path>
            <path d="M43.1156651,53.7254038 L26.8483254,53.7254038 C25.1199406,53.7254038 23.7189549,55.1264964 23.7189549,56.8547743 C23.7189549,58.5831591 25.1200475,59.9841449 26.8483254,59.9841449 L43.1156651,59.9841449 C44.8440499,59.9841449 46.2450356,58.5829454 46.2450356,56.8547743 C46.2450356,55.1263895 44.8438361,53.7254038 43.1156651,53.7254038 Z" id="Shape" fill="#D9D9D9"></path>
            <path d="M29.0701069,56.8547743 C29.0701069,55.1264964 30.4711995,53.7254038 32.1994774,53.7254038 L26.8483254,53.7254038 C25.1199406,53.7254038 23.7189549,55.1264964 23.7189549,56.8547743 C23.7189549,58.5830523 25.1200475,59.9841449 26.8483254,59.9841449 L32.1994774,59.9841449 C30.4711995,59.9841449 29.0701069,58.583266 29.0701069,56.8547743 Z" id="Shape" fill="#B3B3B3"></path>
            <path d="M35.6585986,13.7128147 L34.3056057,13.7128147 C32.4654157,13.7128147 30.973361,15.2046556 30.973361,17.0450594 L30.973361,23.2828504 L38.9905226,23.2828504 L38.9905226,17.0450594 C38.9907363,15.2046556 37.4987886,13.7128147 35.6585986,13.7128147 Z" id="Shape" fill="#FF5E6B"></path>
            <g id="Group" transform="translate(24.691211, 28.432304)" fill="#3B484A">
                <path d="M1.40184086,4.29252969 C0.662921615,4.29252969 0.0639192399,3.69352732 0.0639192399,2.95482185 L0.0639192399,1.34615202 C0.0639192399,0.607232779 0.662921615,0.00844418052 1.40184086,0.00844418052 C2.1407601,0.00844418052 2.73954869,0.607446556 2.73954869,1.34615202 L2.73954869,2.95482185 C2.73954869,3.6936342 2.14054632,4.29252969 1.40184086,4.29252969 Z" id="Shape"></path>
                <path d="M19.17962,4.29252969 C18.4407007,4.29252969 17.8416983,3.69352732 17.8416983,2.95482185 L17.8416983,1.34615202 C17.8416983,0.607232779 18.4407007,0.00844418052 19.17962,0.00844418052 C19.9185392,0.00844418052 20.5173278,0.607446556 20.5173278,1.34615202 L20.5173278,2.95482185 C20.5175416,3.6936342 19.9185392,4.29252969 19.17962,4.29252969 Z" id="Shape"></path>
                <path d="M10.2908907,5.15127078 C9.04980998,5.15127078 7.88280285,4.63083135 7.08958432,3.72324228 C6.60324228,3.16699525 6.66,2.32172209 7.21646081,1.83559382 C7.77270784,1.34946556 8.61776722,1.4060095 9.10410926,1.96247031 C9.3893943,2.28869359 9.82175772,2.47585511 10.2907838,2.47585511 C10.75981,2.47585511 11.1922803,2.28869359 11.4774584,1.96247031 C11.9638005,1.40622328 12.8088599,1.34946556 13.3651069,1.83570071 C13.9213539,2.32204276 13.9781116,3.16710214 13.4918765,3.72334917 C12.6985511,4.63083135 11.5318646,5.15127078 10.2908907,5.15127078 Z" id="Shape"></path>
            </g>
            <path d="M6.04870546,44.6158432 C5.30978622,44.6158432 4.71099762,44.0168409 4.71099762,43.2781354 L4.71099762,35.3730998 C4.71099762,34.6341805 5.31,34.0353919 6.04870546,34.0353919 C6.78741093,34.0353919 7.3864133,34.6343943 7.3864133,35.3730998 L7.3864133,43.2781354 C7.38662708,44.0172684 6.7876247,44.6158432 6.04870546,44.6158432 Z" id="Shape" fill="#42C3E2"></path>
            <g id="Group" transform="translate(4.703088, 18.384798)" fill="#00A6C8">
                <path d="M1.34561758,36.3591449 C0.606698337,36.3591449 0.00790973872,35.7601425 0.00790973872,35.0214371 L0.00790973872,30.731152 C0.00790973872,29.9922328 0.606912114,29.3932304 1.34561758,29.3932304 C2.08432304,29.3932304 2.68332542,29.9922328 2.68332542,30.731152 L2.68332542,35.0214371 C2.68353919,35.7601425 2.08453682,36.3591449 1.34561758,36.3591449 Z" id="Shape"></path>
                <path d="M1.34561758,12.8961876 C0.606698337,12.8961876 0.00790973872,12.2971853 0.00790973872,11.5584798 L0.00790973872,1.37597387 C0.00790973872,0.637054632 0.606912114,0.0382660333 1.34561758,0.0382660333 C2.08432304,0.0382660333 2.68332542,0.637268409 2.68332542,1.37597387 L2.68332542,11.5584798 C2.68353919,12.2971853 2.08453682,12.8961876 1.34561758,12.8961876 Z" id="Shape"></path>
            </g>
            <g id="Group" transform="translate(4.703088, 0.000000)" fill="#42C3E2">
                <path d="M1.34561758,15.1992043 C0.606698337,15.1992043 0.00790973872,14.6002019 0.00790973872,13.8614964 C0.00790973872,6.21812352 6.22614014,0 13.8692993,0 C19.0102019,0 23.7036698,2.82270784 26.1177435,7.36642518 C26.4643824,8.01887173 26.2162945,8.82887173 25.5639549,9.17551069 C24.9117221,9.52225653 24.1016152,9.27406176 23.7548694,8.62182898 C21.8064014,4.95406176 18.0184917,2.67552257 13.8692993,2.67552257 C7.7014133,2.67552257 2.68353919,7.69339667 2.68353919,13.8612827 C2.68353919,14.6002019 2.08453682,15.1992043 1.34561758,15.1992043 Z" id="Shape"></path>
                <path d="M59.2120903,44.6158432 C58.473171,44.6158432 57.8743824,44.0168409 57.8743824,43.2781354 L57.8743824,35.3730998 C57.8743824,34.6341805 58.4733848,34.0353919 59.2120903,34.0353919 C59.9507957,34.0353919 60.5500119,34.6343943 60.5500119,35.3730998 L60.5500119,43.2781354 C60.5497981,44.0172684 59.9510095,44.6158432 59.2120903,44.6158432 Z" id="Shape"></path>
            </g>
            <g id="Group" transform="translate(62.529691, 18.384798)" fill="#00A6C8">
                <path d="M1.38548694,36.3591449 C0.646567696,36.3591449 0.0477790974,35.7601425 0.0477790974,35.0214371 L0.0477790974,30.731152 C0.0477790974,29.9922328 0.646781473,29.3932304 1.38548694,29.3932304 C2.1241924,29.3932304 2.72340855,29.9922328 2.72340855,30.731152 L2.72340855,35.0214371 C2.72319477,35.7601425 2.12440618,36.3591449 1.38548694,36.3591449 Z" id="Shape"></path>
                <path d="M1.38548694,12.8961876 C0.646567696,12.8961876 0.0477790974,12.2971853 0.0477790974,11.5584798 L0.0477790974,1.37597387 C0.0477790974,0.637054632 0.646781473,0.0382660333 1.38548694,0.0382660333 C2.1241924,0.0382660333 2.72340855,0.637268409 2.72340855,1.37597387 L2.72340855,11.5584798 C2.72319477,12.2971853 2.12440618,12.8961876 1.38548694,12.8961876 Z" id="Shape"></path>
            </g>
            <path d="M63.9151781,15.1992043 C63.1762589,15.1992043 62.5774703,14.6002019 62.5774703,13.8614964 C62.5774703,7.69361045 57.5595962,2.67573634 51.3917102,2.67573634 C47.2426247,2.67573634 43.4546081,4.95427553 41.5061401,8.62204276 C41.1595012,9.27448931 40.3495012,9.52247031 39.6970546,9.17572447 C39.0446081,8.82908551 38.7966271,8.0191924 39.143266,7.36663895 C41.5573397,2.82270784 46.2505938,0 51.3916033,0 C59.0347625,0 65.2529929,6.21812352 65.2529929,13.8613895 C65.252886,14.6002019 64.6540974,15.1992043 63.9151781,15.1992043 Z" id="Shape" fill="#42C3E2"></path>
            <path d="M54.0845487,19.4966508 L15.8794418,19.4966508 C14.151057,19.4966508 12.7500713,20.8977435 12.7500713,22.6260214 C12.7500713,24.3544062 14.1511639,25.7553919 15.8794418,25.7553919 L54.0843349,25.7553919 C55.8127197,25.7553919 57.2137055,24.3542993 57.2137055,22.6260214 C57.2139192,20.8978504 55.8129335,19.4966508 54.0845487,19.4966508 Z" id="Shape" fill="#D9D9D9"></path>
            <path d="M18.1013302,22.6262352 C18.1013302,20.8979572 19.5024228,19.4968646 21.2307007,19.4968646 L15.8795487,19.4968646 C14.1511639,19.4968646 12.7501781,20.8979572 12.7501781,22.6262352 C12.7501781,24.35462 14.1512708,25.7558195 15.8795487,25.7558195 L21.2307007,25.7558195 C19.5021021,25.7558195 18.1013302,24.35462 18.1013302,22.6262352 Z" id="Shape" fill="#B3B3B3"></path>
        </g>
    </g>
</svg>