<?xml version="1.0" encoding="UTF-8"?>
<svg width="100px" height="100px" viewBox="0 0 100 100" version="1.1" xmlns="http://www.w3.org/2000/svg" xmlns:xlink="http://www.w3.org/1999/xlink">
    <!-- Generator: Sketch 51.1 (57501) - http://www.bohemiancoding.com/sketch -->
    <title>041-snail</title>
    <desc>Created with Sketch.</desc>
    <defs></defs>
    <g id="041-snail" stroke="none" stroke-width="1" fill="none" fill-rule="evenodd">
        <rect id="Rectangle" x="0" y="0" width="100" height="100"></rect>
        <g transform="translate(5.000000, 15.000000)" fill-rule="nonzero">
            <g id="Group" transform="translate(57.689573, 2.132701)" fill="#FAA330">
                <path d="M1.37964455,14.1893957 C0.631279621,14.1893957 0.0249526066,13.5828555 0.0249526066,12.8347038 C0.0249526066,8.3493128 1.20988152,4.93507109 3.54668246,2.68731043 C6.41601896,-0.0726184834 9.94841232,0.031563981 10.0991943,0.0373222749 C10.8468128,0.0664336493 11.4293602,0.695900474 11.4002488,1.44351896 C11.3713507,2.19113744 10.7438033,2.77379147 9.99405213,2.74457346 C9.97688389,2.74425355 7.41412322,2.70138626 5.39381517,4.6699763 C3.62900474,6.38957346 2.73422986,9.13659953 2.73422986,12.8345972 C2.73433649,13.5830687 2.12790284,14.1893957 1.37964455,14.1893957 Z" id="Shape"></path>
                <path d="M18.4227014,53.6153673 L23.7558412,58.9486137 C25.6693009,60.8620735 28.7718483,60.8620735 30.6853081,58.9486137 C32.5987678,57.035154 32.5987678,53.9326066 30.6853081,52.0191469 L25.3521682,46.6859005 L18.4227014,53.6153673 Z" id="Shape"></path>
                <path d="M15.217891,15.9191232 C14.4695261,15.9191232 13.8631991,15.3125829 13.8631991,14.5644313 C13.8631991,10.0790403 15.048128,6.66479858 17.3849289,4.41671801 C20.2542654,1.6567891 23.7864455,1.76118483 23.9372275,1.76672986 C24.684846,1.79584123 25.2673934,2.42530806 25.238282,3.17292654 C25.2093839,3.92054502 24.580237,4.50341232 23.8320853,4.47398104 C23.8138507,4.47366114 21.2521564,4.43079384 19.231955,6.39938389 C17.4671445,8.11898104 16.5723697,10.8660071 16.5723697,14.5640047 C16.5725829,15.3127962 15.9661493,15.9191232 15.217891,15.9191232 Z" id="Shape"></path>
            </g>
            <ellipse id="Oval" fill="#C86D5C" cx="29.7222867" cy="44.4520024" rx="29.6870972" ry="26.267737"></ellipse>
            <path d="M29.7231398,62.0712085 C18.1222038,62.0712085 8.68404028,54.1672038 8.68404028,44.4517891 C8.68404028,34.7363744 18.1222038,26.8323697 29.7231398,26.8323697 C41.3240758,26.8323697 50.7622393,34.7363744 50.7622393,44.4517891 C50.7624526,54.1670972 41.3242891,62.0712085 29.7231398,62.0712085 Z" id="Shape" fill="#B24D40"></path>
            <path d="M29.7231398,53.4222512 C23.0068365,53.4222512 17.3327844,49.3143483 17.3327844,44.4517891 C17.3327844,39.5893365 23.0068365,35.481327 29.7231398,35.481327 C36.4394431,35.481327 42.1134953,39.5892299 42.1134953,44.4517891 C42.1134953,49.3143483 36.4394431,53.4222512 29.7231398,53.4222512 Z" id="Shape" fill="#C86D5C"></path>
            <path d="M63.5063033,11.9303318 C51.1140284,11.9303318 41.0683649,21.9759953 41.0683649,34.3681635 L41.0683649,45.1297749 C41.0683649,54.5758294 36.7856872,60.5909005 31.7824763,64.3953199 C29.1016706,66.4338626 30.5725948,70.7200592 33.9405569,70.7200592 L55.5604976,70.7200592 C72.3409123,70.7200592 85.9440284,57.1168365 85.9440284,40.3365284 L85.9440284,34.3683768 C85.9442417,21.9761019 75.8985782,11.9303318 63.5063033,11.9303318 Z" id="Shape" fill="#FFCE1C"></path>
            <g id="Group" transform="translate(30.390995, 11.836493)" fill="#FAA330">
                <path d="M6.81067536,52.558827 C11.8138863,48.7544076 16.096564,42.7393365 16.096564,33.293282 L16.096564,22.5316706 C16.096564,11.0569905 24.710545,1.59515403 35.8247986,0.257097156 C34.9365284,0.15014218 34.0325829,0.0938388626 33.1152014,0.0938388626 C20.7232464,0.0938388626 10.6773697,10.1395024 10.6773697,22.5316706 L10.6773697,33.293282 C10.6773697,42.7391232 6.39469194,48.7544076 1.39148104,52.558827 C-1.28932464,54.5973697 0.181599526,58.8835664 3.54956161,58.8835664 L8.96854265,58.8835664 C5.60079384,58.8834597 4.12986967,54.5971564 6.81067536,52.558827 Z" id="Shape"></path>
                <path d="M27.5266706,52.03141 C25.9251185,52.03141 24.3235664,51.4217773 23.1041943,50.2024052 L17.7708412,44.8691588 C17.2418246,44.3401422 17.2418246,43.4821564 17.7708412,42.9532464 C18.3000711,42.4242299 19.1578436,42.4242299 19.6867536,42.9532464 L25.02,48.2864929 C26.4022038,49.66891 28.6514573,49.6684834 30.0337678,48.2864929 C31.4157583,46.9042891 31.4157583,44.6551422 30.0335545,43.2727251 L24.7003081,37.9394787 C24.1712915,37.4104621 24.1712915,36.5524763 24.7003081,36.0235664 C25.2295379,35.4945498 26.0873104,35.4945498 26.6162204,36.0235664 L31.9494668,41.3568128 C34.3879976,43.7954502 34.3879976,47.7634479 31.9494668,50.2022986 C30.7299882,51.4219905 29.1283294,52.03141 27.5266706,52.03141 Z" id="Shape"></path>
            </g>
            <g id="Group" transform="translate(59.715640, 29.857820)" fill="#3B484A">
                <path d="M1.42560427,4.4571327 C0.677239336,4.4571327 0.0709123223,3.85059242 0.0709123223,3.10244076 L0.0709123223,1.42848341 C0.0709123223,0.680331754 0.677239336,0.0737914692 1.42560427,0.0737914692 C2.17396919,0.0737914692 2.78029621,0.680331754 2.78029621,1.42848341 L2.78029621,3.10244076 C2.78029621,3.85048578 2.17396919,4.4571327 1.42560427,4.4571327 Z" id="Shape"></path>
                <path d="M19.9236967,4.4571327 C19.1753318,4.4571327 18.5690047,3.85059242 18.5690047,3.10244076 L18.5690047,1.42848341 C18.5690047,0.680331754 19.1753318,0.0737914692 19.9236967,0.0737914692 C20.6720616,0.0737914692 21.2783886,0.680331754 21.2783886,1.42848341 L21.2783886,3.10244076 C21.2783886,3.85048578 20.6718483,4.4571327 19.9236967,4.4571327 Z" id="Shape"></path>
                <path d="M10.6747038,5.35052133 C9.39401659,5.35052133 8.19010664,4.81340047 7.3717891,3.87725118 C6.87945498,3.3138981 6.93693128,2.45804502 7.50028436,1.9657109 C8.06342417,1.47337678 8.91927725,1.53063981 9.41182464,2.09409953 C9.71552133,2.44162322 10.1757583,2.64081754 10.6744905,2.64081754 C11.1732227,2.64081754 11.6335664,2.44140995 11.937263,2.09388626 C12.4298104,1.53063981 13.2856635,1.47316351 13.8488033,1.96592417 C14.4119431,2.45825829 14.4696327,3.31432464 13.9769787,3.87746445 C13.1587678,4.81361374 11.9550711,5.35052133 10.6747038,5.35052133 Z" id="Shape"></path>
            </g>
            <g id="Group" transform="translate(64.194313, 0.000000)" fill="#FFCE1C">
                <circle id="Oval" cx="3.54241706" cy="3.52407583" r="3.45007109"></circle>
                <circle id="Oval" cx="17.3807701" cy="5.25273697" r="3.45007109"></circle>
            </g>
        </g>
    </g>
</svg>