<?xml version="1.0" encoding="UTF-8"?>
<svg width="100px" height="100px" viewBox="0 0 100 100" version="1.1" xmlns="http://www.w3.org/2000/svg" xmlns:xlink="http://www.w3.org/1999/xlink">
    <!-- Generator: Sketch 51.1 (57501) - http://www.bohemiancoding.com/sketch -->
    <title>042-wall</title>
    <desc>Created with Sketch.</desc>
    <defs></defs>
    <g id="042-wall" stroke="none" stroke-width="1" fill="none" fill-rule="evenodd">
        <rect id="Rectangle" x="0" y="0" width="100" height="100"></rect>
        <g transform="translate(10.000000, 17.000000)" fill-rule="nonzero">
            <path d="M76.5172954,53.2458363 L77.6957533,51.8358244 L77.6957533,40.4558956 L76.8387189,38.8909134 L77.6957533,38.0446975 L77.6957533,11.7405457 L53.7104626,11.7405457 L26.2472123,11.7405457 L2.26182681,11.7405457 L2.26182681,38.0448873 L3.41589561,39.4214947 L2.26182681,40.4558956 L2.26182681,51.8358244 L3.11364176,52.9690154 L2.26182681,54.2470225 L2.26182681,59.5864294 C2.26182681,62.7205694 4.80237248,65.2611151 7.93651246,65.2611151 L25.0413286,65.2611151 L26.2815658,64.4448873 L27.4527165,65.2611151 L52.5046738,65.2611151 L53.4489205,64.2841281 L54.9158719,65.2611151 L72.0210676,65.2611151 C75.1551127,65.2611151 77.6957533,62.7205694 77.6957533,59.5864294 L77.6957533,54.2472123 L76.5172954,53.2458363 Z" id="Shape" fill="#FF5E6B"></path>
            <path d="M10.2995018,59.5865243 L10.2995018,11.7407355 L2.26182681,11.7407355 L2.26182681,38.0450771 L3.41589561,39.4216845 L2.26182681,40.4560854 L2.26182681,51.8360142 L3.11364176,52.9692052 L2.26182681,54.2472123 L2.26182681,59.5866192 C2.26182681,62.7207592 4.80237248,65.2613049 7.93651246,65.2613049 L15.9741874,65.2613049 C12.8401423,65.2613049 10.2995018,62.7206643 10.2995018,59.5865243 Z" id="Shape" fill="#E63E4C"></path>
            <path d="M77.6957533,40.4562752 L77.6957533,38.0448873 L54.9160617,38.0448873 L54.9160617,11.7407355 L52.5046738,11.7407355 L52.5046738,38.0448873 L27.4528114,38.0448873 L27.4528114,11.7407355 L25.0414235,11.7407355 L25.0414235,38.0448873 L2.26182681,38.0448873 L2.26182681,40.4562752 L11.3080902,40.4562752 L11.3080902,51.8360142 L2.26182681,51.8360142 L2.26182681,54.2474021 L25.0416133,54.2474021 L25.0416133,65.2616845 L27.4530012,65.2616845 L27.4530012,54.2473072 L52.5048636,54.2473072 L52.5048636,65.2615896 L54.9162515,65.2615896 L54.9162515,54.2473072 L77.696038,54.2473072 L77.696038,51.8359193 L68.6497746,51.8359193 L68.6497746,40.4562752 L77.696038,40.4562752 L77.6957533,40.4562752 Z M13.7193832,40.4562752 L38.7731435,40.4562752 L38.7731435,51.8360142 L13.7193832,51.8360142 L13.7193832,40.4562752 Z M66.2381969,51.8358244 L41.1844365,51.8358244 L41.1844365,40.4560854 L66.2381969,40.4560854 L66.2381969,51.8358244 Z" id="Shape" fill="#F0F0F0"></path>
            <g id="Group" transform="translate(2.182681, 37.959668)" fill="#D9D9D9">
                <rect id="Rectangle-path" x="0.0791459075" y="13.8761566" width="8.03767497" height="2.4113879"></rect>
                <rect id="Rectangle-path" x="0.0791459075" y="0.085029656" width="8.03767497" height="2.4113879"></rect>
            </g>
            <path d="M0.031316726,20.4075919 C0.031316726,22.8589324 2.01850534,24.846121 4.46984579,24.846121 C6.92118624,24.846121 8.90837485,22.8589324 8.90837485,20.4075919 L8.90837485,22.7518861 C8.90837485,25.2032266 10.8955635,27.1904152 13.3469039,27.1904152 C15.7982444,27.1904152 17.785433,25.2032266 17.785433,22.7518861 L17.785433,25.0961803 C17.785433,27.5475208 19.7726216,29.5347094 22.223962,29.5347094 C24.6753025,29.5347094 26.6624911,27.5475208 26.6624911,25.0961803 L26.6624911,27.4404745 C26.6624911,29.8918149 28.6496797,31.8790036 31.1010202,31.8790036 C33.5523606,31.8790036 35.5395492,29.8918149 35.5395492,27.4404745 L35.5395492,29.7847687 C35.5395492,32.2361091 37.5267378,34.2232977 39.9780783,34.2232977 C42.4294187,34.2232977 44.4166074,32.2361091 44.4166074,29.7847687 L44.4166074,27.4404745 C44.4166074,29.8918149 46.403796,31.8790036 48.8551364,31.8790036 C51.3064769,31.8790036 53.2936655,29.8918149 53.2936655,27.4404745 L53.2936655,25.0960854 C53.2936655,27.5474259 55.2808541,29.5346145 57.7321945,29.5346145 C60.183535,29.5346145 62.1707236,27.5474259 62.1707236,25.0960854 L62.1707236,22.751981 C62.1707236,25.2033215 64.1579122,27.1905101 66.6092527,27.1905101 C69.0605931,27.1905101 71.0477817,25.2033215 71.0477817,22.751981 L71.0477817,20.4076868 C71.0477817,22.8590273 73.0349703,24.8462159 75.4863108,24.8462159 C77.9376512,24.8462159 79.9248399,22.8590273 79.9248399,20.4076868 L79.9248399,6.148707 C79.9248399,2.76327402 77.1804508,0.0189798339 73.7951127,0.0189798339 L6.16104389,0.0189798339 C2.77561091,0.0187900356 0.031316726,2.76336892 0.031316726,6.148707 L0.031316726,20.4075919 Z" id="Shape" fill="#2FC8B4"></path>
            <path d="M8.0689917,20.4075919 L8.0689917,6.1485172 C8.0689917,2.76308422 10.8133808,0.0187900356 14.1987189,0.0187900356 L6.16104389,0.0187900356 C2.77561091,0.0187900356 0.031316726,2.76327402 0.031316726,6.148707 L0.031316726,20.4077817 C0.031316726,22.8591222 2.01850534,24.8463108 4.46984579,24.8463108 C6.24730724,24.8463108 7.77983393,23.8012811 8.48882562,22.2924792 C8.21988138,21.7200474 8.0689917,21.0816607 8.0689917,20.4075919 Z" id="Shape" fill="#00AE95"></path>
            <path d="M20.6411388,12.8744958 C22.7221827,10.8460261 21.5738078,7.31207592 18.6980783,6.89423488 C17.4120996,4.28839858 13.696038,4.28839858 12.4099644,6.89423488 C9.53423488,7.31198102 8.38604982,10.8462159 10.4669039,12.8744958 C9.97570581,15.7387426 12.9819217,17.922847 15.5539739,16.5705338 C18.126121,17.922847 21.1325267,15.7387426 20.6411388,12.8744958 Z" id="Shape" fill="#FF5E6B"></path>
            <circle id="Oval" fill="#FAA330" cx="15.5536892" cy="10.9607592" r="1.9890866"></circle>
            <path d="M59.3165362,12.8744958 C57.2354923,10.8460261 58.3838671,7.31207592 61.2595967,6.89423488 C62.5455753,4.28839858 66.261637,4.28839858 67.5477106,6.89423488 C70.4234401,7.31198102 71.5718149,10.8462159 69.4907711,12.8744958 C69.9819692,15.7387426 66.9757533,17.922847 64.4037011,16.5705338 C61.8314591,17.922847 58.8251483,15.7387426 59.3165362,12.8744958 Z" id="Shape" fill="#FF5E6B"></path>
            <circle id="Oval" fill="#FAA330" cx="64.4038909" cy="10.9607592" r="1.9890866"></circle>
            <path d="M45.0660024,18.5059075 C47.1470463,16.4774377 45.9986714,12.9434875 43.1229419,12.5256465 C41.8369632,9.9198102 38.1209015,9.9198102 36.834828,12.5256465 C33.9590985,12.9433926 32.8109134,16.4776275 34.8915777,18.5059075 C34.4003796,21.3701542 37.4065955,23.5542586 39.9786477,22.2019454 C42.5510795,23.5540688 45.5571056,21.3700593 45.0660024,18.5059075 Z" id="Shape" fill="#FF5E6B"></path>
            <circle id="Oval" fill="#FAA330" cx="39.9788375" cy="16.591981" r="1.9890866"></circle>
        </g>
    </g>
</svg>