<?xml version="1.0" encoding="UTF-8"?>
<svg width="100px" height="100px" viewBox="0 0 100 100" version="1.1" xmlns="http://www.w3.org/2000/svg" xmlns:xlink="http://www.w3.org/1999/xlink">
    <!-- Generator: Sketch 51.1 (57501) - http://www.bohemiancoding.com/sketch -->
    <title>043-bucket</title>
    <desc>Created with Sketch.</desc>
    <defs></defs>
    <g id="043-bucket" stroke="none" stroke-width="1" fill="none" fill-rule="evenodd">
        <rect id="Rectangle" x="0" y="0" width="100" height="100"></rect>
        <g transform="translate(14.000000, 6.000000)" fill-rule="nonzero">
            <path d="M63.5989169,33.6152684 C62.1250736,33.6152684 60.9303848,32.4203705 60.9303848,30.9467363 L60.9303848,30.599753 C60.9303848,16.6699382 49.5976152,5.33727316 35.667905,5.33727316 C21.7380903,5.33727316 10.4054252,16.6700428 10.4054252,30.599753 L10.4054252,30.9467363 C10.4054252,32.4205796 9.21052732,33.6152684 7.73689311,33.6152684 C6.26325891,33.6152684 5.06836105,32.4203705 5.06836105,30.9467363 L5.06836105,30.599753 C5.06794299,13.7268504 18.7950024,0 35.667696,0 C52.5401805,0 66.2674489,13.7268504 66.2674489,30.599753 L66.2674489,30.9467363 C66.2674489,32.4204751 65.0725511,33.6152684 63.5989169,33.6152684 Z" id="Shape" fill="#D9D9D9"></path>
            <polygon id="Shape" fill="#42C3E2" points="57.0325701 80.8723135 67.7068029 34.5047791 35.667696 30.9467363 3.62858907 34.5047791 14.3028219 80.8723135 35.667696 84.4302518"></polygon>
            <polygon id="Shape" fill="#00A6C8" points="21.3843135 80.8723135 10.7100808 34.5047791 39.2085986 31.3399145 35.667696 30.9467363 3.62858907 34.5047791 14.3028219 80.8723135 35.667696 84.4302518 39.2085986 83.8406936"></polygon>
            <g id="Group" transform="translate(20.171021, 53.824228)" fill="#3B484A">
                <path d="M1.39639905,5.21635154 C0.663135392,5.21635154 0.0686650831,4.62188124 0.0686650831,3.88861758 L0.0686650831,1.33661758 C0.0686650831,0.603353919 0.663135392,0.00888361045 1.39639905,0.00888361045 C2.12966271,0.00888361045 2.72413302,0.603353919 2.72413302,1.33661758 L2.72413302,3.88861758 C2.72423753,4.62198575 2.12966271,5.21635154 1.39639905,5.21635154 Z" id="Shape"></path>
                <path d="M29.5970546,5.21635154 C28.863791,5.21635154 28.2693207,4.62188124 28.2693207,3.88861758 L28.2693207,1.33661758 C28.2693207,0.603353919 28.863791,0.00888361045 29.5970546,0.00888361045 C30.3303183,0.00888361045 30.9247886,0.603353919 30.9247886,1.33661758 L30.9247886,3.88861758 C30.9246841,4.62198575 30.3303183,5.21635154 29.5970546,5.21635154 Z" id="Shape"></path>
                <path d="M15.4966746,6.57847031 C13.7570546,6.57847031 12.124247,5.85168646 11.0166176,4.58467458 C10.5340808,4.03253207 10.5902043,3.19371021 11.1424513,2.7111734 C11.6944893,2.22863658 12.5332067,2.2847601 13.0159525,2.83700713 C13.6192019,3.5272114 14.5231354,3.92279335 15.4964656,3.92279335 C16.4696912,3.92279335 17.3738337,3.5272114 17.9767696,2.83700713 C18.4595154,2.28486461 19.2983373,2.22842755 19.8502708,2.7111734 C20.4024133,3.19371021 20.4589549,4.03253207 19.9761045,4.58467458 C18.8691021,5.85179097 17.2362945,6.57847031 15.4966746,6.57847031 Z" id="Shape"></path>
            </g>
            <g id="Group" transform="translate(5.016627, 22.052257)" fill="#B3B3B3">
                <path d="M55.9135487,8.54749644 L55.9135487,8.89447981 C55.9135487,10.368323 57.1084466,11.5630119 58.5820808,11.5630119 C60.055924,11.5630119 61.2506128,10.368114 61.2506128,8.89447981 L61.2506128,8.54749644 C61.2506128,5.59092637 60.8276485,2.73165796 60.0416057,0.0251876485 L54.4328076,0.0251876485 C55.3902518,2.68901663 55.9135487,5.55810926 55.9135487,8.54749644 Z" id="Shape"></path>
                <path d="M2.72005701,11.5630119 C4.19390024,11.5630119 5.38858907,10.368114 5.38858907,8.89447981 L5.38858907,8.54749644 C5.38858907,5.55810926 5.91188599,2.68901663 6.86922565,0.0251876485 L1.26042755,0.0251876485 C0.474384798,2.73155344 0.0514204276,5.59092637 0.0514204276,8.54749644 L0.0514204276,8.89447981 C0.0513159145,10.3682185 1.24621378,11.5630119 2.72005701,11.5630119 Z" id="Shape"></path>
            </g>
            <path d="M67.7068029,27.3884846 L3.62858907,27.3884846 C1.66342993,27.3884846 0.0703372922,28.9815772 0.0703372922,30.9467363 C0.0703372922,32.9118955 1.66342993,34.5049881 3.62858907,34.5049881 L67.7069074,34.5049881 C69.6720665,34.5049881 71.2651591,32.9118955 71.2651591,30.9467363 C71.2650546,28.9815772 69.671962,27.3884846 67.7068029,27.3884846 Z" id="Shape" fill="#00A6C8"></path>
            <path d="M7.152038,30.9467363 C7.152038,28.9815772 8.74513064,27.3884846 10.7102898,27.3884846 L3.62858907,27.3884846 C1.66342993,27.3884846 0.0703372922,28.9815772 0.0703372922,30.9467363 C0.0703372922,32.9118955 1.66342993,34.5049881 3.62858907,34.5049881 L10.7100808,34.5049881 C8.74492162,34.5047791 7.152038,32.911791 7.152038,30.9467363 Z" id="Shape" fill="#0095B3"></path>
            <path d="M57.0325701,80.8723135 L14.3028219,80.8723135 C12.3376627,80.8723135 10.7445701,82.4654062 10.7445701,84.4305653 C10.7445701,86.3957245 12.3376627,87.9886081 14.3028219,87.9886081 L57.0324656,87.9886081 C58.9976247,87.9886081 60.5907173,86.3955154 60.5907173,84.4303563 C60.5908219,82.4653017 58.9975202,80.8723135 57.0325701,80.8723135 Z" id="Shape" fill="#00A6C8"></path>
            <path d="M17.8262708,84.4302518 C17.8262708,82.4650926 19.4193634,80.872 21.3845226,80.872 L14.3030309,80.872 C12.3378717,80.872 10.7447791,82.4650926 10.7447791,84.4302518 C10.7447791,86.3954109 12.3378717,87.9885036 14.3030309,87.9885036 L21.3845226,87.9885036 C19.4193634,87.9885036 17.8262708,86.3954109 17.8262708,84.4302518 Z" id="Shape" fill="#0095B3"></path>
        </g>
    </g>
</svg>