<?xml version="1.0" encoding="UTF-8"?>
<svg width="100px" height="100px" viewBox="0 0 100 100" version="1.1" xmlns="http://www.w3.org/2000/svg" xmlns:xlink="http://www.w3.org/1999/xlink">
    <!-- Generator: Sketch 51.1 (57501) - http://www.bohemiancoding.com/sketch -->
    <title>044-chainsaw</title>
    <desc>Created with Sketch.</desc>
    <defs></defs>
    <g id="044-chainsaw" stroke="none" stroke-width="1" fill="none" fill-rule="evenodd">
        <rect id="Rectangle" x="0" y="0" width="100" height="100"></rect>
        <g transform="translate(4.000000, 4.000000)" fill-rule="nonzero">
            <polygon id="Shape" fill="#3B484A" points="6.73818052 50.8621235 10.9587078 50.1301663 12.856399 44.7440143 10.711772 45.2870546"></polygon>
            <path d="M26.6909264,78.4057435 L21.4657197,78.7257767 L15.9755487,84.2159477 C14.7265558,85.4649406 12.6941425,85.4649406 11.4451496,84.2159477 L7.80568646,80.5764846 C6.98872209,79.7595202 6.67852257,78.58581 6.97703088,77.4794062 L11.1360428,68.3960998 L11.7777482,62.5804323 L5.97715914,63.2373254 L0.662356295,74.8450594 C0.607505938,74.9650309 0.559539192,75.088171 0.518783848,75.2139335 C-0.651320665,78.8221473 0.287909739,82.7298527 2.97011401,85.4121663 L6.6095772,89.0517387 C10.5246033,92.9667648 16.8953302,92.9667648 20.8106841,89.0517387 L26.3008551,83.5615677 L26.6909264,78.4057435 Z" id="Shape" fill="#B3B3B3"></path>
            <g id="Group" transform="translate(36.384798, 0.000000)" fill="#999999">
                <path d="M44.0755392,0.190118765 L43.9555677,0.160508314 C41.0329834,-0.561724466 38.0786033,1.22178622 37.356152,4.14437055 L42.7676532,5.48175772 L44.0755392,0.190118765 Z" id="Shape"></path>
                <path d="M55.2143135,14.3400903 L55.1808789,14.2211021 C54.3653349,11.3231021 51.3549026,9.63519715 48.4573397,10.4508504 L49.9673634,15.8166793 L55.2143135,14.3400903 Z" id="Shape"></path>
                <path d="M1.78351069,26.0315202 L1.69620903,26.1188219 C-0.432465558,28.2474964 -0.432465558,31.6988076 1.69620903,33.8274822 L4.12961995,36.2608931 L8.07130641,32.3192067 L1.78351069,26.0315202 Z" id="Shape"></path>
                <path d="M10.1409786,17.6738337 L10.053677,17.7611354 C7.92500238,19.88981 7.92500238,23.3411211 10.053677,25.4697957 L12.4870879,27.9032067 L16.4287743,23.9615202 L10.1409786,17.6738337 Z" id="Shape"></path>
                <path d="M18.4984466,9.31647506 L18.4111449,9.40377672 C16.2824703,11.5324513 16.2824703,14.9837625 18.4111449,17.1124371 L20.8445558,19.545848 L24.7862423,15.6041615 L18.4984466,9.31647506 Z" id="Shape"></path>
                <path d="M26.8558052,0.959007126 L26.7685036,1.04630879 C24.639829,3.17498337 24.639829,6.62629454 26.7685036,8.75496912 L29.2019145,11.18838 L33.143601,7.24669359 L26.8558052,0.959007126 Z" id="Shape"></path>
                <path d="M49.5998005,31.586266 L49.6871021,31.4989644 C51.8157767,29.3702898 51.8157767,25.9189786 49.6871021,23.790304 L47.2536912,21.3568931 L43.312114,25.2985796 L49.5998005,31.586266 Z" id="Shape"></path>
                <path d="M41.2422233,39.943734 L41.3295249,39.8564323 C43.4581995,37.7277577 43.4581995,34.2764466 41.3295249,32.147772 L38.896114,29.714361 L34.9544276,33.6560475 L41.2422233,39.943734 Z" id="Shape"></path>
                <path d="M32.8849739,48.3012019 L32.9722755,48.2139002 C35.1009501,46.0852257 35.1009501,42.6339145 32.9722755,40.5052399 L30.5388646,38.071829 L26.5971781,42.0135154 L32.8849739,48.3012019 Z" id="Shape"></path>
                <path d="M24.5275059,56.6585606 L24.6148076,56.5712589 C26.7434822,54.4425843 26.7434822,50.9912732 24.6148076,48.8625986 L22.1813967,46.4291876 L18.2397102,50.3708741 L24.5275059,56.6585606 Z" id="Shape"></path>
            </g>
            <path d="M82.9094822,7.9760285 C77.6690879,2.7356342 69.1727458,2.7356342 63.9324608,7.9760285 L34.1809501,37.7274299 L36.827753,54.0576485 L53.1579715,56.7044513 L82.9093729,26.9530499 C88.1497672,21.7125463 88.1497672,13.2162043 82.9094822,7.9760285 Z" id="Shape" fill="#B3B3B3"></path>
            <path d="M78.5542328,12.3311686 C75.7236485,9.50058432 71.1181853,9.50058432 68.2877102,12.3311686 L38.5360903,42.0824608 L39.8697625,51.0155297 L48.8028314,52.3492019 L78.5542328,22.5978005 C81.3847078,19.7671069 81.3847078,15.1616437 78.5542328,12.3311686 Z" id="Shape" fill="#D9D9D9"></path>
            <g id="Group" transform="translate(3.496437, 34.418052)" fill="#999999">
                <polygon id="Shape" points="5.17352494 39.3644181 7.63971496 33.978266 8.28152969 28.1625986 2.48104988 28.8193824 0.0147505938 34.205753"></polygon>
                <polygon id="Shape" points="18.8784656 53.0693587 22.8047458 49.1431876 23.1944893 43.9876912 17.9692827 44.3077245 14.0431116 48.2342233"></polygon>
                <polygon id="Shape" points="33.956304 0.0372589074 33.956304 0.0372589074 30.6845131 3.30937767 33.3313159 19.6394869 49.6614252 22.2861805 52.9334347 19.0144988"></polygon>
            </g>
            <polygon id="Shape" fill="#B3B3B3" points="41.808209 38.8105606 38.5360903 42.0824608 39.869981 51.0155297 48.8028314 52.3490926 52.0747316 49.0773017"></polygon>
            <path d="M34.1809501,37.7274299 C30.2299762,33.7764561 23.8240665,33.7764561 19.8730926,37.7274299 L3.85580523,53.7446081 C1.82022328,55.78019 1.82022328,59.0803895 3.85580523,61.1160808 L26.3009644,83.5612399 L53.1578622,56.7042328 L34.1809501,37.7274299 Z" id="Shape" fill="#FAA330"></path>
            <path d="M8.29780998,58.1863943 L24.3149881,42.1692162 C28.265962,38.2182423 34.6718717,38.2182423 38.6228456,42.1692162 L34.1808409,37.7272114 C30.229867,33.7762375 23.8239572,33.7762375 19.8729834,37.7272114 L3.85580523,53.7443895 C1.82022328,55.7799715 1.82022328,59.080171 3.85580523,61.1158622 L8.29780998,65.557867 C6.26222803,63.5223943 6.26222803,60.2221948 8.29780998,58.1863943 Z" id="Shape" fill="#F09318"></path>
            <g id="Group" transform="translate(2.294537, 17.045131)" fill="#3B484A">
                <path d="M4.44364371,33.8169929 L0.278840855,12.6824513 C-0.267149644,9.91152494 0.29839905,7.09405226 1.87168646,4.74848931 C3.44497387,2.40292637 5.83741093,0.810627078 8.60822803,0.26463658 C11.3791544,-0.281572447 14.1966271,0.284194774 16.5424086,1.85737292 C18.8880808,3.43055107 20.4802708,5.82309739 21.0262613,8.59391449 L26.1470119,34.5784513 C26.5307458,36.5250926 25.2636152,38.4142613 23.3165368,38.7979952 C21.369677,39.1819477 19.480399,37.9148171 19.0967743,35.9676295 L13.9760238,9.9832019 C13.6146888,8.15085036 11.8297577,6.95375772 9.99751544,7.31465558 C9.10963895,7.48969596 8.34315439,7.99984798 7.83901188,8.75125416 C7.33508789,9.5027696 7.15381948,10.4056152 7.32875059,11.2931639 L10.561753,27.6989929 L4.44364371,33.8169929 Z" id="Shape"></path>
                <path d="M25.9942613,56.2457625 C25.6390451,56.2457625 25.2837197,56.1102755 25.0127458,55.8391924 C24.4706888,55.2971354 24.4706888,54.418 25.0127458,53.8760523 L34.8643943,44.0245131 C35.4064513,43.4824561 36.2855867,43.4824561 36.8274252,44.0245131 C37.3694822,44.5665701 37.3694822,45.4457055 36.8274252,45.9876532 L26.9757767,55.8391924 C26.7049121,56.1102755 26.349696,56.2457625 25.9942613,56.2457625 Z" id="Shape"></path>
                <path d="M21.575639,51.8269216 C21.2204228,51.8269216 20.8650974,51.6914347 20.5941235,51.4203515 C20.0520665,50.8782945 20.0520665,49.9991591 20.5941235,49.4572114 L26.9615724,43.0897625 C27.5036295,42.5477055 28.3827648,42.5477055 28.9246033,43.0897625 C29.4666603,43.6318195 29.4666603,44.5109549 28.9246033,45.0529026 L22.5571544,51.4203515 C22.2858527,51.6915439 21.9306366,51.8269216 21.575639,51.8269216 Z" id="Shape"></path>
            </g>
            <circle id="Oval" fill="#B3B3B3" cx="71.2959572" cy="19.5894442" r="2.74219002"></circle>
        </g>
    </g>
</svg>