<?xml version="1.0" encoding="UTF-8"?>
<svg width="100px" height="100px" viewBox="0 0 100 100" version="1.1" xmlns="http://www.w3.org/2000/svg" xmlns:xlink="http://www.w3.org/1999/xlink">
    <!-- Generator: Sketch 51.1 (57501) - http://www.bohemiancoding.com/sketch -->
    <title>045-plant</title>
    <desc>Created with Sketch.</desc>
    <defs></defs>
    <g id="045-plant" stroke="none" stroke-width="1" fill="none" fill-rule="evenodd">
        <rect id="Rectangle" x="0" y="0" width="100" height="100"></rect>
        <g transform="translate(9.000000, 5.000000)" fill-rule="nonzero">
            <path d="M20.1776366,0.843776722 C18.046924,6.38155582 19.9941093,13.8428979 25.5348812,19.3834561 C31.0756532,24.9240143 38.5367815,26.8714133 44.0745606,24.7407007 C46.2052732,19.2029216 44.2580879,11.7415796 38.7173159,6.20102138 C33.1765439,0.660463183 25.7154157,-1.28693587 20.1776366,0.843776722 Z" id="Shape" fill="#00AE95"></path>
            <path d="M44.9197268,27.3938836 C44.4202375,27.3938836 43.9395606,27.1172565 43.7022684,26.6393587 C43.6373872,26.5089549 37.3008314,13.9801425 25.2645606,7.785962 C24.5976841,7.44285036 24.3352732,6.62387173 24.6783848,5.95699525 C25.0216033,5.29011876 25.8404751,5.02770784 26.5073515,5.37081948 C39.3592874,11.9846437 45.86462,24.8861758 46.1353682,25.4322684 C46.4686461,26.1041686 46.1937292,26.9189786 45.521829,27.2520428 C45.3279335,27.3481354 45.1221734,27.3938836 44.9197268,27.3938836 Z" id="Shape" fill="#2FC8B4"></path>
            <path d="M20.7398694,42.1318646 C19.7087173,46.5792755 21.9907838,52.0560214 26.8051425,55.6853088 C31.6195012,59.3145962 37.5132185,59.9999644 41.5046437,57.7840618 C42.5357957,53.3366508 40.2537292,47.859905 35.4393705,44.2306176 C30.6251188,40.6014371 24.7316152,39.915962 20.7398694,42.1318646 Z" id="Shape" fill="#00AE95"></path>
            <path d="M42.2877078,60.0383373 C41.8544893,60.0383373 41.428753,59.8316152 41.1657007,59.446924 C41.0824347,59.3260333 34.9699169,50.5632185 25.2553682,47.1728266 C24.5472328,46.9257007 24.1735511,46.1512945 24.420677,45.4433729 C24.6675891,44.7354513 25.442209,44.3615558 26.1501306,44.6086817 C36.7466152,48.3068052 43.1403563,57.523361 43.4074703,57.9137173 C43.8308551,58.5327078 43.672019,59.377981 43.0529216,59.801152 C42.8183017,59.9614846 42.5517221,60.0383373 42.2877078,60.0383373 Z" id="Shape" fill="#2FC8B4"></path>
            <path d="M72.9761045,19.4270665 C74.888658,24.3979097 73.1408195,31.095 68.1674109,36.0681948 C63.1940024,41.0413895 56.497019,42.7893349 51.5262827,40.8768884 C49.6137292,35.9060451 51.3615677,29.2089549 56.3350831,24.2357601 C61.3084917,19.2625653 68.0056888,17.5145131 72.9761045,19.4270665 Z" id="Shape" fill="#00AE95"></path>
            <g id="Group" transform="translate(36.876485, 22.339667)" fill="#2FC8B4">
                <path d="M13.8914252,21.0567933 C13.6885511,21.0567933 13.482791,21.011152 13.2888955,20.9147387 C12.6175297,20.5813539 12.3429335,19.7676128 12.6759976,19.0958195 C12.91981,18.6040261 18.7786817,6.98429929 30.3550119,1.02698337 C31.0219952,0.683764846 31.840867,0.94628266 32.1839786,1.61315914 C32.5270903,2.28003563 32.2646793,3.09880048 31.5978029,3.44212589 C20.8352138,8.9807601 15.1653207,20.190677 15.1092043,20.3031235 C14.8713777,20.78038 14.3909145,21.0567933 13.8914252,21.0567933 Z" id="Shape"></path>
                <path d="M0.967553444,59.1536223 C0.48195962,56.2504276 0.160332542,53.3338717 0.0506650831,50.3912352 C-0.162684086,44.6722803 0.890486936,38.8432304 3.60716152,33.7711639 C5.43912114,30.3505226 7.74534442,27.2025534 9.44251781,23.7067696 C11.4153563,19.6431948 10.6058907,15.1534561 9.11714964,11.0897743 C8.06964371,8.23457245 6.70467933,5.51650831 5.29332542,2.82719715 L5.27643705,2.79523753 C4.78710214,1.86317102 5.14624703,0.710914489 6.0786342,0.221579572 C6.95266033,-0.236971496 8.02485748,0.0573990499 8.55790974,0.863230404 C10.3467933,3.56814727 12.0549762,6.3633848 13.3856295,9.32686461 C15.2901663,13.5686223 16.5508076,18.226924 15.5414608,22.8784917 C14.4950238,27.7028979 11.2619715,31.576639 9.21174584,35.9696437 C7.27738717,40.115095 6.5736342,44.6733492 6.6508076,49.222304 C6.70104513,52.1958314 7.08488124,55.1515083 7.54963183,58.0849525 C7.83748219,59.903658 6.59672209,61.6115202 4.77790974,61.8994774 C2.96893112,62.1860451 1.26951306,60.959715 0.967553444,59.1536223 Z" id="Shape"></path>
            </g>
            <path d="M37.844038,81.4932898 C38.1462114,83.2995962 39.8454157,84.5254988 41.6542874,84.2393587 C43.4729929,83.9515083 44.7138599,82.2436461 44.4260095,80.4248337 C43.9616865,77.4912827 43.5778504,74.5353919 43.5271853,71.5621853 C43.5132898,70.7405344 43.5257957,69.9184561 43.5653444,69.0987292 C42.6405463,68.9967577 41.7014252,68.9442755 40.753753,68.9442755 C39.4689549,68.9442755 38.20019,69.0413302 36.9609264,69.227209 C36.8957245,70.3949644 36.8835392,71.5651781 36.9270428,72.7307957 C37.036924,75.6734323 37.3583373,78.5899881 37.844038,81.4932898 Z" id="Shape" fill="#00AE95"></path>
            <path d="M81.4742637,89.9882423 C79.1015558,86.7400119 74.5030048,84.5156651 69.1933254,84.4382779 C66.6961995,80.8397743 61.6401663,78.3767458 55.8045962,78.3767458 C54.6973397,78.3767458 53.6193705,78.4678147 52.5803088,78.6359501 C49.8244062,76.0429454 45.5531473,74.3761283 40.7538599,74.3761283 C35.9545724,74.3761283 31.6833135,76.0430523 28.9274109,78.6359501 C27.8883492,78.4677078 26.8102732,78.3767458 25.7031235,78.3767458 C19.8675534,78.3767458 14.811734,80.8399881 12.3143943,84.4382779 C7.00471496,84.5155582 2.40605701,86.7400119 0.0336698337,89.9882423 L81.4742637,89.9882423 Z" id="Shape" fill="#C86D5C"></path>
            <path d="M25.7030166,78.3767458 C19.8674466,78.3767458 14.8116271,80.8399881 12.3142874,84.4382779 C7.00460808,84.5155582 2.40595012,86.7400119 0.0335629454,89.9882423 L24.1039667,89.9882423 C28.9202494,79.5223753 40.7538599,74.3761283 40.7538599,74.3761283 C35.9545724,74.3761283 31.6833135,76.0430523 28.9274109,78.6359501 C27.8883492,78.4680285 26.8102732,78.3767458 25.7030166,78.3767458 Z" id="Shape" fill="#B24D40"></path>
        </g>
    </g>
</svg>