<?xml version="1.0" encoding="UTF-8"?>
<svg width="100px" height="100px" viewBox="0 0 100 100" version="1.1" xmlns="http://www.w3.org/2000/svg" xmlns:xlink="http://www.w3.org/1999/xlink">
    <!-- Generator: Sketch 51.1 (57501) - http://www.bohemiancoding.com/sketch -->
    <title>046-mushroom</title>
    <desc>Created with Sketch.</desc>
    <defs></defs>
    <g id="046-mushroom" stroke="none" stroke-width="1" fill="none" fill-rule="evenodd">
        <rect id="Rectangle" x="0" y="0" width="100" height="100"></rect>
        <g transform="translate(9.000000, 11.000000)" fill-rule="nonzero">
            <path d="M66.8441044,62.4907117 C71.2168541,54.1315753 68.8513049,42.0437248 68.8513049,42.0437248 L66.8441044,37.0387094 L40.9783084,32.1448754 L15.1125125,37.4835326 L13.105312,42.0436275 C13.105312,42.0436275 10.7395682,54.1315753 15.1125125,62.4906145 L23.1926738,73.6673215 L60.118159,73.6673215 L66.8441044,62.4907117 Z" id="Shape" fill="#F0F0F0"></path>
            <path d="M19.6965362,42.0435302 L21.7037367,37.4834353 L44.417153,32.7952337 L40.9783084,32.1447782 L15.1125125,37.4834353 L13.105312,42.0435302 C13.105312,42.0435302 10.7395682,54.1314781 15.1125125,62.4905172 L23.1926738,73.6672242 L29.7836062,73.6672242 L21.7034448,62.4905172 C17.3305979,54.1317699 19.6965362,42.0435302 19.6965362,42.0435302 Z" id="Shape" fill="#D9D9D9"></path>
            <path d="M78.383051,65.5739312 C75.2177343,65.7508683 70.4962657,66.7506263 66.1562966,70.547917 C66.1562966,70.547917 66.5457722,67.8214899 68.4547284,65.0519715 C69.2826074,63.8510558 68.2810012,62.2411127 66.8439098,62.4904199 C62.6960522,63.2101329 56.5985789,65.0586833 52.6416655,69.8071934 C52.6416655,69.8071934 52.8901945,67.2399027 53.9962705,64.9300902 C54.5797058,63.7121518 53.5527117,62.3471388 52.2255374,62.5974187 C48.1291364,63.3701447 42.272605,65.1160735 40.9783084,68.8815563 C39.6840119,65.1160735 33.8274804,63.3699502 29.7308849,62.5974187 C28.4036133,62.3471388 27.3768138,63.7119573 27.9601518,64.9300902 C29.0665196,67.2399027 29.3147568,69.8071934 29.3147568,69.8071934 C25.3576489,65.0586833 19.2602728,63.2102301 15.1125125,62.4904199 C13.6754211,62.2411127 12.6738149,63.8509585 13.501694,65.0519715 C15.4106501,67.8212954 15.8001257,70.547917 15.8001257,70.547917 C11.4601566,66.7504318 6.73868802,65.7507711 3.57337129,65.5739312 C2.18948754,65.4966975 1.33816607,67.0541139 2.15417794,68.1742942 C3.31073784,69.7617675 4.29298695,71.6452384 5.04713405,73.3083891 C6.22772005,75.9113784 8.82039858,77.5827972 11.6786287,77.5827972 L70.2775991,77.5827972 C73.1358292,77.5827972 75.7284104,75.9113784 76.9090937,73.3083891 C77.6634353,71.6451412 78.6455872,69.7617675 79.8020498,68.1742942 C80.6183535,67.0541139 79.7669348,65.496503 78.383051,65.5739312 Z" id="Shape" fill="#2FC8B4"></path>
            <path d="M9.99047924,73.3085836 C9.2361376,71.6453357 8.25398577,69.761962 7.09752313,68.1744887 C6.59900593,67.49028 6.72322183,66.6433357 7.21065006,66.1049371 C5.87219217,65.7859834 4.63499407,65.6334614 3.57366311,65.5740285 C2.18977936,65.4966002 1.33845789,67.0542112 2.15446975,68.1743915 C3.31102966,69.7618648 4.29308422,71.6453357 5.04742586,73.3084864 C6.22801186,75.9114757 8.82069039,77.5828944 11.6789205,77.5828944 L16.6220712,77.5828944 C13.7637438,77.5829917 11.1710652,75.911573 9.99047924,73.3085836 Z" id="Shape" fill="#00AE95"></path>
            <path d="M57.4783037,2.00593594 C52.0625101,0.587520759 46.3553879,0.0289869514 40.9783084,0.0289869514 C35.6012289,0.0289869514 29.8940095,0.587520759 24.4783132,2.00593594 L18.4981495,7.41375326 L11.507917,7.79106999 C7.82754686,10.3749941 4.7124223,13.7266833 2.51369395,18.0154875 C-0.298623962,23.4976204 -1.15510083,30.8725623 2.25300593,36.301293 C7.3402159,44.4112195 17.1922776,42.0507284 24.997841,40.4867948 C29.1297461,39.6594021 33.3393713,39.3841234 37.5455919,39.2967734 C38.6885338,39.2726501 39.8333238,39.2628256 40.9780166,39.2628256 C42.1227094,39.2628256 43.2657485,39.2725528 44.4104413,39.2967734 C48.6166619,39.3842206 52.8264816,39.6594021 56.9581922,40.4867948 C64.7638529,42.0507284 74.6159146,44.411414 79.7030273,36.301293 C83.111134,30.8725623 82.2546572,23.4976204 79.4423393,18.0154875 C77.2439027,13.7266833 74.1287782,10.3751886 70.4486026,7.79097272 L63.4582728,7.41365599 L57.4783037,2.00593594 Z" id="Shape" fill="#FF5E6B"></path>
            <path d="M7.06697983,34.4305647 C3.00948754,27.9673499 4.02908897,19.1872218 7.37747094,12.6602942 C7.91966311,11.6025623 8.511172,10.5955089 9.14324318,9.63183867 C6.48986714,11.9134425 4.22382681,14.6797509 2.51379122,18.0153903 C-0.29852669,23.4975231 -1.15500356,30.872465 2.2531032,36.3011957 C6.4955089,43.064688 14.0519597,42.5456465 20.9717675,41.279656 C15.5153144,41.3007639 10.4211981,39.7775872 7.06697983,34.4305647 Z" id="Shape" fill="#E63E4C"></path>
            <g id="Group" transform="translate(25.679715, 48.927639)" fill="#3B484A">
                <path d="M1.2540261,5.0527758 C0.571373665,5.0527758 0.01828707,4.49949466 0.01828707,3.81703677 L0.01828707,1.27523132 C0.01828707,0.592773428 0.571373665,0.0394922894 1.2540261,0.0394922894 C1.93667853,0.0394922894 2.48976512,0.592773428 2.48976512,1.27523132 L2.48976512,3.81713405 C2.48995967,4.49939739 1.93648399,5.0527758 1.2540261,5.0527758 Z" id="Shape"></path>
                <path d="M29.3429656,5.0527758 C28.6603132,5.0527758 28.1072266,4.49949466 28.1072266,3.81703677 L28.1072266,1.27523132 C28.1072266,0.592773428 28.6603132,0.0394922894 29.3429656,0.0394922894 C30.025618,0.0394922894 30.5787046,0.592773428 30.5787046,1.27523132 L30.5787046,3.81713405 C30.5788019,4.49939739 30.025618,5.0527758 29.3429656,5.0527758 Z" id="Shape"></path>
                <path d="M15.2985931,6.40942349 C13.5908921,6.40942349 11.9883416,5.6964223 10.90172,4.45329063 C10.4526168,3.93940451 10.5050463,3.15870225 11.0189324,2.70959905 C11.5327212,2.26049585 12.3133262,2.31292527 12.762624,2.82700593 C13.3797153,3.53300356 14.3038932,3.93813998 15.2983986,3.93813998 C16.2926121,3.93813998 17.2169846,3.5331981 17.834465,2.82681139 C18.2835682,2.31292527 19.0641732,2.26059312 19.5781566,2.70989087 C20.0919454,3.15899407 20.1445694,3.93969632 19.6950771,4.45358244 C18.6086501,5.69661684 17.0060024,6.40942349 15.2985931,6.40942349 Z" id="Shape"></path>
            </g>
            <g id="Group" transform="translate(10.213523, 1.945433)" fill="#F0F0F0">
                <circle id="Oval" cx="30.7647853" cy="17.1439336" r="7.14956346"></circle>
                <circle id="Oval" cx="7.16425148" cy="26.2475872" r="7.14956346"></circle>
                <circle id="Oval" cx="54.3652218" cy="26.2475872" r="7.14956346"></circle>
                <path d="M15.2751507,3.72599051 C15.2751507,7.67492764 12.0743298,10.8759431 8.1251981,10.8759431 C4.91455279,10.8759431 2.19775563,8.75970107 1.29439383,5.84544247 C5.13487307,3.1465433 9.59059549,1.28281851 14.2648873,0.0603084223 C14.9058102,1.13233926 15.2751507,2.38548992 15.2751507,3.72599051 Z" id="Shape"></path>
                <path d="M60.235274,5.84544247 C59.3319122,8.75979834 56.6150178,10.8759431 53.4044698,10.8759431 C49.4555326,10.8759431 46.2545172,7.67512218 46.2545172,3.72599051 C46.2545172,2.38529537 46.6236631,1.13233926 47.2647805,0.0605029656 C51.9390724,1.28301305 56.3946975,3.1465433 60.235274,5.84544247 Z" id="Shape"></path>
            </g>
        </g>
    </g>
</svg>