<?xml version="1.0" encoding="UTF-8"?>
<svg width="100px" height="100px" viewBox="0 0 100 100" version="1.1" xmlns="http://www.w3.org/2000/svg" xmlns:xlink="http://www.w3.org/1999/xlink">
    <!-- Generator: Sketch 51.1 (57501) - http://www.bohemiancoding.com/sketch -->
    <title>047-carrot</title>
    <desc>Created with Sketch.</desc>
    <defs></defs>
    <g id="047-carrot" stroke="none" stroke-width="1" fill="none" fill-rule="evenodd">
        <rect id="Rectangle" x="0" y="0" width="100" height="100"></rect>
        <g transform="translate(9.000000, 8.000000)" fill-rule="nonzero">
            <ellipse id="Oval" fill="#00AE95" transform="translate(30.122433, 20.218598) rotate(116.616300) translate(-30.122433, -20.218598) " cx="30.1224327" cy="20.2185981" rx="9.0897843" ry="12.1200782"></ellipse>
            <path d="M35.248076,26.5625558 C35.0757862,26.5625558 34.9013017,26.5274394 34.734,26.4530166 C27.6813919,23.3184798 24.255848,18.780285 24.1132874,18.5885416 C23.6957815,18.0266793 23.8129026,17.2327696 24.3749644,16.8152637 C24.9361283,16.3984561 25.7292399,16.5145796 26.1467458,17.0751449 C26.1953302,17.1392922 29.3719667,21.2957957 35.7631496,24.1364323 C36.4027268,24.4207553 36.6909406,25.1698717 36.4067173,25.8094489 C36.1970166,26.2818242 35.73362,26.5625558 35.248076,26.5625558 Z" id="Shape" fill="#2FC8B4"></path>
            <ellipse id="Oval" fill="#00AE95" transform="translate(52.143688, 20.215696) rotate(63.383700) translate(-52.143688, -20.215696) " cx="52.143688" cy="20.2156962" rx="9.0897843" ry="12.1200782"></ellipse>
            <g id="Group" transform="translate(31.624703, 0.000000)" fill="#2FC8B4">
                <path d="M15.3868646,26.5625558 C14.9013207,26.5625558 14.4380238,26.281924 14.2281235,25.8096485 C13.9437007,25.1700713 14.2319145,24.4210546 14.8716912,24.1366318 C21.3224323,21.269658 24.4560713,17.1186413 24.4867981,17.0769406 C24.904304,16.5150784 25.6982138,16.3979572 26.260076,16.8152637 C26.8219382,17.2327696 26.9390594,18.0265796 26.521753,18.5885416 C26.3793919,18.7801853 22.953848,23.31838 15.9010404,26.4530166 C15.7335392,26.5274394 15.5587553,26.5625558 15.3868646,26.5625558 Z" id="Shape"></path>
                <ellipse id="Oval" cx="9.50506888" cy="12.6473872" rx="9.48551544" ry="12.6473872"></ellipse>
            </g>
            <path d="M41.129772,26.5621568 C40.429639,26.5621568 39.8623895,25.9947078 39.8623895,25.2947743 L39.8623895,10.3708076 C39.8623895,9.67087411 40.429639,9.10342518 41.129772,9.10342518 C41.829905,9.10342518 42.3971544,9.67087411 42.3971544,10.3708076 L42.3971544,25.2945748 C42.3972542,25.9948076 41.829905,26.5621568 41.129772,26.5621568 Z" id="Shape" fill="#00AE95"></path>
            <path d="M76.5463468,34.2023658 L5.71339667,34.2023658 C2.56090261,34.2023658 0.00528741093,36.757981 0.00528741093,39.9104751 L0.00528741093,67.1837387 C0.00528741093,74.4369691 4.73313064,80.8004181 11.6405843,83.0140475 C11.6787933,83.0262185 11.7170024,83.0386888 11.7551116,83.0512589 C15.5720238,84.3012827 19.6881235,84.3012827 23.5048361,83.0512589 C27.3217482,81.8012352 31.437848,81.8012352 35.2545606,83.0512589 C39.0714727,84.3012827 43.1875724,84.3012827 47.004285,83.0512589 C50.8211971,81.8012352 54.9372969,81.8012352 58.7540095,83.0512589 C62.5709216,84.3012827 66.6870214,84.3012827 70.503734,83.0512589 C70.541943,83.0387886 70.580152,83.0265178 70.6182613,83.0140475 C77.525715,80.8005178 82.2535582,74.4371686 82.2535582,67.1837387 L82.2535582,39.9106746 C82.2545558,36.7581805 79.6989406,34.2023658 76.5463468,34.2023658 Z" id="Shape" fill="#C86D5C"></path>
            <path d="M16.8249406,83.0515582 C16.7867316,83.0390879 16.7485226,83.0268171 16.7104133,83.0143468 C9.80295962,80.8009169 5.07511639,74.4374679 5.07511639,67.1842375 L5.07511639,39.9108741 C5.07511639,36.75838 7.63073159,34.2027648 10.7832257,34.2027648 L5.71339667,34.2027648 C2.56090261,34.2027648 0.00528741093,36.75838 0.00528741093,39.9108741 L0.00528741093,67.1841378 C0.00528741093,74.4373682 4.73313064,80.8008171 11.6405843,83.014247 C11.6787933,83.0265178 11.7170024,83.0388884 11.7551116,83.0514584 C14.4785273,83.9433349 17.3541805,84.1955344 20.1649881,83.8144418 C19.0364751,83.6616057 17.9181378,83.4095059 16.8249406,83.0515582 Z" id="Shape" fill="#B24D40"></path>
            <path d="M55.3602898,29.9026033 C52.6208124,24.234 47.3186366,21.5004086 41.1298717,21.5004086 C34.9411069,21.5004086 29.6389311,24.2338005 26.8993539,29.9026033 C23.6282423,36.6715867 22.3849026,46.3252019 25.1880285,53.4554252 C27.5320475,59.4171306 32.6840808,63.0504798 36.8165416,67.6484323 C37.5805226,68.4985083 38.42581,69.4840618 38.8655629,70.5916247 C39.229696,71.5089406 40.1424228,72.0901568 41.1294727,72.0901568 C42.1165226,72.0901568 43.0292494,71.5089406 43.3933824,70.5916247 C43.8331354,69.4838622 44.6786223,68.4985083 45.4424038,67.6484323 C49.5749644,63.0504798 54.7269976,59.4173302 57.0709169,53.4554252 C59.8747411,46.3252019 58.6313017,36.6715867 55.3602898,29.9026033 Z" id="Shape" fill="#FF8C4F"></path>
            <path d="M43.259601,70.5916247 C42.819848,69.4838622 41.974361,68.4983088 41.2105796,67.6482328 C37.078019,63.0502803 31.9259857,59.4171306 29.5820665,53.4552257 C26.7787411,46.3252019 28.0220808,36.6711876 31.2933919,29.9024038 C33.7024561,24.9173729 38.094,22.2031354 43.3269406,21.6209216 C42.6094489,21.5412114 41.8762945,21.5003088 41.1300713,21.5003088 C34.9413064,21.5003088 29.6391306,24.2337007 26.8995534,29.9025036 C23.6284418,36.6714869 22.3851021,46.3251021 25.188228,53.4553254 C27.532247,59.4172304 32.6842803,63.05038 36.8167411,67.6483325 C37.5807221,68.4984086 38.4260095,69.4837625 38.8657625,70.5917245 C39.2298955,71.5090404 40.1426223,72.0902565 41.1296722,72.0902565 C42.0610546,72.0902565 42.926095,71.57219 43.3265416,70.7428646 C43.3029976,70.6931829 43.2799525,70.6431021 43.259601,70.5916247 Z" id="Shape" fill="#EE6B28"></path>
            <g id="Group" transform="translate(30.327791, 40.503563)" fill="#3B484A">
                <path d="M1.31646556,4.34884561 C0.616332542,4.34884561 0.0490831354,3.78139667 0.0490831354,3.08146318 L0.0490831354,1.36465083 C0.0490831354,0.66471734 0.616332542,0.0972684086 1.31646556,0.0972684086 C2.01659857,0.0972684086 2.58384798,0.66471734 2.58384798,1.36465083 L2.58384798,3.08146318 C2.58394774,3.7815962 2.01659857,4.34884561 1.31646556,4.34884561 Z" id="Shape"></path>
                <path d="M20.2875962,4.34884561 C19.5874632,4.34884561 19.0202138,3.78139667 19.0202138,3.08146318 L19.0202138,1.36465083 C19.0202138,0.66471734 19.5874632,0.0972684086 20.2875962,0.0972684086 C20.9877292,0.0972684086 21.5549786,0.66471734 21.5549786,1.36465083 L21.5549786,3.08146318 C21.5549786,3.7815962 20.9874299,4.34884561 20.2875962,4.34884561 Z" id="Shape"></path>
                <path d="M10.801981,5.26536342 C9.52392399,5.26536342 8.32268409,4.72973872 7.50652732,3.79626128 C7.04572447,3.26921615 7.09949644,2.46852257 7.62664133,2.00791924 C8.15368646,1.54731591 8.95438005,1.60088836 9.41488361,2.12803325 C9.74948694,2.51092162 10.2550831,2.73059857 10.8018812,2.73059857 C11.3486793,2.73059857 11.8541758,2.51112114 12.1888789,2.12803325 C12.6493824,1.60098812 13.4503753,1.54711639 13.9771211,2.00791924 C14.5041663,2.46852257 14.5581378,3.26921615 14.0972352,3.79626128 C13.2812779,4.72973872 12.0801378,5.26536342 10.801981,5.26536342 Z" id="Shape"></path>
            </g>
            <g id="Group" transform="translate(5.187648, 43.695962)" fill="#DF8B78">
                <ellipse id="Oval" cx="10.0339097" cy="2.34591449" rx="3.31590499" ry="2.26101663"></ellipse>
                <ellipse id="Oval" cx="15.1308741" cy="26.0621473" rx="3.31590499" ry="2.26101663"></ellipse>
                <ellipse id="Oval" cx="3.89023753" cy="14.2041805" rx="3.80374347" ry="2.59352494"></ellipse>
                <ellipse id="Oval" cx="61.8502375" cy="2.34591449" rx="3.31590499" ry="2.26101663"></ellipse>
                <ellipse id="Oval" cx="56.7534727" cy="26.0621473" rx="3.31590499" ry="2.26101663"></ellipse>
                <ellipse id="Oval" cx="67.9949074" cy="14.2041805" rx="3.80374347" ry="2.59352494"></ellipse>
            </g>
        </g>
    </g>
</svg>