<?xml version="1.0" encoding="UTF-8"?>
<svg width="100px" height="100px" viewBox="0 0 100 100" version="1.1" xmlns="http://www.w3.org/2000/svg" xmlns:xlink="http://www.w3.org/1999/xlink">
    <!-- Generator: Sketch 51.1 (57501) - http://www.bohemiancoding.com/sketch -->
    <title>048-fern</title>
    <desc>Created with Sketch.</desc>
    <defs></defs>
    <g id="048-fern" stroke="none" stroke-width="1" fill="none" fill-rule="evenodd">
        <rect id="Rectangle" x="0" y="0" width="100" height="100"></rect>
        <g transform="translate(7.000000, 15.000000)" fill-rule="nonzero">
            <g id="Group" transform="translate(0.000000, 17.546856)" fill="#2FC8B4">
                <path d="M28.0402847,13.4720071 C19.8488612,5.75679715 10.5848351,1.03852906 2.98398577,0.0575373665 C1.21522183,-0.170775801 -0.252185053,1.38732384 0.0813072361,3.13925504 C1.5148446,10.6679786 6.77879953,19.6334021 14.969917,27.3486121 C24.3847236,36.2164057 35.216847,41.1248327 43.3120688,40.9498743 C43.0025504,32.8589371 37.4550913,22.3396987 28.0402847,13.4720071 Z" id="Shape"></path>
                <path d="M82.9701068,0.0575373665 C75.3689514,1.03832503 66.1051293,5.75659312 57.9138078,13.4720071 C48.4990012,22.3398007 42.9515421,32.8589371 42.6420237,40.9500783 C50.7371435,41.1250368 61.5692669,36.2164057 70.9841756,27.3488161 C79.1755991,19.6336062 84.4393499,10.6681827 85.8727853,3.13945907 C86.2062776,1.38732384 84.7387687,-0.170673784 82.9701068,0.0575373665 Z" id="Shape"></path>
            </g>
            <g id="Group" transform="translate(18.260973, 4.386714)" fill="#00AE95">
                <path d="M22.188306,22.8039763 C17.814242,12.4361305 11.247637,4.37620641 4.69153974,0.40684223 C3.16608541,-0.516816133 1.19379834,0.315231317 0.790934757,2.05247212 C-0.94059312,9.51825148 0.250450771,19.8463108 4.62451483,30.2139526 C9.65189324,42.1304104 17.5759312,50.998204 25.0509941,54.1101186 C28.0383464,46.5842515 27.2156845,34.7204342 22.188306,22.8039763 Z" id="Shape"></path>
                <path d="M48.6409063,2.05247212 C48.2379407,0.315231317 46.2657556,-0.516918149 44.7403013,0.40684223 C38.184204,4.37610439 31.6175991,12.4362325 27.243535,22.8039763 C22.2161566,34.7204342 21.3934947,46.5842515 24.380745,54.1102206 C31.8559098,50.998204 39.7798458,42.1305125 44.8072242,30.2140546 C49.1813903,19.8463108 50.3725362,9.51825148 48.6409063,2.05247212 Z" id="Shape"></path>
            </g>
            <g id="Group" transform="translate(24.688019, 0.000000)" fill="#2FC8B4">
                <path d="M18.2893333,58.9990605 C17.7839431,58.9990605 17.3034448,58.7014781 17.0945148,58.2064935 L0.152004745,18.0472479 C-0.12629656,17.3878126 0.182711744,16.6275848 0.842453144,16.3491815 C1.50239858,16.0708802 2.26232028,16.3800925 2.54051957,17.0396299 L19.4832337,57.1987734 C19.761535,57.8582088 19.4525267,58.6184365 18.7927853,58.8968399 C18.6282325,58.9663132 18.4574567,58.9990605 18.2893333,58.9990605 Z" id="Shape"></path>
                <path d="M18.2882112,58.9990605 C18.1202918,58.9990605 17.949516,58.9662112 17.7849632,58.8967378 C17.1255279,58.6184365 16.8164176,57.8584128 17.0945148,57.1986714 L34.0372289,17.0395279 C34.3155302,16.3800925 35.075758,16.0709822 35.7352954,16.3490795 C36.3947307,16.6273808 36.703841,17.3874045 36.4257438,18.0471459 L19.4830297,58.2063915 C19.2739976,58.7014781 18.7939075,58.9990605 18.2882112,58.9990605 Z" id="Shape"></path>
                <path d="M20.4056679,1.17074259 C19.3590795,-0.273200474 17.218669,-0.273200474 16.1721827,1.17074259 C11.6746785,7.37620878 8.75741163,17.3550652 8.75741163,28.6077011 C8.75741163,41.5413665 12.611293,52.79186 18.2890273,58.5647758 C23.9667616,52.79186 27.8206429,41.5413665 27.8206429,28.6077011 C27.8204389,17.3548612 24.903274,7.37620878 20.4056679,1.17074259 Z" id="Shape"></path>
            </g>
            <g id="Group" transform="translate(9.589561, 12.752076)" fill="#00AE95">
                <path d="M33.3872811,46.2465765 C32.6715326,46.2465765 32.0912622,45.666306 32.0912622,44.9505575 L32.0912622,1.36386002 C32.0912622,0.648111507 32.6715326,0.0678410439 33.3872811,0.0678410439 C34.1030297,0.0678410439 34.6833001,0.648111507 34.6833001,1.36386002 L34.6833001,44.9505575 C34.6835042,45.6664081 34.1031317,46.2465765 33.3872811,46.2465765 Z" id="Shape"></path>
                <path d="M33.0945955,46.4498956 C32.7758956,46.4498956 32.4566856,46.3331886 32.2062349,46.0973262 L0.477743772,16.2123772 C-0.0434590747,15.7215753 -0.0679430605,14.9012598 0.422858837,14.380261 C0.913660735,13.8592622 1.73397628,13.8347782 2.25497509,14.325376 L33.9834662,44.210223 C34.504669,44.7010249 34.529153,45.5213405 34.0383511,46.0423393 C33.7835136,46.3131934 33.4393096,46.4498956 33.0945955,46.4498956 Z" id="Shape"></path>
                <path d="M33.6800688,46.4498956 C33.3353547,46.4498956 32.9914567,46.3131934 32.7363132,46.0424413 C32.2455113,45.5214425 32.2700973,44.7011269 32.7911981,44.210325 L64.5197912,14.325376 C65.04079,13.8346762 65.8609015,13.8590581 66.3521115,14.380261 C66.8429134,14.9012598 66.8181234,15.7215753 66.2972266,16.2123772 L34.5684294,46.0971222 C34.3181827,46.3327805 33.9987687,46.4498956 33.6800688,46.4498956 Z" id="Shape"></path>
            </g>
            <path d="M2.7550605,44.3529442 L10.8001922,62.5562776 C12.8236916,67.134987 17.3581257,70.0882657 22.3640807,70.0882657 L23.5678766,70.0882657 L62.3862159,70.0882657 L63.5900119,70.0882657 C68.5957628,70.0882657 73.1301969,67.1347829 75.1539004,62.5562776 L83.199032,44.3529442 L42.9770463,40.0660024 L2.7550605,44.3529442 Z" id="Shape" fill="#FF5E6B"></path>
            <path d="M19.4406928,62.5563796 L11.3955611,44.3530463 L47.2972456,40.5265053 L42.9769442,40.0660024 L2.7550605,44.3528422 L10.8001922,62.5561756 C12.8236916,67.1348849 17.3581257,70.0880617 22.3640807,70.0880617 L23.5678766,70.0880617 L31.0046833,70.0880617 C25.9986263,70.0882657 21.4642942,67.1348849 19.4406928,62.5563796 Z" id="Shape" fill="#E63E4C"></path>
            <path d="M83.19893,35.7792645 L2.7550605,35.7792645 C1.3416204,35.7792645 0.195871886,36.925013 0.195871886,38.3384531 L0.195871886,41.7940617 C0.195871886,43.2075018 1.3416204,44.3532503 2.7550605,44.3532503 L83.19893,44.3532503 C84.6123701,44.3532503 85.7581186,43.2075018 85.7581186,41.7940617 L85.7581186,38.3384531 C85.7580166,36.924911 84.6123701,35.7792645 83.19893,35.7792645 Z" id="Shape" fill="#F0F0F0"></path>
            <path d="M8.83637248,41.7939597 L8.83637248,38.3383511 C8.83637248,36.9251151 9.982121,35.7791625 11.3955611,35.7791625 L2.7550605,35.7791625 C1.3416204,35.7791625 0.195871886,36.924911 0.195871886,38.3383511 L0.195871886,41.7939597 C0.195871886,43.2073998 1.3416204,44.3531483 2.7550605,44.3531483 L11.3955611,44.3531483 C9.982121,44.3529442 8.83637248,43.2072977 8.83637248,41.7939597 Z" id="Shape" fill="#D9D9D9"></path>
            <g id="Group" transform="translate(25.810202, 52.844603)" fill="#3B484A">
                <path d="M1.38008066,5.49114591 C0.664332147,5.49114591 0.0840616845,4.91087544 0.0840616845,4.19512693 L0.0840616845,1.33804982 C0.0840616845,0.622301305 0.664332147,0.0420308422 1.38008066,0.0420308422 C2.09582918,0.0420308422 2.67609964,0.622301305 2.67609964,1.33804982 L2.67609964,4.19512693 C2.67630368,4.91077343 2.0959312,5.49114591 1.38008066,5.49114591 Z" id="Shape"></path>
                <path d="M32.9532005,5.49114591 C32.237452,5.49114591 31.6571815,4.91087544 31.6571815,4.19512693 L31.6571815,1.33804982 C31.6571815,0.622301305 32.237452,0.0420308422 32.9532005,0.0420308422 C33.668949,0.0420308422 34.2492195,0.622301305 34.2492195,1.33804982 L34.2492195,4.19512693 C34.2494235,4.91077343 33.669051,5.49114591 32.9532005,5.49114591 Z" id="Shape"></path>
                <path d="M17.1666406,7.01609015 C15.2739265,7.01609015 13.4981234,6.22617556 12.2944294,4.8491554 C11.8234187,4.31020166 11.8782017,3.49141637 12.4172574,3.02040569 C12.9563132,2.54939502 13.7747924,2.60417794 14.2460071,3.14323369 C14.9574709,3.95712218 16.0219122,4.42415421 17.1665386,4.42415421 C18.3111649,4.42415421 19.3756062,3.95732622 20.08707,3.14343772 C20.5579786,2.60448399 21.376866,2.54939502 21.9158197,3.02060973 C22.4547734,3.4916204 22.5098624,4.31040569 22.0386477,4.84935943 C20.8351578,6.22617556 19.0592527,7.01609015 17.1666406,7.01609015 Z" id="Shape"></path>
            </g>
        </g>
    </g>
</svg>