<?xml version="1.0" encoding="UTF-8"?>
<svg width="100px" height="100px" viewBox="0 0 100 100" version="1.1" xmlns="http://www.w3.org/2000/svg" xmlns:xlink="http://www.w3.org/1999/xlink">
    <!-- Generator: Sketch 51.1 (57501) - http://www.bohemiancoding.com/sketch -->
    <title>049-hanging-pot</title>
    <desc>Created with Sketch.</desc>
    <defs></defs>
    <g id="049-hanging-pot" stroke="none" stroke-width="1" fill="none" fill-rule="evenodd">
        <rect id="Rectangle" x="0" y="0" width="100" height="100"></rect>
        <g transform="translate(13.000000, 4.000000)" fill-rule="nonzero">
            <path d="M59.9457577,41.4698195 C59.1791639,41.4698195 58.5576722,40.8483278 58.5576722,40.081734 C58.5576722,26.6386983 40.99638,9.46266983 36.7430736,5.5007696 C32.4894394,9.46474584 14.927601,26.6486413 14.927601,40.081734 C14.927601,40.8483278 14.3061093,41.4698195 13.5395154,41.4698195 C12.7729216,41.4698195 12.1514299,40.8483278 12.1514299,40.081734 C12.1514299,33.1095107 16.1598765,24.6591686 24.0655392,14.9654062 C29.8719192,7.84578622 35.5846603,2.79004751 35.8252589,2.57818527 C36.3495059,2.11621853 37.136095,2.11621853 37.660342,2.57818527 C37.9007221,2.79004751 43.6139002,7.84589549 49.4200618,14.9655154 C57.3256152,24.6592779 61.334171,33.10962 61.334171,40.0818432 C61.3338432,40.8484371 60.7123515,41.4698195 59.9457577,41.4698195 Z" id="Shape" fill="#3B484A"></path>
            <path d="M36.7428551,58.1131876 L4.11257482,62.1491686 C4.11257482,78.6288599 17.4718052,91.987981 33.9511686,91.987981 L39.5339952,91.987981 C56.0133587,91.987981 69.3728076,78.6288599 69.3728076,62.1491686 L36.7428551,58.1131876 Z" id="Shape" fill="#FF8C4F"></path>
            <path d="M13.3668789,62.1493872 L41.3698432,58.6855107 L36.7426366,58.1132969 L4.11257482,62.1494964 C4.11257482,78.6288599 17.4718052,91.9880903 33.9513872,91.9880903 L39.534323,91.9880903 C40.1511164,91.9880903 40.7625558,91.9672209 41.3699525,91.9302898 C25.7455772,90.9815534 13.3668789,78.0120665 13.3668789,62.1493872 Z" id="Shape" fill="#EE6B28"></path>
            <path d="M63.3253919,48.7462328 C68.3025701,43.2750736 62.4760855,34.8338005 55.5953159,37.5473634 C57.4596817,30.3899382 48.377905,25.6234204 43.5463753,31.2235107 C41.8710356,24.0193207 31.6141283,24.0193207 29.9387886,31.2235107 C25.1074774,25.6232019 16.0253729,30.3897197 17.889848,37.5473634 C11.0092969,34.8339097 5.18270309,43.2748551 10.1599905,48.7462328 C6.80548694,49.1087696 4.7247791,51.4250499 4.11268409,54.0772067 L36.7427458,58.1131876 L69.3729169,54.0772067 C68.7607126,51.4250499 66.6798955,49.1088789 63.3253919,48.7462328 Z" id="Shape" fill="#2FC8B4"></path>
            <path d="M69.3728076,54.0772067 L4.11257482,54.0772067 C1.88370546,54.0772067 0.0765938242,55.8843183 0.0765938242,58.1131876 C0.0765938242,60.342057 1.88370546,62.1491686 4.11257482,62.1491686 L69.3728076,62.1491686 C71.601677,62.1491686 73.4087886,60.342057 73.4087886,58.1131876 C73.4087886,55.8843183 71.6020048,54.0772067 69.3728076,54.0772067 Z" id="Shape" fill="#FAA330"></path>
            <path d="M9.33089786,58.1131876 C9.33089786,55.8843183 11.1380095,54.0772067 13.3668789,54.0772067 L4.11257482,54.0772067 C1.88370546,54.0772067 0.0765938242,55.8843183 0.0765938242,58.1131876 C0.0765938242,60.342057 1.88370546,62.1493872 4.11257482,62.1493872 L13.3668789,62.1493872 C11.137791,62.1493872 9.33089786,60.3422755 9.33089786,58.1131876 Z" id="Shape" fill="#F09318"></path>
            <g id="Group" transform="translate(19.776722, 68.617577)" fill="#3B484A">
                <path d="M1.41725891,5.68171021 C0.650665083,5.68171021 0.0291733967,5.06021853 0.0291733967,4.2936247 L0.0291733967,1.47953919 C0.0291733967,0.712945368 0.650665083,0.0914536817 1.41725891,0.0914536817 C2.18385273,0.0914536817 2.80534442,0.712945368 2.80534442,1.47953919 L2.80534442,4.2936247 C2.80534442,5.06010926 2.18385273,5.68171021 1.41725891,5.68171021 Z" id="Shape"></path>
                <path d="M32.5145701,5.68171021 C31.7479762,5.68171021 31.1264846,5.06021853 31.1264846,4.2936247 L31.1264846,1.47953919 C31.1264846,0.712945368 31.7479762,0.0914536817 32.5145701,0.0914536817 C33.2811639,0.0914536817 33.9026556,0.712945368 33.9026556,1.47953919 L33.9026556,4.2936247 C33.9026556,5.06010926 33.2813824,5.68171021 32.5145701,5.68171021 Z" id="Shape"></path>
                <path d="M16.966133,7.18397625 C15.0699715,7.18397625 13.2901758,6.39214252 12.0833587,5.01148694 C11.5788884,4.43424703 11.6375629,3.55729691 12.2149121,3.0528266 C12.792152,2.54835629 13.6691021,2.60703088 14.1735724,3.18438005 C14.8530831,3.96179097 15.8710926,4.40769596 16.9659145,4.40769596 C18.0609549,4.40769596 19.0789644,3.96179097 19.7582565,3.18448931 C20.2629454,2.60724941 21.1398955,2.54846556 21.7169169,3.05293587 C22.2941568,3.55740618 22.3531591,4.43435629 21.8484703,5.0115962 C20.6418717,6.39192399 18.8622945,7.18397625 16.966133,7.18397625 Z" id="Shape"></path>
            </g>
            <circle id="Oval" fill="#FF8C4F" cx="36.7428551" cy="3.61968646" r="3.61968646"></circle>
            <path d="M38.5935629,5.38888361 C36.5944751,5.38888361 34.9738765,3.76828504 34.9738765,1.76919715 C34.9738765,1.2492114 35.0854347,0.756104513 35.2827648,0.309216152 C34.0114822,0.870831354 33.1230594,2.14091211 33.1230594,3.62001425 C33.1230594,5.61910214 34.743658,7.23970071 36.7427458,7.23970071 C38.2219572,7.23970071 39.4919287,6.35127791 40.0535439,5.07999525 C39.6064371,5.27732542 39.1134394,5.38888361 38.5935629,5.38888361 Z" id="Shape" fill="#EE6B28"></path>
        </g>
    </g>
</svg>