<?xml version="1.0" encoding="UTF-8"?>
<svg width="100px" height="100px" viewBox="0 0 100 100" version="1.1" xmlns="http://www.w3.org/2000/svg" xmlns:xlink="http://www.w3.org/1999/xlink">
    <!-- Generator: Sketch 51.1 (57501) - http://www.bohemiancoding.com/sketch -->
    <title>050-birdhouse</title>
    <desc>Created with Sketch.</desc>
    <defs></defs>
    <g id="050-birdhouse" stroke="none" stroke-width="1" fill="none" fill-rule="evenodd">
        <rect id="Rectangle" x="0" y="0" width="100" height="100"></rect>
        <g transform="translate(18.000000, 3.000000)" fill-rule="nonzero">
            <polygon id="Shape" fill="#FFCE1C" points="31.6245249 36.3267577 5.79953207 50.789361 5.79953207 57.0059762 10.5024347 77.44919 31.6245249 81.1256841 52.7466152 77.44919 57.4492945 57.0059762 57.4492945 50.4407126"></polygon>
            <path d="M47.808266,19.6582803 C57.4495178,16.2457007 55.468038,34.8377173 42.8579715,34.2612138 L47.808266,19.6582803 Z" id="Shape" fill="#00AD94"></path>
            <circle id="Oval" fill="#3B484A" cx="31.6245249" cy="55.7874371" r="6.98536105"></circle>
            <circle id="Oval" fill="#FAA330" cx="31.6245249" cy="70.1484489" r="2.90919952"></circle>
            <rect id="Rectangle-path" fill="#FFCE1C" x="27.6871306" y="81.1262423" width="7.87344893" height="12.8614774"></rect>
            <path d="M47.8356176,17.6484442 C47.9934751,24.3559359 45.6474941,31.4877672 41.3298575,36.1100665 L21.9191924,36.1100665 C17.6016675,31.4877672 15.2555748,24.3560475 15.4134323,17.6484442 C15.4134323,17.6484442 47.8356176,17.6484442 47.8356176,17.6484442 Z" id="Shape" fill="#2FC8B4"></path>
            <path d="M47.8356176,17.6484442 C43.4042209,20.7911924 37.7650024,22.6708575 31.6245249,22.6708575 C25.4840475,22.6708575 19.844829,20.7910808 15.4134323,17.6484442 C15.6262162,8.42405226 20.5718219,0 31.6245249,0 C42.677228,0 47.6226105,8.42405226 47.8356176,17.6484442 Z" id="Shape" fill="#FFCE1C"></path>
            <path d="M19.952114,17.6484442 L15.4135439,17.6484442 C15.4086318,17.8578789 15.4061758,18.068095 15.4060641,18.2786461 C15.4058409,18.6994133 15.4156651,19.1211853 15.4347553,19.543962 C15.4364299,19.582924 15.4398907,19.6219976 15.441677,19.6610713 L15.4408955,19.6587268 C5.79964371,16.2463705 7.78112352,34.8381639 20.39119,34.2616603 L20.3837102,34.2394442 C20.4786033,34.3692803 20.5709287,34.5017957 20.6683895,34.6288409 C20.7117055,34.6853302 20.7547981,34.7421544 20.7986722,34.7980855 C21.1561401,35.2542423 21.5294608,35.6927601 21.9194157,36.1102898 L26.4579857,36.1102898 C22.1402375,31.4877672 19.7941449,24.3560475 19.952114,17.6484442 Z" id="Shape" fill="#00AD94"></path>
            <path d="M20.0154133,20.2562185 C19.9537886,19.384095 19.9319074,18.5126413 19.952114,17.6484442 C20.1498266,9.08127078 24.4306223,1.20614727 33.892247,0.126710214 C33.7170855,0.10683848 33.5401378,0.0893111639 33.3615154,0.0740166271 C32.7840071,0.0242256532 32.2040428,0 31.6245249,0 C26.4434727,0 22.6044323,1.85097387 19.9658456,4.76765321 C16.8216461,8.24319715 15.5223919,13.0361924 15.4138789,17.6357173 C15.4136556,17.6399596 15.4136556,17.6439786 15.4135439,17.6483325 C16.8313587,18.6539762 18.3733159,19.5294489 20.0154133,20.2562185 Z" id="Shape" fill="#FAA330"></path>
            <g id="Group" transform="translate(22.774347, 9.154394)" fill="#3B484A">
                <path d="M1.45521378,4.18400475 C0.671954869,4.18400475 0.0369524941,3.54900238 0.0369524941,2.76574347 L0.0369524941,1.42730404 C0.0369524941,0.644045131 0.671954869,0.00904275534 1.45521378,0.00904275534 C2.23847268,0.00904275534 2.87347506,0.644045131 2.87347506,1.42730404 L2.87347506,2.76574347 C2.87347506,3.5487791 2.23858432,4.18400475 1.45521378,4.18400475 Z" id="Shape"></path>
                <path d="M16.2451425,4.18400475 C15.4618836,4.18400475 14.8268812,3.54900238 14.8268812,2.76574347 L14.8268812,1.42730404 C14.8268812,0.644045131 15.4618836,0.00904275534 16.2451425,0.00904275534 C17.0284014,0.00904275534 17.6634038,0.644045131 17.6634038,1.42730404 L17.6634038,2.76574347 C17.6634038,3.5487791 17.0286247,4.18400475 16.2451425,4.18400475 Z" id="Shape"></path>
            </g>
            <path d="M28.2022328,13.7290238 C28.0227173,15.1102209 28.4259572,16.6228171 29.7956556,17.822601 C30.8353492,18.7331283 32.4135891,18.7331283 33.4532827,17.822601 C34.8230926,16.6228171 35.2262209,15.1102209 35.0467055,13.7290238 C35.0465938,13.7290238 28.2022328,13.7290238 28.2022328,13.7290238 Z" id="Shape" fill="#F09318"></path>
            <g id="Group" transform="translate(5.693587, 9.824228)" fill="#FAA330">
                <path d="M29.3532304,3.90479572 C28.4118907,4.56268409 27.2234941,4.95409026 25.9309382,4.95409026 C24.6383824,4.95409026 23.4499857,4.56234917 22.5086461,3.90479572 C22.7750166,1.83869359 24.3451069,0.0678764846 25.9309382,0.0678764846 C27.516658,0.0677648456 29.0868599,1.83847031 29.3532304,3.90479572 Z" id="Shape"></path>
                <path d="M0.105945368,40.9649097 L0.105945368,47.1816366 L1.18169834,51.8575226 C1.68027791,51.6930784 2.16099525,51.4723682 2.61157007,51.1909264 L25.9309382,36.6179121 L49.2503064,51.1909264 C49.7007696,51.4724798 50.1815986,51.69319 50.6801781,51.8575226 L51.7559311,47.1816366 L51.7559311,40.6164846 L25.9309382,26.5025297 L0.105945368,40.9649097 Z" id="Shape"></path>
            </g>
            <path d="M62.3135154,49.22262 L34.0564679,31.5636817 C32.5686556,30.6339525 30.6802827,30.6340641 29.192247,31.5636817 L0.935534442,49.22262 C0.064304038,49.7670831 -0.200615202,50.9147316 0.344071259,51.7858504 L3.23674822,56.4144014 C3.7812114,57.2856318 4.92874822,57.5505511 5.79997862,57.0060879 L31.6249715,40.8672257 L57.4499644,57.0060879 C58.3211948,57.5505511 59.4687316,57.2856318 60.0131948,56.4144014 L62.9058717,51.7858504 C63.4496651,50.9145083 63.1847458,49.7670831 62.3135154,49.22262 Z" id="Shape" fill="#FF5E6B"></path>
            <rect id="Rectangle-path" fill="#FAA330" x="27.6871306" y="81.1262423" width="7.87344893" height="8.40395724"></rect>
            <path d="M54.0722162,77.44919 L9.17672209,77.44919 C8.04849881,77.44919 7.13395249,78.3637363 7.13395249,79.4919596 L7.13395249,82.7598551 C7.13395249,83.8880784 8.04849881,84.8026247 9.17672209,84.8026247 L54.0719929,84.8026247 C55.2002162,84.8026247 56.1147625,83.8880784 56.1147625,82.7598551 L56.1147625,79.4919596 C56.1147625,78.3635131 55.2002162,77.44919 54.0722162,77.44919 Z" id="Shape" fill="#FF5E6B"></path>
        </g>
    </g>
</svg>